<svg width="24" height="24" viewBox="0 0 24 24" xmlns="http://www.w3.org/2000/svg">
    <path fill-rule="evenodd" clip-rule="evenodd" d="M9.5 6C10.7095 6 11.7184 6.85888 11.95 8H19.5C19.7761 8 20 8.22386 20 8.5C20 8.77614 19.7761 9 19.5 9H11.95C11.7184 10.1411 10.7095 11 9.5 11C8.29052 11 7.28164 10.1411 7.05001 9H4.5C4.22386 9 4 8.77614 4 8.5C4 8.22386 4.22386 8 4.5 8H7.05001C7.28164 6.85888 8.29052 6 9.5 6ZM9.5 10C8.67157 10 8 9.32843 8 8.5C8 7.67157 8.67157 7 9.5 7C10.3284 7 11 7.67157 11 8.5C11 9.32843 10.3284 10 9.5 10Z"/>
    <path fill-rule="evenodd" clip-rule="evenodd" d="M12.05 17C12.2816 18.1411 13.2905 19 14.5 19C15.7095 19 16.7184 18.1411 16.95 17H19.5C19.7761 17 20 16.7761 20 16.5C20 16.2239 19.7761 16 19.5 16H16.95C16.7184 14.8589 15.7095 14 14.5 14C13.2905 14 12.2816 14.8589 12.05 16L4.5 16C4.22386 16 4 16.2239 4 16.5C4 16.7761 4.22386 17 4.5 17L12.05 17ZM14.5 15C15.3284 15 16 15.6716 16 16.5C16 17.3284 15.3284 18 14.5 18C13.6716 18 13 17.3284 13 16.5C13 15.6716 13.6716 15 14.5 15Z"/>
</svg>
