<svg width="24" height="24" viewBox="0 0 24 24" xmlns="http://www.w3.org/2000/svg">
    <path fill-rule="evenodd" clip-rule="evenodd" d="M4.5 12C4.5 7.85786 7.85786 4.5 12 4.5C16.14 4.50504 19.495 7.85995 19.5 12C19.5 16.1421 16.1421 19.5 12 19.5C7.85786 19.5 4.5 16.1421 4.5 12ZM15.8536 10.3536C16.0488 10.1583 16.0488 9.84171 15.8536 9.64645C15.6583 9.45118 15.3417 9.45118 15.1464 9.64645L11 13.7929L9.35355 12.1464C9.15829 11.9512 8.84171 11.9512 8.64645 12.1464C8.45118 12.3417 8.45118 12.6583 8.64645 12.8536L10.6464 14.8536C10.8417 15.0488 11.1583 15.0488 11.3536 14.8536L15.8536 10.3536Z"/>
</svg>
