<svg width="24" height="24" viewBox="0 0 24 24" xmlns="http://www.w3.org/2000/svg">
  <path d="M3.5 7.5a2 2 0 012-2h13a2 2 0 110 4h-13a2 2 0 01-2-2zm2-1a1 1 0 000 2h13a1 1 0 100-2h-13z"/>
  <path d="M8.5 4A1.5 1.5 0 0110 2.5h4A1.5 1.5 0 0115.5 4v2.5h-7V4zm1.5-.5a.5.5 0 00-.5.5v1.5h5V4a.5.5 0 00-.5-.5h-4zm-4.5 5h13V19a2.5 2.5 0 01-2.5 2.5H8A2.5 2.5 0 015.5 19V8.5zm1 1V19A1.5 1.5 0 008 20.5h8a1.5 1.5 0 001.5-1.5V9.5h-11z"/>
  <path d="M10 11.5a.5.5 0 01.5.5v6a.5.5 0 01-1 0v-6a.5.5 0 01.5-.5zm4 0a.5.5 0 01.5.5v6a.5.5 0 01-1 0v-6a.5.5 0 01.5-.5z"/>
</svg>
