<svg width="24" height="24" viewBox="0 0 24 24" xmlns="http://www.w3.org/2000/svg">
  <path fill-rule="evenodd" clip-rule="evenodd" d="M5.5 4.00016C5.5 3.72393 5.27614 3.5 5 3.5C4.72386 3.5 4.5 3.72393 4.5 4.00016V19.9998C4.5 20.2761 4.72386 20.5 5 20.5C5.27614 20.5 5.5 20.2761 5.5 19.9998V13.8283C5.5313 13.8105 5.56545 13.7914 5.60229 13.7711C5.82038 13.6507 6.13045 13.4899 6.49609 13.3292C7.23919 13.0027 8.16209 12.6991 8.9951 12.6978C10.1965 12.698 11.2327 13.3147 12.359 14.0291L12.5142 14.1277C13.545 14.7836 14.6957 15.5158 16 15.5158H16.0137L16.0274 15.515C17.7298 15.4216 18.7851 14.4152 19.1982 13.9323C19.4176 13.6756 19.5 13.3614 19.5 13.0751V8.58021C19.5 7.94251 19.1173 7.45646 18.642 7.20555C18.1716 6.95718 17.5653 6.91109 17.032 7.17524C16.6092 7.38468 16.2471 7.50097 16 7.50097C14.8848 7.50097 13.881 6.85512 12.7349 6.08701L12.642 6.02474C11.5823 5.31373 10.3751 4.50378 8.99472 4.50378C8.06447 4.50378 6.97773 4.92915 6.17532 5.31163C5.92733 5.42984 5.69862 5.54788 5.5 5.65515V4.00016ZM5.5 6.80355V12.694C5.6754 12.6053 5.87542 12.5094 6.09389 12.4134C6.8798 12.068 7.9541 11.699 8.994 11.6975C10.5272 11.6975 11.7994 12.4897 12.8945 13.1842L12.9373 13.2114C14.0639 13.926 14.9848 14.5102 15.9864 14.5154C17.2914 14.4387 18.1101 13.6657 18.4382 13.282C18.471 13.2437 18.5 13.1769 18.5 13.0751V8.58021C18.5 8.37944 18.3852 8.20108 18.1753 8.09021C17.9604 7.9768 17.6937 7.96374 17.4758 8.07167C17.024 8.29543 16.4885 8.50129 16 8.50129C14.5405 8.50129 13.29 7.66314 12.2065 6.93693L12.1783 6.91806C11.0241 6.14455 10.0525 5.5041 8.99472 5.5041C8.30643 5.5041 7.39582 5.83794 6.6055 6.21466C6.22155 6.39768 5.88545 6.58116 5.64537 6.71893C5.59185 6.74965 5.54322 6.77802 5.5 6.80355Z"/>
</svg>
