<svg width="32" height="32" viewBox="0 0 32 32" xmlns="http://www.w3.org/2000/svg">
<path d="M9.71157 8.75C9.49665 8.75 9.28993 8.77977 9.0947 8.83495C8.6961 8.94762 8.28164 8.71583 8.16897 8.31724C8.0563 7.91864 8.28809 7.50418 8.68669 7.39151C9.01337 7.29917 9.35735 7.25 9.71157 7.25C10.0658 7.25 10.4098 7.29917 10.7365 7.39151C11.1351 7.50418 11.3668 7.91864 11.2542 8.31724C11.1415 8.71583 10.727 8.94762 10.3284 8.83495C10.1332 8.77977 9.92649 8.75 9.71157 8.75Z"/>
<path d="M7.01722 9.46899C7.41581 9.58166 7.6476 9.99612 7.53494 10.3947C7.47975 10.5899 7.44998 10.7967 7.44998 11.0116C7.44998 11.2265 7.47975 11.4332 7.53494 11.6285C7.6476 12.0271 7.41581 12.4415 7.01722 12.5542C6.61862 12.6669 6.20416 12.4351 6.09149 12.0365C5.99915 11.7098 5.94998 11.3658 5.94998 11.0116C5.94998 10.6574 5.99915 10.3134 6.09149 9.98671C6.20416 9.58811 6.61862 9.35632 7.01722 9.46899Z"/>
<path d="M12.4059 9.46899C12.8045 9.35632 13.219 9.58811 13.3317 9.98671C13.424 10.3134 13.4732 10.6574 13.4732 11.0116C13.4732 11.3658 13.424 11.7098 13.3317 12.0365C13.219 12.4351 12.8045 12.6669 12.4059 12.5542C12.0073 12.4415 11.7755 12.0271 11.8882 11.6285C11.9434 11.4332 11.9732 11.2265 11.9732 11.0116C11.9732 10.7967 11.9434 10.5899 11.8882 10.3947C11.7755 9.99612 12.0073 9.58166 12.4059 9.46899Z"/>
<path d="M8.16897 13.7059C8.28164 13.3073 8.6961 13.0756 9.0947 13.1882C9.28993 13.2434 9.49665 13.2732 9.71157 13.2732C9.92649 13.2732 10.1332 13.2434 10.3284 13.1882C10.727 13.0756 11.1415 13.3073 11.2542 13.7059C11.3668 14.1045 11.1351 14.519 10.7365 14.6317C10.4098 14.724 10.0658 14.7732 9.71157 14.7732C9.35735 14.7732 9.01337 14.724 8.68669 14.6317C8.28809 14.519 8.0563 14.1045 8.16897 13.7059Z"/>
<path d="M9.72316 17.7191C9.48282 17.7191 9.24662 17.7351 9.01549 17.7661C8.60495 17.8211 8.22755 17.5329 8.17256 17.1223C8.11757 16.7118 8.40581 16.3344 8.81636 16.2794C9.11332 16.2396 9.41604 16.2191 9.72316 16.2191C10.0303 16.2191 10.333 16.2396 10.63 16.2794C11.0405 16.3344 11.3287 16.7118 11.2738 17.1223C11.2188 17.5329 10.8414 17.8211 10.4308 17.7661C10.1997 17.7351 9.9635 17.7191 9.72316 17.7191Z"/>
<path d="M6.66908 17.7459C6.92034 18.0752 6.85708 18.5459 6.52778 18.7971C6.15158 19.0842 5.81506 19.4207 5.52801 19.7969C5.27675 20.1262 4.80611 20.1895 4.4768 19.9382C4.1475 19.687 4.08424 19.2163 4.3355 18.887C4.70372 18.4044 5.13529 17.9729 5.61787 17.6046C5.94718 17.3534 6.41782 17.4166 6.66908 17.7459Z"/>
<path d="M12.7772 17.7459C13.0285 17.4166 13.4991 17.3534 13.8284 17.6046C14.311 17.9729 14.7426 18.4044 15.1108 18.887C15.3621 19.2163 15.2988 19.687 14.9695 19.9382C14.6402 20.1895 14.1696 20.1262 13.9183 19.7969C13.6313 19.4207 13.2947 19.0842 12.9185 18.7971C12.5892 18.5459 12.526 18.0752 12.7772 17.7459Z"/>
<path d="M3.85318 21.4417C4.26372 21.4967 4.55196 21.8741 4.49697 22.2846C4.46688 22.5093 4.45089 22.7387 4.45002 22.9721C4.45571 22.9853 4.46925 23.0114 4.49784 23.0502C4.7437 23.3836 4.67277 23.8531 4.33942 24.099C4.00606 24.3448 3.53652 24.2739 3.29066 23.9405C3.11555 23.7031 2.94998 23.3797 2.94998 22.9923C2.94998 22.6852 2.97047 22.3825 3.01025 22.0855C3.06524 21.6749 3.44263 21.3867 3.85318 21.4417Z"/>
<path d="M15.5931 21.4417C16.0037 21.3867 16.3811 21.6749 16.4361 22.0855C16.4759 22.3825 16.4963 22.6852 16.4963 22.9923C16.4963 23.3798 16.3308 23.7033 16.1555 23.9409C15.9096 24.2742 15.4401 24.3451 15.1068 24.0992C14.7734 23.8534 14.7025 23.3838 14.9484 23.0505C14.9771 23.0116 14.9906 22.9854 14.9963 22.9722C14.9954 22.7388 14.9794 22.5093 14.9494 22.2846C14.8944 21.8741 15.1826 21.4967 15.5931 21.4417Z"/>
<path d="M4.93024 24.3752C5.1121 24.003 5.56121 23.8488 5.93337 24.0306C6.12297 24.1233 6.28692 24.1959 6.39694 24.2429L6.40098 24.2444L6.41327 24.2488L6.4302 24.2497C6.43381 24.2499 6.43772 24.25 6.44191 24.25H7.00318C7.41739 24.25 7.75318 24.5858 7.75318 25C7.75318 25.4142 7.41739 25.75 7.00318 25.75H6.44191C6.4063 25.75 6.37049 25.7489 6.33453 25.7466C6.26191 25.742 6.19237 25.7271 6.12721 25.7036C6.05672 25.7007 5.98547 25.6877 5.91532 25.6636C5.87935 25.6513 5.84358 25.6376 5.80812 25.6225C5.67987 25.5678 5.49201 25.4845 5.27481 25.3783C4.90265 25.1965 4.74838 24.7474 4.93024 24.3752Z"/>
<path d="M14.5146 24.3759C14.6963 24.7482 14.5418 25.1972 14.1695 25.3789C13.9521 25.485 13.764 25.5682 13.6357 25.6229C13.6003 25.638 13.5646 25.6516 13.5287 25.6639C13.4586 25.6879 13.3875 25.7008 13.3171 25.7038C13.252 25.7272 13.1826 25.742 13.1101 25.7466C13.0742 25.7489 13.0384 25.75 13.0029 25.75H12.4419C12.0277 25.75 11.6919 25.4142 11.6919 25C11.6919 24.5858 12.0277 24.25 12.4419 24.25H13.0029C13.0071 24.25 13.011 24.2499 13.0146 24.2497L13.0315 24.2488L13.0437 24.2445L13.0477 24.2429C13.1578 24.1961 13.3219 24.1234 13.5117 24.0308C13.884 23.8492 14.333 24.0037 14.5146 24.3759Z"/>
<path d="M8.4119 25C8.4119 24.5858 8.74768 24.25 9.1619 24.25H10.2842C10.6984 24.25 11.0342 24.5858 11.0342 25C11.0342 25.4142 10.6984 25.75 10.2842 25.75H9.1619C8.74768 25.75 8.4119 25.4142 8.4119 25Z"/>
<path d="M27.2303 9.66968C27.5232 9.96258 27.5232 10.4374 27.2303 10.7303L23.7607 14.2L27.2303 17.6697C27.5232 17.9626 27.5232 18.4374 27.2303 18.7303C26.9375 19.0232 26.4626 19.0232 26.1697 18.7303L22.7 15.2607L19.2303 18.7303C18.9374 19.0232 18.4626 19.0232 18.1697 18.7303C17.8768 18.4374 17.8768 17.9626 18.1697 17.6697L21.6394 14.2L18.1697 10.7303C17.8768 10.4374 17.8768 9.96258 18.1697 9.66968C18.4626 9.37679 18.9374 9.37679 19.2303 9.66968L22.7 13.1394L26.1697 9.66968C26.4626 9.37679 26.9375 9.37679 27.2303 9.66968Z"/>
</svg>
