<svg width="24" height="24" viewBox="0 0 24 24" xmlns="http://www.w3.org/2000/svg">
  <path d="M12 9.5a2.5 2.5 0 100 5 2.5 2.5 0 000-5zM10.5 12a1.5 1.5 0 113 0 1.5 1.5 0 01-3 0z"/>
  <path d="M11.3 4.5a1.2 1.2 0 00-1.198 1.131l-.152.616-.568.235-.543-.328a1.2 1.2 0 00-1.647.048l-.99.99a1.2 1.2 0 00-.048 1.647l.328.543-.235.568-.616.152A1.2 1.2 0 004.5 11.3v1.4c0 .64.5 1.162 1.131 1.198l.616.152.235.568-.328.543a1.2 1.2 0 00.048 1.647l.99.99a1.2 1.2 0 001.647.048l.543-.328.568.235.152.616A1.2 1.2 0 0011.3 19.5h1.4a1.2 1.2 0 001.198-1.131l.152-.616.568-.235.543.328a1.2 1.2 0 001.647-.048l.99-.99a1.2 1.2 0 00.048-1.647l-.328-.543.235-.568.616-.152A1.2 1.2 0 0019.5 12.7v-1.4a1.2 1.2 0 00-1.131-1.198l-.616-.152-.235-.568.328-.543a1.2 1.2 0 00-.048-1.647l-.99-.99a1.2 1.2 0 00-1.647-.048l-.543.328-.568-.235-.152-.616A1.2 1.2 0 0012.7 4.5h-1.4zm-.2 1.2c0-.11.09-.2.2-.2h1.4c.11 0 .2.09.2.2 0 .04.005.08.015.12l.225.912a.5.5 0 00.294.342l1.035.429a.5.5 0 00.45-.034l.804-.486a.498.498 0 00.095-.074.2.2 0 01.283 0l.99.99a.2.2 0 010 .283.497.497 0 00-.074.095l-.486.804a.5.5 0 00-.034.45l.43 1.035a.5.5 0 00.34.294l.913.225c.04.01.08.015.12.015.11 0 .2.09.2.2v1.4a.2.2 0 01-.2.2c-.04 0-.08.005-.12.015l-.912.225a.5.5 0 00-.342.294l-.428 1.035a.5.5 0 00.033.45l.486.804c.02.035.046.067.074.095a.2.2 0 010 .283l-.99.99a.2.2 0 01-.283 0 .495.495 0 00-.095-.074l-.804-.486a.5.5 0 00-.45-.034l-1.035.43a.5.5 0 00-.294.34l-.225.913a.501.501 0 00-.015.12.2.2 0 01-.2.2h-1.4a.2.2 0 01-.2-.2c0-.04-.005-.08-.015-.12l-.225-.912a.5.5 0 00-.294-.342l-1.035-.428a.5.5 0 00-.45.033l-.804.486a.497.497 0 00-.095.074.2.2 0 01-.283 0l-.99-.99a.2.2 0 010-.283.498.498 0 00.074-.095l.486-.804a.5.5 0 00.034-.45l-.43-1.035a.5.5 0 00-.34-.294l-.913-.225a.501.501 0 00-.12-.015.2.2 0 01-.2-.2v-1.4c0-.11.09-.2.2-.2.04 0 .08-.005.12-.015l.912-.225a.5.5 0 00.342-.294l.429-1.035a.5.5 0 00-.034-.45l-.486-.804a.5.5 0 00-.074-.095.2.2 0 010-.283l.99-.99a.2.2 0 01.283 0 .5.5 0 00.095.074l.804.486a.5.5 0 00.45.034l1.035-.43a.5.5 0 00.294-.34l.225-.913c.01-.04.015-.08.015-.12z"/>
</svg>
