<svg xmlns="http://www.w3.org/2000/svg" viewBox="0 0 24 24"><path d="M5 10h2c.55 0 1 .45 1 1v1c0 .55-.45 1-1 1H5c-.55 0-1-.45-1-1v-1c0-.55.45-1 1-1zM5 15h2c.55 0 1 .45 1 1v1c0 .55-.45 1-1 1H5c-.55 0-1-.45-1-1v-1c0-.55.45-1 1-1zM11 10h2c.55 0 1 .45 1 1v1c0 .55-.45 1-1 1h-2c-.55 0-1-.45-1-1v-1c0-.55.45-1 1-1zM11 15h2c.55 0 1 .45 1 1v1c0 .55-.45 1-1 1h-2c-.55 0-1-.45-1-1v-1c0-.55.45-1 1-1zM17 10h2c.55 0 1 .45 1 1v1c0 .55-.45 1-1 1h-2c-.55 0-1-.45-1-1v-1c0-.55.45-1 1-1zM17 15h2c.55 0 1 .45 1 1v1c0 .55-.45 1-1 1h-2c-.55 0-1-.45-1-1v-1c0-.55.45-1 1-1z"/><path d="M20 5c-.55 0-1-.45-1-1s.45-1 1-1h1c1.66 0 3 1.34 3 3v14c0 1.66-1.34 3-3 3H3c-1.66 0-3-1.34-3-3V6c0-1.66 1.34-3 3-3h1c.55 0 1 .45 1 1s-.45 1-1 1H3c-.55 0-1 .45-1 1v14c0 .55.45 1 1 1h18c.55 0 1-.45 1-1V6c0-.55-.45-1-1-1h-1zM10 5c-.55 0-1-.45-1-1s.45-1 1-1h4c.55 0 1 .45 1 1s-.45 1-1 1h-4z"/><path d="M7 1c.55 0 1 .45 1 1v4c0 .55-.45 1-1 1s-1-.45-1-1V2c0-.55.45-1 1-1zM17 1c.55 0 1 .45 1 1v4c0 .55-.45 1-1 1s-1-.45-1-1V2c0-.55.45-1 1-1z"/></svg>
