<svg xmlns="http://www.w3.org/2000/svg" viewBox="0 0 40 40">
  <circle cx="18" cy="22.5" r="1"/>
  <circle cx="18" cy="26.5" r="1"/>
  <circle cx="22" cy="22.5" r="1"/>
  <circle cx="18" cy="18.5" r="1"/>
  <circle cx="22" cy="26.5" r="1"/>
  <circle cx="14" cy="18.5" r="1"/>
  <circle cx="22" cy="18.5" r="1"/>
  <circle cx="26" cy="18.5" r="1"/>
  <circle cx="14" cy="22.5" r="1"/>
  <circle cx="26" cy="22.5" r="1"/>
  <circle cx="14" cy="26.5" r="1"/>
  <path d="M15 12.024V15a1 1 0 102 0v-2h5a1 1 0 100-2h-5V9a1 1 0 10-2 0v2.976c0 .008-.005.015-.005.024s.005.016.005.024z"/>
  <path d="M25 30H12c-1.103 0-2-.897-2-2V15c0-1.103.897-2 2-2a1 1 0 000-2c-2.206 0-4 1.794-4 4v13c0 2.206 1.794 4 4 4h13a1 1 0 100-2zm5-15v7a1 1 0 102 0v-7c0-2.206-1.794-4-4-4h-1V9a1 1 0 10-2 0v6a1 1 0 102 0v-2h1c1.103 0 2 .897 2 2zm9.887 13.538A.998.998 0 0039 28h-2.867l.86-6.876a1 1 0 00-1.812-.697l-7 10A.998.998 0 0029 32h2.867l-.86 6.876a1 1 0 001.812.697l7-10a.998.998 0 00.068-1.035zm-6.395 6.586l.5-4A1.001 1.001 0 0033 30h-2.08l3.588-5.124-.5 4A1.001 1.001 0 0035 30h2.08l-3.588 5.124z"/>
</svg>
