<svg width="11" height="7" xmlns="http://www.w3.org/2000/svg"><g id="Page-1" fill="none" fill-rule="evenodd"><path d="M10.8862 1.1622L5.755 6.2933c-.0848.0847-.1705.1136-.2552.1136-.0847 0-.1704-.0279-.2552-.1136L.1137 1.1622C.0288 1.0775 0 .9918 0 .907 0 .8223.028.7366.1136.652L.652.1136C.7366.029.8223 0 .907 0c.0848 0 .1705.028.2552.1136L5.5 4.4514 9.8378.1136C9.9225.029 10.0082 0 10.093 0c.0847 0 .1704.028.2551.1136l.5383.5383C10.9432.7366 11 .8223 11 .907c-.0002.0848-.0281.1705-.1138.2552z" id="Fill-1" fill="#A8AFBD"/></g></svg>