<svg width="20" height="20" viewBox="0 0 20 20" xmlns="http://www.w3.org/2000/svg">
    <path fill-rule="evenodd" clip-rule="evenodd" d="M2 4.75C2 3.23122 3.23122 2 4.75 2H8.8127C9.81902 2 10.7451 2.54965 11.227 3.43322L12.0816 5H15.25C16.7688 5 18 6.23122 18 7.75V15.25C18 16.7688 16.7688 18 15.25 18H4.75C3.23122 18 2 16.7688 2 15.25V4.75ZM3.5 6.5V15.25C3.5 15.9404 4.05964 16.5 4.75 16.5H15.25C15.9404 16.5 16.5 15.9404 16.5 15.25V7.75C16.5 7.05964 15.9404 6.5 15.25 6.5H3.5ZM3.5 5V4.75C3.5 4.05964 4.05964 3.5 4.75 3.5H8.8127C9.27018 3.5 9.69109 3.74989 9.91005 4.15138L10.3729 5H3.5Z"/>
</svg>
