<svg width="20" height="20" viewBox="0 0 20 20" xmlns="http://www.w3.org/2000/svg">
    <path fill-rule="evenodd" clip-rule="evenodd" d="M10 3.5C8.55783 3.5 7.75133 3.96804 7.28322 4.44772C6.88985 4.85081 6.68168 5.3913 6.58141 6.07559C6.49394 6.67246 6.49642 7.30603 6.49907 7.98462C6.49909 7.98974 6.49911 7.99487 6.49913 8H13.5009C13.5009 7.99491 13.5009 7.98982 13.5009 7.98473C13.5036 7.3061 13.5061 6.6725 13.4186 6.0756C13.3183 5.39131 13.1101 4.85082 12.7167 4.44772L12.7167 4.4477C12.2487 3.96804 11.4422 3.5 10 3.5ZM15.0011 8H15.25C16.2165 8 17 8.78349 17 9.75V15.25C17 16.7688 15.7688 18 14.25 18H5.75C4.23122 18 3 16.7688 3 15.25V9.75C3 8.78348 3.78352 8 4.75 8H4.99887C4.99564 7.33021 4.99261 6.57227 5.09726 5.8581C5.22262 5.00264 5.51268 4.11434 6.20969 3.40009L6.2097 3.40008C6.98525 2.60536 8.19117 2 10 2C11.8088 2 13.0147 2.60535 13.7903 3.40008C14.4873 4.11433 14.7774 5.00263 14.9027 5.85809C15.0074 6.57227 15.0044 7.3302 15.0011 8ZM4.75 9.5C4.61192 9.5 4.5 9.61192 4.5 9.75V15.25C4.5 15.9404 5.05964 16.5 5.75 16.5H14.25C14.9404 16.5 15.5 15.9404 15.5 15.25V9.75C15.5 9.61191 15.3881 9.5 15.25 9.5H4.75Z"/>
</svg>
