<svg width="24" height="24" viewBox="0 0 24 24" xmlns="http://www.w3.org/2000/svg">
    <path fill-rule="evenodd" clip-rule="evenodd" d="M6.75 5.5C6.05964 5.5 5.5 6.05964 5.5 6.75V15.25C5.5 15.9404 6.05964 16.5 6.75 16.5H9.375C9.53922 16.5 9.6989 16.5539 9.82953 16.6534L12 18.3071L14.1705 16.6534C14.3011 16.5539 14.4608 16.5 14.625 16.5H17.25C17.9404 16.5 18.5 15.9404 18.5 15.25V6.75C18.5 6.05964 17.9404 5.5 17.25 5.5H6.75ZM4 6.75C4 5.23122 5.23122 4 6.75 4H17.25C18.7688 4 20 5.23122 20 6.75V15.25C20 16.7688 18.7688 18 17.25 18H14.8782L12.4545 19.8466C12.186 20.0511 11.814 20.0511 11.5455 19.8466L9.12184 18H6.75C5.23122 18 4 16.7688 4 15.25V6.75ZM12 8C12.4142 8 12.75 8.33579 12.75 8.75V10.25H14.25C14.6642 10.25 15 10.5858 15 11C15 11.4142 14.6642 11.75 14.25 11.75H12.75V13.25C12.75 13.6642 12.4142 14 12 14C11.5858 14 11.25 13.6642 11.25 13.25V11.75H9.75C9.33579 11.75 9 11.4142 9 11C9 10.5858 9.33579 10.25 9.75 10.25H11.25V8.75C11.25 8.33579 11.5858 8 12 8Z"/>
</svg>
