<svg width="24" height="24" viewBox="0 0 24 24" xmlns="http://www.w3.org/2000/svg">
    <path fill-rule="evenodd" clip-rule="evenodd" d="M12.01 9C12.56 9 13.01 9.45 13.01 10V11C13.01 11.55 12.56 12 12.01 12C11.46 12 11.01 11.55 11.01 11V10C11.01 9.44 11.46 9 12.01 9Z"/>
    <path d="M12.01 15C12.56 15 13.01 14.55 13.01 14C13.01 13.45 12.56 13 12.01 13C11.46 13 11.01 13.45 11.01 14C11.01 14.55 11.46 15 12.01 15Z"/>
    <path d="M15.27 18H8.75001C7.79001 18 6.91001 17.51 6.41001 16.69C5.91001 15.87 5.86001 14.87 6.29001 14.01L9.55001 7.51C10.03 6.58 10.97 6 12.02 6C13.07 6 14.01 6.58 14.48 7.52L17.72 14C17.9193 14.3985 18.0026 14.8271 18 15.2539C17.997 15.7481 17.8737 16.24 17.6 16.68C17.09 17.5 16.23 18 15.27 18ZM7.64001 14.69C7.44001 15.09 7.46001 15.53 7.69001 15.91C7.92001 16.29 8.31001 16.5 8.75001 16.5H15.27C15.71 16.5 16.1 16.28 16.33 15.91C16.56 15.54 16.58 15.09 16.38 14.69L13.12 8.19C12.92 7.76 12.5 7.5 12.02 7.5C11.54 7.5 11.12 7.76 10.9 8.19L7.64001 14.69Z"/>
</svg>
