<svg xmlns="http://www.w3.org/2000/svg" viewBox="0 0 24 24" width="24" height="24"><path d="M14 4.46c.55 0 1 .45 1 1 0 .51-.39.94-.88.99l-.12.01H7.71c-.37 0-.66.25-.71.56V10l1.51 1.46c.4.38.41 1.02.02 1.41-.35.37-.92.4-1.32.11l-.1-.08-1.56-1.51c-.32-.3-.51-.71-.55-1.14V7.11C5 5.7 6.13 4.55 7.54 4.47l.17-.01H14zm3 3.95l-6.14 6.14v3.76l2.29-1.76v-2.83L17 10V8.41zm2.29-5.12A.996.996 0 1 1 20.7 4.7L19 6.42v3.66c0 .44-.16.86-.44 1.19l-.11.12-3.3 3.19v2.07c0 .51-.21.99-.58 1.33l-.13.11-2.57 1.99c-.79.61-1.95.49-2.59-.28-.24-.28-.38-.63-.41-1l-.01-.16v-2.08l-2.15 2.15c-.36.36-.93.39-1.32.08l-.09-.08a.996.996 0 0 1 0-1.41L19.29 3.29z"/></svg>
