<svg width="20" height="20" viewBox="0 0 20 20" xmlns="http://www.w3.org/2000/svg">
    <path fill-rule="evenodd" clip-rule="evenodd" d="M2.75 2C3.16421 2 3.5 2.33579 3.5 2.75L3.5 5.33445C3.74999 4.98699 4.03108 4.65526 4.34317 4.34317C7.46736 1.21897 12.5327 1.21897 15.6568 4.34317C18.7811 7.46736 18.7811 12.5327 15.6568 15.6568C12.5327 18.781 7.46736 18.7811 4.34317 15.6568C4.05027 15.364 4.05028 14.8891 4.34317 14.5962C4.63606 14.3033 5.11094 14.3033 5.40383 14.5962C7.94224 17.1346 12.0578 17.1346 14.5962 14.5962L15.1265 15.1265L14.5962 14.5962C17.1346 12.0578 17.1346 7.94224 14.5962 5.40383C12.0578 2.86542 7.94224 2.86542 5.40383 5.40383C5.06375 5.74391 4.76956 6.11178 4.52097 6.5L7.25 6.5C7.66421 6.5 8 6.83579 8 7.25C8 7.66421 7.66421 8 7.25 8L3.75 8C2.78349 8 2 7.21651 2 6.25L2 2.75C2 2.33579 2.33579 2 2.75 2Z"/>
</svg>
