<svg xmlns="http://www.w3.org/2000/svg" viewBox="0 0 32 32" width="32" height="32">
    <g>
        <path d="M26,9.94a1.31,1.31,0,0,0-.06-.27.32.32,0,0,0,0-.09,1.07,1.07,0,0,0-.19-.28h0l-6-6h0a1.07,1.07,0,0,0-.28-.19l-.09,0L19.06,3H9A3,3,0,0,0,6,6V26a3,3,0,0,0,3,3H23a3,3,0,0,0,3-3V10S26,10,26,9.94ZM23,27H9a1,1,0,0,1-1-1V6A1,1,0,0,1,9,5h9V8a3,3,0,0,0,3,3h3V26A1,1,0,0,1,23,27Z"/>
        <path d="M20.73,13l-7,2A1,1,0,0,0,13,16v5a2.74,2.74,0,0,0-.5,0A2.3,2.3,0,0,0,10,23a2.3,2.3,0,0,0,2.5,2A2.3,2.3,0,0,0,15,23V16.75l5-1.42V20a2.74,2.74,0,0,0-.5,0A2.3,2.3,0,0,0,17,22a2.3,2.3,0,0,0,2.5,2A2.3,2.3,0,0,0,22,22V14a1,1,0,0,0-.4-.8A1,1,0,0,0,20.73,13Z"/>
    </g>
</svg>
