<svg width="24" height="24" viewBox="0 0 24 24" xmlns="http://www.w3.org/2000/svg">
    <path fill-rule="evenodd" clip-rule="evenodd" d="M16.5605 4.01799C16.7605 4.06258 16.9334 4.18701 17.0393 4.36239L19.8921 9.08789C20.0005 9.2675 20.0288 9.48431 19.97 9.68569C19.9112 9.88708 19.7708 10.0546 19.5827 10.1477L12.046 13.8777L14.9013 18.8781C15.1067 19.2378 14.9817 19.6959 14.622 19.9013C14.2623 20.1067 13.8042 19.9816 13.5988 19.6219L11.0001 15.071L8.40135 19.6219C8.19595 19.9816 7.73785 20.1067 7.37815 19.9013C7.01845 19.6959 6.89336 19.2378 7.09876 18.8781L9.54924 14.5867C9.10283 14.4522 8.7109 14.1407 8.48692 13.6904L8.33275 13.3804L5.07153 14.9276C4.6973 15.1052 4.24999 14.9457 4.07245 14.5715C3.8949 14.1972 4.05434 13.7499 4.42858 13.5724L7.66469 12.0371L7.47047 11.6466C7.07837 10.8581 7.33314 9.90097 8.0656 9.41195L15.9807 4.12629C16.1511 4.01253 16.3606 3.9734 16.5605 4.01799ZM10.1647 13.1351L18.1865 9.16503L16.1609 5.80969L8.89855 10.6594C8.79405 10.7292 8.7575 10.8659 8.81353 10.9786L9.82997 13.0224C9.89136 13.1458 10.0411 13.1963 10.1647 13.1351Z"/>
</svg>
