<svg width="24" height="24" viewBox="0 0 24 24" xmlns="http://www.w3.org/2000/svg">
  <path d="M8.18 4.5a2.84 2.84 0 100 5.68 2.84 2.84 0 000-5.68zM6.34 7.34a1.84 1.84 0 113.68 0 1.84 1.84 0 01-3.68 0zm1.84 4.18A5.18 5.18 0 003 16.7c0 .595.258 1.151.437 1.473.223.399.64.587 1.036.587h7.413c.395 0 .812-.187 1.035-.585.18-.322.439-.879.439-1.475a5.18 5.18 0 00-5.18-5.18zM4 16.7a4.18 4.18 0 118.36 0c0 .335-.156.709-.312.986-.017.031-.066.074-.162.074H4.473c-.096 0-.145-.043-.162-.074C4.156 17.408 4 17.035 4 16.7zm8.84-9.36a2.84 2.84 0 115.68 0 2.84 2.84 0 01-5.68 0zm2.84-1.84a1.84 1.84 0 100 3.68 1.84 1.84 0 000-3.68zm0 6.02c-.573 0-1.395.148-1.902.316l-.783.258.591.575c.674.654 1.082 1.7 1.234 2.778.154 1.087.031 2.079-.224 2.59l-.361.723h5.153a1.17 1.17 0 001.033-.585c.18-.322.439-.879.439-1.475a5.18 5.18 0 00-5.18-5.18zm.13 3.787c-.13-.923-.437-1.902-.98-2.7a5.24 5.24 0 01.85-.087 4.18 4.18 0 014.18 4.18c0 .335-.157.709-.312.986-.017.032-.066.074-.16.074h-3.645c.167-.71.19-1.59.067-2.453z"/>
</svg>
