<svg width="24" height="24" viewBox="0 0 24 24" xmlns="http://www.w3.org/2000/svg">
    <path fill-rule="evenodd" clip-rule="evenodd" d="M8.75 6.5C8.05964 6.5 7.5 7.05964 7.5 7.75V13.25C7.5 13.9404 8.05964 14.5 8.75 14.5H9.375C9.53922 14.5 9.6989 14.5539 9.82953 14.6534L12 16.3071L14.1705 14.6534C14.3011 14.5539 14.4608 14.5 14.625 14.5H15.25C15.9404 14.5 16.5 13.9404 16.5 13.25V7.75C16.5 7.05964 15.9404 6.5 15.25 6.5H8.75ZM6 7.75C6 6.23122 7.23122 5 8.75 5H15.25C16.7688 5 18 6.23122 18 7.75V13.25C18 14.7688 16.7688 16 15.25 16H14.8782L12.4545 17.8466C12.186 18.0511 11.814 18.0511 11.5455 17.8466L9.12184 16H8.75C7.23122 16 6 14.7688 6 13.25V7.75ZM12 8C12.4142 8 12.75 8.33579 12.75 8.75V10.25H14.25C14.6642 10.25 15 10.5858 15 11C15 11.4142 14.6642 11.75 14.25 11.75H12.75V13.25C12.75 13.6642 12.4142 14 12 14C11.5858 14 11.25 13.6642 11.25 13.25V11.75H9.75C9.33579 11.75 9 11.4142 9 11C9 10.5858 9.33579 10.25 9.75 10.25H11.25V8.75C11.25 8.33579 11.5858 8 12 8Z"/>
</svg>
