<svg width="20" height="20" viewBox="0 0 20 20" fill="none" xmlns="http://www.w3.org/2000/svg">
    <path fill-rule="evenodd" clip-rule="evenodd" d="M2 4.75C2 3.23122 3.23122 2 4.75 2H8.8127C9.81902 2 10.7451 2.54965 11.227 3.43322L12.0816 5H15.25C16.7688 5 18 6.23122 18 7.75V10.25C18 10.6642 17.6642 11 17.25 11C16.8358 11 16.5 10.6642 16.5 10.25V7.75C16.5 7.05964 15.9404 6.5 15.25 6.5H3.5V15.25C3.5 15.9404 4.05964 16.5 4.75 16.5H10.25C10.6642 16.5 11 16.8358 11 17.25C11 17.6642 10.6642 18 10.25 18H4.75C3.23122 18 2 16.7688 2 15.25V4.75ZM3.5 5V4.75C3.5 4.05964 4.05964 3.5 4.75 3.5H8.8127C9.27018 3.5 9.69109 3.74989 9.91005 4.15138L10.3729 5H3.5ZM13.2197 13.2197C13.5126 12.9268 13.9874 12.9268 14.2803 13.2197L15.5 14.4393L16.7197 13.2197C17.0126 12.9268 17.4874 12.9268 17.7803 13.2197C18.0732 13.5126 18.0732 13.9874 17.7803 14.2803L16.5607 15.5L17.7803 16.7197C18.0732 17.0126 18.0732 17.4874 17.7803 17.7803C17.4874 18.0732 17.0126 18.0732 16.7197 17.7803L15.5 16.5607L14.2803 17.7803C13.9874 18.0732 13.5126 18.0732 13.2197 17.7803C12.9268 17.4874 12.9268 17.0126 13.2197 16.7197L14.4393 15.5L13.2197 14.2803C12.9268 13.9874 12.9268 13.5126 13.2197 13.2197Z"/>
</svg>
