<svg width="20" height="20" viewBox="0 0 20 20" xmlns="http://www.w3.org/2000/svg">
    <path fill-rule="evenodd" clip-rule="evenodd" d="M8.0511 4.32367C8.66216 4.11392 9.31777 4.00006 9.99999 4.00006C13.3137 4.00006 16 6.68635 16 10.0001C16 10.6681 15.8908 11.3106 15.6894 11.9107C16.5818 13.0827 17.2739 14.1737 17.6765 15.0752C17.8821 15.5358 18.0315 15.9887 18.0735 16.4016C18.1145 16.8037 18.0644 17.3088 17.688 17.6852C17.4074 17.9658 17.0498 18.0657 16.7288 18.0807C16.4135 18.0955 16.0833 18.0328 15.7639 17.9351C15.1235 17.7391 14.3696 17.3528 13.5616 16.8414C13.0453 16.5147 12.4926 16.1275 11.9152 15.6879C11.3137 15.8903 10.6697 16.0001 9.99999 16.0001C6.68628 16.0001 3.99999 13.3138 3.99999 10.0001C3.99999 9.31616 4.11441 8.65898 4.32516 8.04663C3.95005 7.54454 3.6162 7.06259 3.32898 6.60882C2.81758 5.80086 2.43127 5.04689 2.23535 4.40654C2.1376 4.08708 2.07489 3.75689 2.08968 3.44159C2.10474 3.12057 2.20462 2.76299 2.48519 2.48243C2.85277 2.11484 3.34377 2.05862 3.73871 2.09402C4.14208 2.13018 4.58276 2.27052 5.0289 2.4647C5.89177 2.84026 6.93194 3.4874 8.0511 4.32367ZM5.09176 6.5482C5.49068 5.98202 5.98507 5.48796 6.55154 5.08943C5.72982 4.51376 5.00792 4.09149 4.43027 3.84008C4.05453 3.67654 3.78139 3.60386 3.60479 3.58803C3.59952 3.58756 3.59443 3.58714 3.58953 3.58677C3.59578 3.67261 3.61769 3.79765 3.66971 3.96767C3.80911 4.42327 4.11585 5.04732 4.59643 5.80659C4.74699 6.04446 4.91239 6.29215 5.09176 6.5482ZM5.52221 9.55002C5.50751 9.69804 5.49999 9.84817 5.49999 10.0001C5.49999 12.4853 7.51471 14.5001 9.99999 14.5001C10.1426 14.5001 10.2836 14.4934 10.4228 14.4805C9.62059 13.7946 8.79295 13.0297 7.96685 12.2036C7.07275 11.3095 6.25025 10.4136 5.52221 9.55002ZM12.1414 13.9589C11.1525 13.1601 10.0935 12.2089 9.02751 11.1429C7.89096 10.0064 6.88487 8.87772 6.05491 7.83351C6.82041 6.44257 8.30013 5.50006 9.99999 5.50006C12.4853 5.50006 14.5 7.51478 14.5 10.0001C14.5 11.7101 13.5461 13.1974 12.1414 13.9589ZM13.4166 14.9329C13.7461 15.1692 14.0628 15.3835 14.3638 15.574C15.1231 16.0546 15.7471 16.3613 16.2027 16.5007C16.3728 16.5527 16.4978 16.5746 16.5837 16.5809C16.583 16.5724 16.5822 16.5633 16.5812 16.5536C16.5621 16.3659 16.4818 16.0786 16.3068 15.6868C16.0307 15.0685 15.5663 14.2932 14.9352 13.4133C14.5243 14.0063 14.0093 14.5216 13.4166 14.9329Z"/>
</svg>
