<svg width="24" height="24" viewBox="0 0 24 24" xmlns="http://www.w3.org/2000/svg">
    <path fill-rule="evenodd" clip-rule="evenodd" d="M12 7.5C11.1716 7.5 10.5 8.17157 10.5 9C10.5 9.82843 11.1716 10.5 12 10.5C12.8284 10.5 13.5 9.82843 13.5 9C13.5 8.17157 12.8284 7.5 12 7.5ZM9.00002 9C9.00002 7.34315 10.3432 6 12 6C13.6569 6 15 7.34315 15 9C15 10.6569 13.6569 12 12 12C10.3432 12 9.00002 10.6569 9.00002 9ZM8.90649 15.5287C8.20621 15.9962 7.73645 16.6624 7.46153 17.4872C7.33055 17.8801 6.90581 18.0925 6.51285 17.9615C6.11989 17.8305 5.90752 17.4058 6.03851 17.0128C6.4037 15.9173 7.05894 14.9585 8.07363 14.2811C9.083 13.6073 10.3904 13.25 12 13.25C13.6097 13.25 14.917 13.6073 15.9264 14.2811C16.9411 14.9585 17.5963 15.9173 17.9615 17.0128C18.0925 17.4058 17.8801 17.8305 17.4872 17.9615C17.0942 18.0925 16.6695 17.8801 16.5385 17.4872C16.2636 16.6624 15.7938 15.9962 15.0935 15.5287C14.3879 15.0576 13.3904 14.75 12 14.75C10.6097 14.75 9.61209 15.0576 8.90649 15.5287Z"/>
</svg>
