<svg width="24" height="24" viewBox="0 0 24 24" xmlns="http://www.w3.org/2000/svg">
  <path d="M7.498 9.002c0-2.85 2.5-4.499 4.502-4.499 2.005 0 4.504 1.618 4.504 4.499 0 .928-.317 1.82-.701 2.444-.077.125-.173.239-.306.397-.05.058-.103.123-.164.196a5.3 5.3 0 00-.665.996c-.108.213-.14.485-.154.64a4.236 4.236 0 00-.013.23l-.001.1a.51.51 0 00.5.495c.266 0 .5-.23.5-.506v-.063c.002-.044.005-.104.01-.169a1.715 1.715 0 01.042-.253l.008-.021c.17-.335.358-.587.545-.813l.12-.143c.147-.174.31-.367.43-.561.466-.758.849-1.83.849-2.97 0-3.56-3.083-5.498-5.504-5.498-2.424 0-5.502 1.976-5.502 5.499 0 1.17.377 2.231.83 2.968.071.117.164.232.25.335l.118.138c.053.062.106.124.168.199.198.239.401.511.565.842l.001.001.002.006a.775.775 0 01.025.091c.013.058.022.124.029.19.007.065.01.125.012.168l.002.064a.5.5 0 001-.008v-.03a3.485 3.485 0 00-.02-.296c-.015-.156-.051-.422-.155-.631a5.344 5.344 0 00-.69-1.034 18.58 18.58 0 00-.192-.228l-.099-.115a2.027 2.027 0 01-.164-.215 4.804 4.804 0 01-.682-2.445zm1.56 7.513a.5.5 0 01.677-.206c.58.308 1.425.48 2.295.48.873 0 1.691-.172 2.224-.474a.5.5 0 01.493.87c-.736.417-1.744.604-2.717.604-.975 0-1.996-.188-2.765-.598a.5.5 0 01-.207-.676zm.969 3.223a.5.5 0 01.635-.311c.322.11.812.175 1.334.175.521 0 1.015-.065 1.344-.176a.5.5 0 11.32.948c-.47.158-1.082.228-1.664.228-.582 0-1.192-.07-1.658-.229a.5.5 0 01-.311-.635z"/>
</svg>
