<svg width="24" height="24" viewBox="0 0 24 24" xmlns="http://www.w3.org/2000/svg">
    <path fill-rule="evenodd" clip-rule="evenodd" d="M12 5.5C8.41015 5.5 5.5 8.41015 5.5 12C5.5 15.5899 8.41015 18.5 12 18.5C15.5899 18.5 18.5 15.5899 18.5 12C18.5 8.41015 15.5899 5.5 12 5.5ZM4 12C4 7.58172 7.58172 4 12 4C16.4183 4 20 7.58172 20 12C20 16.4183 16.4183 20 12 20C7.58172 20 4 16.4183 4 12ZM12 7C12.4142 7 12.75 7.33579 12.75 7.75V11.7644L14.7702 13.7098C15.0686 13.9971 15.0776 14.4719 14.7902 14.7702C14.5029 15.0686 14.0281 15.0776 13.7298 14.7902L11.25 12.4023V7.75C11.25 7.33579 11.5858 7 12 7Z"/>
</svg>
