<svg width="24" height="24" viewBox="0 0 24 24" fill="none" xmlns="http://www.w3.org/2000/svg">
<path fill-rule="evenodd" clip-rule="evenodd" d="M11.25 5.5C10.5596 5.5 10 6.05964 10 6.75V17C10 18.6569 8.65685 20 7 20C5.34315 20 4 18.6569 4 17C4 15.3431 5.34315 14 7 14C7.54643 14 8.05874 14.1461 8.5 14.4013V6.75C8.5 5.23122 9.73118 4 11.25 4H17.25C18.7688 4 20 5.23122 20 6.75V14C20 15.6569 18.6569 17 17 17C15.3431 17 14 15.6569 14 14C14 12.3431 15.3431 11 17 11C17.5464 11 18.0587 11.1461 18.5 11.4013V6.75C18.5 6.05964 17.9404 5.5 17.25 5.5H11.25ZM18.5 14C18.5 13.1716 17.8284 12.5 17 12.5C16.1716 12.5 15.5 13.1716 15.5 14C15.5 14.8284 16.1716 15.5 17 15.5C17.8284 15.5 18.5 14.8284 18.5 14ZM8.5 17C8.5 16.1716 7.82843 15.5 7 15.5C6.17157 15.5 5.5 16.1716 5.5 17C5.5 17.8284 6.17157 18.5 7 18.5C7.82843 18.5 8.5 17.8284 8.5 17Z" fill="#111010"/>
</svg>
