<svg width="32" height="32" viewBox="0 0 32 32" xmlns="http://www.w3.org/2000/svg">
  <path d="M6.25 7c0-.966.784-1.75 1.75-1.75h14c.966 0 1.75.784 1.75 1.75v1.2a.75.75 0 01-1.5 0V7a.25.25 0 00-.25-.25H8a.25.25 0 00-.25.25v18c0 .138.112.25.25.25h14a.25.25 0 00.25-.25v-1.2a.75.75 0 011.5 0V25A1.75 1.75 0 0122 26.75H8A1.75 1.75 0 016.25 25V7z"/>
  <path d="M22.19 15.25H12a.75.75 0 000 1.5h10.19l-2.72 2.72a.75.75 0 101.06 1.06l4-4a.748.748 0 000-1.06l-4-4a.75.75 0 10-1.06 1.06l2.72 2.72z"/>
</svg>
