<svg width="24" height="24" viewBox="0 0 24 24" fill="none" xmlns="http://www.w3.org/2000/svg">
<path fill-rule="evenodd" clip-rule="evenodd" d="M5.50012 7.73257C5.50004 7.73837 5.5 7.74418 5.5 7.75V16.25C5.5 16.9404 6.05964 17.5 6.75 17.5H17.25C17.9404 17.5 18.5 16.9404 18.5 16.25V7.75C18.5 7.74418 18.5 7.73837 18.4999 7.73257L12.4845 12.8225C12.2048 13.0592 11.7952 13.0592 11.5155 12.8225L5.50012 7.73257ZM6.41824 6.5445L12 11.2675L17.5818 6.5445C17.4761 6.51549 17.3649 6.5 17.25 6.5H6.75C6.63513 6.5 6.52389 6.51549 6.41824 6.5445ZM4 7.75C4 6.23122 5.23122 5 6.75 5H17.25C18.7688 5 20 6.23122 20 7.75V16.25C20 17.7688 18.7688 19 17.25 19H6.75C5.23122 19 4 17.7688 4 16.25V7.75Z" fill="#111010"/>
</svg>
