<svg width="32" height="32" viewBox="0 0 32 32" xmlns="http://www.w3.org/2000/svg">
<path fill-rule="evenodd" clip-rule="evenodd" d="M10.3846 6.66667C10.3846 6.29848 10.0747 6 9.69231 6C9.30996 6 9 6.29848 9 6.66667V25.3333C9 25.7015 9.30996 26 9.69231 26C10.0747 26 10.3846 25.7015 10.3846 25.3333V18.7561L14.4343 17.4142C15.825 17.4145 17.0302 18.1084 18.3704 18.9351L18.5616 19.0534C19.778 19.8064 21.1676 20.6667 22.7473 20.6667H22.7664L22.7856 20.6656C24.9353 20.5509 26.2305 19.268 26.6821 18.7334C26.9126 18.4605 27 18.1358 27 17.8414V12.0317C27 11.3687 26.5854 10.864 26.0804 10.6127C25.5804 10.3639 24.9298 10.3287 24.3672 10.6418C24.0583 10.8137 23.7436 10.9672 23.4501 11.0763C23.1489 11.1882 22.9122 11.2372 22.7473 11.2372C21.4613 11.2372 20.2965 10.5127 18.9299 9.62203L18.8102 9.54395C17.5606 8.72831 16.1042 7.77778 14.4333 7.77778C13.3037 7.77778 11.9955 8.27811 11.0422 8.72003C10.8061 8.82945 10.5848 8.93872 10.3846 9.04162V6.66667ZM10.3846 10.5707V17.171C10.557 17.0885 10.7461 17.0021 10.9484 16.9157C11.8853 16.5152 13.1762 16.0826 14.4323 16.0809L14.4333 16.0808C16.2879 16.0808 17.8213 17.013 19.1173 17.8124L19.1482 17.8314C20.5013 18.6661 21.5713 19.3261 22.7283 19.3333C24.298 19.2422 25.261 18.3024 25.6068 17.8935C25.6086 17.89 25.6154 17.8749 25.6154 17.8414V12.0317C25.6154 11.9476 25.5688 11.859 25.4447 11.7973C25.3157 11.733 25.1692 11.7355 25.06 11.7962C24.7134 11.9891 24.3312 12.178 23.9485 12.3202C23.5736 12.4595 23.1549 12.5705 22.7473 12.5705C20.983 12.5705 19.4762 11.5882 18.1983 10.7552L18.1538 10.7262C16.7761 9.82826 15.6505 9.11111 14.4333 9.11111C13.642 9.11111 12.5797 9.48705 11.6428 9.92141C11.19 10.1313 10.7934 10.3418 10.5101 10.5C10.4653 10.525 10.4234 10.5486 10.3846 10.5707ZM10.3846 18.6798C10.4078 18.6672 10.4321 18.654 10.4575 18.6404C10.7143 18.5026 11.0795 18.3184 11.51 18.1344C12.3878 17.7592 13.4675 17.4156 14.4343 17.4142L10.3846 18.7561V18.6798Z" />
</svg>
