<svg xmlns="http://www.w3.org/2000/svg" viewBox="0 0 32 32" width="32" height="32">
  <path class="cls-1" d="M26 9.94a1.31 1.31 0 00-.06-.27.32.32 0 000-.09 1.07 1.07 0 00-.19-.28l-6-6a1.07 1.07 0 00-.28-.19h-.09L19.06 3H9a3 3 0 00-3 3v5.75a1 1 0 002 0V6a1 1 0 011-1h9v3a3 3 0 003 3h3v15a1 1 0 01-1 1H9a1 1 0 01-1-1 1 1 0 00-2 0 3 3 0 003 3h14a3 3 0 003-3V10v-.06z"/>
  <path class="cls-1" d="M9.41 21.4H6.32l3.05-4.09v-.92H4.73v1.12h3.02L4.68 21.6v.92h4.73V21.4z"/>
  <path d="M10.41 16.39h1.28v6.14h-1.28zM15.35 20.4a1.92 1.92 0 002.16-2 1.92 1.92 0 00-2.16-2h-2.49v6.14h1.27V20.4zm-1.22-2.92h1.15a.92.92 0 110 1.83h-1.15z"/>
</svg>
