<svg width="20" height="20" viewBox="0 0 20 20" xmlns="http://www.w3.org/2000/svg">
    <path fill-rule="evenodd" clip-rule="evenodd" d="M10 5.5C9.17159 5.5 8.50002 6.17157 8.50002 7C8.50002 7.82843 9.17159 8.5 10 8.5C10.8284 8.5 11.5 7.82843 11.5 7C11.5 6.17157 10.8284 5.5 10 5.5ZM7.00002 7C7.00002 5.34315 8.34317 4 10 4C11.6569 4 13 5.34315 13 7C13 8.65685 11.6569 10 10 10C8.34317 10 7.00002 8.65685 7.00002 7ZM13 10C13.4142 10 13.75 10.3358 13.75 10.75V12.25H15.25C15.6642 12.25 16 12.5858 16 13C16 13.4142 15.6642 13.75 15.25 13.75H13.75V15.25C13.75 15.6642 13.4142 16 13 16C12.5858 16 12.25 15.6642 12.25 15.25V13.75H10.75C10.3358 13.75 10 13.4142 10 13C10 12.5858 10.3358 12.25 10.75 12.25H12.25V10.75C12.25 10.3358 12.5858 10 13 10ZM9.23779 11.9923C9.3123 12.3998 9.04239 12.7905 8.63493 12.865C6.8543 13.1906 5.89987 14.1722 5.46153 15.4872C5.33055 15.8801 4.90581 16.0925 4.51285 15.9615C4.11989 15.8305 3.90752 15.4058 4.03851 15.0128C4.64779 13.185 6.03981 11.8147 8.36511 11.3895C8.77256 11.315 9.16328 11.5849 9.23779 11.9923Z"/>
</svg>
