<svg width="24" height="24" viewBox="0 0 24 24" xmlns="http://www.w3.org/2000/svg">
    <path fill-rule="evenodd" clip-rule="evenodd" d="M9 5.5C8.60218 5.5 8.22064 5.65804 7.93934 5.93934C7.65804 6.22064 7.5 6.60218 7.5 7C7.5 7.39782 7.65804 7.77936 7.93934 8.06066C8.22064 8.34196 8.60218 8.5 9 8.5C9.39782 8.5 9.77936 8.34196 10.0607 8.06066C10.342 7.77936 10.5 7.39782 10.5 7C10.5 6.60218 10.342 6.22064 10.0607 5.93934C9.77936 5.65804 9.39782 5.5 9 5.5ZM6.87868 4.87868C7.44129 4.31607 8.20435 4 9 4C9.79565 4 10.5587 4.31607 11.1213 4.87868C11.6839 5.44129 12 6.20435 12 7C12 7.79565 11.6839 8.55871 11.1213 9.12132C11.0791 9.16349 11.0358 9.20428 10.9915 9.24366C11.8255 9.47963 12.4885 9.89094 12.9811 10.4946C13.7881 11.4835 14 12.8307 14 14.25C14 14.6642 13.6642 15 13.25 15H12V17.25C12 17.9793 11.7103 18.6788 11.1945 19.1945C10.6788 19.7103 9.97935 20 9.25 20H8.75C8.02065 20 7.32118 19.7103 6.80546 19.1945C6.28973 18.6788 6 17.9793 6 17.25V15H4.75C4.33579 15 4 14.6642 4 14.25C4 12.8307 4.21192 11.4835 5.01891 10.4946C5.51148 9.89094 6.17451 9.47963 7.00851 9.24366C6.96415 9.20428 6.92085 9.16349 6.87868 9.12132C6.31607 8.55871 6 7.79565 6 7C6 6.20435 6.31607 5.44129 6.87868 4.87868ZM15 6.75C15 6.33579 15.3358 6 15.75 6H19.25C19.6642 6 20 6.33579 20 6.75C20 7.16421 19.6642 7.5 19.25 7.5H15.75C15.3358 7.5 15 7.16421 15 6.75ZM5.52606 13.5H6.75C7.16421 13.5 7.5 13.8358 7.5 14.25V17.25C7.5 17.5815 7.6317 17.8995 7.86612 18.1339C8.10054 18.3683 8.41848 18.5 8.75 18.5H9.25C9.58152 18.5 9.89946 18.3683 10.1339 18.1339C10.3683 17.8995 10.5 17.5815 10.5 17.25V14.25C10.5 13.8358 10.8358 13.5 11.25 13.5H12.4739C12.4042 12.5703 12.193 11.9014 11.8189 11.4429C11.3795 10.9045 10.5808 10.5 9 10.5C7.41925 10.5 6.62047 10.9045 6.18109 11.4429C5.80697 11.9014 5.59575 12.5703 5.52606 13.5Z"/>
</svg>
