<svg width="24" height="24" viewBox="0 0 24 24" xmlns="http://www.w3.org/2000/svg">
    <path fill-rule="evenodd" clip-rule="evenodd" d="M8.50189 6.41075C9.19612 6.75503 10.0223 7.30034 10.8344 7.91506C10.9112 7.97319 10.9736 8.04323 11.0211 8.12065C11.3344 8.04185 11.6623 8 12 8C14.2092 8 16 9.79086 16 12C16 12.3223 15.9619 12.6356 15.89 12.9358C15.9275 12.9683 15.9623 13.0051 15.9937 13.046C16.6387 13.8853 17.2064 14.7356 17.5644 15.4486C17.7409 15.8001 17.887 16.1581 17.9518 16.4866C18.0072 16.7672 18.054 17.2867 17.6703 17.6704C17.403 17.9377 17.0645 18.002 16.8046 18.0006C16.5459 17.9992 16.2833 17.9347 16.0422 17.8507C15.5559 17.6812 14.989 17.3719 14.3944 16.983C13.9291 16.6787 13.4264 16.3121 12.9052 15.8972C12.6143 15.9644 12.3113 16 12 16C9.79089 16 8.00003 14.2091 8.00003 12C8.00003 11.6889 8.03555 11.386 8.10277 11.0953C7.68621 10.5724 7.31802 10.0679 7.01225 9.60088C6.62219 9.00511 6.31168 8.43719 6.14129 7.9503C6.05679 7.70883 5.99182 7.44605 5.98991 7.18723C5.98799 6.92738 6.05156 6.58774 6.31969 6.31961C6.6993 5.93999 7.21224 5.98463 7.48731 6.03768C7.80951 6.09983 8.15965 6.24103 8.50189 6.41075ZM9.66529 12.8957C9.91873 13.5559 10.4441 14.0813 11.1043 14.3348C10.8596 14.105 10.6154 13.8686 10.3734 13.6266C10.1315 13.3847 9.89507 13.1405 9.66529 12.8957ZM13.1976 14.1951C12.6191 13.7031 12.0218 13.1537 11.4341 12.566C10.8469 11.9788 10.2973 11.3814 9.8049 10.8026C10.2292 10.0264 11.0531 9.5 12 9.5C13.3807 9.5 14.5 10.6193 14.5 12C14.5 12.9469 13.9736 13.7708 13.1976 14.1951ZM14.4297 15.1778C14.7033 15.3807 14.9665 15.5648 15.2154 15.7276C15.6597 16.0181 16.0373 16.2267 16.3341 16.3549C16.3028 16.2837 16.2662 16.2059 16.2239 16.1217C15.9863 15.6486 15.6177 15.0667 15.1664 14.4445C14.9537 14.7197 14.7059 14.9663 14.4297 15.1778ZM16.4897 16.8558C16.4893 16.8554 16.4888 16.8493 16.4896 16.8388C16.4906 16.8509 16.4902 16.8562 16.4897 16.8558ZM8.82183 9.57087C8.61719 9.29524 8.43143 9.03007 8.2672 8.77923C7.97724 8.33635 7.76837 7.95921 7.63908 7.66213C7.69981 7.68905 7.76527 7.71977 7.83547 7.75458C8.31802 7.99388 8.91723 8.37231 9.55501 8.83402C9.27989 9.04681 9.03326 9.29465 8.82183 9.57087ZM7.12944 7.50184C7.12904 7.50139 7.13435 7.501 7.14654 7.50205C7.13593 7.50282 7.12983 7.5023 7.12944 7.50184Z"/>
</svg>
