<svg width="20" height="20" viewBox="0 0 20 20" xmlns="http://www.w3.org/2000/svg">
    <path fill-rule="evenodd" clip-rule="evenodd" d="M9.67614 3.63415L3.63415 9.67614C3.45528 9.855 3.45529 10.145 3.63415 10.3239L9.67614 16.3659C9.855 16.5447 10.145 16.5447 10.3239 16.3659L16.3659 10.3239C16.5447 10.145 16.5447 9.855 16.3659 9.67614L10.3239 3.63415C10.145 3.45528 9.855 3.45529 9.67614 3.63415ZM2.57349 8.61548C1.80884 9.38013 1.80884 10.6199 2.57349 11.3845L8.61548 17.4265C9.38013 18.1912 10.6199 18.1912 11.3845 17.4265L17.4265 11.3845C18.1912 10.6199 18.1912 9.38013 17.4265 8.61548L11.3845 2.57349C10.6199 1.80884 9.38013 1.80884 8.61548 2.57349L2.57349 8.61548Z"/>
    <path fill-rule="evenodd" clip-rule="evenodd" d="M10 6C10.4142 6 10.75 6.33579 10.75 6.75V10.25C10.75 10.6642 10.4142 11 10 11C9.58579 11 9.25 10.6642 9.25 10.25V6.75C9.25 6.33579 9.58579 6 10 6Z"/>
    <path fill-rule="evenodd" clip-rule="evenodd" d="M10 12C10.4142 12 10.75 12.3358 10.75 12.75C10.75 13.1642 10.4142 13.5 10 13.5C9.58579 13.5 9.25 13.1642 9.25 12.75C9.25 12.3358 9.58579 12 10 12Z"/>
</svg>
