<svg width="20" height="20" viewBox="0 0 20 20" xmlns="http://www.w3.org/2000/svg">
    <path fill-rule="evenodd" clip-rule="evenodd" d="M3 3.75C3 2.23122 4.23122 1 5.75 1H12.1118C12.3216 1 12.5218 1.08789 12.6638 1.24232L16.8021 5.74232C16.9294 5.88075 17 6.06194 17 6.25V9.25C17 9.66421 16.6642 10 16.25 10C15.8358 10 15.5 9.66421 15.5 9.25V7H12.1118C11.6975 7 11.3618 6.66421 11.3618 6.25V2.5H5.75C5.05964 2.5 4.5 3.05964 4.5 3.75L4.5 9.25C4.5 9.66421 4.16422 10 3.75 10C3.33579 10 3 9.66421 3 9.25L3 3.75ZM12.8618 3.67355L14.5414 5.5H12.8618V3.67355ZM17.5546 12.0646C17.9331 12.2329 18.1036 12.6761 17.9354 13.0546L15.9354 17.5546C15.8199 17.8144 15.5674 17.9866 15.2833 17.9993C14.9993 18.0119 14.7325 17.8628 14.5944 17.6142L12.0944 13.1142C11.8932 12.7521 12.0237 12.2955 12.3858 12.0944C12.7479 11.8932 13.2045 12.0237 13.4056 12.3858L15.1754 15.5713L16.5646 12.4454C16.7329 12.0669 17.1761 11.8964 17.5546 12.0646ZM4.75 13.5C4.05962 13.5 3.5 14.0596 3.5 14.75V15.25C3.5 15.9404 4.05961 16.5 4.75 16.5H5.25C5.66421 16.5 6 16.8358 6 17.25C6 17.6642 5.66421 18 5.25 18H4.75C3.23119 18 2 16.7688 2 15.25V14.75C2 13.2312 3.23118 12 4.75 12H5.25C5.66421 12 6 12.3358 6 12.75C6 13.1642 5.66421 13.5 5.25 13.5H4.75ZM7.51256 12.5126C7.84074 12.1844 8.28586 12 8.74999 12H10.25C10.6642 12 11 12.3358 11 12.75C11 13.1642 10.6642 13.5 10.25 13.5H8.74999C8.68369 13.5 8.6201 13.5263 8.57322 13.5732C8.54801 13.5984 8.52873 13.6285 8.5163 13.6612C8.52316 13.6792 8.53211 13.6965 8.54305 13.7126C8.57108 13.754 8.61085 13.786 8.65724 13.8045L8.65879 13.8051L9.89824 14.3035C9.89796 14.3034 9.89852 14.3036 9.89824 14.3035C10.2226 14.4333 10.5016 14.6576 10.6976 14.9468C10.8938 15.2362 10.9988 15.5778 10.999 15.9275V16.251C10.999 16.7151 10.8146 17.1602 10.4864 17.4884C10.1582 17.8166 9.71312 18.001 9.24899 18.001H7.74899C7.33478 18.001 6.99899 17.6652 6.99899 17.251C6.99899 16.8368 7.33478 16.501 7.74899 16.501H9.24899C9.3153 16.501 9.37889 16.4747 9.42577 16.4278C9.47265 16.3809 9.49899 16.3173 9.49899 16.251V15.9285C9.49896 15.8785 9.48396 15.8297 9.45594 15.7884C9.42791 15.747 9.38813 15.715 9.34174 15.6965L9.34019 15.6959L8.10074 15.1975C8.10043 15.1974 8.10012 15.1972 8.09981 15.1971C7.77548 15.0673 7.4974 14.8434 7.30139 14.5542C7.20087 14.4059 7.1243 14.2439 7.07349 14.0742C7.02638 13.9761 6.99999 13.8661 6.99999 13.75V13.5735C6.99999 13.4578 7.02619 13.3477 7.07298 13.2499C7.15529 12.9739 7.30522 12.7199 7.51256 12.5126Z"/>
</svg>
