<svg width="24" height="24" viewBox="0 0 24 24" xmlns="http://www.w3.org/2000/svg">
    <path fill-rule="evenodd" clip-rule="evenodd" d="M13.1207 6.19308C12.6598 5.27305 11.3468 5.27285 10.8857 6.19267L5.62265 16.6897C5.20591 17.5209 5.81024 18.4999 6.74007 18.4999H17.2613C18.1909 18.4999 18.7952 17.5213 18.3789 16.6902M18.3789 16.6902L13.1207 6.19308L18.3789 16.6902ZM9.54476 5.52038C10.5594 3.49668 13.448 3.49725 14.4619 5.52127L19.7201 16.0183C20.636 17.8468 19.3065 19.9999 17.2613 19.9999H6.74007C4.69445 19.9999 3.3649 17.846 4.28176 16.0174L9.54476 5.52038Z"/>
    <path fill-rule="evenodd" clip-rule="evenodd" d="M12 8.99995C12.5523 8.99995 13 9.44767 13 9.99995V13C13 13.5522 12.5523 14 12 14C11.4477 14 11 13.5522 11 13V9.99995C11 9.44767 11.4477 8.99995 12 8.99995Z"/>
    <path fill-rule="evenodd" clip-rule="evenodd" d="M11 16C11 15.4477 11.4477 15 12 15H12.01C12.5623 15 13.01 15.4477 13.01 16C13.01 16.5522 12.5623 17 12.01 17H12C11.4477 17 11 16.5522 11 16Z"/>
</svg>
