<svg width="24" height="24" viewBox="0 0 24 24" xmlns="http://www.w3.org/2000/svg">
    <path fill-rule="evenodd" clip-rule="evenodd" d="M12 7.5C9.63048 7.5 7.5 9.43618 7.5 12C7.5 14.5638 9.63048 16.5 12 16.5C14.3695 16.5 16.5 14.5638 16.5 12C16.5 9.43618 14.3695 7.5 12 7.5ZM6 12C6 8.56382 8.84667 6 12 6C15.1533 6 18 8.56382 18 12C18 15.4362 15.1533 18 12 18C8.84667 18 6 15.4362 6 12Z"/>
    <path fill-rule="evenodd" clip-rule="evenodd" d="M12 12C12.5523 12 13 12.4477 13 13V14C13 14.5523 12.5523 15 12 15C11.4477 15 11 14.5523 11 14V13C11 12.4477 11.4477 12 12 12Z"/>
    <path d="M12 11C12.5523 11 13 10.5523 13 10C13 9.44772 12.5523 9 12 9C11.4477 9 11 9.44772 11 10C11 10.5523 11.4477 11 12 11Z"/>
</svg>
