<svg width="24" height="24" viewBox="0 0 24 24" xmlns="http://www.w3.org/2000/svg">
    <path fill-rule="evenodd" clip-rule="evenodd" d="M12 4C12.4142 4 12.75 4.33579 12.75 4.75V12.3636L15.7047 9.23503C15.9891 8.93389 16.4638 8.92033 16.765 9.20474C17.0661 9.48915 17.0797 9.96383 16.7953 10.265L12.5453 14.765C12.4036 14.915 12.2063 15 12 15C11.7937 15 11.5964 14.915 11.4547 14.765L7.20474 10.265C6.92033 9.96383 6.93389 9.48915 7.23503 9.20474C7.53617 8.92033 8.01085 8.93389 8.29526 9.23503L11.25 12.3636V4.75C11.25 4.33579 11.5858 4 12 4ZM4.75 14C5.16421 14 5.5 14.3358 5.5 14.75V17.3C5.5 17.9904 6.05964 18.55 6.75 18.55H17.25C17.9404 18.55 18.5 17.9904 18.5 17.3V14.75C18.5 14.3358 18.8358 14 19.25 14C19.6642 14 20 14.3358 20 14.75V17.3C20 18.8188 18.7688 20.05 17.25 20.05H6.75C5.23122 20.05 4 18.8188 4 17.3V14.75C4 14.3358 4.33579 14 4.75 14Z"/>
</svg>
