<svg width="20" height="20" viewBox="0 0 20 20" xmlns="http://www.w3.org/2000/svg">
    <path fill-rule="evenodd" clip-rule="evenodd" d="M10 5.5C9.17159 5.5 8.50002 6.17157 8.50002 7C8.50002 7.82843 9.17159 8.5 10 8.5C10.8284 8.5 11.5 7.82843 11.5 7C11.5 6.17157 10.8284 5.5 10 5.5ZM7.00002 7C7.00002 5.34315 8.34317 4 10 4C11.6569 4 13 5.34315 13 7C13 8.65685 11.6569 10 10 10C8.34317 10 7.00002 8.65685 7.00002 7ZM6.90649 13.5287C6.20621 13.9962 5.73645 14.6624 5.46153 15.4872C5.33055 15.8801 4.90581 16.0925 4.51285 15.9615C4.11989 15.8305 3.90752 15.4058 4.03851 15.0128C4.4037 13.9173 5.05894 12.9585 6.07363 12.2811C7.083 11.6073 8.39038 11.25 10 11.25C11.6097 11.25 12.917 11.6073 13.9264 12.2811C14.9411 12.9585 15.5963 13.9173 15.9615 15.0128C16.0925 15.4058 15.8801 15.8305 15.4872 15.9615C15.0942 16.0925 14.6695 15.8801 14.5385 15.4872C14.2636 14.6624 13.7938 13.9962 13.0935 13.5287C12.3879 13.0576 11.3904 12.75 10 12.75C8.60966 12.75 7.61209 13.0576 6.90649 13.5287Z"/>
</svg>
