<svg width="32" height="32" viewBox="0 0 32 32" xmlns="http://www.w3.org/2000/svg">
  <path d="M20.75 24.5a.75.75 0 01-1.5 0v-9a.75.75 0 011.5 0v9zm-4 0a.75.75 0 01-1.5 0v-9a.75.75 0 011.5 0v9zm-4 0a.75.75 0 01-1.5 0v-9a.75.75 0 011.5 0v9zm-4-12.25V25.5c0 .69.56 1.25 1.25 1.25h12c.69 0 1.25-.56 1.25-1.25V12.25H8.75zm4-4.5h6.5V6.5c0-.69-.56-1.25-1.25-1.25h-4c-.69 0-1.25.56-1.25 1.25v1.25zm-1.5 0V6.5A2.75 2.75 0 0114 3.75h4a2.75 2.75 0 012.75 2.75v1.25h3.75a2.25 2.25 0 01.25 4.486V25.5A2.75 2.75 0 0122 28.25H10a2.75 2.75 0 01-2.75-2.75V12.236A2.25 2.25 0 017.5 7.75h3.75zM20 9.25H7.5a.75.75 0 100 1.5h17a.75.75 0 000-1.5H20z"/>
</svg>
