<svg width="24" height="24" viewBox="0 0 24 24" xmlns="http://www.w3.org/2000/svg">
    <path fill-rule="evenodd" clip-rule="evenodd" d="M6.75 5.5C6.05964 5.5 5.5 6.05962 5.5 6.75V8.25C5.5 8.94038 6.05964 9.5 6.75 9.5H8.25C8.94036 9.5 9.5 8.94038 9.5 8.25V6.75C9.5 6.05962 8.94036 5.5 8.25 5.5H6.75ZM4 6.75C4 5.23118 5.23122 4 6.75 4H8.25C9.76878 4 11 5.23118 11 6.75V8H13V6.75C13 5.23119 14.2312 4 15.75 4H17.25C18.7688 4 20 5.23119 20 6.75V8.25C20 9.76881 18.7688 11 17.25 11H15.75C14.6807 11 13.7539 10.3897 13.299 9.49842C13.2828 9.49947 13.2665 9.5 13.25 9.5H10.75C10.7335 9.5 10.7172 9.49947 10.701 9.49842C10.3187 10.2474 9.60325 10.7979 8.75 10.9547V13C8.75 13.0151 8.74955 13.0302 8.74867 13.0451C10.0294 13.2797 11 14.4015 11 15.75V17.25C11 18.7688 9.76878 20 8.25 20H6.75C5.23122 20 4 18.7688 4 17.25V15.75C4 14.2312 5.23122 13 6.75 13H7.25V11H6.75C5.23122 11 4 9.76882 4 8.25V6.75ZM15.75 5.5C15.0596 5.5 14.5 6.05961 14.5 6.75V8.25C14.5 8.94039 15.0596 9.5 15.75 9.5H17.25C17.9404 9.5 18.5 8.94039 18.5 8.25V6.75C18.5 6.05961 17.9404 5.5 17.25 5.5H15.75ZM6.75 14.5C6.05964 14.5 5.5 15.0596 5.5 15.75V17.25C5.5 17.9404 6.05964 18.5 6.75 18.5H8.25C8.94036 18.5 9.5 17.9404 9.5 17.25V15.75C9.5 15.0596 8.94036 14.5 8.25 14.5H6.75ZM15.75 14.5C15.0596 14.5 14.5 15.0596 14.5 15.75V17.25C14.5 17.9404 15.0596 18.5 15.75 18.5H17.25C17.9404 18.5 18.5 17.9404 18.5 17.25V15.75C18.5 15.0596 17.9404 14.5 17.25 14.5H15.75ZM13 15.75C13 14.2312 14.2312 13 15.75 13H17.25C18.7688 13 20 14.2312 20 15.75V17.25C20 18.7688 18.7688 20 17.25 20H15.75C14.2312 20 13 18.7688 13 17.25V15.75Z"/>
</svg>
