<svg width="20" height="20" viewBox="0 0 20 20" xmlns="http://www.w3.org/2000/svg">
    <path fill-rule="evenodd" clip-rule="evenodd" d="M3.50458 9.97072C3.51313 9.99534 3.53197 10.0461 3.57172 10.1276C3.64733 10.2828 3.76845 10.4889 3.93684 10.7319C4.27271 11.2164 4.76793 11.8061 5.3842 12.3752C6.6345 13.5297 8.27219 14.5 10.0004 14.5C11.7287 14.5 13.3661 13.5297 14.6162 12.3752C15.2323 11.8062 15.7275 11.2165 16.0632 10.7319C16.2316 10.489 16.3527 10.2829 16.4283 10.1277C16.468 10.0461 16.4869 9.99535 16.4954 9.97074C16.4934 9.96061 16.4906 9.94785 16.4866 9.9323C16.4733 9.88105 16.4501 9.81242 16.4133 9.72646C16.3391 9.55365 16.2213 9.33812 16.0565 9.09209C15.7273 8.60055 15.2393 8.02948 14.6277 7.48752C13.3927 6.3933 11.7504 5.5 10.0004 5.5C8.25047 5.5 6.60792 6.39332 5.37274 7.48757C4.76097 8.02953 4.27283 8.60061 3.94357 9.09215C3.77877 9.33819 3.66088 9.55372 3.58673 9.72652C3.54984 9.81248 3.52671 9.88111 3.5134 9.93235C3.50937 9.94787 3.50655 9.96061 3.50458 9.97072ZM4.37807 6.36479C5.76823 5.13325 7.7509 4 10.0004 4C12.25 4 14.2325 5.13326 15.6224 6.36483C16.3232 6.98576 16.8977 7.65239 17.3028 8.25743C17.5053 8.55969 17.6726 8.85717 17.7918 9.13511C17.9053 9.39962 18 9.70282 18 10C18 10.2858 17.8776 10.5777 17.7768 10.7846C17.659 11.0264 17.4949 11.2994 17.2961 11.5863C16.8975 12.1615 16.3302 12.8341 15.6339 13.4771C14.2591 14.7469 12.2717 16 10.0004 16C7.72917 16 5.74164 14.7469 4.3666 13.4772C3.6702 12.8341 3.10272 12.1615 2.70405 11.5864C2.50518 11.2995 2.34108 11.0264 2.22328 10.7847C2.12247 10.5778 2 10.2859 2 10C2 9.70278 2.09477 9.39956 2.20827 9.13504C2.32753 8.85711 2.49486 8.55962 2.69733 8.25737C3.10261 7.65233 3.67717 6.98571 4.37807 6.36479ZM9.99997 8.5C9.17154 8.5 8.49997 9.17157 8.49997 10C8.49997 10.8284 9.17154 11.5 9.99997 11.5C10.8284 11.5 11.5 10.8284 11.5 10C11.5 9.17157 10.8284 8.5 9.99997 8.5ZM6.99997 10C6.99997 8.34315 8.34312 7 9.99997 7C11.6568 7 13 8.34315 13 10C13 11.6569 11.6568 13 9.99997 13C8.34312 13 6.99997 11.6569 6.99997 10Z"/>
</svg>
