<svg width="24" height="24" viewBox="0 0 24 24" xmlns="http://www.w3.org/2000/svg">
    <path d="M12.6048 15.1558C12.6048 15.483 12.3395 15.7482 12.0123 15.7482C11.6851 15.7482 11.4199 15.483 11.4199 15.1558C11.4199 14.8286 11.6851 14.5633 12.0123 14.5633C12.3395 14.5633 12.6048 14.8286 12.6048 15.1558Z"/>
    <path d="M11.9981 8.20708C11.684 8.20708 11.4294 8.46193 11.4294 8.7763V12.7608C11.4294 13.0752 11.684 13.33 11.9981 13.33C12.3122 13.33 12.5669 13.0752 12.5669 12.7608V8.7763C12.5669 8.46193 12.3122 8.20708 11.9981 8.20708Z"/>
    <path fill-rule="evenodd" clip-rule="evenodd" d="M10.3236 3.69438C11.2495 2.76854 12.7505 2.76854 13.6764 3.69438L20.3056 10.3236C21.2315 11.2495 21.2315 12.7505 20.3056 13.6764L13.6764 20.3056C12.7505 21.2315 11.2495 21.2315 10.3236 20.3056L3.69438 13.6764C2.76854 12.7505 2.76854 11.2495 3.69438 10.3236L10.3236 3.69438ZM13.0058 4.36492C12.4503 3.80942 11.5497 3.80942 10.9942 4.36492L4.36492 10.9942C3.80942 11.5497 3.80942 12.4503 4.36492 13.0058L10.9942 19.6351C11.5497 20.1906 12.4503 20.1906 13.0058 19.6351L19.6351 13.0058C20.1906 12.4503 20.1906 11.5497 19.6351 10.9942L13.0058 4.36492Z"/>
</svg>
