<svg width="24" height="24" viewBox="0 0 24 24" fill="none" xmlns="http://www.w3.org/2000/svg">
<path fill-rule="evenodd" clip-rule="evenodd" d="M4 6.75C4 5.23122 5.23122 4 6.75 4H10.8127C11.819 4 12.7451 4.54965 13.227 5.43322L14.0816 7H17.25C18.7688 7 20 8.23122 20 9.75V17.25C20 18.7688 18.7688 20 17.25 20H6.75C5.23122 20 4 18.7688 4 17.25V6.75ZM5.5 8.5V17.25C5.5 17.9404 6.05964 18.5 6.75 18.5H17.25C17.9404 18.5 18.5 17.9404 18.5 17.25V9.75C18.5 9.05964 17.9404 8.5 17.25 8.5H5.5ZM5.5 7V6.75C5.5 6.05964 6.05964 5.5 6.75 5.5H10.8127C11.2702 5.5 11.6911 5.74989 11.91 6.15138L12.3729 7H5.5Z" fill="#111010"/>
</svg>
