<svg width="24" height="24" viewBox="0 0 24 24" fill="none" xmlns="http://www.w3.org/2000/svg">
<path d="M12 4.75V4C11.8063 4 11.62 4.075 11.4803 4.2093L12 4.75ZM19.25 4.75H20C20 4.33579 19.6642 4 19.25 4V4.75ZM18.5 12.25C18.5 12.6642 18.8358 13 19.25 13C19.6642 13 20 12.6642 20 12.25H18.5ZM9.13686 19.1359C9.42031 19.4379 9.89495 19.4529 10.197 19.1695C10.499 18.886 10.5141 18.4114 10.2306 18.1093L9.13686 19.1359ZM12 5.5H19.25V4H12V5.5ZM18.5 4.75V12.25H20V4.75H18.5ZM10.2306 18.1093L5.83685 13.4277L4.7431 14.4543L9.13686 19.1359L10.2306 18.1093ZM5.83685 13.4277C5.36841 12.9286 5.38855 12.1456 5.88205 11.6712L4.84256 10.5898C3.75684 11.6334 3.7125 13.3562 4.7431 14.4543L5.83685 13.4277ZM5.88205 11.6712L12.5198 5.2907L11.4803 4.2093L4.84256 10.5898L5.88205 11.6712Z" fill="#111010"/>
<path d="M15 9V10C15.5523 10 16 9.55228 16 9H15ZM15 9H14C14 9.55228 14.4477 10 15 10V9ZM15 9V8C14.4477 8 14 8.44772 14 9H15ZM15 9H16C16 8.44772 15.5523 8 15 8V9Z" fill="#111010"/>
<path fill-rule="evenodd" clip-rule="evenodd" d="M12.5126 12.5126C12.8407 12.1844 13.2859 12 13.75 12H16.25C16.6642 12 17 12.3358 17 12.75C17 13.1642 16.6642 13.5 16.25 13.5H13.75C13.6837 13.5 13.6201 13.5263 13.5732 13.5732C13.5263 13.6201 13.5 13.6837 13.5 13.75V14.5727C13.5001 14.6226 13.5151 14.6713 13.5431 14.7126C13.5635 14.7428 13.5901 14.7679 13.621 14.7865L15.783 15.2679C15.8223 15.2767 15.8608 15.2886 15.8982 15.3035C16.223 15.4333 16.5014 15.6573 16.6976 15.9468C16.8938 16.2362 16.9988 16.5778 16.999 16.9275V18.251C16.999 18.7151 16.8146 19.1602 16.4864 19.4884C16.1582 19.8166 15.7131 20.001 15.249 20.001H12.749C12.3348 20.001 11.999 19.6652 11.999 19.251C11.999 18.8368 12.3348 18.501 12.749 18.501H15.249C15.3153 18.501 15.3789 18.4747 15.4258 18.4278C15.4727 18.3809 15.499 18.3173 15.499 18.251V16.9285C15.499 16.9284 15.499 16.9285 15.499 16.9285C15.4989 16.8786 15.4839 16.8297 15.4559 16.7884C15.4355 16.7582 15.4089 16.7331 15.378 16.7145L13.216 16.2331C13.1767 16.2243 13.1381 16.2124 13.1007 16.1975C12.776 16.0677 12.4976 15.8437 12.3014 15.5542C12.1052 15.2648 12.0002 14.9232 12 14.5735V13.75C12 13.2859 12.1844 12.8408 12.5126 12.5126Z" fill="#111010"/>
</svg>
