<svg xmlns="http://www.w3.org/2000/svg" viewBox="0 0 32 32">
  <path d="M27 10a3 3 0 00-3-3h-3V6a3 3 0 00-3-3h-4a3 3 0 00-3 3v1H8a3 3 0 00-1 5.83A1 1 0 007 13v13a3 3 0 003 3h12a3 3 0 003-3V13a1 1 0 000-.17A3 3 0 0027 10zM13 6a1 1 0 011-1h4a1 1 0 011 1v1h-6zm10 20a1 1 0 01-1 1H10a1 1 0 01-1-1V13h14zm1-15H8a1 1 0 010-2h16a1 1 0 010 2z"/>
  <path class="cls-1" d="M12 25a1 1 0 001-1v-7a1 1 0 00-2 0v7a1 1 0 001 1zM20 25a1 1 0 001-1v-7a1 1 0 00-2 0v7a1 1 0 001 1zM16 25a1 1 0 001-1v-7a1 1 0 00-2 0v7a1 1 0 001 1z"/>
</svg>
