<svg width="32" height="32" viewBox="0 0 32 32" xmlns="http://www.w3.org/2000/svg">
    <path fill-rule="evenodd" clip-rule="evenodd" d="M9.43835 10.5C9.80838 9.06231 11.1135 8 12.6667 8C14.2199 8 15.525 9.06231 15.895 10.5H25.9167C26.3309 10.5 26.6667 10.8358 26.6667 11.25C26.6667 11.6642 26.3309 12 25.9167 12H15.9333C15.6245 13.5215 14.2793 14.6667 12.6667 14.6667C11.054 14.6667 9.70886 13.5215 9.40001 12H6.08333C5.66912 12 5.33333 11.6642 5.33333 11.25C5.33333 10.8358 5.66912 10.5 6.08333 10.5H9.43835ZM12.6667 13.1667C11.6541 13.1667 10.8333 12.3459 10.8333 11.3333C10.8333 10.3208 11.6541 9.5 12.6667 9.5C13.6792 9.5 14.5 10.3208 14.5 11.3333C14.5 12.3459 13.6792 13.1667 12.6667 13.1667Z"/>
    <path fill-rule="evenodd" clip-rule="evenodd" d="M19.3333 25.3333C20.8865 25.3333 22.1916 24.271 22.5617 22.8333H25.9167C26.3309 22.8333 26.6667 22.4975 26.6667 22.0833C26.6667 21.6691 26.3309 21.3333 25.9167 21.3333H22.6C22.2911 19.8118 20.946 18.6667 19.3333 18.6667C17.7207 18.6667 16.3755 19.8118 16.0667 21.3333L6.08333 21.3333C5.66912 21.3333 5.33333 21.6691 5.33333 22.0833C5.33333 22.4975 5.66912 22.8333 6.08333 22.8333L16.105 22.8333C16.4751 24.271 17.7801 25.3333 19.3333 25.3333ZM19.3333 20.1667C20.3459 20.1667 21.1667 20.9875 21.1667 22C21.1667 23.0125 20.3459 23.8333 19.3333 23.8333C18.3208 23.8333 17.5 23.0125 17.5 22C17.5 20.9875 18.3208 20.1667 19.3333 20.1667Z"/>
</svg>
