<svg width="20" height="20" viewBox="0 0 20 20" xmlns="http://www.w3.org/2000/svg">
    <path fill-rule="evenodd" clip-rule="evenodd" d="M9.99998 2C10.3266 2 10.6157 2.21136 10.7147 2.5226L12.2984 7.5H17.25C17.5704 7.5 17.8554 7.70354 17.9594 8.0066C18.0634 8.30966 17.9634 8.64531 17.7104 8.84201L13.6051 12.035L14.9736 17.0527C15.0595 17.3678 14.9316 17.7024 14.6573 17.8798C14.383 18.0572 14.0254 18.0366 13.7732 17.8289L9.99998 14.7216L6.22676 17.8289C5.97459 18.0366 5.61701 18.0572 5.3427 17.8798C5.06839 17.7024 4.94046 17.3678 5.02641 17.0527L6.39485 12.035L2.28953 8.84201C2.03662 8.64531 1.9366 8.30966 2.04058 8.0066C2.14456 7.70354 2.42958 7.5 2.74998 7.5H7.70157L9.28529 2.5226C9.38432 2.21136 9.67338 2 9.99998 2Z"/>
</svg>
