<svg width="24" height="24" viewBox="0 0 24 24" fill="none" xmlns="http://www.w3.org/2000/svg">
<path fill-rule="evenodd" clip-rule="evenodd" d="M7.75 5.5C7.05964 5.5 6.5 6.05964 6.5 6.75L6.5 17.25C6.5 17.9404 7.05965 18.5 7.75 18.5H16.25C16.9404 18.5 17.5 17.9404 17.5 17.25V10H14.1117C13.6975 10 13.3617 9.66421 13.3617 9.25V5.5H7.75ZM14.8617 6.67355L16.5414 8.5H14.8617V6.67355ZM5 6.75C5 5.23122 6.23122 4 7.75 4H14.1117C14.3216 4 14.5218 4.08789 14.6638 4.24232L18.8021 8.74232C18.9294 8.88075 19 9.06194 19 9.25V17.25C19 18.7688 17.7688 20 16.25 20H7.75C6.23122 20 5 18.7688 5 17.25L5 6.75ZM9.37829 9.09859C9.61219 8.96512 9.8997 8.9673 10.1315 9.10431L15.6315 12.3543C15.8599 12.4892 16 12.7348 16 13C16 13.2652 15.8599 13.5108 15.6315 13.6457L10.1315 16.8957C9.8997 17.0327 9.61219 17.0349 9.37829 16.9014C9.14439 16.7679 9 16.5193 9 16.25V9.75C9 9.4807 9.14439 9.23207 9.37829 9.09859ZM10.5 11.0643V14.9357L13.7757 13L10.5 11.0643Z" fill="#111010"/>
</svg>
