<svg width="20" height="20" viewBox="0 0 20 20" xmlns="http://www.w3.org/2000/svg">
    <path fill-rule="evenodd" clip-rule="evenodd" d="M4.00002 8C4.00002 4.6863 6.68632 2 10 2C13.3137 2 16 4.68629 16 8V9.76196L17.7498 12.2408C18.5681 13.4 17.739 15 16.3201 15H13.7336C13.7246 15.0806 13.7105 15.178 13.6886 15.2877C13.6298 15.5816 13.5112 15.9807 13.2681 16.3859C12.7528 17.2447 11.7541 18 10 18C8.24594 18 7.24719 17.2447 6.7319 16.3859C6.4888 15.9807 6.37023 15.5816 6.31146 15.2877C6.28951 15.178 6.27544 15.0806 6.2664 15H3.67994C2.26101 15 1.43197 13.4 2.25025 12.2408L4.00002 9.76196V8ZM7.74999 14.7435C7.75002 14.7444 7.75007 14.7459 7.75015 14.7481C7.75046 14.7558 7.75125 14.7713 7.75314 14.7934C7.75695 14.8378 7.76511 14.9075 7.78233 14.9935C7.78276 14.9957 7.7832 14.9978 7.78363 15H12.2164C12.181 15.174 12.1122 15.397 11.9819 15.6141C11.7472 16.0053 11.2459 16.5 10 16.5C8.75411 16.5 8.25285 16.0053 8.01814 15.6141C7.88786 15.397 7.81901 15.174 7.78363 15M10 3.5C7.51474 3.5 5.50002 5.51472 5.50002 8V10C5.50002 10.1549 5.45207 10.306 5.36275 10.4325L3.4757 13.1058C3.3588 13.2714 3.47724 13.5 3.67994 13.5H16.3201C16.5228 13.5 16.6412 13.2714 16.5243 13.1058L14.6373 10.4325C14.548 10.306 14.5 10.1549 14.5 10V8C14.5 5.51471 12.4853 3.5 10 3.5Z"/>
</svg>
