<svg width="24" height="24" viewBox="0 0 24 24" xmlns="http://www.w3.org/2000/svg">
    <path d="M15 10C15.5523 10 16 9.55228 16 9C16 8.44772 15.5523 8 15 8C14.4477 8 14 8.44772 14 9C14 9.55228 14.4477 10 15 10Z"/>
    <path fill-rule="evenodd" clip-rule="evenodd" d="M11.4802 4.2093C11.6199 4.075 11.8062 4 12 4H19.25C19.6642 4 20 4.33579 20 4.75V12C20 12.1994 19.9206 12.3906 19.7793 12.5313L13.0828 19.2021C11.984 20.2966 10.1982 20.2667 9.13681 19.1359L4.74303 14.4543C3.71244 13.3562 3.75677 11.6334 4.84248 10.5898L11.4802 4.2093ZM12.302 5.5L5.88198 11.6712C5.38848 12.1456 5.36833 12.9286 5.83677 13.4277L10.2305 18.1093C10.713 18.6233 11.5247 18.637 12.0242 18.1395L18.5 11.6885V5.5H12.302Z"/>
</svg>
