<svg width="32" height="32" viewBox="0 0 32 32" xmlns="http://www.w3.org/2000/svg">
  <path d="M7.25 26A2.75 2.75 0 0010 28.75h14A2.75 2.75 0 0026.75 26V9.998a.75.75 0 00-.22-.53l-6.002-5.999a.75.75 0 00-.53-.219H10A2.75 2.75 0 007.25 6v7a.75.75 0 001.5 0V6c0-.69.56-1.25 1.25-1.25h9V9a2 2 0 002 2h4.25v15c0 .69-.56 1.25-1.25 1.25H10c-.69 0-1.25-.56-1.25-1.25v-1a.75.75 0 00-1.5 0v1z"/>
  <path d="M3.991 19.237c0 1.692 1.098 2.853 2.574 2.853 1.305 0 2.106-.765 2.313-1.881H7.735c-.189.513-.53.855-1.17.855-.882 0-1.404-.783-1.404-1.827 0-1.053.522-1.827 1.404-1.827.64 0 .981.342 1.17.846h1.143c-.207-1.107-1.008-1.872-2.313-1.872-1.476 0-2.574 1.161-2.574 2.853zm5.824 1.188c.19 1.053 1.062 1.665 2.295 1.665 1.17 0 2.052-.648 2.052-1.719 0-.837-.549-1.35-1.449-1.557l-1.008-.234c-.414-.099-.62-.288-.62-.603 0-.396.35-.648.872-.648.576 0 .891.288 1.017.657h1.143c-.18-.936-.909-1.602-2.169-1.602-1.16 0-1.989.702-1.989 1.701 0 .909.612 1.332 1.404 1.512l.99.225c.477.108.675.288.675.621 0 .441-.369.693-.927.693-.54 0-.945-.225-1.098-.711H9.815zm9.138-3.951h1.188L18.062 22h-1.116l-2.07-5.526h1.215l1.431 3.996 1.431-3.996z"/>
</svg>
