<svg width="24" height="24" viewBox="0 0 24 24" xmlns="http://www.w3.org/2000/svg">
  <path d="M13.75 11.5a.75.75 0 100-1.5.75.75 0 000 1.5zm3.75-.75a.75.75 0 11-1.5 0 .75.75 0 011.5 0z"/>
  <path fill-rule="evenodd" clip-rule="evenodd" d="M6.5 6v1.5H5A1.5 1.5 0 003.5 9v7A1.5 1.5 0 005 17.5h1.5V20A1.5 1.5 0 008 21.5h8a1.5 1.5 0 001.5-1.5v-2.5H19a1.5 1.5 0 001.5-1.5V9A1.5 1.5 0 0019 7.5h-1.5V6A1.5 1.5 0 0016 4.5H8A1.5 1.5 0 006.5 6zM8 5.5a.5.5 0 00-.5.5v1.5h9V6a.5.5 0 00-.5-.5H8zm9.5 11H19a.5.5 0 00.5-.5V9a.5.5 0 00-.5-.5H5a.5.5 0 00-.5.5v7a.5.5 0 00.5.5h1.5v-1.998h11V16.5zM7.5 20v-4.498h9V20a.5.5 0 01-.5.5H8a.5.5 0 01-.5-.5z"/>
</svg>
