<svg width="24" height="24" viewBox="0 0 24 24" xmlns="http://www.w3.org/2000/svg">
    <path fill-rule="evenodd" clip-rule="evenodd" d="M6.47998 5.29999C4.9115 5.29999 3.63998 6.5715 3.63998 8.13999C3.63998 9.70848 4.9115 10.98 6.47998 10.98C8.04847 10.98 9.31998 9.70848 9.31998 8.13999C9.31998 6.5715 8.04847 5.29999 6.47998 5.29999ZM4.63998 8.13999C4.63998 7.12378 5.46378 6.29999 6.47998 6.29999C7.49619 6.29999 8.31998 7.12378 8.31998 8.13999C8.31998 9.15619 7.49619 9.97999 6.47998 9.97999C5.46378 9.97999 4.63998 9.15619 4.63998 8.13999Z"/>
    <path fill-rule="evenodd" clip-rule="evenodd" d="M1.29999 17.5C1.29999 14.6391 3.61915 12.32 6.47999 12.32C9.34082 12.32 11.66 14.6391 11.66 17.5C11.66 18.096 11.401 18.6529 11.2209 18.9747C10.9982 19.3727 10.5811 19.56 10.1859 19.56H2.77346C2.37748 19.56 1.95983 19.3719 1.73736 18.973C1.55784 18.6511 1.29999 18.0947 1.29999 17.5ZM6.47999 13.32C4.17144 13.32 2.29999 15.1914 2.29999 17.5C2.29999 17.835 2.45591 18.2083 2.61072 18.4859C2.62798 18.5169 2.67726 18.56 2.77346 18.56H10.1859C10.282 18.56 10.3311 18.517 10.3483 18.4863C10.5035 18.209 10.66 17.8355 10.66 17.5C10.66 15.1914 8.78854 13.32 6.47999 13.32Z"/>
    <path d="M19.3536 7.55357C19.5488 7.3583 19.5488 7.04172 19.3536 6.84646C19.1583 6.6512 18.8417 6.6512 18.6464 6.84646L16.5 8.99291L14.3536 6.84646C14.1583 6.6512 13.8417 6.6512 13.6464 6.84646C13.4512 7.04172 13.4512 7.3583 13.6464 7.55357L15.7929 9.70001L13.6464 11.8465C13.4512 12.0417 13.4512 12.3583 13.6464 12.5536C13.8417 12.7488 14.1583 12.7488 14.3536 12.5536L16.5 10.4071L18.6464 12.5536C18.8417 12.7488 19.1583 12.7488 19.3536 12.5536C19.5488 12.3583 19.5488 12.0417 19.3536 11.8465L17.2071 9.70001L19.3536 7.55357Z"/>
</svg>
