<svg width="24" height="24" viewBox="0 0 24 24" xmlns="http://www.w3.org/2000/svg">
    <path fill-rule="evenodd" clip-rule="evenodd" d="M5.5428 11.25H8.01802C8.11591 9.23031 8.6032 7.55958 9.24518 6.33849C9.29985 6.23451 9.35587 6.13334 9.41314 6.03513C7.32917 6.94016 5.81218 8.90532 5.5428 11.25ZM12 4C7.58172 4 4 7.58172 4 12C4 13.9391 4.68988 15.717 5.83758 17.1018L4.21967 18.7197C3.92678 19.0126 3.92678 19.4874 4.21967 19.7803C4.51256 20.0732 4.98744 20.0732 5.28033 19.7803L6.89824 18.1624C8.28299 19.3101 10.0609 20 12 20C16.4183 20 20 16.4183 20 12C20 10.0609 19.3101 8.28299 18.1624 6.89824L19.7803 5.28033C20.0732 4.98744 20.0732 4.51256 19.7803 4.21967C19.4874 3.92678 19.0126 3.92678 18.7197 4.21967L17.1018 5.83758C15.717 4.68988 13.9391 4 12 4ZM12 5.5C11.9541 5.5 11.7686 5.53722 11.4709 5.80634C11.1886 6.06164 10.8712 6.46914 10.5729 7.03651C10.0495 8.03191 9.61624 9.46098 9.51996 11.25H11.6893L14.1095 8.8298C13.9244 8.13125 13.6868 7.53048 13.4271 7.03651C13.1288 6.46914 12.8114 6.06164 12.5291 5.80634C12.2314 5.53722 12.0459 5.5 12 5.5ZM15.3102 7.62914C15.1455 7.15605 14.9579 6.72477 14.7548 6.33849C14.7002 6.23451 14.6441 6.13334 14.5869 6.03513C15.1088 6.26181 15.5952 6.55499 16.0353 6.90399L15.3102 7.62914ZM14.432 10.6287L13.8107 11.25H14.48C14.4686 11.0378 14.4525 10.8306 14.432 10.6287ZM15.982 11.25C15.9485 10.5599 15.8696 9.91061 15.7546 9.30603L17.096 7.96465C17.8288 8.8888 18.3155 10.0169 18.4572 11.25H15.982ZM14.48 12.75H12.3107L9.89046 15.1702C10.0756 15.8688 10.3132 16.4695 10.5729 16.9635C10.8712 17.5309 11.1886 17.9384 11.4709 18.1937C11.7686 18.4628 11.9541 18.5 12 18.5C12.0459 18.5 12.2314 18.4628 12.5291 18.1937C12.8114 17.9384 13.1288 17.5309 13.4271 16.9635C13.9505 15.9681 14.3838 14.539 14.48 12.75ZM14.5869 17.9649C14.6441 17.8667 14.7002 17.7655 14.7548 17.6615C15.3968 16.4404 15.8841 14.7697 15.982 12.75H18.4572C18.1878 15.0947 16.6708 17.0598 14.5869 17.9649ZM9.41314 17.9649C9.35587 17.8667 9.29985 17.7655 9.24518 17.6615C9.0421 17.2752 8.85449 16.844 8.6898 16.3709L7.96465 17.096C8.40478 17.445 8.89118 17.7382 9.41314 17.9649ZM6.90399 16.0353L8.24537 14.694C8.13037 14.0894 8.05147 13.4401 8.01802 12.75H5.5428C5.68447 13.9831 6.1712 15.1112 6.90399 16.0353ZM9.51996 12.75C9.53138 12.9622 9.54754 13.1694 9.56803 13.3713L10.1893 12.75H9.51996Z"/>
</svg>
