<svg width="20" height="20" viewBox="0 0 20 20" xmlns="http://www.w3.org/2000/svg">
    <path fill-rule="evenodd" clip-rule="evenodd" d="M10 2C10.4142 2 10.75 2.33474 10.75 2.74766V10.3375L13.7047 7.21872C13.9891 6.91852 14.4638 6.905 14.765 7.18853C15.0661 7.47205 15.0797 7.94525 14.7953 8.24545L10.5453 12.7314C10.4036 12.881 10.2063 12.9657 10 12.9657C9.79365 12.9657 9.59642 12.881 9.45474 12.7314L5.20474 8.24545C4.92033 7.94525 4.93389 7.47205 5.23503 7.18853C5.53617 6.905 6.01085 6.91852 6.29526 7.21872L9.25 10.3375V2.74766C9.25 2.33474 9.58579 2 10 2ZM2.75 11.9688C3.16421 11.9688 3.5 12.3036 3.5 12.7165V15.2586C3.5 15.9468 4.05964 16.5047 4.75 16.5047H15.25C15.9404 16.5047 16.5 15.9468 16.5 15.2586V12.7165C16.5 12.3036 16.8358 11.9688 17.25 11.9688C17.6642 11.9688 18 12.3036 18 12.7165V15.2586C18 16.7726 16.7688 18 15.25 18H4.75C3.23122 18 2 16.7726 2 15.2586V12.7165C2 12.3036 2.33579 11.9688 2.75 11.9688Z"/>
</svg>
