<svg xmlns="http://www.w3.org/2000/svg" viewBox="0 0 24 24"><path d="M12.29 8.29a.996.996 0 0 1 1.41 0l3 3c.03.03.06.06.08.09l.02.02c.02.02.03.05.05.07.01.01.01.02.02.04l.03.06c.01.02.02.03.02.05.01.02.02.04.02.06 0 .01.01.03.01.05.01.02.01.04.02.07 0 .02.01.03.01.05.02.05.02.1.02.15v-.09V12.08c0 .02 0 .04-.01.06 0 .02-.01.03-.01.05 0 .02-.01.04-.02.07 0 .02-.01.03-.01.05-.01.02-.01.04-.02.06-.01.02-.01.04-.02.05l-.03.06c-.01.01-.01.02-.02.04-.02.03-.03.05-.05.07-.03.04-.06.08-.1.11l.08-.09s0 .01-.01.01l-.07.08-3 3a.996.996 0 1 1-1.41-1.41L13.59 13H8c-.51 0-.94-.39-.99-.88L7 12c0-.55.45-1 1-1h5.59L12.3 9.71a.995.995 0 0 1-.08-1.32l.07-.1z"/></svg>