<svg width="20" height="20" viewBox="0 0 20 20" xmlns="http://www.w3.org/2000/svg">
    <path fill-rule="evenodd" clip-rule="evenodd" d="M7.00001 4C7.21262 4 7.41525 4.09024 7.55748 4.24828L9.80748 6.74828C10.0846 7.05616 10.0596 7.53038 9.75173 7.80747C9.44385 8.08457 8.96963 8.05961 8.69254 7.75172L7.75001 6.70447V13.25C7.75001 13.6642 7.41422 14 7.00001 14C6.58579 14 6.25001 13.6642 6.25001 13.25V6.70447L5.30748 7.75172C5.03038 8.05961 4.55617 8.08457 4.24828 7.80747C3.9404 7.53038 3.91544 7.05616 4.19254 6.74828L6.44254 4.24828C6.58477 4.09024 6.78739 4 7.00001 4ZM13 6C13.4142 6 13.75 6.33579 13.75 6.75V13.2955L14.6925 12.2483C14.9696 11.9404 15.4438 11.9154 15.7517 12.1925C16.0596 12.4696 16.0846 12.9438 15.8075 13.2517L13.5575 15.7517C13.4152 15.9098 13.2126 16 13 16C12.7874 16 12.5848 15.9098 12.4425 15.7517L10.1925 13.2517C9.91544 12.9438 9.9404 12.4696 10.2483 12.1925C10.5562 11.9154 11.0304 11.9404 11.3075 12.2483L12.25 13.2955V6.75C12.25 6.33579 12.5858 6 13 6Z"/>
</svg>
