<svg xmlns="http://www.w3.org/2000/svg" viewBox="0 0 32 32">
    <g>
        <path d="M25.21,13l-.89-.15c-.07-.19-.14-.37-.22-.54l.53-.76.06-.09a2.1,2.1,0,0,0-.28-2.63L23.14,7.59A2.1,2.1,0,0,0,21.65,7a2.21,2.21,0,0,0-1.09.3.71.71,0,0,0-.14.1l-.75.53-.58-.24-.15-.9A2.1,2.1,0,0,0,16.86,5H15.07A2.08,2.08,0,0,0,13,6.79l-.16.9-.54.23-.75-.53A2,2,0,0,0,10.32,7a2.1,2.1,0,0,0-1.5.62L7.56,8.88a2.11,2.11,0,0,0-.24,2.71l.56.79c-.07.17-.15.35-.22.53l-.9.16A2.08,2.08,0,0,0,5,15.15v1.78A2.1,2.1,0,0,0,6.79,19l.9.15c.07.19.15.37.23.55l-.53.74-.06.09a2.1,2.1,0,0,0,.29,2.63l1.26,1.26a2.1,2.1,0,0,0,1.5.62,2.13,2.13,0,0,0,1.09-.3l.13-.09.78-.55.49.2.15.92A2.09,2.09,0,0,0,15.1,27h1.79A2.09,2.09,0,0,0,19,25.21l.15-.89c.19-.07.37-.14.54-.22l.76.53a2.06,2.06,0,0,0,1.23.4,2.1,2.1,0,0,0,1.49-.62l1.26-1.27a2.1,2.1,0,0,0,.24-2.7l-.55-.77c.08-.18.16-.36.23-.55l.91-.15a2.07,2.07,0,0,0,1.71-1.61,1.84,1.84,0,0,0,.06-.47V15.11A2.1,2.1,0,0,0,25.21,13ZM25,16.89h0a.12.12,0,0,1-.1.11l-1.78.3a.54.54,0,0,0-.45.42,6.71,6.71,0,0,1-.74,1.77.58.58,0,0,0,0,.62L23,21.59a.11.11,0,0,1,0,.14L21.73,23a.12.12,0,0,1-.08,0l-.07,0L20.11,22a.55.55,0,0,0-.33-.11.6.6,0,0,0-.29.08,6.71,6.71,0,0,1-1.77.74.57.57,0,0,0-.42.46L17,24.91a.12.12,0,0,1-.11.09H15.1a.12.12,0,0,1-.11-.09l-.29-1.78a.58.58,0,0,0-.42-.46A7.32,7.32,0,0,1,12.54,22a.6.6,0,0,0-.29-.08.59.59,0,0,0-.33.11L10.44,23a.07.07,0,0,1-.06,0,.09.09,0,0,1-.08,0L9,21.77a.12.12,0,0,1,0-.15l1-1.46a.58.58,0,0,0,0-.62,6.73,6.73,0,0,1-.75-1.77.57.57,0,0,0-.46-.42L7.09,17A.11.11,0,0,1,7,16.93V15.15A.11.11,0,0,1,7.09,15l1.77-.3a.57.57,0,0,0,.46-.42,6.75,6.75,0,0,1,.73-1.78.58.58,0,0,0,0-.62L9,10.44a.12.12,0,0,1,0-.14L10.24,9a.1.1,0,0,1,.08,0l.06,0,1.46,1a.59.59,0,0,0,.33.11.61.61,0,0,0,.3-.08,6.73,6.73,0,0,1,1.77-.75.6.6,0,0,0,.42-.46L15,7.09A.12.12,0,0,1,15.07,7h1.79a.12.12,0,0,1,.11.09l.29,1.77a.58.58,0,0,0,.43.46,6.53,6.53,0,0,1,1.81.75.57.57,0,0,0,.63,0l1.46-1,.06,0a.1.1,0,0,1,.08,0L23,10.27a.12.12,0,0,1,0,.14L22,11.88a.58.58,0,0,0,0,.62,6.77,6.77,0,0,1,.74,1.78.58.58,0,0,0,.46.42l1.78.3a.1.1,0,0,1,.09.11Z"/>
        <path d="M16,12a4,4,0,1,0,4,4A4,4,0,0,0,16,12Zm0,6a2,2,0,1,1,2-2A2,2,0,0,1,16,18Z"/>
    </g>
</svg>
