<svg width="32" height="32" viewBox="0 0 32 32" xmlns="http://www.w3.org/2000/svg">
  <path fill-rule="evenodd" clip-rule="evenodd" d="M22.7 21.2a7 7 0 100-14 7 7 0 000 14zm.75-10a.75.75 0 00-1.5 0v2.25H19.7a.75.75 0 000 1.5h2.25v2.25a.75.75 0 001.5 0v-2.25h2.25a.75.75 0 000-1.5h-2.25V11.2z"/>
  <path d="M9.712 8.75c-.215 0-.422.03-.617.085a.75.75 0 11-.408-1.443 3.764 3.764 0 012.05 0 .75.75 0 01-.409 1.443 2.264 2.264 0 00-.616-.085zm-2.695.719a.75.75 0 01.518.926 2.264 2.264 0 000 1.234.75.75 0 01-1.444.408 3.764 3.764 0 010-2.05.75.75 0 01.926-.518zm6.315.518a.75.75 0 00-1.444.408 2.263 2.263 0 010 1.234.75.75 0 101.444.408 3.766 3.766 0 000-2.05zm-5.163 3.719a.75.75 0 01.926-.518 2.263 2.263 0 001.233 0 .75.75 0 01.409 1.444 3.766 3.766 0 01-2.05 0 .75.75 0 01-.518-.926zm.846 4.06a5.321 5.321 0 011.416 0 .75.75 0 10.199-1.487 6.825 6.825 0 00-1.814 0 .75.75 0 00.2 1.487zm-2.345-.02a.75.75 0 01-.142 1.051 5.31 5.31 0 00-1 1 .75.75 0 11-1.192-.91c.368-.483.8-.914 1.282-1.282a.75.75 0 011.051.14zm7.158-.141a.75.75 0 00-.91 1.192 5.31 5.31 0 011 1 .75.75 0 101.193-.91 6.81 6.81 0 00-1.283-1.282zm-9.975 3.837a.75.75 0 01.644.843c-.03.224-.046.454-.047.687a.42.42 0 00.048.078.75.75 0 01-1.207.89c-.175-.237-.341-.56-.341-.948 0-.307.02-.61.06-.907a.75.75 0 01.843-.643zm12.583.643a.75.75 0 00-1.487.2c.03.224.046.454.047.687a.419.419 0 01-.048.078.75.75 0 101.207.89c.176-.237.341-.56.341-.948 0-.307-.02-.61-.06-.907zM4.93 24.375a.75.75 0 011.003-.344c.19.092.354.165.464.212l.004.001.012.005h.017l.012.001h.561a.75.75 0 010 1.5h-.561c-.036 0-.072-.001-.107-.003a.75.75 0 01-.208-.043.746.746 0 01-.212-.04 1.571 1.571 0 01-.107-.042 11.513 11.513 0 01-.533-.244.75.75 0 01-.345-1.003zm9.24 1.004a.75.75 0 10-.658-1.348 10 10 0 01-.464.212l-.004.002-.013.004h-.016l-.012.001h-.561a.75.75 0 000 1.5h.56l.108-.003a.752.752 0 00.207-.043.75.75 0 00.212-.04c.036-.012.071-.026.107-.041.128-.055.316-.138.534-.244zM8.412 25a.75.75 0 01.75-.75h1.122a.75.75 0 010 1.5H9.162a.75.75 0 01-.75-.75z"/>
</svg>
