<svg width="20" height="20" viewBox="0 0 20 20" xmlns="http://www.w3.org/2000/svg">
    <path fill-rule="evenodd" clip-rule="evenodd" d="M5.75 3.5C5.05964 3.5 4.5 4.05964 4.5 4.75L4.5 15.25C4.5 15.9404 5.05965 16.5 5.75 16.5H14.25C14.9404 16.5 15.5 15.9404 15.5 15.25V8H12.1117C11.6975 8 11.3617 7.66421 11.3617 7.25V3.5H5.75ZM12.8617 4.67355L14.5414 6.5H12.8617V4.67355ZM3 4.75C3 3.23122 4.23122 2 5.75 2H12.1117C12.3216 2 12.5218 2.08789 12.6638 2.24232L16.8021 6.74232C16.9294 6.88075 17 7.06194 17 7.25V15.25C17 16.7688 15.7688 18 14.25 18H5.75C4.23122 18 3 16.7688 3 15.25L3 4.75ZM7.37829 7.09859C7.61219 6.96512 7.8997 6.9673 8.13155 7.10431L13.6315 10.3543C13.8599 10.4892 14 10.7348 14 11C14 11.2652 13.8599 11.5108 13.6315 11.6457L8.13155 14.8957C7.8997 15.0327 7.61219 15.0349 7.37829 14.9014C7.14439 14.7679 7 14.5193 7 14.25V7.75C7 7.4807 7.14439 7.23207 7.37829 7.09859ZM8.5 9.06434V12.9357L11.7757 11L8.5 9.06434Z"/>
</svg>
