<svg width="24" height="24" viewBox="0 0 24 24" xmlns="http://www.w3.org/2000/svg">
    <path fill-rule="evenodd" clip-rule="evenodd" d="M4.75 4C5.16421 4 5.5 4.33579 5.5 4.75L5.5 7.33445C5.74999 6.98699 6.03108 6.65526 6.34317 6.34317C9.46736 3.21897 14.5327 3.21897 17.6568 6.34317C20.7811 9.46736 20.7811 14.5327 17.6568 17.6568C14.5327 20.781 9.46736 20.7811 6.34317 17.6568C6.05027 17.364 6.05028 16.8891 6.34317 16.5962C6.63606 16.3033 7.11094 16.3033 7.40383 16.5962C9.94224 19.1346 14.0578 19.1346 16.5962 16.5962L17.1265 17.1265L16.5962 16.5962C19.1346 14.0578 19.1346 9.94224 16.5962 7.40383C14.0578 4.86542 9.94224 4.86542 7.40383 7.40383C7.06375 7.74391 6.76956 8.11178 6.52097 8.5L9.25 8.5C9.66421 8.5 10 8.83579 10 9.25C10 9.66421 9.66421 10 9.25 10L5.75 10C4.78349 10 4 9.21651 4 8.25L4 4.75C4 4.33579 4.33579 4 4.75 4Z"/>
</svg>
