<svg width="24" height="24" viewBox="0 0 24 24" xmlns="http://www.w3.org/2000/svg">
    <path d="M6.25 15C6.21 15 6.17 15 6.13 14.99C5.39 14.87 4 14.08 4 12C4 10.13 5.31 8.53 7.08 8.11C7.5 5.76 9.56 4 12 4C14.44 4 16.5 5.76 16.92 8.11C18.69 8.53 20 10.13 20 12C20 12.41 19.66 12.75 19.25 12.75C18.84 12.75 18.5 12.41 18.5 12C18.5 10.7 17.48 9.6 16.19 9.51C15.81 9.48 15.52 9.18 15.5 8.8C15.39 6.95 13.86 5.5 12 5.5C10.14 5.5 8.61 6.95 8.51 8.8C8.48 9.18 8.19 9.48 7.81 9.51C6.52 9.6 5.5 10.7 5.5 12C5.5 13.26 6.24 13.48 6.39 13.51C6.79 13.59 7.06 13.98 6.98 14.39C6.91 14.75 6.6 15 6.25 15Z"/>
    <path fill-rule="evenodd" clip-rule="evenodd" d="M12.91 16L11.87 14.92C11.33 14.36 10.47 14.36 9.93 14.92C9.36 15.51 9.36 16.49 9.93 17.08C10.47 17.64 11.33 17.64 11.87 17.08L12.91 16ZM15 16L12.95 13.88C11.82 12.71 9.98 12.71 8.85 13.88C7.72 15.05 7.72 16.95 8.85 18.12C9.98 19.29 11.82 19.29 12.95 18.12L15 16Z"/>
    <path fill-rule="evenodd" clip-rule="evenodd" d="M15.09 16L16.13 17.08C16.67 17.64 17.53 17.64 18.07 17.08C18.64 16.49 18.64 15.51 18.07 14.92C17.53 14.36 16.67 14.36 16.13 14.92L15.09 16ZM13 16L15.05 18.12C16.18 19.29 18.02 19.29 19.15 18.12C20.28 16.95 20.28 15.05 19.15 13.88C18.02 12.71 16.18 12.71 15.05 13.88L13 16Z"/>
</svg>
