<svg width="20" height="20" viewBox="0 0 20 20" xmlns="http://www.w3.org/2000/svg">
    <path fill-rule="evenodd" clip-rule="evenodd" d="M5 4C5 3.44772 5.44772 3 6 3C6.55228 3 7 3.44772 7 4C7 4.55228 6.55228 5 6 5C5.44772 5 5 4.55228 5 4ZM9 4C9 3.44769 9.44778 3 10 3C10.5522 3 11 3.44769 11 4C11 4.55231 10.5522 5 10 5C9.44778 5 9 4.55231 9 4ZM13 4C13 3.44769 13.4478 3 14 3C14.5522 3 15 3.44769 15 4C15 4.55231 14.5522 5 14 5C13.4478 5 13 4.55231 13 4ZM5 10C5 9.44778 5.44769 9 6 9C6.55231 9 7 9.44778 7 10C7 10.5522 6.55231 11 6 11C5.44769 11 5 10.5522 5 10ZM9 10C9 9.44776 9.44776 9 10 9C10.5522 9 11 9.44776 11 10C11 10.5522 10.5522 11 10 11C9.44776 11 9 10.5522 9 10ZM13 10C13 9.44776 13.4478 9 14 9C14.5522 9 15 9.44776 15 10C15 10.5522 14.5522 11 14 11C13.4478 11 13 10.5522 13 10ZM5 16C5 15.4478 5.44769 15 6 15C6.55231 15 7 15.4478 7 16C7 16.5522 6.55231 17 6 17C5.44769 17 5 16.5522 5 16ZM9 16C9 15.4478 9.44776 15 10 15C10.5522 15 11 15.4478 11 16C11 16.5522 10.5522 17 10 17C9.44776 17 9 16.5522 9 16ZM13 16C13 15.4478 13.4478 15 14 15C14.5522 15 15 15.4478 15 16C15 16.5522 14.5522 17 14 17C13.4478 17 13 16.5522 13 16Z"/>
</svg>
