<svg width="24" height="24" viewBox="0 0 24 24" xmlns="http://www.w3.org/2000/svg">
    <path fill-rule="evenodd" clip-rule="evenodd" d="M11.6761 5.63415L5.63415 11.6761C5.45528 11.855 5.45529 12.145 5.63415 12.3239L11.6761 18.3659C11.855 18.5447 12.145 18.5447 12.3239 18.3659L18.3659 12.3239C18.5447 12.145 18.5447 11.855 18.3659 11.6761L12.3239 5.63415C12.145 5.45528 11.855 5.45529 11.6761 5.63415ZM4.57349 10.6155C3.80884 11.3801 3.80884 12.6199 4.57349 13.3845L10.6155 19.4265C11.3801 20.1912 12.6199 20.1912 13.3845 19.4265L19.4265 13.3845C20.1912 12.6199 20.1912 11.3801 19.4265 10.6155L13.3845 4.57349C12.6199 3.80884 11.3801 3.80884 10.6155 4.57349L4.57349 10.6155Z"/>
    <path fill-rule="evenodd" clip-rule="evenodd" d="M12 8C12.4142 8 12.75 8.33579 12.75 8.75V12.25C12.75 12.6642 12.4142 13 12 13C11.5858 13 11.25 12.6642 11.25 12.25V8.75C11.25 8.33579 11.5858 8 12 8Z"/>
    <path fill-rule="evenodd" clip-rule="evenodd" d="M12 14C12.4142 14 12.75 14.3358 12.75 14.75C12.75 15.1642 12.4142 15.5 12 15.5C11.5858 15.5 11.25 15.1642 11.25 14.75C11.25 14.3358 11.5858 14 12 14Z"/>
</svg>
