<svg xmlns="http://www.w3.org/2000/svg" viewBox="0 0 32 32"><path d="M15.88 5.77a7.003 7.003 0 0 1 7.46 6.98c0 1.81-.68 3.51-1.89 4.81-.3.32-.46.75-.46 1.2l-.01.12c-.06.5-.48.88-.99.89-.55 0-1-.45-1-1 0-.96.35-1.88 1-2.57l.16-.2c.76-.9 1.19-2.04 1.18-3.25A5.01 5.01 0 0 0 16 7.76c-2.52.16-4.57 2.26-4.66 4.8-.05 1.26.36 2.45 1.14 3.39.82 1 1.26 1.81 1.27 2.78 0 .55-.45 1-1 1s-1-.45-1-1l-.01-.1c-.04-.36-.3-.8-.8-1.41l-.19-.24a7.02 7.02 0 0 1-1.42-4.51c.15-3.54 3-6.47 6.55-6.7zm3.11 15.52c.52-.2 1.09.07 1.29.58.2.52-.07 1.09-.58 1.29-1.04.39-2.17.59-3.35.59-1.17 0-2.33-.2-3.35-.58a1.003 1.003 0 0 1 .7-1.88c.79.3 1.71.45 2.65.45.93.01 1.83-.14 2.64-.45zm-.88 3.26a.992.992 0 0 1 1.2.75.992.992 0 0 1-.75 1.2c-.72.17-1.46.25-2.23.25-.75 0-1.51-.08-2.22-.24-.54-.12-.88-.66-.76-1.19.12-.54.66-.88 1.19-.76.56.13 1.17.19 1.78.19.63 0 1.22-.06 1.79-.2z"/></svg>
