<svg width="24" height="24" viewBox="0 0 24 24" xmlns="http://www.w3.org/2000/svg">
    <path fill-rule="evenodd" clip-rule="evenodd" d="M8.25 4C8.66421 4 9 4.33579 9 4.75V6.25C9 6.66421 8.66421 7 8.25 7C7.83579 7 7.5 6.66421 7.5 6.25V4.75C7.5 4.33579 7.83579 4 8.25 4ZM11.4697 5.46966C13.4195 3.51992 16.5805 3.51992 18.5303 5.46966L18 6L18.5303 5.46966C20.4801 7.41941 20.4801 10.5805 18.5303 12.5303L18.2803 12.7803C17.9874 13.0732 17.5126 13.0732 17.2197 12.7803C16.9268 12.4874 16.9268 12.0126 17.2197 11.7197L17.4697 11.4697C18.8337 10.1057 18.8337 7.89429 17.4697 6.53034L17.9955 6.00453L17.4697 6.53034C16.1057 5.16636 13.8943 5.16636 12.5303 6.53033C12.5303 6.53033 12.5303 6.53033 12.5303 6.53034L12.2803 6.78033C11.9874 7.07322 11.5126 7.07322 11.2197 6.78033C10.9268 6.48744 10.9268 6.01256 11.2197 5.71967L11.4697 5.46967L11.4697 5.46966ZM4 8.25C4 7.83579 4.33579 7.5 4.75 7.5H6.25C6.66421 7.5 7 7.83579 7 8.25C7 8.66421 6.66421 9 6.25 9H4.75C4.33579 9 4 8.66421 4 8.25ZM14.7803 9.21967C15.0732 9.51256 15.0732 9.98744 14.7803 10.2803L10.2803 14.7803C9.98744 15.0732 9.51256 15.0732 9.21967 14.7803C8.92678 14.4874 8.92678 14.0126 9.21967 13.7197L13.7197 9.21967C14.0126 8.92678 14.4874 8.92678 14.7803 9.21967ZM6.78029 11.2197C7.07318 11.5126 7.07318 11.9874 6.78029 12.2803L6.5303 12.5303C6.5303 12.5303 6.53029 12.5303 6.53029 12.5303C5.16633 13.8943 5.16633 16.1057 6.5303 17.4697C7.89426 18.8337 10.1057 18.8337 11.4697 17.4697L11.7197 17.2197C12.0126 16.9268 12.4874 16.9268 12.7803 17.2197C13.0732 17.5126 13.0732 17.9874 12.7803 18.2803L12.5303 18.5303C10.5805 20.4801 7.41938 20.4801 5.46962 18.5303L5.99996 18L5.46962 18.5303C3.51989 16.5805 3.51989 13.4195 5.46962 11.4697L5.46963 11.4697L5.71963 11.2197C6.01252 10.9268 6.4874 10.9268 6.78029 11.2197ZM20 15.75C20 16.1642 19.6642 16.5 19.25 16.5H17.75C17.3358 16.5 17 16.1642 17 15.75C17 15.3358 17.3358 15 17.75 15H19.25C19.6642 15 20 15.3358 20 15.75ZM15.75 17C16.1642 17 16.5 17.3358 16.5 17.75V19.25C16.5 19.6642 16.1642 20 15.75 20C15.3358 20 15 19.6642 15 19.25V17.75C15 17.3358 15.3358 17 15.75 17Z"/>
</svg>
