<svg width="24" height="24" viewBox="0 0 24 24" xmlns="http://www.w3.org/2000/svg">
    <path fill-rule="evenodd" clip-rule="evenodd" d="M12 4C12.2755 4 12.5272 4.30109 12.6492 4.55745L14.7292 8.93008L19.3802 9.63126C19.6528 9.67237 19.8794 9.87054 19.9645 10.1424C20.0497 10.4143 19.9787 10.7128 19.7814 10.9124L16.4159 14.316L17.2104 19.122C17.2569 19.4037 17.1453 19.6885 16.9224 19.8566C16.6994 20.0246 16.4039 20.0468 16.16 19.9137L12 17.6446L7.84002 19.9137C7.59612 20.0468 7.30057 20.0246 7.07764 19.8566C6.85471 19.6885 6.74307 19.4037 6.78965 19.122L7.58413 14.316L4.21864 10.9124C4.02132 10.7128 3.9503 10.4143 4.03545 10.1424C4.1206 9.87054 4.34715 9.67237 4.61984 9.63126L9.27084 8.93008L11.3508 4.55745C11.4728 4.30109 11.7244 4 12 4ZM12 6.58695L10.4007 9.94897C10.2953 10.1706 10.0915 10.3243 9.85567 10.3598L6.27961 10.899L8.86727 13.5159C9.03789 13.6885 9.11575 13.9371 9.07547 14.1807L8.46461 17.8759L11.6631 16.1313C11.874 16.0163 12.126 16.0163 12.3369 16.1313L15.5354 17.8759L14.9245 14.1807C14.8843 13.9371 14.9621 13.6885 15.1327 13.5159L17.7204 10.899L14.1443 10.3598C13.9085 10.3243 13.7047 10.1706 13.5993 9.94897L12 6.58695Z"/>
</svg>
