<svg width="20" height="20" viewBox="0 0 20 20" xmlns="http://www.w3.org/2000/svg">
    <path fill-rule="evenodd" clip-rule="evenodd" d="M6 2C6.41421 2 6.75 2.33579 6.75 2.75V4H13.25V2.75C13.25 2.33579 13.5858 2 14 2C14.4142 2 14.75 2.33579 14.75 2.75V4H15.25C16.7853 4 18 5.31701 18 6.75V15.25C18 16.683 16.7853 18 15.25 18H4.74999C3.21465 18 2 16.683 2 15.25V6.75C2 5.31701 3.21466 4 4.75 4H5.25V2.75C5.25 2.33579 5.58579 2 6 2ZM5.25 5.5H4.75C4.07621 5.5 3.5 6.11192 3.5 6.75V8.5H16.5V6.75C16.5 6.11192 15.9238 5.5 15.25 5.5H14.75V6.25C14.75 6.66421 14.4142 7 14 7C13.5858 7 13.25 6.66421 13.25 6.25V5.5H6.75V6.25C6.75 6.66421 6.41421 7 6 7C5.58579 7 5.25 6.66421 5.25 6.25V5.5ZM16.5 10H3.5V15.25C3.5 15.8881 4.0762 16.5 4.74999 16.5H15.25C15.9238 16.5 16.5 15.8881 16.5 15.25V10Z"/>
</svg>
