<svg width="20" height="20" viewBox="0 0 20 20" xmlns="http://www.w3.org/2000/svg">
    <path fill-rule="evenodd" clip-rule="evenodd" d="M10.2047 5.23503C10.4892 4.9339 10.9638 4.92033 11.265 5.20474L15.765 9.45474C15.915 9.59642 16 9.79365 16 10C16 10.2063 15.915 10.4036 15.765 10.5453L11.265 14.7953C10.9638 15.0797 10.4891 15.0661 10.2047 14.765C9.92033 14.4638 9.93389 13.9892 10.235 13.7047L13.3636 10.75L4.75 10.75C4.33579 10.75 4 10.4142 4 10C4 9.58578 4.33579 9.25 4.75 9.25L13.3636 9.25L10.235 6.29526C9.9339 6.01085 9.92033 5.53617 10.2047 5.23503Z"/>
</svg>
