<svg width="20" height="20" viewBox="0 0 20 20" xmlns="http://www.w3.org/2000/svg">
    <path fill-rule="evenodd" clip-rule="evenodd" d="M6 9C6.55228 9 7 9.44549 7 9.99502V10.005C7 10.5545 6.55228 11 6 11C5.44772 11 5 10.5545 5 10.005V9.99502C5 9.44549 5.44772 9 6 9ZM10 9C10.5523 9 11 9.44549 11 9.99502V10.005C11 10.5545 10.5523 11 10 11C9.44772 11 9 10.5545 9 10.005V9.99502C9 9.44549 9.44772 9 10 9ZM14 9C14.5523 9 15 9.44549 15 9.99502V10.005C15 10.5545 14.5523 11 14 11C13.4477 11 13 10.5545 13 10.005V9.99502C13 9.44549 13.4477 9 14 9Z"/>
</svg>
