<svg width="20" height="20" viewBox="0 0 20 20" xmlns="http://www.w3.org/2000/svg">
    <path d="M2.75 18C2.56 18 2.37 17.93 2.22 17.78C1.93 17.49 1.93 17.01 2.22 16.72L16.72 2.22C17.01 1.93 17.49 1.93 17.78 2.22C18.07 2.51 18.07 2.99 17.78 3.28L16 5.06V9.76L17.75 12.24C18.13 12.78 18.18 13.47 17.87 14.06C17.57 14.64 16.97 15 16.32 15H13.74C13.63 16.16 12.76 18 10 18C7.24 18 6.37 16.16 6.26 15H6.06L3.28 17.78C3.13 17.93 2.94 18 2.75 18ZM7.78 15C7.87 15.52 8.28 16.5 10 16.5C11.73 16.5 12.13 15.52 12.22 15H7.78ZM7.56 13.5H16.32C16.45 13.5 16.52 13.42 16.54 13.37C16.57 13.32 16.6 13.22 16.52 13.11L14.63 10.44C14.55 10.31 14.5 10.15 14.5 10V6.56L7.56 13.5ZM2.75 12.88C2.57 12.88 2.38 12.81 2.24 12.68C1.94 12.4 1.92 11.92 2.21 11.62L4 9.7V8C4 4.69 6.69 2 10 2C10.18 2 11.82 2.02 12.93 2.58C13.3 2.77 13.45 3.22 13.26 3.59C13.07 3.96 12.62 4.11 12.25 3.92C11.58 3.58 10.4 3.5 10 3.5C7.52 3.5 5.5 5.52 5.5 8V10C5.5 10.19 5.43 10.38 5.3 10.51L3.3 12.63C3.15 12.8 2.95 12.88 2.75 12.88Z" fill="#10100F"/>
</svg>
