<svg width="20" height="20" viewBox="0 0 20 20" xmlns="http://www.w3.org/2000/svg">
    <path fill-rule="evenodd" clip-rule="evenodd" d="M6 2C6.20856 2 6.40769 2.08684 6.5496 2.23966L9.7996 5.73966C10.0815 6.04319 10.0639 6.51774 9.76034 6.7996C9.45681 7.08145 8.98226 7.06387 8.70041 6.76034L6.75 4.6599V13.25C6.75 13.6642 6.41422 14 6 14C5.58579 14 5.25 13.6642 5.25 13.25V4.6599L3.2996 6.76034C3.01775 7.06387 2.5432 7.08145 2.23966 6.7996C1.93613 6.51774 1.91856 6.04319 2.20041 5.73966L5.45041 2.23966C5.59232 2.08684 5.79145 2 6 2ZM14 6C14.4142 6 14.75 6.33579 14.75 6.75V15.3401L16.7004 13.2397C16.9823 12.9361 17.4568 12.9186 17.7603 13.2004C18.0639 13.4823 18.0815 13.9568 17.7996 14.2603L14.5496 17.7603C14.4077 17.9132 14.2086 18 14 18C13.7915 18 13.5923 17.9132 13.4504 17.7603L10.2004 14.2603C9.91856 13.9568 9.93613 13.4823 10.2397 13.2004C10.5432 12.9186 11.0177 12.9361 11.2996 13.2397L13.25 15.3401V6.75C13.25 6.33579 13.5858 6 14 6Z"/>
</svg>
