<svg width="24" height="24" viewBox="0 0 24 24" xmlns="http://www.w3.org/2000/svg">
    <path fill-rule="evenodd" clip-rule="evenodd" d="M15.1688 4.52045C15.8523 3.83709 16.9602 3.83709 17.6437 4.52045L17.6438 4.52051L19.4794 6.35623C20.163 7.03967 20.163 8.14778 19.4794 8.83121L9.53035 18.7803C9.43173 18.879 9.30756 18.9481 9.17179 18.9801L4.92179 19.9801C4.66896 20.0396 4.40335 19.964 4.21968 19.7803C4.03602 19.5967 3.96046 19.3311 4.01995 19.0782L5.01995 14.8282C5.0519 14.6925 5.12106 14.5683 5.21968 14.4697L15.1688 4.5205L15.1688 4.52045ZM16.2294 5.58121L14.9278 6.8828L17.1171 9.07216L18.4188 7.7705L18.4188 7.77045C18.5165 7.67283 18.5165 7.51462 18.4188 7.41699L18.4188 7.41693L16.5831 5.58121C16.4854 5.48351 16.3271 5.48351 16.2294 5.58121ZM16.0565 10.1328L13.8672 7.94347L6.43121 15.3795L5.75757 18.2424L8.62055 17.5688L16.0565 10.1328Z"/>
</svg>
