<svg width="24" height="24" viewBox="0 0 24 24" xmlns="http://www.w3.org/2000/svg">
    <path fill-rule="evenodd" clip-rule="evenodd" d="M5 5.75C5 4.23122 6.23122 3 7.75 3H14.1118C14.3216 3 14.5218 3.08789 14.6638 3.24232L18.8021 7.74232C18.9294 7.88075 19 8.06194 19 8.25V11.25C19 11.6642 18.6642 12 18.25 12C17.8358 12 17.5 11.6642 17.5 11.25V9H14.1118C13.6975 9 13.3618 8.66421 13.3618 8.25V4.5H7.75C7.05964 4.5 6.5 5.05964 6.5 5.75L6.5 11.25C6.5 11.6642 6.16422 12 5.75 12C5.33579 12 5 11.6642 5 11.25L5 5.75ZM14.8618 5.67355L16.5414 7.5H14.8618V5.67355ZM4 14.75C4 14.3358 4.33579 14 4.75 14H6.25C7.21649 14 8 14.7835 8 15.75V16.25C8 17.2165 7.21648 18 6.25 18H5.5V19.25C5.5 19.6642 5.16421 20 4.75 20C4.33579 20 4 19.6642 4 19.25V14.75ZM5.5 16.5H6.25C6.38808 16.5 6.5 16.3881 6.5 16.25V15.75C6.5 15.6119 6.38807 15.5 6.25 15.5H5.5V16.5ZM9 14.75C9 14.3358 9.33579 14 9.75 14H11.25C12.7688 14 14 15.2312 14 16.75V17.25C14 18.7688 12.7688 20 11.25 20H9.75C9.33579 20 9 19.6642 9 19.25V14.75ZM10.5 15.5V18.5H11.25C11.9404 18.5 12.5 17.9404 12.5 17.25V16.75C12.5 16.0596 11.9404 15.5 11.25 15.5H10.5ZM15 14.75C15 14.3358 15.3358 14 15.75 14H18.25C18.6642 14 19 14.3358 19 14.75C19 15.1642 18.6642 15.5 18.25 15.5H16.5V16H18.25C18.6642 16 19 16.3358 19 16.75C19 17.1642 18.6642 17.5 18.25 17.5H16.5V19.25C16.5 19.6642 16.1642 20 15.75 20C15.3358 20 15 19.6642 15 19.25V14.75Z"/>
</svg>
