<svg width="24" height="24" viewBox="0 0 24 24" fill="none" xmlns="http://www.w3.org/2000/svg">
<path d="M12 4.75V4C11.8063 4 11.62 4.075 11.4803 4.2093L12 4.75ZM19.25 4.75H20C20 4.33579 19.6642 4 19.25 4V4.75ZM18.5 12.25C18.5 12.6642 18.8358 13 19.25 13C19.6642 13 20 12.6642 20 12.25H18.5ZM9.13686 19.1359C9.42031 19.4379 9.89495 19.4529 10.197 19.1695C10.499 18.886 10.5141 18.4114 10.2306 18.1093L9.13686 19.1359ZM12 5.5H19.25V4H12V5.5ZM18.5 4.75V12.25H20V4.75H18.5ZM10.2306 18.1093L5.83685 13.4277L4.7431 14.4543L9.13686 19.1359L10.2306 18.1093ZM5.83685 13.4277C5.36841 12.9286 5.38855 12.1456 5.88205 11.6712L4.84256 10.5898C3.75684 11.6334 3.7125 13.3562 4.7431 14.4543L5.83685 13.4277ZM5.88205 11.6712L12.5198 5.2907L11.4803 4.2093L4.84256 10.5898L5.88205 11.6712Z" fill="#111010"/>
<path d="M15 9V10C15.5523 10 16 9.55228 16 9H15ZM15 9H14C14 9.55228 14.4477 10 15 10V9ZM15 9V8C14.4477 8 14 8.44772 14 9H15ZM15 9H16C16 8.44772 15.5523 8 15 8V9Z" fill="#111010"/>
<path fill-rule="evenodd" clip-rule="evenodd" d="M12 12.75C12 12.3358 12.3358 12 12.75 12H15.25C16.2165 12 17 12.7835 17 13.75V15.25C17 16.2165 16.2165 17 15.25 17H13.5V19.25C13.5 19.6642 13.1642 20 12.75 20C12.3358 20 12 19.6642 12 19.25V12.75ZM13.5 15.5H15.25C15.3881 15.5 15.5 15.3881 15.5 15.25V13.75C15.5 13.6119 15.3881 13.5 15.25 13.5H13.5V15.5Z" fill="#111010"/>
</svg>
