<svg width="20" height="20" viewBox="0 0 20 20" xmlns="http://www.w3.org/2000/svg">
    <path d="M10.07 18C7.48 18 6.55 16.25 6.36 15H3.75C3.09 15 2.5 14.64 2.2 14.05C1.9 13.47 1.95 12.77 2.32 12.24L4.07 9.76V8C4.07 4.69 6.76 2 10.07 2C13.38 2 16.07 4.69 16.07 8V9.76L17.82 12.24C18.2 12.78 18.25 13.47 17.94 14.05C17.64 14.63 17.04 15 16.39 15H13.78C13.59 16.25 12.66 18 10.07 18ZM7.89 15C8.04 15.61 8.53 16.5 10.07 16.5C11.62 16.5 12.1 15.6 12.25 15H7.89ZM10.07 3.5C7.59 3.5 5.57 5.52 5.57 8V10C5.57 10.15 5.52 10.31 5.43 10.43L3.54 13.1C3.46 13.21 3.5 13.31 3.52 13.36C3.55 13.41 3.61 13.49 3.74 13.49H16.38C16.51 13.49 16.58 13.41 16.6 13.36C16.63 13.31 16.66 13.21 16.58 13.1L14.69 10.43C14.62 10.31 14.57 10.16 14.57 10V8C14.57 5.52 12.55 3.5 10.07 3.5Z"/>
    <path d="M1.57833 4.98004C1.63833 4.99004 1.69833 5.00004 1.74833 5.00004C2.08833 5.00004 2.39833 4.77004 2.47833 4.42004C2.51833 4.24004 2.64833 3.91004 2.77833 3.78004C2.90833 3.65004 3.23833 3.52004 3.41833 3.48004C3.81833 3.38004 4.06833 2.98004 3.97833 2.58004C3.88833 2.18004 3.47833 1.93004 3.07833 2.02004C2.93833 2.05004 2.19833 2.24004 1.71833 2.72004C1.23833 3.20004 1.04833 3.94004 1.01833 4.08004C0.928335 4.49004 1.17833 4.89004 1.57833 4.98004Z"/>
    <path d="M17.5183 4.42004C17.5983 4.76004 17.9083 5.00004 18.2483 5.00004C18.3083 5.00004 18.3583 4.99004 18.4083 4.98004C18.8183 4.89004 19.0683 4.48004 18.9783 4.08004C18.9483 3.94004 18.7583 3.20004 18.2783 2.72004C17.7983 2.24004 17.0583 2.05004 16.9183 2.02004C16.5083 1.93004 16.1083 2.18004 16.0183 2.58004C15.9283 2.98004 16.1783 3.38004 16.5783 3.48004C16.7583 3.52004 17.0883 3.65004 17.2183 3.78004C17.3483 3.92004 17.4783 4.24004 17.5183 4.42004Z"/>
</svg>
