<svg width="24" height="24" viewBox="0 0 24 24" xmlns="http://www.w3.org/2000/svg">
    <path fill-rule="evenodd" clip-rule="evenodd" d="M5 5.75C5 4.23122 6.23122 3 7.75 3H14.1118C14.3216 3 14.5218 3.08789 14.6638 3.24232L18.8021 7.74232C18.9294 7.88075 19 8.06194 19 8.25V11.25C19 11.6642 18.6642 12 18.25 12C17.8358 12 17.5 11.6642 17.5 11.25V9H14.1118C13.6975 9 13.3618 8.66421 13.3618 8.25V4.5H7.75C7.05964 4.5 6.5 5.05964 6.5 5.75L6.5 11.25C6.5 11.6642 6.16422 12 5.75 12C5.33579 12 5 11.6642 5 11.25L5 5.75ZM14.8618 5.67355L16.5414 7.5H14.8618V5.67355ZM5 14.75C5 14.3358 5.33579 14 5.75 14H8.25C8.51574 14 8.76164 14.1406 8.8964 14.3697C9.03117 14.5987 9.03467 14.8819 8.90562 15.1142L7.02464 18.5H8.25C8.66421 18.5 9 18.8358 9 19.25C9 19.6642 8.66421 20 8.25 20H5.75C5.48426 20 5.23836 19.8594 5.1036 19.6303C4.96883 19.4013 4.96533 19.1181 5.09438 18.8858L6.97536 15.5H5.75C5.33579 15.5 5 15.1642 5 14.75ZM10.75 14C11.1642 14 11.5 14.3358 11.5 14.75V19.25C11.5 19.6642 11.1642 20 10.75 20C10.3358 20 10 19.6642 10 19.25V14.75C10 14.3358 10.3358 14 10.75 14ZM13 14.75C13 14.3358 13.3358 14 13.75 14H15.25C16.2165 14 17 14.7835 17 15.75V16.25C17 17.2165 16.2165 18 15.25 18H14.5V19.25C14.5 19.6642 14.1642 20 13.75 20C13.3358 20 13 19.6642 13 19.25V14.75ZM14.5 16.5H15.25C15.3881 16.5 15.5 16.3881 15.5 16.25V15.75C15.5 15.6119 15.3881 15.5 15.25 15.5H14.5V16.5Z"/>
</svg>
