<svg width="20" height="20" viewBox="0 0 20 20" xmlns="http://www.w3.org/2000/svg">
    <path fill-rule="evenodd" clip-rule="evenodd" d="M4.24999 3.5C3.83578 3.5 3.5 3.83578 3.5 4.25V15.75C3.5 16.1642 3.83578 16.5 4.24999 16.5H8.875C9.28921 16.5 9.625 16.8358 9.625 17.25C9.625 17.6642 9.28921 18 8.875 18H4.24999C3.00734 18 2 16.9926 2 15.75V4.25C2 3.00737 3.00734 2 4.24999 2H9.25C9.66421 2 10 2.33579 10 2.75C10 3.16421 9.66421 3.5 9.25 3.5H4.24999ZM13.1111 6.24614C13.3894 5.93932 13.8637 5.91619 14.1705 6.19446L17.7539 9.44446C17.9106 9.58663 18 9.78839 18 10C18 10.2116 17.9106 10.4134 17.7539 10.5555L14.1705 13.8055C13.8637 14.0838 13.3894 14.0607 13.1111 13.7539C12.8329 13.447 12.856 12.9727 13.1628 12.6945L15.3067 10.75H7.75C7.33579 10.75 7 10.4142 7 10C7 9.58579 7.33579 9.25 7.75 9.25H15.3067L13.1628 7.30554C12.856 7.02727 12.8329 6.55296 13.1111 6.24614Z"/>
</svg>
