<svg width="24" height="24" viewBox="0 0 24 24" xmlns="http://www.w3.org/2000/svg">
    <path fill-rule="evenodd" clip-rule="evenodd" d="M10 9C10 6.23858 12.2386 4 15 4C17.7614 4 20 6.23858 20 9C20 11.7614 17.7614 14 15 14C14.7808 14 14.5646 13.9859 14.3523 13.9584L14.0303 14.2803C13.8897 14.421 13.6989 14.5 13.5 14.5H12.5V15.5C12.5 15.6989 12.421 15.8897 12.2803 16.0303L11.0303 17.2803C10.8897 17.421 10.6989 17.5 10.5 17.5H9.5V18.5C9.5 18.6989 9.42098 18.8897 9.28033 19.0303L8.53033 19.7803C8.38968 19.921 8.19891 20 8 20H4.75C4.33579 20 4 19.6642 4 19.25V16C4 15.8011 4.07902 15.6103 4.21967 15.4697L10.0416 9.64771C10.0141 9.4354 10 9.21919 10 9ZM15 5.5C13.067 5.5 11.5 7.067 11.5 9C11.5 9.25645 11.5274 9.50557 11.5793 9.74491C11.6333 9.99414 11.557 10.2537 11.3766 10.4341L5.5 16.3107V18.5H7.68934L8 18.1893V16.75C8 16.3358 8.33579 16 8.75 16H10.1893L11 15.1893V13.75C11 13.3358 11.3358 13 11.75 13H13.1893L13.566 12.6234C13.7463 12.443 14.0059 12.3667 14.2551 12.4207C14.4944 12.4726 14.7436 12.5 15 12.5C16.933 12.5 18.5 10.933 18.5 9C18.5 7.067 16.933 5.5 15 5.5Z"/>
    <path fill-rule="evenodd" clip-rule="evenodd" d="M15 8C15 7.44769 15.4478 7 16 7C16.5522 7 17 7.44769 17 8C17 8.55231 16.5522 9 16 9C15.4478 9 15 8.55231 15 8Z"/>
</svg>
