<svg width="24" height="24" viewBox="0 0 24 24" xmlns="http://www.w3.org/2000/svg">
    <path d="M6.60297 6.5C6.38763 6.5 6.18215 6.53754 5.99203 6.606C5.73222 6.69955 5.44576 6.56478 5.3522 6.30497C5.25865 6.04515 5.39342 5.75869 5.65323 5.66514C5.95047 5.5581 6.27049 5.5 6.60297 5.5C6.93546 5.5 7.25547 5.5581 7.55271 5.66514C7.81252 5.75869 7.9473 6.04515 7.85374 6.30497C7.76019 6.56478 7.47373 6.69955 7.21392 6.606C7.02379 6.53754 6.81832 6.5 6.60297 6.5Z"/>
    <path d="M8.60099 7.05221C8.8608 6.95866 9.14726 7.09343 9.24082 7.35325C9.34785 7.65049 9.40596 7.9705 9.40596 8.30299C9.40596 8.63547 9.34785 8.95548 9.24082 9.25272C9.14726 9.51254 8.8608 9.64731 8.60099 9.55376C8.34118 9.4602 8.2064 9.17374 8.29996 8.91393C8.36842 8.7238 8.40596 8.51833 8.40596 8.30299C8.40596 8.08764 8.36842 7.88217 8.29996 7.69204C8.2064 7.43223 8.34118 7.14577 8.60099 7.05221Z"/>
    <path d="M4.60495 7.05221C4.86476 7.14577 4.99954 7.43223 4.90599 7.69204C4.83752 7.88217 4.79999 8.08764 4.79999 8.30299C4.79999 8.51833 4.83752 8.7238 4.90599 8.91393C4.99954 9.17374 4.86476 9.4602 4.60495 9.55376C4.34514 9.64731 4.05868 9.51254 3.96513 9.25272C3.85809 8.95548 3.79999 8.63547 3.79999 8.30299C3.79999 7.9705 3.85809 7.65049 3.96513 7.35325C4.05868 7.09343 4.34514 6.95866 4.60495 7.05221Z"/>
    <path d="M7.85375 10.301C7.9473 10.5608 7.81252 10.8473 7.55271 10.9408C7.25547 11.0479 6.93546 11.106 6.60297 11.106C6.27049 11.106 5.95047 11.0479 5.65323 10.9408C5.39342 10.8473 5.25865 10.5608 5.3522 10.301C5.44576 10.0412 5.73222 9.90642 5.99203 9.99997C6.18215 10.0684 6.38763 10.106 6.60297 10.106C6.81832 10.106 7.02379 10.0684 7.21392 9.99997C7.47373 9.90642 7.76019 10.0412 7.85375 10.301Z"/>
    <path d="M6.60597 13.3587C6.39834 13.3587 6.19461 13.3741 5.9958 13.4037C5.72266 13.4443 5.46829 13.2558 5.42764 12.9827C5.38699 12.7096 5.57546 12.4552 5.84859 12.4146C6.09598 12.3777 6.34891 12.3587 6.60597 12.3587C6.86303 12.3587 7.11596 12.3777 7.36335 12.4146C7.63648 12.4552 7.82495 12.7096 7.7843 12.9827C7.74365 13.2558 7.48928 13.4443 7.21614 13.4037C7.01733 13.3741 6.8136 13.3587 6.60597 13.3587Z"/>
    <path d="M8.94173 13.4627C9.10602 13.2408 9.41913 13.194 9.64108 13.3583C10.049 13.6603 10.4103 14.0216 10.7123 14.4296C10.8766 14.6515 10.8299 14.9646 10.6079 15.1289C10.386 15.2932 10.0729 15.2465 9.90856 15.0245C9.66546 14.6961 9.37453 14.4052 9.04612 14.1621C8.82417 13.9978 8.77743 13.6847 8.94173 13.4627Z"/>
    <path d="M4.27021 13.4627C4.43451 13.6847 4.38777 13.9978 4.16582 14.1621C3.83742 14.4052 3.54648 14.6961 3.30338 15.0245C3.13909 15.2465 2.82597 15.2932 2.60402 15.1289C2.38207 14.9646 2.33534 14.6515 2.49963 14.4296C2.80161 14.0216 3.16291 13.6603 3.57086 13.3583C3.79281 13.194 4.10592 13.2408 4.27021 13.4627Z"/>
    <path d="M11.0879 16.2863C11.3611 16.2457 11.6154 16.4342 11.6561 16.7073C11.6929 16.9547 11.7119 17.2076 11.7119 17.4647C11.7119 17.7226 11.6148 17.9472 11.5001 18.1243C11.3501 18.3561 11.0405 18.4223 10.8087 18.2722C10.5769 18.1221 10.5107 17.8126 10.6608 17.5808C10.7102 17.5044 10.7119 17.4679 10.7119 17.4647C10.7119 17.257 10.6966 17.0533 10.667 16.8545C10.6263 16.5814 10.8148 16.327 11.0879 16.2863Z"/>
    <path d="M2.12401 16.2863C2.39714 16.327 2.58561 16.5814 2.54496 16.8545C2.51537 17.0533 2.5 17.257 2.5 17.4647C2.5 17.4824 2.50565 17.5228 2.54204 17.5909C2.67225 17.8344 2.5804 18.1374 2.33688 18.2676C2.09336 18.3978 1.7904 18.3059 1.66019 18.0624C1.56973 17.8932 1.5 17.6904 1.5 17.4647C1.5 17.2076 1.51904 16.9547 1.55585 16.7073C1.5965 16.4342 1.85087 16.2457 2.12401 16.2863Z"/>
    <path d="M2.56877 18.4069C2.72389 18.1784 3.03484 18.119 3.2633 18.2741C3.37316 18.3487 3.47539 18.4116 3.55652 18.4592C3.5645 18.4639 3.57291 18.4682 3.58176 18.4722C3.59814 18.4795 3.61393 18.4876 3.62911 18.4964C3.64817 18.4959 3.66745 18.4965 3.6869 18.4983C3.69933 18.4994 3.71225 18.5 3.7256 18.5H4.27187C4.54802 18.5 4.77187 18.7239 4.77187 19C4.77187 19.2761 4.54802 19.5 4.27187 19.5H3.7256C3.68299 19.5 3.64011 19.4981 3.59713 19.4943C3.52185 19.4875 3.45198 19.4643 3.39071 19.4287C3.31834 19.4306 3.24443 19.4167 3.17392 19.3852C3.13203 19.3665 3.09077 19.3454 3.05038 19.3217C2.95439 19.2653 2.83308 19.1907 2.70158 19.1014C2.47312 18.9463 2.41366 18.6354 2.56877 18.4069Z"/>
    <path d="M10.4762 18.4634C10.6153 18.7019 10.5347 19.0081 10.2962 19.1472C10.1448 19.2355 10.0079 19.3077 9.90455 19.3598C9.86769 19.3784 9.83027 19.395 9.79246 19.4097C9.72898 19.4344 9.66353 19.4452 9.59944 19.4437C9.54327 19.472 9.48077 19.4901 9.41418 19.4955C9.37593 19.4985 9.33781 19.5 9.29994 19.5H8.78901C8.51287 19.5 8.28901 19.2761 8.28901 19C8.28901 18.7239 8.51287 18.5 8.78901 18.5H9.29994C9.31187 18.5 9.32341 18.4995 9.33453 18.4986C9.35194 18.4973 9.36922 18.4968 9.38631 18.4972C9.4005 18.49 9.41516 18.4835 9.43027 18.4776C9.43858 18.4744 9.44657 18.4708 9.45424 18.467C9.54353 18.4219 9.66211 18.3594 9.79238 18.2834C10.0309 18.1443 10.3371 18.2249 10.4762 18.4634Z"/>
    <path d="M5.55969 19C5.55969 18.7239 5.78355 18.5 6.05969 18.5H7.1169C7.39304 18.5 7.6169 18.7239 7.6169 19C7.6169 19.2761 7.39304 19.5 7.1169 19.5H6.05969C5.78355 19.5 5.55969 19.2761 5.55969 19Z"/>
    <path d="M19.3536 6.84646C19.5488 7.04172 19.5488 7.3583 19.3536 7.55357L17.2071 9.70001L19.3536 11.8465C19.5488 12.0417 19.5488 12.3583 19.3536 12.5536C19.1583 12.7488 18.8417 12.7488 18.6464 12.5536L16.5 10.4071L14.3536 12.5536C14.1583 12.7488 13.8417 12.7488 13.6464 12.5536C13.4512 12.3583 13.4512 12.0417 13.6464 11.8465L15.7929 9.70001L13.6464 7.55357C13.4512 7.3583 13.4512 7.04172 13.6464 6.84646C13.8417 6.6512 14.1583 6.6512 14.3536 6.84646L16.5 8.99291L18.6464 6.84646C18.8417 6.6512 19.1583 6.6512 19.3536 6.84646Z"/>
</svg>
