<svg width="24" height="24" viewBox="0 0 24 24" fill="none" xmlns="http://www.w3.org/2000/svg">
    <path d="M12.3535 4.06063C12.1583 3.86537 11.8417 3.86537 11.6464 4.06063L4.06063 11.6464C3.86537 11.8417 3.86537 12.1583 4.06063 12.3535L11.6464 19.9393C11.8417 20.1346 12.1583 20.1346 12.3535 19.9393L19.9393 12.3535C20.1346 12.1583 20.1346 11.8417 19.9393 11.6464L12.3535 4.06063ZM10.9393 3.35352C11.5251 2.76774 12.4748 2.76774 13.0606 3.35352L20.6464 10.9393C21.2322 11.5251 21.2322 12.4748 20.6464 13.0606L13.0606 20.6464C12.4748 21.2322 11.5251 21.2322 10.9393 20.6464L3.35352 13.0606C2.76774 12.4748 2.76774 11.5251 3.35352 10.9393L10.9393 3.35352ZM12 8.49997C12.2761 8.49997 12.5 8.72383 12.5 8.99997V13C12.5 13.2761 12.2761 13.5 12 13.5C11.7238 13.5 11.5 13.2761 11.5 13V8.99997C11.5 8.72383 11.7238 8.49997 12 8.49997ZM12 16C12.4142 16 12.75 15.6642 12.75 15.25C12.75 14.8358 12.4142 14.5 12 14.5C11.5858 14.5 11.25 14.8358 11.25 15.25C11.25 15.6642 11.5858 16 12 16Z"/>
</svg>
