<svg width="24" height="24" viewBox="0 0 24 24" fill="none" xmlns="http://www.w3.org/2000/svg">
<path fill-rule="evenodd" clip-rule="evenodd" d="M8.005 10.995C8.55729 10.995 9.005 11.4427 9.005 11.995V12.005C9.005 12.5573 8.55729 13.005 8.005 13.005C7.45272 13.005 7.005 12.5573 7.005 12.005V11.995C7.005 11.4427 7.45272 10.995 8.005 10.995ZM12.005 10.995C12.5573 10.995 13.005 11.4427 13.005 11.995V12.005C13.005 12.5573 12.5573 13.005 12.005 13.005C11.4527 13.005 11.005 12.5573 11.005 12.005V11.995C11.005 11.4427 11.4527 10.995 12.005 10.995ZM16.005 10.995C16.5573 10.995 17.005 11.4427 17.005 11.995V12.005C17.005 12.5573 16.5573 13.005 16.005 13.005C15.4527 13.005 15.005 12.5573 15.005 12.005V11.995C15.005 11.4427 15.4527 10.995 16.005 10.995Z" fill="#111010"/>
</svg>
