<svg width="24" height="24" viewBox="0 0 24 24" xmlns="http://www.w3.org/2000/svg">
    <path fill-rule="evenodd" clip-rule="evenodd" d="M12.4034 4.12215C12.1591 3.95928 11.8409 3.95928 11.5966 4.12215L4.32385 8.97063C4.12153 9.10551 4 9.33259 4 9.57576V16.8485C4 17.6568 4.48425 18.4373 5.02348 18.9765C5.56271 19.5158 6.34326 20 7.15152 20H16.8485C17.5605 20 18.3157 19.7198 18.8961 19.2884C19.4693 18.8624 20 18.1863 20 17.3333V9.57576C20 9.33259 19.8785 9.10551 19.6761 8.97063L12.4034 4.12215ZM5.45455 16.8485V9.96498L12 5.60135L18.5455 9.96498V17.3333C18.5455 17.5515 18.3996 17.8451 18.0284 18.121C17.6645 18.3915 17.2076 18.5455 16.8485 18.5455H14.9087V15.6357C14.9087 14.1629 13.7148 12.969 12.242 12.969H11.7572C10.2845 12.969 9.09055 14.1629 9.09055 15.6357V18.5455H7.15152C6.88868 18.5455 6.45711 18.3531 6.05199 17.948C5.64687 17.5429 5.45455 17.1113 5.45455 16.8485ZM10.5451 15.6357C10.5451 14.9662 11.0878 14.4236 11.7572 14.4236H12.242C12.9115 14.4236 13.4542 14.9662 13.4542 15.6357V18.5455H10.5451V15.6357Z"/>
</svg>
