<svg width="24" height="24" viewBox="0 0 24 24" fill="none" xmlns="http://www.w3.org/2000/svg">
<path fill-rule="evenodd" clip-rule="evenodd" d="M3.99997 6.75C3.99997 5.23122 5.23119 4 6.74997 4H17.25C18.7688 4 20 5.23122 20 6.75V17.25C20 18.7688 18.7688 20 17.25 20H6.74997C5.23119 20 3.99997 18.7688 3.99997 17.25V16.0064C3.99993 16.0018 3.99993 15.9972 3.99997 15.9926V6.75ZM5.49997 16.2595V17.25C5.49997 17.9404 6.05961 18.5 6.74997 18.5H17.25C17.9404 18.5 18.5 17.9404 18.5 17.25V12.8091C18.4758 12.7875 18.4528 12.764 18.4311 12.7387L16.0167 9.92821C15.5046 9.3322 14.5766 9.351 14.089 9.96608L13.5013 9.50017L14.0901 9.96468L14.089 9.96608L14.0846 9.97194L14.066 9.9959C13.8953 10.2166 12.8192 11.6077 11.8851 12.8013L13.5689 14.7613C13.8388 15.0755 13.8029 15.549 13.4887 15.8189C13.1745 16.0888 12.701 16.0529 12.4311 15.7387L10.3563 13.3236C10.3489 13.3154 10.3418 13.3071 10.3349 13.2986L10.0167 12.9282C9.50349 12.3308 8.57247 12.3511 8.08579 12.9702L5.49997 16.2595ZM10.8701 11.6643C9.70743 10.6519 7.89253 10.7889 6.90653 12.0432L5.49997 13.8324V6.75C5.49997 6.05964 6.05961 5.5 6.74997 5.5H17.25C17.9403 5.5 18.5 6.05964 18.5 6.75V10.517L17.1545 8.95075C16.0279 7.63946 13.9863 7.68096 12.9135 9.03426L12.9124 9.03566C12.9077 9.04161 12.9023 9.04854 12.8963 9.0564L12.8792 9.07852C12.717 9.2882 11.7577 10.5284 10.8701 11.6643Z" fill="#111010"/>
</svg>
