<svg width="24" height="24" viewBox="0 0 24 24" xmlns="http://www.w3.org/2000/svg">
    <path d="M12 4.75V4C11.8063 4 11.62 4.075 11.4803 4.2093L12 4.75ZM19.25 4.75H20C20 4.33579 19.6642 4 19.25 4V4.75ZM18.5 12.25C18.5 12.6642 18.8358 13 19.25 13C19.6642 13 20 12.6642 20 12.25H18.5ZM9.13686 19.1359C9.42031 19.4379 9.89495 19.4529 10.197 19.1695C10.499 18.886 10.5141 18.4114 10.2306 18.1093L9.13686 19.1359ZM12 5.5H19.25V4H12V5.5ZM18.5 4.75L18.5 12.25H20L20 4.75H18.5ZM10.2306 18.1093L5.83685 13.4277L4.7431 14.4543L9.13686 19.1359L10.2306 18.1093ZM5.83685 13.4277C5.36841 12.9286 5.38855 12.1456 5.88205 11.6712L4.84256 10.5898C3.75684 11.6334 3.7125 13.3562 4.7431 14.4543L5.83685 13.4277ZM5.88205 11.6712L12.5198 5.2907L11.4803 4.2093L4.84256 10.5898L5.88205 11.6712Z"/>
    <path d="M15 9V10C15.5523 10 16 9.55228 16 9H15ZM15 9H14C14 9.55228 14.4477 10 15 10V9ZM15 9V8C14.4477 8 14 8.44772 14 9H15ZM15 9H16C16 8.44772 15.5523 8 15 8V9Z"/>
    <path fill-rule="evenodd" clip-rule="evenodd" d="M14.2197 15.2197C14.5126 14.9268 14.9874 14.9268 15.2803 15.2197L16.5 16.4393L17.7197 15.2197C18.0126 14.9268 18.4874 14.9268 18.7803 15.2197C19.0732 15.5126 19.0732 15.9874 18.7803 16.2803L17.5607 17.5L18.7803 18.7197C19.0732 19.0126 19.0732 19.4874 18.7803 19.7803C18.4874 20.0732 18.0126 20.0732 17.7197 19.7803L16.5 18.5607L15.2803 19.7803C14.9874 20.0732 14.5126 20.0732 14.2197 19.7803C13.9268 19.4874 13.9268 19.0126 14.2197 18.7197L15.4393 17.5L14.2197 16.2803C13.9268 15.9874 13.9268 15.5126 14.2197 15.2197Z"/>
</svg>
