<svg width="24" height="24" viewBox="0 0 24 24" xmlns="http://www.w3.org/2000/svg">
  <path fill-rule="evenodd" clip-rule="evenodd" d="M16.5 15a5.5 5.5 0 100-11 5.5 5.5 0 000 11zm.5-8a.5.5 0 00-1 0v2h-2a.5.5 0 000 1h2v2a.5.5 0 001 0v-2h2a.5.5 0 000-1h-2V7z"/>
  <path d="M6.603 6.5c-.215 0-.42.038-.611.106a.5.5 0 01-.339-.94 2.799 2.799 0 011.9 0 .5.5 0 11-.34.94 1.799 1.799 0 00-.61-.106zm1.998.552a.5.5 0 01.64.301 2.799 2.799 0 010 1.9.5.5 0 01-.941-.34 1.799 1.799 0 000-1.221.5.5 0 01.301-.64zm-3.695.64a.5.5 0 00-.94-.339 2.799 2.799 0 000 1.9.5.5 0 10.94-.34 1.799 1.799 0 010-1.221zm2.948 2.609a.5.5 0 01-.301.64 2.797 2.797 0 01-1.9 0A.5.5 0 115.992 10a1.8 1.8 0 001.222 0 .5.5 0 01.64.301zm-1.858 3.103a4.141 4.141 0 011.22 0 .5.5 0 00.147-.99 5.132 5.132 0 00-1.514 0 .5.5 0 10.147.99zm2.946.059a.5.5 0 01.7-.105c.407.302.768.664 1.07 1.072a.5.5 0 11-.803.595 4.133 4.133 0 00-.863-.863.5.5 0 01-.104-.7zm-4.776.699a.5.5 0 00-.595-.804A5.11 5.11 0 002.5 14.43a.5.5 0 10.803.595c.243-.329.534-.62.863-.863zm6.922 2.124a.5.5 0 01.568.421c.037.248.056.5.056.758s-.097.482-.212.66a.5.5 0 11-.84-.544c.05-.077.052-.113.052-.116 0-.208-.015-.412-.045-.61a.5.5 0 01.42-.569zm-8.543.569a.5.5 0 00-.99-.148c-.036.248-.055.5-.055.758 0 .225.07.428.16.597a.5.5 0 00.882-.471.286.286 0 01-.042-.126c0-.208.015-.412.045-.61zm.024 1.552a.5.5 0 01.694-.133 5.311 5.311 0 00.319.198.501.501 0 01.047.024c.02 0 .038 0 .058.002a.44.44 0 00.039.002h.546a.5.5 0 010 1h-.546c-.043 0-.086-.002-.129-.006a.5.5 0 01-.206-.065.498.498 0 01-.217-.044 1.254 1.254 0 01-.124-.063 6.361 6.361 0 01-.348-.22.5.5 0 01-.133-.695zm7.727.74a.5.5 0 00-.504-.864 6.43 6.43 0 01-.362.195.495.495 0 00-.044.02.53.53 0 00-.086.002h-.511a.5.5 0 000 1h.51c.039 0 .077-.002.115-.005a.5.5 0 00.185-.051c.065.001.13-.01.193-.034.038-.015.076-.032.113-.05.103-.052.24-.125.391-.213zM5.56 19a.5.5 0 01.5-.5h1.057a.5.5 0 010 1H6.06a.5.5 0 01-.5-.5z"/>
</svg>
