<svg width="24" height="24" viewBox="0 0 24 24" xmlns="http://www.w3.org/2000/svg">
    <path fill-rule="evenodd" clip-rule="evenodd" d="M12 2C12.4142 2 12.75 2.33579 12.75 2.75V4H15C16.5188 4 17.75 5.23122 17.75 6.75V10.25C17.75 11.7688 16.5188 13 15 13H9C7.48122 13 6.25 11.7688 6.25 10.25V6.75C6.25 5.23122 7.48122 4 9 4H11.25V2.75C11.25 2.33579 11.5858 2 12 2ZM9 5.5C8.30964 5.5 7.75 6.05964 7.75 6.75V10.25C7.75 10.9404 8.30964 11.5 9 11.5H15C15.6904 11.5 16.25 10.9404 16.25 10.25V6.75C16.25 6.05964 15.6904 5.5 15 5.5H9ZM4 15.9167C4 15.1343 4.63426 14.5 5.41667 14.5H18.5833C19.3657 14.5 20 15.1343 20 15.9167C20 18.1718 18.1718 20 15.9167 20H8.08333C5.82817 20 4 18.1718 4 15.9167ZM5.50132 16C5.54531 17.3882 6.68448 18.5 8.08333 18.5H15.9167C17.3155 18.5 18.4547 17.3882 18.4987 16H5.50132Z"/>
    <path fill-rule="evenodd" clip-rule="evenodd" d="M13 8C13 7.44769 13.4478 7 14 7C14.5522 7 15 7.44769 15 8C15 8.55224 14.5522 9 14 9C13.4478 9 13 8.55224 13 8Z"/>
    <path fill-rule="evenodd" clip-rule="evenodd" d="M9 8C9 7.44772 9.44772 7 10 7C10.5522 7 11 7.44769 11 8C11 8.55224 10.5522 9 10 9C9.44769 9 9 8.55222 9 8Z"/>
</svg>
