<svg xmlns="http://www.w3.org/2000/svg" viewBox="0 0 24 24">
  <path d="M9 3c.55 0 1 .45 1 1v1h3c.55 0 1 .45 1 1 0 .51-.39.94-.88.99L13 7h-3v1c0 .51-.39.94-.88.99L9 9c-.55 0-1-.45-1-1V4c0-.55.45-1 1-1zm3 8c.55 0 1 .45 1 1s-.45 1-1 1-1-.45-1-1 .45-1 1-1zm4 0c.55 0 1 .45 1 1s-.45 1-1 1-1-.45-1-1 .45-1 1-1zm-8 0c.55 0 1 .45 1 1s-.45 1-1 1-1-.45-1-1 .45-1 1-1zm4 4c.55 0 1 .45 1 1s-.45 1-1 1-1-.45-1-1 .45-1 1-1zm4 0c.55 0 1 .45 1 1s-.45 1-1 1-1-.45-1-1 .45-1 1-1zm-8 0c.55 0 1 .45 1 1s-.45 1-1 1-1-.45-1-1 .45-1 1-1zm9-7c0 .55-.45 1-1 1s-1-.45-1-1V4c0-.55.45-1 1-1s1 .45 1 1v1h1.22c1.47 0 2.69 1.14 2.77 2.58l.01.17v10.5c0 1.47-1.16 2.66-2.61 2.74l-.17.01H5.78c-1.47 0-2.69-1.14-2.77-2.58L3 18.25V7.75c0-1.47 1.16-2.66 2.61-2.74L5.78 5H6c.55 0 1 .45 1 1 0 .51-.39.94-.88.99L6 7h-.22c-.4 0-.72.29-.77.65l-.01.1v10.5c0 .38.29.69.67.74l.11.01h12.44c.4 0 .72-.29.77-.65l.01-.1V7.75c0-.38-.29-.69-.67-.74L18.22 7H17v1z"/>
</svg>