<svg xmlns="http://www.w3.org/2000/svg" viewBox="0 0 32 32"><path d="M16 10c1.94 0 3.5 1.34 3.5 3.02 0 1.31-.62 1.98-1.81 2.57l-.42.21c-.2.1-.26.14-.27.18V18c0 .55-.45 1-1 1s-1-.45-1-1v-2c0-1.07.52-1.57 1.6-2.11l.34-.17c.46-.24.56-.37.56-.71 0-.5-.6-1.02-1.5-1.02s-1.5.52-1.5 1.02l-.01.12c-.06.5-.48.88-.99.88-.55 0-1-.45-1-1 0-1.67 1.56-3.01 3.5-3.01zm0 10c.55 0 1 .45 1 1s-.45 1-1 1-1-.45-1-1 .45-1 1-1zm0-14C10.48 6 6 10.48 6 16s4.48 10 10 10 10-4.48 10-10S21.52 6 16 6zm0-2c6.63 0 12 5.37 12 12s-5.37 12-12 12S4 22.63 4 16 9.37 4 16 4z"/></svg>