<svg width="20" height="20" viewBox="0 0 20 20" xmlns="http://www.w3.org/2000/svg">
    <path fill-rule="evenodd" clip-rule="evenodd" d="M9.4697 3.46968C11.4195 1.51995 14.5806 1.51995 16.5303 3.46968C18.4802 5.41943 18.4801 8.58056 16.5304 10.5304L15.2804 11.7804C14.9875 12.0732 14.5126 12.0732 14.2197 11.7804C13.9268 11.4875 13.9268 11.0126 14.2197 10.7197L15.4697 9.46969C16.8337 8.10568 16.8337 5.89431 15.4697 4.53036C14.1057 3.1664 11.8944 3.16639 10.5304 4.53035C10.5304 4.53036 10.5303 4.53036 10.5303 4.53036L9.28035 5.78035C8.98746 6.07325 8.51259 6.07325 8.21969 5.78035C7.9268 5.48746 7.9268 5.01259 8.21969 4.71969L9.46969 3.46969L9.4697 3.46968ZM12.7804 7.21969C13.0732 7.51259 13.0732 7.98746 12.7804 8.28035L8.28035 12.7804C7.98746 13.0732 7.51259 13.0732 7.21969 12.7804C6.9268 12.4875 6.9268 12.0126 7.21969 11.7197L11.7197 7.21969C12.0126 6.9268 12.4875 6.9268 12.7804 7.21969ZM5.78035 8.21969C6.07325 8.51259 6.07325 8.98746 5.78035 9.28035L4.53036 10.5303C4.53036 10.5303 4.53036 10.5304 4.53035 10.5304C3.16639 11.8944 3.1664 14.1057 4.53036 15.4697C5.89431 16.8337 8.10568 16.8337 9.46969 15.4697L10.7197 14.2197C11.0126 13.9268 11.4875 13.9268 11.7804 14.2197C12.0732 14.5126 12.0732 14.9875 11.7804 15.2804L10.5304 16.5304C8.58056 18.4801 5.41943 18.4802 3.46968 16.5303C1.51995 14.5806 1.51995 11.4195 3.46968 9.4697L3.46969 9.46969L4.71969 8.21969C5.01259 7.9268 5.48746 7.9268 5.78035 8.21969Z"/>
</svg>
