<svg width="24" height="24" viewBox="0 0 24 24" xmlns="http://www.w3.org/2000/svg">
    <path fill-rule="evenodd" clip-rule="evenodd" d="M15.211 7.52746C15.2843 7.11978 15.6742 6.8487 16.0818 6.92198L16.5816 7.01182C18.1575 7.29588 19.5839 8.08136 19.9278 9.55399C20.2607 10.9791 19.4182 12.4122 18.2126 13.5381C16.9693 14.699 15.1611 15.7172 13.0848 16.3554C11.0104 16.993 8.98966 17.1526 7.38563 16.8563C5.82395 16.5679 4.41376 15.783 4.07208 14.3201C3.87977 13.4967 4.08665 12.6652 4.50725 11.9164C4.9275 11.1681 5.58445 10.4559 6.3896 9.81956C6.71458 9.56273 7.18623 9.61798 7.44306 9.94296C7.69988 10.2679 7.64464 10.7396 7.31966 10.9964C6.61993 11.5494 6.11341 12.1198 5.81509 12.6509C5.51712 13.1814 5.45034 13.626 5.53276 13.9789C5.66853 14.5602 6.30183 15.1308 7.65805 15.3813C8.97191 15.6239 10.7434 15.5058 12.6441 14.9216C14.5429 14.3379 16.1399 13.4212 17.1888 12.4417C18.2753 11.4272 18.6117 10.5143 18.4671 9.89519C18.3305 9.31009 17.6891 8.7357 16.3163 8.48816L15.8165 8.39832C15.4088 8.32504 15.1377 7.93514 15.211 7.52746Z"/>
    <path fill-rule="evenodd" clip-rule="evenodd" d="M16.2196 17.2197C16.5125 16.9268 16.9874 16.9268 17.2803 17.2197L18.7803 18.7197C19.0732 19.0126 19.0732 19.4874 18.7803 19.7803C18.4874 20.0732 18.0125 20.0732 17.7196 19.7803L16.2196 18.2803C15.9267 17.9874 15.9267 17.5126 16.2196 17.2197Z"/>
    <path fill-rule="evenodd" clip-rule="evenodd" d="M13.2196 18.2197C13.5125 17.9268 13.9874 17.9268 14.2803 18.2197L14.7803 18.7197C15.0732 19.0126 15.0732 19.4874 14.7803 19.7803C14.4874 20.0732 14.0125 20.0732 13.7196 19.7803L13.2196 19.2803C12.9267 18.9874 12.9267 18.5126 13.2196 18.2197Z"/>
    <path fill-rule="evenodd" clip-rule="evenodd" d="M18.2196 15.2197C18.5125 14.9268 18.9874 14.9268 19.2803 15.2197L19.7803 15.7197C20.0732 16.0126 20.0732 16.4874 19.7803 16.7803C19.4874 17.0732 19.0125 17.0732 18.7196 16.7803L18.2196 16.2803C17.9267 15.9874 17.9267 15.5126 18.2196 15.2197Z"/>
    <path fill-rule="evenodd" clip-rule="evenodd" d="M9.77921 4.31885C12.5066 3.58097 15.8258 5.075 16.5527 7.81393L16.6982 8.36228C16.9316 9.24204 16.7222 10.2858 15.8732 10.9033C15.13 11.4435 13.9354 12.1371 12.263 12.5895M10.171 5.76679C12.0845 5.2491 14.5861 6.25168 15.1028 8.19865L15.2483 8.74702C15.3602 9.16861 15.2309 9.51557 14.991 9.69007M10.171 5.76679C8.25456 6.28525 7.10677 8.27983 7.62417 10.2294L7.76746 10.7694C7.88024 11.1943 8.16763 11.4309 8.46351 11.4605C9.2211 11.5366 10.408 11.5374 11.8713 11.1415C13.3418 10.7437 14.3728 10.1396 14.991 9.69007M9.77921 4.31885C7.05461 5.05597 5.4482 7.87791 6.17435 10.6141L6.31764 11.1541C6.55267 12.0398 7.26052 12.8474 8.31382 12.953C9.22596 13.0446 10.5989 13.0397 12.263 12.5895"/>
</svg>
