<svg width="20" height="20" viewBox="0 0 20 20" xmlns="http://www.w3.org/2000/svg">
    <path fill-rule="evenodd" clip-rule="evenodd" d="M6.50189 4.41075C7.19612 4.75503 8.02231 5.30034 8.83439 5.91506C8.91118 5.97319 8.97364 6.04323 9.02112 6.12065C9.33438 6.04185 9.66232 6 10 6C12.2092 6 14 7.79086 14 10C14 10.3223 13.9619 10.6356 13.89 10.9358C13.9275 10.9683 13.9623 11.0051 13.9937 11.046C14.6387 11.8853 15.2064 12.7356 15.5644 13.4486C15.7409 13.8001 15.887 14.1581 15.9518 14.4866C16.0072 14.7672 16.054 15.2867 15.6703 15.6704C15.403 15.9377 15.0645 16.002 14.8046 16.0006C14.5459 15.9992 14.2833 15.9347 14.0422 15.8507C13.5559 15.6812 12.989 15.3719 12.3944 14.983C11.9291 14.6787 11.4264 14.3121 10.9052 13.8972C10.6143 13.9644 10.3113 14 10 14C7.79089 14 6.00003 12.2091 6.00003 10C6.00003 9.68886 6.03555 9.38601 6.10277 9.0953C5.68621 8.57237 5.31802 8.06789 5.01225 7.60088C4.62219 7.00511 4.31168 6.43719 4.14129 5.9503C4.05679 5.70883 3.99182 5.44605 3.98991 5.18723C3.98799 4.92738 4.05156 4.58774 4.31969 4.31961C4.6993 3.93999 5.21224 3.98463 5.48731 4.03768C5.80951 4.09983 6.15965 4.24103 6.50189 4.41075ZM7.66529 10.8957C7.91873 11.5559 8.44412 12.0813 9.10431 12.3348C8.85958 12.105 8.61536 11.8686 8.37342 11.6266C8.13155 11.3847 7.89507 11.1405 7.66529 10.8957ZM11.1976 12.1951C10.6191 11.7031 10.0218 11.1537 9.43408 10.566C8.84688 9.97876 8.29731 9.38142 7.8049 8.80261C8.22918 8.02644 9.05313 7.5 10 7.5C11.3807 7.5 12.5 8.61929 12.5 10C12.5 10.9469 11.9736 11.7708 11.1976 12.1951ZM12.4297 13.1778C12.7033 13.3807 12.9665 13.5648 13.2154 13.7276C13.6597 14.0181 14.0373 14.2267 14.3341 14.3549C14.3028 14.2837 14.2662 14.2059 14.2239 14.1217C13.9863 13.6486 13.6177 13.0667 13.1664 12.4445C12.9537 12.7197 12.7059 12.9663 12.4297 13.1778ZM14.4897 14.8558C14.4893 14.8554 14.4888 14.8493 14.4896 14.8388C14.4906 14.8509 14.4902 14.8562 14.4897 14.8558ZM6.82183 7.57087C6.61719 7.29524 6.43143 7.03007 6.2672 6.77923C5.97724 6.33635 5.76837 5.95921 5.63908 5.66213C5.69981 5.68905 5.76527 5.71977 5.83547 5.75458C6.31802 5.99388 6.91723 6.37231 7.55501 6.83402C7.27989 7.04681 7.03326 7.29465 6.82183 7.57087ZM5.12944 5.50184C5.12904 5.50139 5.13435 5.501 5.14654 5.50205C5.13593 5.50282 5.12983 5.5023 5.12944 5.50184Z" fill="#141414"/>
</svg>
