<svg width="24" height="24" viewBox="0 0 24 24" xmlns="http://www.w3.org/2000/svg">
<path fill-rule="evenodd" clip-rule="evenodd" d="M6.76452 6.05742C7.85399 4.51055 9.68673 3.5 11.7574 3.5C15.0773 3.5 17.7982 6.10434 17.7982 9.35294V12.8404C18.2834 13.0622 18.6839 13.364 18.9761 13.758C19.3345 14.2411 19.5 14.8222 19.5 15.4706C19.5 16.0478 19.3221 16.5607 18.9088 16.9322C18.6786 17.139 18.3976 17.2818 18.0807 17.3736L19.8536 19.1464C20.0488 19.3417 20.0488 19.6583 19.8536 19.8536C19.6583 20.0488 19.3417 20.0488 19.1464 19.8536L4.14645 4.85355C3.95118 4.65829 3.95118 4.34171 4.14645 4.14645C4.34171 3.95118 4.65829 3.95118 4.85355 4.14645L6.76452 6.05742ZM7.48444 6.77733C8.37396 5.41275 9.95196 4.5 11.7574 4.5C14.5578 4.5 16.7982 6.68885 16.7982 9.35294V13.1765C16.7982 13.3874 16.9306 13.5756 17.1291 13.647C17.6282 13.8264 17.962 14.0693 18.173 14.3538C18.3819 14.6354 18.5 14.9974 18.5 15.4706C18.5 15.8365 18.3942 16.0501 18.2403 16.1884C18.072 16.3397 17.7727 16.4669 17.2646 16.5011C17.2475 16.5023 17.2307 16.5043 17.2142 16.5071L7.48444 6.77733Z"/>
<path d="M7.09524 10C7.09524 9.72386 6.87139 9.5 6.59524 9.5C6.3191 9.5 6.09524 9.72386 6.09524 10V13.5199C5.63694 13.7458 5.26072 14.0517 4.9875 14.4469C4.65283 14.9311 4.5 15.5101 4.5 16.1545C4.5 16.7244 4.66217 17.2359 5.0517 17.6116C5.43247 17.9789 5.96179 18.1493 6.55981 18.1918C6.5716 18.1926 6.58342 18.1931 6.59524 18.1931H9.08321C9.1519 18.8213 9.36011 19.3628 9.75234 19.7701C10.2486 20.2855 10.9561 20.5 11.7786 20.5C12.601 20.5 13.3085 20.2855 13.8048 19.7701C14.2977 19.2582 14.5 18.5345 14.5 17.6931C14.5 17.4169 14.2761 17.1931 14 17.1931C13.7239 17.1931 13.5 17.4169 13.5 17.6931C13.5 18.3896 13.3321 18.8193 13.0845 19.0765C12.8403 19.33 12.4371 19.5 11.7786 19.5C11.1201 19.5 10.7169 19.33 10.4727 19.0765C10.2251 18.8193 10.0571 18.3896 10.0571 17.6931C10.0571 17.4169 9.83329 17.1931 9.55715 17.1931H6.61365C6.15864 17.1582 5.89505 17.0357 5.74592 16.8919C5.6037 16.7547 5.5 16.5347 5.5 16.1545C5.5 15.6705 5.61305 15.3006 5.81012 15.0155C6.00746 14.73 6.31637 14.49 6.77522 14.313C6.96806 14.2386 7.09524 14.0532 7.09524 13.8465V10Z"/>
</svg>
