<svg width="32" height="32" viewBox="0 0 32 32" fill="none" xmlns="http://www.w3.org/2000/svg"><path d="M7 29h13m3 0h2" stroke-width="1.5" stroke-linecap="round"/><path d="M11.399 11.105l.003-3.488C11.404 5.067 13.459 3 15.992 3c2.537 0 4.592 2.069 4.592 4.621v3.484M9.301 25h13.398C23.97 25 25 23.963 25 22.684v-9.263a2.308 2.308 0 00-2.3-2.316H9.3c-1.27 0-2.3 1.037-2.3 2.316v9.263A2.308 2.308 0 009.3 25zM16 20.368c1.27 0 2.3-1.036 2.3-2.315a2.308 2.308 0 00-2.3-2.316c-1.27 0-2.3 1.037-2.3 2.316a2.308 2.308 0 002.3 2.315z" stroke-width="1.5"/></svg>
