<svg width="24" height="24" viewBox="0 0 24 24" xmlns="http://www.w3.org/2000/svg">
    <path fill-rule="evenodd" clip-rule="evenodd" d="M5 6.75C5 5.23122 6.23122 4 7.75 4H14C14.1989 4 14.3897 4.07902 14.5303 4.21967L18.7803 8.46967C18.921 8.61032 19 8.80109 19 9V17.25C19 18.7688 17.7688 20 16.25 20H7.75C6.23122 20 5 18.7688 5 17.25V6.75ZM7.75 5.5C7.05964 5.5 6.5 6.05964 6.5 6.75V17.25C6.5 17.9404 7.05964 18.5 7.75 18.5H16.25C16.9404 18.5 17.5 17.9404 17.5 17.25V9.31066L13.6893 5.5H7.75ZM9 12.25C9 11.8358 9.33579 11.5 9.75 11.5H14.25C14.6642 11.5 15 11.8358 15 12.25C15 12.6642 14.6642 13 14.25 13H9.75C9.33579 13 9 12.6642 9 12.25ZM9 15.25C9 14.8358 9.33579 14.5 9.75 14.5H14.25C14.6642 14.5 15 14.8358 15 15.25C15 15.6642 14.6642 16 14.25 16H9.75C9.33579 16 9 15.6642 9 15.25Z"/>
</svg>
