<svg width="20" height="20" viewBox="0 0 20 20" xmlns="http://www.w3.org/2000/svg">
    <path fill-rule="evenodd" clip-rule="evenodd" d="M13.2111 5.52746C13.2843 5.11978 13.6742 4.8487 14.0819 4.92198L14.5817 5.01182C16.1576 5.29588 17.5839 6.08136 17.9279 7.55399C18.2607 8.97911 17.4182 10.4122 16.2126 11.5381C14.9694 12.699 13.1611 13.7172 11.0849 14.3554C9.0105 14.993 6.98972 15.1526 5.38569 14.8563C3.82402 14.5679 2.41382 13.783 2.07214 12.3201C1.87983 11.4967 2.08671 10.6652 2.50731 9.91637C2.92756 9.16815 3.58451 8.45587 4.38966 7.81956C4.71464 7.56273 5.18629 7.61798 5.44312 7.94296C5.69995 8.26794 5.6447 8.73959 5.31972 8.99642C4.61999 9.54941 4.11347 10.1198 3.81515 10.6509C3.51718 11.1814 3.4504 11.626 3.53282 11.9789C3.66859 12.5602 4.30189 13.1308 5.65811 13.3813C6.97197 13.6239 8.74348 13.5058 10.6442 12.9216C12.543 12.3379 14.14 11.4212 15.1889 10.4417C16.2753 9.42716 16.6118 8.51427 16.4672 7.89519C16.3305 7.31009 15.6892 6.7357 14.3163 6.48816L13.8165 6.39832C13.4089 6.32504 13.1378 5.93514 13.2111 5.52746Z"/>
    <path fill-rule="evenodd" clip-rule="evenodd" d="M14.2197 15.2197C14.5126 14.9268 14.9875 14.9268 15.2803 15.2197L16.7803 16.7197C17.0732 17.0126 17.0732 17.4874 16.7803 17.7803C16.4875 18.0732 16.0126 18.0732 15.7197 17.7803L14.2197 16.2803C13.9268 15.9874 13.9268 15.5126 14.2197 15.2197Z"/>
    <path fill-rule="evenodd" clip-rule="evenodd" d="M11.2197 16.2197C11.5126 15.9268 11.9875 15.9268 12.2803 16.2197L12.7803 16.7197C13.0732 17.0126 13.0732 17.4874 12.7803 17.7803C12.4875 18.0732 12.0126 18.0732 11.7197 17.7803L11.2197 17.2803C10.9268 16.9874 10.9268 16.5126 11.2197 16.2197Z"/>
    <path fill-rule="evenodd" clip-rule="evenodd" d="M16.2197 13.2197C16.5126 12.9268 16.9875 12.9268 17.2803 13.2197L17.7803 13.7197C18.0732 14.0126 18.0732 14.4874 17.7803 14.7803C17.4875 15.0732 17.0126 15.0732 16.7197 14.7803L16.2197 14.2803C15.9268 13.9874 15.9268 13.5126 16.2197 13.2197Z"/>
    <path fill-rule="evenodd" clip-rule="evenodd" d="M7.77928 2.31885C10.5067 1.58097 13.8258 3.075 14.5527 5.81393L14.6982 6.36228C14.9317 7.24204 14.7223 8.28578 13.8732 8.90325C13.1301 9.44355 11.9355 10.1371 10.2631 10.5895M8.17101 3.76679C10.0846 3.2491 12.5862 4.25168 13.1029 6.19865L13.2484 6.74702C13.3603 7.16861 13.231 7.51557 12.9911 7.69007M8.17101 3.76679C6.25462 4.28525 5.10683 6.27983 5.62423 8.22941L5.76752 8.76941C5.8803 9.19433 6.16769 9.43088 6.46357 9.46053C7.22116 9.53657 8.40807 9.53744 9.87133 9.14152C11.3419 8.74373 12.3728 8.13956 12.9911 7.69007M7.77928 2.31885C5.05467 3.05597 3.44826 5.87791 4.17441 8.61415L4.3177 9.15415C4.55273 10.0398 5.26058 10.8474 6.31389 10.953C7.22602 11.0446 8.59899 11.0397 10.2631 10.5895"/>
</svg>
