<svg width="20" height="20" viewBox="0 0 20 20" xmlns="http://www.w3.org/2000/svg">
    <path d="M12.4505 18C12.0701 18 11.6796 17.86 11.3893 17.58L10.5683 16.81C10.248 16.51 9.77741 16.51 9.45704 16.81L8.63609 17.58C8.16554 18.02 7.47475 18.12 6.90409 17.84L6.09315 17.44C5.52249 17.16 5.1821 16.56 5.23215 15.93L5.31225 14.79C5.34228 14.34 5.03192 13.94 4.61144 13.87L3.51016 13.7C2.87943 13.6 2.37885 13.13 2.23869 12.5L2.03846 11.6C1.8983 10.98 2.14859 10.34 2.66919 9.98L3.58024 9.34C3.94066 9.09 4.05079 8.58 3.83053 8.18L3.25987 7.19C2.9395 6.63 2.98956 5.95 3.38001 5.45L3.94066 4.73C4.33111 4.22 5.00189 4.01 5.61259 4.2L6.72388 4.55C7.13435 4.68 7.57486 4.46 7.72504 4.04L8.1255 2.99C8.35576 2.4 8.93644 2 9.56716 2H10.4682C11.1089 2 11.6696 2.39 11.8999 2.99L12.3103 4.05C12.4705 4.47 12.901 4.68 13.3115 4.55L14.3727 4.22C14.9734 4.03 15.6442 4.24 16.0346 4.74L16.5953 5.46C16.9857 5.96 17.0358 6.64 16.7254 7.2L16.1648 8.19C15.9445 8.58 16.0547 9.09 16.4151 9.34L17.3361 9.98C17.8567 10.34 18.107 10.98 17.9569 11.6L17.7566 12.5C17.6165 13.13 17.1159 13.6 16.4852 13.7L15.3839 13.87C14.9634 13.94 14.653 14.34 14.6831 14.79L14.7632 15.93C14.8132 16.57 14.4728 17.16 13.9022 17.44L13.0912 17.84C12.881 17.94 12.6507 18 12.4205 18H12.4505ZM5.16207 5.64L4.57139 6.38L5.13204 7.45C5.74274 8.51 5.43238 9.89 4.44124 10.58L3.53019 11.22L3.71039 12.19L3.74043 12.23L4.8417 12.4C6.03308 12.59 6.89407 13.69 6.81398 14.9L6.73389 16.04L7.57486 16.5L8.42585 15.72C9.31688 14.88 10.7085 14.88 11.5995 15.72L12.4205 16.49L13.2714 16.09L13.2214 14.89C13.1313 13.67 14.0023 12.57 15.1837 12.39L16.2849 12.22L16.5252 11.28L15.5841 10.57C14.583 9.87 14.2826 8.53 14.8833 7.46L15.444 6.47L14.8733 5.67L13.772 5.99C12.6107 6.35 11.3592 5.74 10.9187 4.6L10.5083 3.54L9.56716 3.51L9.13667 4.59C8.69616 5.74 7.4347 6.36 6.27336 5.99L5.16207 5.64Z"/>
    <path d="M10.0177 13C9.21676 13 8.46589 12.69 7.89523 12.12C7.32457 11.55 7.01421 10.8 7.01421 10C7.01421 9.2 7.32457 8.45 7.89523 7.88C9.02654 6.75 11.0088 6.75 12.1401 7.88C12.7108 8.45 13.0212 9.2 13.0212 10C13.0212 10.8 12.7108 11.55 12.1401 12.12C11.5695 12.69 10.8186 13 10.0177 13ZM10.0177 8.5C9.61722 8.5 9.23678 8.66 8.95646 8.94C8.67613 9.22 8.51595 9.6 8.51595 10C8.51595 10.4 8.67613 10.78 8.95646 11.06C9.52712 11.63 10.5183 11.63 11.0789 11.06C11.3592 10.78 11.5194 10.4 11.5194 10C11.5194 9.6 11.3592 9.22 11.0789 8.94C10.7986 8.66 10.4181 8.5 10.0177 8.5Z"/>
</svg>
