<?xml version="1.0" encoding="utf-8"?>
<!-- Generator: Adobe Illustrator 23.0.6, SVG Export Plug-In . SVG Version: 6.00 Build 0)  -->
<svg version="1.1" id="Layer_1" xmlns="http://www.w3.org/2000/svg" xmlns:xlink="http://www.w3.org/1999/xlink" x="0px" y="0px"
	 viewBox="0 0 24 24" style="enable-background:new 0 0 24 24;" xml:space="preserve">
<style type="text/css">
	.st0{fill-rule:evenodd;clip-rule:evenodd;fill:#0E1C3D;}
</style>
<path class="st0" d="M11.82,10.76c-0.55,0.08-0.98,0.51-1.06,1.06L11.82,10.76z M12,8c-2.07,0-4.21,1.2-6.42,3.68l-0.25,0.28
	l0.51,0.53l0.48,0.49c0.67,0.67,1.25,1.19,1.72,1.56l1.44-1.44c-0.15-0.34-0.23-0.72-0.23-1.1c0-1.52,1.23-2.75,2.75-2.75
	c0.39,0,0.76,0.08,1.1,0.23l1.05-1.05C13.43,8.14,12.71,8,12,8z M18.89,9.46c0.37,0.35,0.65,0.63,0.99,0.97l0.26,0.27l0.59,0.61
	c0.34,0.36,0.37,0.92,0.05,1.31C17.94,16.17,15.02,18,12,18c-0.19,0-0.39-0.01-0.58-0.02c-0.55-0.04-0.96-0.53-0.92-1.08
	c0.04-0.55,0.53-0.96,1.08-0.92C11.72,15.99,11.86,16,12,16c2.07,0,4.21-1.2,6.42-3.67l0.25-0.28l-0.24-0.25l-0.44-0.44l-0.47-0.45
	c-0.4-0.38-0.41-1.01-0.03-1.41C17.86,9.09,18.49,9.08,18.89,9.46z M19.29,3.29c0.39-0.39,1.02-0.39,1.41,0
	c0.39,0.39,0.39,1.02,0,1.41L8.91,16.5c-0.03,0.04-0.07,0.08-0.11,0.11l-4.1,4.1c-0.39,0.39-1.02,0.39-1.41,0
	c-0.39-0.39-0.39-1.02,0-1.41l3.33-3.33c-0.64-0.52-1.38-1.22-2.23-2.1l-0.56-0.59l-0.56-0.6c-0.33-0.36-0.35-0.92-0.05-1.3
	C6.06,7.83,8.98,6,12,6c1.23,0,2.46,0.31,3.67,0.92L19.29,3.29z"/>
</svg>
