<svg xmlns="http://www.w3.org/2000/svg" viewBox="0 0 32 32">
  <path d="M26 6H6a3 3 0 00-3 3v14a3 3 0 003 3h10a1 1 0 000-2H6a1 1 0 01-1-1V9a1 1 0 011-1h20a1 1 0 011 1v6a1 1 0 002 0V9a3 3 0 00-3-3z"/>
  <path d="M16 19a1 1 0 00.6-.2l8-6a1 1 0 10-1.2-1.6L16 16.75 8.6 11.2a1 1 0 00-1.2 1.6l8 6a1 1 0 00.6.2zM9.29 17.29l-2 2a1 1 0 000 1.42 1 1 0 001.42 0l2-2a1 1 0 00-1.42-1.42zM25.07 22.9a.94.94 0 00.43.1 1 1 0 00.62-.22l2.5-2a1 1 0 000-1.56l-2.5-2a1 1 0 00-1.05-.12 1 1 0 00-.57.9v1H24a5 5 0 105 5 1 1 0 00-2 0 3 3 0 11-3-3h.5v1a1 1 0 00.57.9z"/>
</svg>
