<svg width="32" height="32" viewBox="0 0 32 32" fill="none" xmlns="http://www.w3.org/2000/svg"><path d="M4 29a14.877 14.877 0 015.239-4.778 14.185 14.185 0 016.76-1.722c1.358 0 2.704.196 4.001.58M24 11a8 8 0 11-16 0 8 8 0 0116 0z" stroke-width="1.5" stroke-linecap="round" stroke-linejoin="round"/><path d="M15 10h2m-2 0a2 2 0 11-4 0 2 2 0 014 0zm2 0a2 2 0 104 0 2 2 0 00-4 0zm-2 5l.106.053a2 2 0 001.788 0L17 15" stroke-width="1.5" stroke-linecap="round" stroke-linejoin="round"/><path d="M29 26h-6" stroke-width="1.5" stroke-linecap="round"/></svg>
