<svg width="20" height="20" viewBox="0 0 20 20" xmlns="http://www.w3.org/2000/svg">
    <path fill-rule="evenodd" clip-rule="evenodd" d="M2 5.75C2 5.33579 2.33579 5 2.75 5H17.25C17.6642 5 18 5.33579 18 5.75C18 6.16421 17.6642 6.5 17.25 6.5H2.75C2.33579 6.5 2 6.16421 2 5.75ZM4 9.75C4 9.33579 4.33579 9 4.75 9H15.25C15.6642 9 16 9.33579 16 9.75C16 10.1642 15.6642 10.5 15.25 10.5H4.75C4.33579 10.5 4 10.1642 4 9.75ZM7 13.75C7 13.3358 7.33579 13 7.75 13H12.25C12.6642 13 13 13.3358 13 13.75C13 14.1642 12.6642 14.5 12.25 14.5H7.75C7.33579 14.5 7 14.1642 7 13.75Z"/>
</svg>
