<svg width="24" height="24" viewBox="0 0 24 24" xmlns="http://www.w3.org/2000/svg">
    <path fill-rule="evenodd" clip-rule="evenodd" d="M12 6C12.4142 6 12.75 6.33579 12.75 6.75L12.75 9.29553L13.6925 8.24828C13.9696 7.9404 14.4438 7.91544 14.7517 8.19253C15.0596 8.46962 15.0846 8.94384 14.8075 9.25172L12.5575 11.7517C12.4152 11.9098 12.2126 12 12 12C11.7874 12 11.5848 11.9098 11.4425 11.7517L9.19253 9.25172C8.91543 8.94384 8.94039 8.46962 9.24828 8.19253C9.55616 7.91543 10.0304 7.94039 10.3075 8.24828L11.25 9.29553L11.25 6.75C11.25 6.33579 11.5858 6 12 6Z"/>
    <path fill-rule="evenodd" clip-rule="evenodd" d="M6 12.75C6 12.3358 6.33579 12 6.75 12H9.25C9.66421 12 10 12.3358 10 12.75V13.5H14V12.75C14 12.3358 14.3358 12 14.75 12H17.25C17.6642 12 18 12.3358 18 12.75V15.25C18 15.9793 17.7103 16.6788 17.1945 17.1945C16.6788 17.7103 15.9793 18 15.25 18H8.75C8.02065 18 7.32118 17.7103 6.80546 17.1945C6.28973 16.6788 6 15.9793 6 15.25V12.75ZM15.5 13.5V14.25C15.5 14.6642 15.1642 15 14.75 15H9.25C8.83579 15 8.5 14.6642 8.5 14.25V13.5H7.5V15.25C7.5 15.5815 7.6317 15.8995 7.86612 16.1339C8.10054 16.3683 8.41848 16.5 8.75 16.5H15.25C15.5815 16.5 15.8995 16.3683 16.1339 16.1339C16.3683 15.8995 16.5 15.5815 16.5 15.25V13.5H15.5Z"/>
</svg>
