<svg width="24" height="24" viewBox="0 0 24 24" xmlns="http://www.w3.org/2000/svg">
    <path d="M12.75 4.75C12.75 4.55109 12.671 4.36032 12.5303 4.21967C12.3897 4.07902 12.1989 4 12 4C11.8011 4 11.6103 4.07902 11.4697 4.21967C11.329 4.36032 11.25 4.55109 11.25 4.75H12.75ZM12 10.25L11.443 10.752C11.5133 10.83 11.5992 10.8923 11.6952 10.935C11.7911 10.9777 11.895 10.9998 12 10.9998C12.105 10.9998 12.2089 10.9777 12.3048 10.935C12.4008 10.8923 12.4867 10.83 12.557 10.752L12 10.25ZM10.307 7.248C10.1726 7.10505 9.98759 7.02044 9.79157 7.01232C9.59555 7.0042 9.40415 7.07321 9.25841 7.20455C9.11268 7.3359 9.02421 7.51912 9.01198 7.71493C8.99975 7.91074 9.06474 8.10354 9.193 8.252L10.307 7.248ZM14.807 8.252C14.8754 8.17927 14.9285 8.09363 14.9634 8.00009C14.9982 7.90656 15.014 7.807 15.0099 7.70728C15.0057 7.60755 14.9817 7.50965 14.9393 7.41931C14.8968 7.32898 14.8368 7.24803 14.7626 7.1812C14.6885 7.11438 14.6018 7.06303 14.5075 7.03016C14.4133 6.99729 14.3134 6.98356 14.2138 6.98978C14.1142 6.996 14.0168 7.02205 13.9274 7.06639C13.8379 7.11073 13.7583 7.17247 13.693 7.248L14.807 8.252ZM11.25 4.75V10.25H12.75V4.75H11.25ZM12.557 9.748L10.307 7.248L9.193 8.252L11.443 10.752L12.557 9.748ZM12.557 10.752L14.807 8.252L13.693 7.248L11.443 9.748L12.557 10.752Z"/>
    <path fill-rule="evenodd" clip-rule="evenodd" d="M4 13.75C4 13.3358 4.33579 13 4.75 13H9.25C9.66421 13 10 13.3358 10 13.75V14.5H14V13.75C14 13.3358 14.3358 13 14.75 13H19.25C19.6642 13 20 13.3358 20 13.75V17.25C20 17.9793 19.7103 18.6788 19.1945 19.1945C18.6788 19.7103 17.9793 20 17.25 20H6.75C6.02065 20 5.32118 19.7103 4.80546 19.1945C4.28973 18.6788 4 17.9793 4 17.25V13.75ZM15.5 14.5V15.25C15.5 15.6642 15.1642 16 14.75 16H9.25C8.83579 16 8.5 15.6642 8.5 15.25V14.5H5.5V17.25C5.5 17.5815 5.6317 17.8995 5.86612 18.1339C6.10054 18.3683 6.41848 18.5 6.75 18.5H17.25C17.5815 18.5 17.8995 18.3683 18.1339 18.1339C18.3683 17.8995 18.5 17.5815 18.5 17.25V14.5H15.5Z"/>
</svg>
