<svg width="24" height="24" viewBox="0 0 24 24" xmlns="http://www.w3.org/2000/svg">
    <path fill-rule="evenodd" clip-rule="evenodd" d="M11.4697 5.46968C13.4195 3.51995 16.5806 3.51995 18.5303 5.46968C20.4802 7.41943 20.4801 10.5806 18.5304 12.5304L17.2804 13.7804C16.9875 14.0732 16.5126 14.0732 16.2197 13.7804C15.9268 13.4875 15.9268 13.0126 16.2197 12.7197L17.4697 11.4697C18.8337 10.1057 18.8337 7.89431 17.4697 6.53036C16.1057 5.1664 13.8944 5.16639 12.5304 6.53035C12.5304 6.53036 12.5303 6.53036 12.5303 6.53036L11.2804 7.78035C10.9875 8.07325 10.5126 8.07325 10.2197 7.78035C9.9268 7.48746 9.9268 7.01259 10.2197 6.71969L11.4697 5.46969L11.4697 5.46968ZM14.7804 9.21969C15.0732 9.51259 15.0732 9.98746 14.7804 10.2804L10.2804 14.7804C9.98746 15.0732 9.51259 15.0732 9.21969 14.7804C8.9268 14.4875 8.9268 14.0126 9.21969 13.7197L13.7197 9.21969C14.0126 8.9268 14.4875 8.9268 14.7804 9.21969ZM7.78035 10.2197C8.07325 10.5126 8.07325 10.9875 7.78035 11.2804L6.53036 12.5303C6.53036 12.5303 6.53036 12.5304 6.53035 12.5304C5.16639 13.8944 5.1664 16.1057 6.53036 17.4697C7.89431 18.8337 10.1057 18.8337 11.4697 17.4697L12.7197 16.2197C13.0126 15.9268 13.4875 15.9268 13.7804 16.2197C14.0732 16.5126 14.0732 16.9875 13.7804 17.2804L12.5304 18.5304C10.5806 20.4801 7.41943 20.4802 5.46968 18.5303C3.51995 16.5806 3.51995 13.4195 5.46968 11.4697L5.46969 11.4697L6.71969 10.2197C7.01259 9.9268 7.48746 9.9268 7.78035 10.2197Z"/>
</svg>
