<svg width="24" height="24" viewBox="0 0 24 24" xmlns="http://www.w3.org/2000/svg">
    <path fill-rule="evenodd" clip-rule="evenodd" d="M8 4C8.41421 4 8.75 4.33579 8.75 4.75V6H15.25V4.75C15.25 4.33579 15.5858 4 16 4C16.4142 4 16.75 4.33579 16.75 4.75V6H17.25C18.7853 6 20 7.31701 20 8.75V17.25C20 18.683 18.7853 20 17.25 20H6.74999C5.21465 20 4 18.683 4 17.25V8.75C4 7.31701 5.21466 6 6.75 6H7.25V4.75C7.25 4.33579 7.58579 4 8 4ZM7.25 7.5H6.75C6.07621 7.5 5.5 8.11192 5.5 8.75V10.5H18.5V8.75C18.5 8.11192 17.9238 7.5 17.25 7.5H16.75V8.25C16.75 8.66421 16.4142 9 16 9C15.5858 9 15.25 8.66421 15.25 8.25V7.5H8.75V8.25C8.75 8.66421 8.41421 9 8 9C7.58579 9 7.25 8.66421 7.25 8.25V7.5ZM18.5 12H5.5V17.25C5.5 17.8881 6.0762 18.5 6.74999 18.5H17.25C17.9238 18.5 18.5 17.8881 18.5 17.25V12Z"/>
</svg>
