<svg width="24" height="24" viewBox="0 0 24 24" xmlns="http://www.w3.org/2000/svg">
    <path d="M12 6.75V6C11.8063 6 11.62 6.075 11.4803 6.2093L12 6.75ZM17.25 6.75H18C18 6.33579 17.6642 6 17.25 6V6.75ZM16.5 11.25C16.5 11.6642 16.8358 12 17.25 12C17.6642 12 18 11.6642 18 11.25H16.5ZM10.1369 17.7082C10.4203 18.0102 10.895 18.0252 11.197 17.7418C11.499 17.4583 11.5141 16.9837 11.2306 16.6816L10.1369 17.7082ZM12 7.5H17.25V6H12V7.5ZM16.5 6.75V11.25H18V6.75H16.5ZM11.2306 16.6816L7.83685 13L6.7431 14.0266L10.1369 17.7082L11.2306 16.6816ZM7.83685 13C7.36841 12.5009 7.38855 11.7179 7.88205 11.2435L6.84256 10.1621C5.75684 11.2057 5.7125 12.9285 6.7431 14.0266L7.83685 13ZM7.88205 11.2435L12.5198 7.2907L11.4803 6.2093L6.84256 10.1621L7.88205 11.2435Z"/>
    <path d="M14 10V11C14.5523 11 15 10.5523 15 10H14ZM14 10H13C13 10.5523 13.4477 11 14 11V10ZM14 10V9C13.4477 9 13 9.44772 13 10H14ZM14 10H15C15 9.44772 14.5523 9 14 9V10Z"/>
    <path fill-rule="evenodd" clip-rule="evenodd" d="M13.2197 13.2197C13.5126 12.9268 13.9874 12.9268 14.2803 13.2197L15.5 14.4393L16.7197 13.2197C17.0126 12.9268 17.4874 12.9268 17.7803 13.2197C18.0732 13.5126 18.0732 13.9874 17.7803 14.2803L16.5607 15.5L17.7803 16.7197C18.0732 17.0126 18.0732 17.4874 17.7803 17.7803C17.4874 18.0732 17.0126 18.0732 16.7197 17.7803L15.5 16.5607L14.2803 17.7803C13.9874 18.0732 13.5126 18.0732 13.2197 17.7803C12.9268 17.4874 12.9268 17.0126 13.2197 16.7197L14.4393 15.5L13.2197 14.2803C12.9268 13.9874 12.9268 13.5126 13.2197 13.2197Z"/>
</svg>
