<svg width="32" height="32" viewBox="0 0 32 32" fill="none" xmlns="http://www.w3.org/2000/svg"><path d="M20 5.001a6.5 6.5 0 015.5 9.967M3 25.675a11.002 11.002 0 0112-4.258m3.5-9.916a6.5 6.5 0 11-13 0 6.5 6.5 0 0113 0z" stroke-width="1.5" stroke-linecap="round" stroke-linejoin="round"/><path d="M24.8 22.053v-2.745A2.303 2.303 0 0022.502 17a2.303 2.303 0 00-2.294 2.258l-.001 2.26v.535m0 0h5.642c.635 0 1.15.518 1.15 1.157v4.632c0 .64-.515 1.158-1.15 1.158h-6.7c-.635 0-1.15-.518-1.15-1.158v-4.631c0-.64.515-1.158 1.15-1.158h1.058z" stroke-width="1.5"/></svg>