<svg width="24" height="24" viewBox="0 0 24 24" xmlns="http://www.w3.org/2000/svg">
    <path fill-rule="evenodd" clip-rule="evenodd" d="M6.00002 10C6.00002 6.6863 8.68632 4 12 4C15.3137 4 18 6.68629 18 10V11.762L19.7498 14.2408C20.5681 15.4 19.739 17 18.3201 17H15.7336C15.7246 17.0806 15.7105 17.178 15.6886 17.2877C15.6298 17.5816 15.5112 17.9807 15.2681 18.3859C14.7528 19.2447 13.7541 20 12 20C10.2459 20 9.24719 19.2447 8.7319 18.3859C8.4888 17.9807 8.37023 17.5816 8.31146 17.2877C8.28951 17.178 8.27544 17.0806 8.2664 17H5.67994C4.26101 17 3.43197 15.4 4.25025 14.2408L6.00002 11.762V10ZM9.74999 16.7435C9.75002 16.7444 9.75007 16.7459 9.75015 16.7481C9.75046 16.7558 9.75125 16.7713 9.75314 16.7934C9.75695 16.8378 9.76511 16.9075 9.78233 16.9935C9.78276 16.9957 9.7832 16.9978 9.78363 17H14.2164C14.181 17.174 14.1122 17.397 13.9819 17.6141C13.7472 18.0053 13.2459 18.5 12 18.5C10.7541 18.5 10.2528 18.0053 10.0181 17.6141C9.88786 17.397 9.81901 17.174 9.78363 17M12 5.5C9.51474 5.5 7.50002 7.51472 7.50002 10V12C7.50002 12.1549 7.45207 12.306 7.36275 12.4325L5.4757 15.1058C5.3588 15.2714 5.47724 15.5 5.67994 15.5H18.3201C18.5228 15.5 18.6412 15.2714 18.5243 15.1058L16.6373 12.4325C16.548 12.306 16.5 12.1549 16.5 12V10C16.5 7.51471 14.4853 5.5 12 5.5Z"/>
</svg>
