<svg width="20" height="20" viewBox="0 0 20 20" xmlns="http://www.w3.org/2000/svg">
    <path fill-rule="evenodd" clip-rule="evenodd" d="M3.50461 9.97072C3.51316 9.99534 3.532 10.0461 3.57175 10.1276C3.64736 10.2828 3.76848 10.4889 3.93687 10.7319C4.27274 11.2164 4.76796 11.8061 5.38423 12.3752C6.63453 13.5297 8.27222 14.5 10.0005 14.5C11.7287 14.5 13.3662 13.5297 14.6162 12.3752C15.2324 11.8062 15.7275 11.2165 16.0633 10.7319C16.2316 10.489 16.3527 10.2829 16.4283 10.1277C16.4681 10.0461 16.4869 9.99535 16.4954 9.97074C16.4935 9.96061 16.4907 9.94785 16.4866 9.9323C16.4733 9.88105 16.4502 9.81242 16.4133 9.72646C16.3392 9.55365 16.2213 9.33812 16.0565 9.09209C15.7274 8.60055 15.2393 8.02948 14.6277 7.48752C13.3927 6.3933 11.7504 5.5 10.0005 5.5C8.2505 5.5 6.60795 6.39332 5.37277 7.48757C4.761 8.02953 4.27286 8.60061 3.9436 9.09215C3.7788 9.33819 3.66091 9.55372 3.58676 9.72652C3.54988 9.81248 3.52674 9.88111 3.51343 9.93235C3.5094 9.94787 3.50658 9.96061 3.50461 9.97072ZM4.3781 6.36479C5.76826 5.13325 7.75093 4 10.0005 4C12.25 4 14.2325 5.13326 15.6224 6.36483C16.3232 6.98576 16.8977 7.65239 17.3029 8.25743C17.5053 8.55969 17.6726 8.85717 17.7918 9.13511C17.9053 9.39962 18 9.70282 18 10C18 10.2858 17.8776 10.5777 17.7768 10.7846C17.659 11.0264 17.495 11.2994 17.2961 11.5863C16.8976 12.1615 16.3302 12.8341 15.6339 13.4771C14.2591 14.7469 12.2718 16 10.0005 16C7.7292 16 5.74167 14.7469 4.36663 13.4772C3.67023 12.8341 3.10275 12.1615 2.70408 11.5864C2.50521 11.2995 2.34111 11.0264 2.22331 10.7847C2.1225 10.5778 2.00003 10.2859 2.00003 10C2.00003 9.70278 2.0948 9.39956 2.2083 9.13504C2.32756 8.85711 2.49489 8.55962 2.69736 8.25737C3.10264 7.65233 3.6772 6.98571 4.3781 6.36479Z"/>
    <path fill-rule="evenodd" clip-rule="evenodd" d="M17.7803 2.21967C18.0732 2.51256 18.0732 2.98744 17.7803 3.28033L3.28033 17.7803C2.98744 18.0732 2.51256 18.0732 2.21967 17.7803C1.92678 17.4874 1.92678 17.0126 2.21967 16.7197L16.7197 2.21967C17.0126 1.92678 17.4874 1.92678 17.7803 2.21967Z" fill="#141414"/>
    <path d="M10 8.5C9.17157 8.5 8.5 9.17157 8.5 10C8.5 10.3842 8.64443 10.7346 8.88195 11L7.82249 12.0636C7.31271 11.5259 7 10.7995 7 10C7 8.34315 8.34315 7 10 7C10.7684 7 11.4692 7.28885 12 7.76389L11 8.88195C10.7346 8.64443 10.3842 8.5 10 8.5Z"/>
</svg>
