<svg width="20" height="20" viewBox="0 0 20 20" xmlns="http://www.w3.org/2000/svg">
    <path d="M2 4.75C2 3.23122 3.23122 2 4.75 2H6.25C6.66421 2 7 2.33579 7 2.75C7 3.16421 6.66421 3.5 6.25 3.5H4.75C4.05964 3.5 3.5 4.05964 3.5 4.75V15.25C3.5 15.9404 4.05964 16.5 4.75 16.5H15.25C15.9404 16.5 16.5 15.9404 16.5 15.25V13.75C16.5 13.3358 16.8358 13 17.25 13C17.6642 13 18 13.3358 18 13.75V15.25C18 16.7688 16.7688 18 15.25 18H4.75C3.23122 18 2 16.7688 2 15.25V4.75Z"/>
    <path d="M11 2.75C11 2.33579 11.3358 2 11.75 2H17.25C17.6642 2 18 2.33579 18 2.75V8.25C18 8.66421 17.6642 9 17.25 9C16.8358 9 16.5 8.66421 16.5 8.25V4.56066L11.2803 9.78033C10.9874 10.0732 10.5126 10.0732 10.2197 9.78033C9.92678 9.48744 9.92678 9.01256 10.2197 8.71967L12.8295 6.10983L15.4393 3.5H11.75C11.3358 3.5 11 3.16421 11 2.75Z"/>
</svg>
