<svg xmlns="http://www.w3.org/2000/svg" viewBox="0 0 32 32" width="32" height="32"><path d="M20 6c.55 0 1 .45 1 1 0 .51-.39.94-.88.99L20 8h-9.86c-.59 0-1.07.44-1.13 1.01L9 9.13v3.83l.01.02 1.93 1.92.53.5c.39.39.39 1.02.01 1.41-.36.36-.93.39-1.32.09l-.09-.08-.47-.44-1.99-1.98c-.35-.34-.56-.8-.6-1.28L7 12.94V9.13C7 7.46 8.31 6.1 9.96 6H20zm3 4.42l-9.18 9.18v5.34c0 .01 0 .03.01.04.02.01.05.02.07.02h.02l4.24-3.57.02-.02.01-.03v-3.63l4.8-4.77.01-.02v-2.54zm3.29-6.13A.996.996 0 1 1 27.7 5.7L25 8.42v4.53c0 .49-.17.96-.49 1.33l-.12.13-4.21 4.18v2.8c0 .57-.24 1.11-.63 1.49l-.12.11-4.24 3.57c-.89.71-2.19.56-2.91-.32-.26-.32-.41-.71-.45-1.12l-.01-.18V21.6l-3.11 3.11c-.36.36-.93.39-1.32.08l-.09-.08a.996.996 0 0 1 0-1.41l4.76-4.76c.04-.05.09-.1.15-.14L26.29 4.29z"/></svg>
