<svg width="24" height="24" viewBox="0 0 24 24" xmlns="http://www.w3.org/2000/svg">
    <path fill-rule="evenodd" clip-rule="evenodd" d="M12 6C12.3266 6 12.6157 6.21136 12.7147 6.5226L14.0406 10H17.2505C17.5709 10 17.8559 10.2035 17.9599 10.5066C17.9842 10.5776 17.9974 10.6505 18 10.7229C18.0085 10.9594 17.9045 11.1914 17.7109 11.342L15 13L15.97 17.0527C16.0559 17.3678 15.9722 17.7024 15.6979 17.8798C15.4235 18.0572 15.066 18.0366 14.8138 17.8289L12 15L9.26736 17.8289C9.01519 18.0366 8.6576 18.0572 8.38329 17.8798C8.10898 17.7024 7.93405 17.3152 8.02 17L8.99998 13L6.35994 11.342C6.15931 11.186 6.00381 10.9383 6.00001 10.6913C5.99902 10.627 6.00833 10.5626 6.02982 10.5C6.1338 10.1969 6.49999 10 6.8204 10H10.0406L11.2853 6.5226C11.3843 6.21136 11.6734 6 12 6Z"/>
</svg>
