<svg xmlns="http://www.w3.org/2000/svg" viewBox="0 0 32 32" width="32" height="32">
    <g>
        <path d="M23,6a3,3,0,0,0-3-3H6A3,3,0,0,0,3,6V20a3,3,0,0,0,3,3,3,3,0,0,0,3,3H23a3,3,0,0,0,3-3V9A3,3,0,0,0,23,6Zm1,3v9.86l-3.26-3.54A1,1,0,0,0,20,15a1.05,1.05,0,0,0-.73.29l-4.38,4.39L11.6,17.2a1,1,0,0,0-1.31.09L8,19.59V9A1,1,0,0,1,9,8H23A1,1,0,0,1,24,9ZM5,20V6A1,1,0,0,1,6,5H20a1,1,0,0,1,1,1H9A3,3,0,0,0,6,9V21A1,1,0,0,1,5,20Zm18,4H9a1,1,0,0,1-1-1v-.59l3.09-3.09L14.4,21.8a1,1,0,0,0,1.31-.09L20,17.44l4,4.37V23A1,1,0,0,1,23,24Z"/>
        <path d="M12,9a3,3,0,1,0,3,3A3,3,0,0,0,12,9Zm0,4a1,1,0,1,1,1-1A1,1,0,0,1,12,13Z"/>
    </g>
</svg>
