<svg width="32" height="32" viewBox="0 0 32 32" xmlns="http://www.w3.org/2000/svg">
  <path d="M22.753 12c0-3.916-3.257-6.75-6.75-6.75-3.478 0-6.75 2.863-6.75 6.75 0 1.315.391 2.622 1.018 3.642.079.129.367.479.599.761.134.163.25.304.296.366.166.225.304.445.419.678.035.07.067.263.07.558a.75.75 0 001.5-.01c-.004-.503-.07-.901-.226-1.215a5.942 5.942 0 00-.558-.903c-.1-.135-.308-.388-.491-.61a28.565 28.565 0 01-.266-.324l-.065-.086A5.61 5.61 0 0110.753 12c0-3.01 2.56-5.25 5.25-5.25 2.708 0 5.25 2.212 5.25 5.25a5.64 5.64 0 01-.818 2.856l-.078.115c-.019.027-.095.119-.194.24a20.77 20.77 0 00-.627.79 5.987 5.987 0 00-.469.773c-.16.318-.223.722-.217 1.235a.75.75 0 001.5-.018c-.004-.292.025-.48.055-.539a4.493 4.493 0 01.487-.756l.68-.844c.05-.07.097-.14.14-.21A7.127 7.127 0 0022.753 12zm-4.071 8.802a.75.75 0 01.64 1.357c-1.721.813-4.809.813-6.624.007a.75.75 0 01.609-1.371c1.422.631 4.053.631 5.375.007zm-.866 3.27a.75.75 0 11.368 1.454c-1.187.3-3.198.3-4.37 0a.75.75 0 11.372-1.453c.93.238 2.685.238 3.63-.001z"/>
</svg>
