<svg width="24" height="24" viewBox="0 0 24 24" xmlns="http://www.w3.org/2000/svg">
    <path d="M12.01 15H12C11.45 15 11 15.45 11 16C11 16.55 11.45 17 12 17H12.01C12.56 17 13.01 16.55 13.01 16C13.01 15.45 12.56 15 12.01 15Z"/>
    <path d="M12 4C7.58 4 4 7.58 4 12C4 16.42 7.58 20 12 20C16.42 20 20 16.42 20 12C20 7.58 16.42 4 12 4ZM12 18.5C8.41 18.5 5.5 15.59 5.5 12C5.5 8.41 8.41 5.5 12 5.5C15.59 5.5 18.5 8.41 18.5 12C18.5 15.59 15.59 18.5 12 18.5Z"/>
    <path d="M14.5 10C14.5 9.42 14.3 8.68 13.86 8.18C13.47 7.72 12.91 7.37 12.27 7.26C11.62 7.15 10.99 7.31 10.47 7.61C10.12 7.81 9.83 8.18 9.67 8.4C9.58 8.52 9.5 8.64 9.44 8.72C9.42 8.77 9.39 8.8 9.38 8.83C9.37 8.84 9.37 8.85 9.36 8.86C9.36 8.86 9.36 8.87 9.35 8.87C9.35 8.87 9.35 8.87 9.5 8.96L9.35 8.87C9.14 9.23 9.26 9.69 9.62 9.9C9.98 10.11 10.44 9.99 10.65 9.63C10.65 9.63 10.66 9.62 10.66 9.61C10.67 9.59 10.69 9.57 10.71 9.53C10.75 9.46 10.81 9.37 10.88 9.28C10.95 9.18 11.02 9.09 11.09 9.02C11.12 8.98 11.15 8.96 11.18 8.93C11.2 8.92 11.22 8.91 11.21 8.91C11.48 8.76 11.77 8.7 12.02 8.74C12.27 8.78 12.53 8.93 12.73 9.16C12.88 9.33 13 9.69 13 10C13 10.43 12.79 10.65 12.51 10.8C12.36 10.88 12.21 10.93 12.08 10.97C12.03 10.99 11.98 11 11.95 11C11.93 11 11.92 11 11.92 11C11.54 11.05 11.25 11.37 11.25 11.75V13C11.25 13.41 11.59 13.75 12 13.75C12.41 13.75 12.75 13.41 12.75 13V12.33C12.9 12.28 13.07 12.21 13.24 12.11C13.84 11.78 14.5 11.13 14.5 10Z"/>
</svg>
