<svg width="32" height="32" viewBox="0 0 32 32" fill="none" xmlns="http://www.w3.org/2000/svg"><path d="M13.778 5.776c.535-2.368 3.909-2.368 4.443 0a2.277 2.277 0 003.438 1.423c2.052-1.295 4.438 1.09 3.142 3.142a2.277 2.277 0 001.423 3.438c2.368.534 2.368 3.908 0 4.442A2.277 2.277 0 0024.8 21.66c1.296 2.052-1.089 4.438-3.141 3.142a2.277 2.277 0 00-3.438 1.423c-.534 2.368-3.908 2.368-4.443 0a2.277 2.277 0 00-3.437-1.424C8.29 26.096 5.904 23.712 7.2 21.66c.84-1.33.111-3.09-1.423-3.438-2.368-.534-2.368-3.908 0-4.443a2.277 2.277 0 001.423-3.437C5.904 8.29 8.29 5.904 10.341 7.2c1.33.84 3.09.111 3.438-1.423z" stroke-width="1.5" stroke-linejoin="round"/><circle cx="16" cy="16" r="4" stroke-width="1.5"/></svg>
