<svg width="24" height="24" viewBox="0 0 24 24" xmlns="http://www.w3.org/2000/svg">
    <path fill-rule="evenodd" clip-rule="evenodd" d="M6.34315 6.34315C7.84344 4.84285 9.87827 4 12 4C14.1217 4 16.1566 4.84285 17.6569 6.34315C19.1571 7.84344 20 9.87827 20 12C20 12.4142 19.6642 12.75 19.25 12.75C18.8358 12.75 18.5 12.4142 18.5 12C18.5 10.2761 17.8152 8.62279 16.5962 7.40381C16.013 6.82064 15.3305 6.35973 14.5883 6.03757C15.0474 6.82528 15.4388 7.82393 15.6921 8.99554L15.6935 9.00224L15.7185 9.12324C15.8023 9.52889 15.5414 9.92567 15.1358 10.0095C14.7301 10.0933 14.3333 9.8324 14.2495 9.42676L14.2252 9.30919C13.9421 8.00142 13.4776 7.0018 13.0037 6.34761C12.7662 6.01963 12.5381 5.79472 12.3455 5.65801C12.1467 5.51684 12.0303 5.5 12 5.5C11.954 5.5 11.7684 5.53727 11.4708 5.80635C11.1884 6.06164 10.871 6.46912 10.5727 7.03649C10.0495 8.03189 9.61622 9.46096 9.51996 11.25H13.25C13.6642 11.25 14 11.5858 14 12C14 12.4142 13.6642 12.75 13.25 12.75H9.51996C9.61622 14.539 10.0495 15.9681 10.5727 16.9635C10.871 17.5309 11.1884 17.9384 11.4708 18.1936C11.7684 18.4627 11.954 18.5 12 18.5C12.4142 18.5 12.75 18.8358 12.75 19.25C12.75 19.6642 12.4142 20 12 20C9.87827 20 7.84344 19.1571 6.34315 17.6569C4.84285 16.1566 4 14.1217 4 12C4 9.87827 4.84285 7.84344 6.34315 6.34315ZM9.41152 17.9624C9.35476 17.8649 9.29922 17.7646 9.24502 17.6615C8.60309 16.4404 8.11589 14.7697 8.01801 12.75H5.54339C5.71153 14.1978 6.36293 15.5553 7.40381 16.5962C7.98693 17.1793 8.66944 17.6402 9.41152 17.9624ZM5.54339 11.25H8.01801C8.11589 9.23033 8.60309 7.55961 9.24502 6.33851C9.29922 6.23541 9.35476 6.13507 9.41152 6.03764C8.66944 6.3598 7.98693 6.82068 7.40381 7.40381C6.36293 8.44468 5.71153 9.80223 5.54339 11.25ZM15 14.75C15 14.3358 15.3358 14 15.75 14H19.25C19.6642 14 20 14.3358 20 14.75C20 15.1642 19.6642 15.5 19.25 15.5H16.5V16.25H18.25C18.6642 16.25 19 16.5858 19 17C19 17.4142 18.6642 17.75 18.25 17.75H16.5V18.5H19.25C19.6642 18.5 20 18.8358 20 19.25C20 19.6642 19.6642 20 19.25 20H15.75C15.3358 20 15 19.6642 15 19.25V14.75Z"/>
</svg>
