<svg width="24" height="24" viewBox="0 0 24 24" xmlns="http://www.w3.org/2000/svg">
    <path fill-rule="evenodd" clip-rule="evenodd" d="M4 5.25C4 4.83579 4.33579 4.5 4.75 4.5H19.25C19.6642 4.5 20 4.83579 20 5.25C20 5.66421 19.6642 6 19.25 6H4.75C4.33579 6 4 5.66421 4 5.25ZM4 12C4 11.5858 4.33579 11.25 4.75 11.25H19.25C19.6642 11.25 20 11.5858 20 12C20 12.4142 19.6642 12.75 19.25 12.75H4.75C4.33579 12.75 4 12.4142 4 12ZM4 18.75C4 18.3358 4.33579 18 4.75 18H19.25C19.6642 18 20 18.3358 20 18.75C20 19.1642 19.6642 19.5 19.25 19.5H4.75C4.33579 19.5 4 19.1642 4 18.75Z"/>
</svg>
