<svg width="24" height="24" viewBox="0 0 24 24" xmlns="http://www.w3.org/2000/svg">
<path fill-rule="evenodd" clip-rule="evenodd" d="M5 17.25C5 18.7688 6.23122 20 7.75 20H16.25C17.7688 20 19 18.7688 19 17.25V9.25C19 9.06194 18.9294 8.88075 18.8021 8.74232L14.6638 4.24232C14.5218 4.08789 14.3216 4 14.1117 4H7.75C6.23122 4 5 5.23122 5 6.75L5 17.25ZM7.75 18.5C7.05965 18.5 6.5 17.9404 6.5 17.25L6.5 6.75C6.5 6.05964 7.05964 5.5 7.75 5.5H13.3617V9.25C13.3617 9.66421 13.6975 10 14.1117 10H17.5V17.25C17.5 17.9404 16.9404 18.5 16.25 18.5H7.75ZM16.5414 8.5H14.8617V6.67355L16.5414 8.5Z"/>
</svg>
