<svg width="24" height="24" viewBox="0 0 24 24" xmlns="http://www.w3.org/2000/svg">
    <path d="M14.4384 20C14.0584 20 13.6684 19.86 13.3784 19.58L12.5584 18.81C12.2384 18.51 11.7684 18.51 11.4484 18.81L10.6284 19.58C10.1584 20.02 9.46842 20.12 8.89842 19.84L8.08842 19.44C7.51842 19.16 7.17842 18.56 7.22842 17.93L7.30842 16.79C7.33842 16.34 7.02842 15.94 6.60842 15.87L5.50842 15.7C4.87842 15.6 4.37842 15.13 4.23842 14.5L4.03842 13.6C3.89842 12.98 4.14842 12.34 4.66842 11.98L5.57842 11.34C5.93842 11.09 6.04842 10.58 5.82842 10.18L5.25842 9.19C4.93842 8.63 4.98842 7.95 5.37842 7.45L5.93842 6.73C6.32842 6.22 6.99842 6.01 7.60842 6.2L8.71842 6.55C9.12842 6.68 9.56842 6.46 9.71842 6.04L10.1184 4.99C10.3484 4.4 10.9284 4 11.5584 4H12.4584C13.0984 4 13.6584 4.39 13.8884 4.99L14.2984 6.05C14.4584 6.47 14.8884 6.68 15.2984 6.55L16.3584 6.22C16.9584 6.03 17.6284 6.24 18.0184 6.74L18.5784 7.46C18.9684 7.96 19.0184 8.64 18.7084 9.2L18.1484 10.19C17.9284 10.58 18.0384 11.09 18.3984 11.34L19.3184 11.98C19.8384 12.34 20.0884 12.98 19.9384 13.6L19.7384 14.5C19.5984 15.13 19.0984 15.6 18.4684 15.7L17.3684 15.87C16.9484 15.94 16.6384 16.34 16.6684 16.79L16.7484 17.93C16.7984 18.57 16.4584 19.16 15.8884 19.44L15.0784 19.84C14.8684 19.94 14.6384 20 14.4084 20H14.4384ZM7.15842 7.64L6.56842 8.38L7.12842 9.45C7.73842 10.51 7.42842 11.89 6.43842 12.58L5.52842 13.22L5.70842 14.19L5.73842 14.23L6.83842 14.4C8.02842 14.59 8.88842 15.69 8.80842 16.9L8.72842 18.04L9.56842 18.5L10.4184 17.72C11.3084 16.88 12.6984 16.88 13.5884 17.72L14.4084 18.49L15.2584 18.09L15.2084 16.89C15.1184 15.67 15.9884 14.57 17.1684 14.39L18.2684 14.22L18.5084 13.28L17.5684 12.57C16.5684 11.87 16.2684 10.53 16.8684 9.46L17.4284 8.47L16.8584 7.67L15.7584 7.99C14.5984 8.35 13.3484 7.74 12.9084 6.6L12.4984 5.54L11.5584 5.51L11.1284 6.59C10.6884 7.74 9.42842 8.36 8.26842 7.99L7.15842 7.64Z"/>
    <path d="M12.0084 15C11.2084 15 10.4584 14.69 9.88842 14.12C9.31842 13.55 9.00842 12.8 9.00842 12C9.00842 11.2 9.31842 10.45 9.88842 9.88C11.0184 8.75 12.9984 8.75 14.1284 9.88C14.6984 10.45 15.0084 11.2 15.0084 12C15.0084 12.8 14.6984 13.55 14.1284 14.12C13.5584 14.69 12.8084 15 12.0084 15ZM12.0084 10.5C11.6084 10.5 11.2284 10.66 10.9484 10.94C10.6684 11.22 10.5084 11.6 10.5084 12C10.5084 12.4 10.6684 12.78 10.9484 13.06C11.5184 13.63 12.5084 13.63 13.0684 13.06C13.3484 12.78 13.5084 12.4 13.5084 12C13.5084 11.6 13.3484 11.22 13.0684 10.94C12.7884 10.66 12.4084 10.5 12.0084 10.5Z"/>
</svg>
