<svg xmlns="http://www.w3.org/2000/svg" viewBox="0 0 24 24" width="24" height="24"><path d="M11.82 10.76c-.55.08-.98.51-1.06 1.06l1.06-1.06zM12 8c-2.07 0-4.21 1.2-6.42 3.68l-.25.28.51.53.48.49c.67.67 1.25 1.19 1.72 1.56l1.44-1.44a2.748 2.748 0 013.62-3.62l1.05-1.05C13.43 8.14 12.71 8 12 8zm6.89 1.46c.37.35.65.63.99.97l.26.27.59.61c.34.36.37.92.05 1.31C17.94 16.17 15.02 18 12 18c-.19 0-.39-.01-.58-.02-.55-.04-.96-.53-.92-1.08.04-.55.53-.96 1.08-.92.14.01.28.02.42.02 2.07 0 4.21-1.2 6.42-3.67l.25-.28-.24-.25-.44-.44-.47-.45a.996.996 0 01-.03-1.41c.37-.41 1-.42 1.4-.04zm.4-6.17A.996.996 0 1120.7 4.7L8.91 16.5c-.03.04-.07.08-.11.11l-4.1 4.1a.996.996 0 11-1.41-1.41l3.33-3.33c-.64-.52-1.38-1.22-2.23-2.1l-.56-.59-.56-.6c-.33-.36-.35-.92-.05-1.3C6.06 7.83 8.98 6 12 6c1.23 0 2.46.31 3.67.92l3.62-3.63z" fill-rule="evenodd" clip-rule="evenodd"/></svg>
