<svg width="24" height="24" viewBox="0 0 24 24" xmlns="http://www.w3.org/2000/svg">
    <path fill-rule="evenodd" clip-rule="evenodd" d="M9.49998 5.5C8.39542 5.5 7.49998 6.39543 7.49998 7.5C7.49998 8.60457 8.39542 9.5 9.49998 9.5C10.6046 9.5 11.5 8.60457 11.5 7.5C11.5 6.39543 10.6046 5.5 9.49998 5.5ZM5.99998 7.5C5.99998 5.567 7.56699 4 9.49998 4C11.433 4 13 5.567 13 7.5C13 9.433 11.433 11 9.49998 11C7.56699 11 5.99998 9.433 5.99998 7.5ZM14 4.75C14 4.33579 14.3358 4 14.75 4C16.7744 4 18 5.66472 18 7.5C18 9.33528 16.7744 11 14.75 11C14.3358 11 14 10.6642 14 10.25C14 9.83579 14.3358 9.5 14.75 9.5C15.7632 9.5 16.5 8.70228 16.5 7.5C16.5 6.29772 15.7632 5.5 14.75 5.5C14.3358 5.5 14 5.16421 14 4.75ZM5.4934 15.0686C6.32994 14.0388 7.61464 13.25 9.49998 13.25C11.3853 13.25 12.67 14.0388 13.5066 15.0686C14.3184 16.068 14.6827 17.2591 14.8494 18.079C15.0711 19.1692 14.1804 20 13.2183 20H5.78166C4.81948 20 3.92884 19.1692 4.15051 18.0791C4.31724 17.2591 4.68161 16.0681 5.4934 15.0686ZM6.65771 16.0144C6.0623 16.7474 5.76426 17.6706 5.62043 18.3779L4.88547 18.2285L5.62043 18.3779C5.61611 18.3992 5.61841 18.4105 5.62001 18.4161C5.62196 18.423 5.62648 18.4331 5.63725 18.4451C5.65959 18.4699 5.70759 18.5 5.78166 18.5H13.2183C13.2924 18.5 13.3404 18.4699 13.3627 18.4451C13.3735 18.4331 13.378 18.423 13.38 18.4161C13.3816 18.4105 13.3839 18.3992 13.3795 18.378L13.3795 18.3779C13.2357 17.6706 12.9377 16.7474 12.3423 16.0144C11.7716 15.3118 10.9043 14.75 9.49998 14.75C8.09564 14.75 7.22836 15.3118 6.65771 16.0144ZM15 14C15 13.5858 15.3358 13.25 15.75 13.25C17.0972 13.25 18.0357 13.9642 18.6503 14.8349C19.2493 15.6834 19.5752 16.719 19.7561 17.5334C20.0631 18.9162 18.9293 20 17.6769 20H16.75C16.3358 20 16 19.6642 16 19.25C16 18.8358 16.3358 18.5 16.75 18.5H17.6769C17.895 18.5 18.073 18.409 18.181 18.2877C18.2835 18.1727 18.3292 18.0272 18.2917 17.8586C18.1288 17.1249 17.8573 16.3125 17.4249 15.7C17.0082 15.1097 16.4816 14.75 15.75 14.75C15.3358 14.75 15 14.4142 15 14Z"/>
</svg>
