<svg width="20" height="20" viewBox="0 0 20 20" xmlns="http://www.w3.org/2000/svg">
    <path d="M10.01 13H10C9.45 13 9 13.45 9 14C9 14.55 9.45 15 10 15H10.01C10.56 15 11.01 14.55 11.01 14C11.01 13.45 10.56 13 10.01 13Z" fill="#10100F"/>
    <path d="M10 2C5.58 2 2 5.58 2 10C2 14.42 5.58 18 10 18C14.42 18 18 14.42 18 10C18 5.58 14.42 2 10 2ZM10 16.5C6.41 16.5 3.5 13.59 3.5 10C3.5 6.41 6.41 3.5 10 3.5C13.59 3.5 16.5 6.41 16.5 10C16.5 13.59 13.59 16.5 10 16.5Z" fill="#10100F"/>
    <path d="M12.5 8C12.5 7.42 12.3 6.68 11.86 6.18C11.47 5.72 10.91 5.37 10.27 5.26C9.62 5.15 8.99 5.31 8.47 5.61C8.12 5.81 7.83 6.18 7.67 6.4C7.58 6.52 7.5 6.64 7.44 6.72C7.42 6.77 7.39 6.8 7.38 6.83C7.37 6.84 7.37 6.85 7.36 6.86C7.36 6.86 7.36 6.87 7.35 6.87C7.35 6.87 7.35 6.87 7.5 6.96L7.35 6.87C7.14 7.23 7.26 7.69 7.62 7.9C7.98 8.11 8.44 7.99 8.65 7.63C8.65 7.63 8.66 7.62 8.66 7.61C8.67 7.59 8.69 7.57 8.71 7.53C8.75 7.46 8.81 7.37 8.88 7.28C8.95 7.18 9.02 7.09 9.09 7.02C9.12 6.98 9.15 6.96 9.18 6.93C9.2 6.92 9.22 6.91 9.21 6.91C9.48 6.76 9.77 6.7 10.02 6.74C10.27 6.78 10.53 6.93 10.73 7.16C10.88 7.33 11 7.69 11 8C11 8.43 10.79 8.65 10.51 8.8C10.36 8.88 10.21 8.93 10.08 8.97C10.03 8.99 9.98 9 9.95 9C9.93 9 9.92 9 9.92 9C9.54 9.05 9.25 9.37 9.25 9.75V11C9.25 11.41 9.59 11.75 10 11.75C10.41 11.75 10.75 11.41 10.75 11V10.33C10.9 10.28 11.07 10.21 11.24 10.11C11.84 9.78 12.5 9.13 12.5 8Z" fill="#10100F"/>
</svg>
