<svg xmlns="http://www.w3.org/2000/svg" viewBox="0 0 24 24">
  <path fill="#0E1C3D" d="M11.985 23c-.736 0-1.476-.08-2.198-.238a1 1 0 1 1 .426-1.953c.587.128 1.175.157 1.786.191.614 0 1.194-.065 1.774-.2a.994.994 0 0 1 1.2.747.998.998 0 0 1-.746 1.2c-.736.171-1.43.247-2.242.253zm.073-3c-1.208-.015-2.376-.193-3.408-.58a1 1 0 1 1 .7-1.872c.807.302 1.741.446 2.702.452.895 0 1.768-.155 2.601-.464a1.001 1.001 0 0 1 .694 1.877 9.472 9.472 0 0 1-3.29.587zm3.587-4a1 1 0 0 1-1-.994 3.735 3.735 0 0 1 1-2.57A5.012 5.012 0 0 0 11.996 4c-.096.006-.217.004-.327.011-2.52.162-4.567 2.268-4.664 4.796a4.985 4.985 0 0 0 1.144 3.391c.588.711 1.264 1.67 1.267 2.78a1 1 0 0 1-.998 1.003h-.002a1 1 0 0 1-1-.997c-.001-.537-.587-1.244-.807-1.51a6.978 6.978 0 0 1-1.602-4.746c.135-3.537 3.005-6.486 6.533-6.713.15-.01.31-.02.454-.015 3.858 0 7 3.133 7.007 6.991a6.965 6.965 0 0 1-1.893 4.81c-.3.322-.465.747-.462 1.193A1 1 0 0 1 15.65 16h-.005z"/>
</svg>
