<svg width="20" height="20" viewBox="0 0 20 20" xmlns="http://www.w3.org/2000/svg">
    <path d="M14.25 18H5.75C4.23 18 3 16.77 3 15.25V9.75C3 8.79 3.79 8 4.75 8H5V7.63C5 6.39 4.99 5 5.82 3.86C6.44 3.01 7.67 2 10 2C12.32 2 13.77 3.7 13.83 3.77C14.1 4.09 14.05 4.56 13.73 4.83C13.41 5.09 12.94 5.05 12.67 4.73C12.67 4.72 11.61 3.5 10 3.5C8.63 3.5 7.63 3.92 7.03 4.75C6.49 5.48 6.5 6.52 6.5 7.62V8H15.25C16.21 8 17 8.79 17 9.75V15.25C17 16.77 15.77 18 14.25 18ZM4.75 9.5C4.61 9.5 4.5 9.61 4.5 9.75V15.25C4.5 15.94 5.06 16.5 5.75 16.5H14.25C14.94 16.5 15.5 15.94 15.5 15.25V9.75C15.5 9.61 15.39 9.5 15.25 9.5H4.75Z"/>
</svg>
