<svg xmlns="http://www.w3.org/2000/svg" viewBox="0 0 32 32" width="32" height="32">
  <g id="Icons">
    <path class="cls-1" d="M26 6H6a3 3 0 00-3 3v14a3 3 0 003 3h20a3 3 0 003-3V9a3 3 0 00-3-3zm1 17a1 1 0 01-1 1H6a1 1 0 01-1-1V9a1 1 0 011-1h20a1 1 0 011 1z"/>
    <path class="cls-1" d="M24.8 11.4a1 1 0 00-1.4-.2L16 16.75 8.6 11.2a1 1 0 00-1.2 1.6l8 6a1 1 0 001.2 0l8-6a1 1 0 00.2-1.4zM9.29 17.29l-2 2a1 1 0 000 1.42 1 1 0 001.42 0l2-2a1 1 0 00-1.42-1.42zM22.71 17.29a1 1 0 00-1.42 1.42l2 2a1 1 0 001.42 0 1 1 0 000-1.42z"/>
  </g>
</svg>
