<svg width="24" height="24" viewBox="0 0 24 24" xmlns="http://www.w3.org/2000/svg">
    <path fill-rule="evenodd" clip-rule="evenodd" d="M6.34315 6.34315C7.84344 4.84285 9.87827 4 12 4C14.1217 4 16.1566 4.84285 17.6569 6.34315C19.1571 7.84344 20 9.87827 20 12C20 12.4142 19.6642 12.75 19.25 12.75C18.8358 12.75 18.5 12.4142 18.5 12C18.5 10.2761 17.8152 8.62279 16.5962 7.40381C16.013 6.82064 15.3305 6.35973 14.5883 6.03757C15.0474 6.82528 15.4388 7.82393 15.6921 8.99554L15.6935 9.00224L15.7185 9.12324C15.8023 9.52889 15.5414 9.92567 15.1358 10.0095C14.7301 10.0933 14.3333 9.8324 14.2495 9.42676L14.2252 9.30919C13.9421 8.00142 13.4776 7.0018 13.0037 6.34761C12.7662 6.01963 12.5381 5.79472 12.3455 5.65801C12.1467 5.51684 12.0303 5.5 12 5.5C11.954 5.5 11.7684 5.53727 11.4708 5.80635C11.1884 6.06164 10.871 6.46912 10.5727 7.03649C10.0495 8.03189 9.61622 9.46096 9.51996 11.25H11.25C11.6642 11.25 12 11.5858 12 12C12 12.4142 11.6642 12.75 11.25 12.75H9.51996C9.61622 14.539 10.0495 15.9681 10.5727 16.9635C10.871 17.5309 11.1884 17.9384 11.4708 18.1936C11.7684 18.4627 11.954 18.5 12 18.5C12.4142 18.5 12.75 18.8358 12.75 19.25C12.75 19.6642 12.4142 20 12 20C9.87827 20 7.84344 19.1571 6.34315 17.6569C4.84285 16.1566 4 14.1217 4 12C4 9.87827 4.84285 7.84344 6.34315 6.34315ZM9.41152 17.9624C9.35476 17.8649 9.29922 17.7646 9.24502 17.6615C8.60309 16.4404 8.11589 14.7697 8.01801 12.75H5.54339C5.71153 14.1978 6.36293 15.5553 7.40381 16.5962C7.98693 17.1793 8.66944 17.6402 9.41152 17.9624ZM5.54339 11.25H8.01801C8.11589 9.23033 8.60309 7.55961 9.24502 6.33851C9.29922 6.23541 9.35476 6.13507 9.41152 6.03764C8.66944 6.3598 7.98693 6.82068 7.40381 7.40381C6.36293 8.44468 5.71153 9.80223 5.54339 11.25Z"/>
    <path d="M17.677 16.617C17.5348 16.4845 17.3468 16.4124 17.1525 16.4158C16.9582 16.4193 16.7728 16.498 16.6354 16.6354C16.498 16.7728 16.4193 16.9582 16.4158 17.1525C16.4124 17.3468 16.4845 17.5348 16.617 17.677L17.677 16.617ZM18.72 19.78C18.7887 19.8537 18.8715 19.9128 18.9635 19.9538C19.0555 19.9948 19.1548 20.0168 19.2555 20.0186C19.3562 20.0204 19.4562 20.0018 19.5496 19.9641C19.643 19.9264 19.7278 19.8703 19.799 19.799C19.8703 19.7278 19.9264 19.643 19.9641 19.5496C20.0018 19.4562 20.0204 19.3562 20.0186 19.2555C20.0168 19.1548 19.9948 19.0555 19.9538 18.9635C19.9128 18.8715 19.8537 18.7887 19.78 18.72L18.72 19.78ZM15.235 18.47C15.6599 18.4701 16.0807 18.3866 16.4733 18.224C16.8659 18.0615 17.2226 17.8233 17.5231 17.5228C17.8236 17.2224 18.062 16.8658 18.2247 16.4732C18.3873 16.0807 18.471 15.6599 18.471 15.235H16.971C16.971 16.194 16.194 16.971 15.235 16.971V18.471V18.47ZM15.235 13.5C16.194 13.5 16.971 14.277 16.971 15.235H18.471C18.471 14.8101 18.3873 14.3893 18.2247 13.9968C18.062 13.6042 17.8236 13.2476 17.5231 12.9472C17.2226 12.6467 16.8659 12.4085 16.4733 12.246C16.0807 12.0834 15.6599 11.9999 15.235 12V13.5ZM15.235 12C14.377 12 13.5542 12.3408 12.9475 12.9475C12.3408 13.5542 12 14.377 12 15.235H13.5C13.5 14.277 14.277 13.5 15.235 13.5V12ZM15.235 16.97C14.7748 16.97 14.3335 16.7872 14.0082 16.4618C13.6828 16.1365 13.5 15.6952 13.5 15.235H12C11.9999 15.6599 12.0834 16.0807 12.246 16.4733C12.4085 16.8659 12.6467 17.2226 12.9472 17.5231C13.2476 17.8236 13.6042 18.062 13.9968 18.2247C14.3893 18.3873 14.8101 18.471 15.235 18.471V16.971V16.97ZM16.617 17.677L18.72 19.78L19.78 18.72L17.677 16.617L16.617 17.677Z"/>
</svg>
