<svg width="32" height="32" viewBox="0 0 32 32" xmlns="http://www.w3.org/2000/svg">
  <path d="M25.53 21.47a.75.75 0 01-1.06 1.06l-4-4a.75.75 0 011.06-1.06l4 4zm-18 1.06a.75.75 0 01-1.06-1.06l4-4a.75.75 0 011.06 1.06l-4 4zM16 16.05l8.54-6.642a.75.75 0 01.92 1.184l-9 7a.75.75 0 01-.92 0l-9-7a.75.75 0 11.92-1.184L16 16.05zM6 7.75c-.69 0-1.25.56-1.25 1.25v14c0 .69.56 1.25 1.25 1.25h20A1.25 1.25 0 0027.25 23V9c0-.69-.56-1.25-1.25-1.25H6zm0-1.5h20A2.75 2.75 0 0128.75 9v14A2.75 2.75 0 0126 25.75H6A2.75 2.75 0 013.25 23V9A2.75 2.75 0 016 6.25z"/>
</svg>
