<svg width="20" height="20" viewBox="0 0 20 20" fill="none" xmlns="http://www.w3.org/2000/svg">
    <path d="M4 6.75C4 5.23122 5.23122 4 6.75 4H8.25C8.66421 4 9 4.33579 9 4.75C9 5.16421 8.66421 5.5 8.25 5.5H6.75C6.05964 5.5 5.5 6.05964 5.5 6.75V13.25C5.5 13.9404 6.05964 14.5 6.75 14.5H13.25C13.9404 14.5 14.5 13.9404 14.5 13.25V11.75C14.5 11.3358 14.8358 11 15.25 11C15.6642 11 16 11.3358 16 11.75V13.25C16 14.7688 14.7688 16 13.25 16H6.75C5.23122 16 4 14.7688 4 13.25V6.75Z" fill="#111010"/>
    <path d="M11 4.75C11 4.33579 11.3358 4 11.75 4H15.25C15.6642 4 16 4.33579 16 4.75V8.25C16 8.66421 15.6642 9 15.25 9C14.8358 9 14.5 8.66421 14.5 8.25V6.56066L11.2803 9.78033C10.9874 10.0732 10.5126 10.0732 10.2197 9.78033C9.92678 9.48744 9.92678 9.01256 10.2197 8.71967L10.8295 8.10983L13.4393 5.5H11.75C11.3358 5.5 11 5.16421 11 4.75Z" fill="#111010"/>
</svg>
