<svg width="24" height="24" viewBox="0 0 24 24" xmlns="http://www.w3.org/2000/svg">
    <path fill-rule="evenodd" clip-rule="evenodd" d="M12 4.5C11.1716 4.5 10.5 5.17157 10.5 6C10.5 6.82843 11.1716 7.5 12 7.5C12.8284 7.5 13.5 6.82842 13.5 6C13.5 5.17158 12.8284 4.5 12 4.5ZM9 6C9 4.34315 10.3431 3 12 3C13.6568 3 15 4.34314 15 6C15 7.65686 13.6568 9 12 9C10.3431 9 9 7.65685 9 6ZM5 8.5C4.72386 8.5 4.5 8.72386 4.5 9C4.5 9.27614 4.72386 9.5 5 9.5C5.27613 9.5 5.5 9.27613 5.5 9C5.5 8.72387 5.27613 8.5 5 8.5ZM3 9C3 7.89543 3.89543 7 5 7C6.10454 7 7 7.89542 7 9C7 10.1046 6.10454 11 5 11C3.89543 11 3 10.1046 3 9ZM19 8.5C18.7239 8.5 18.5 8.72386 18.5 9C18.5 9.27614 18.7239 9.5 19 9.5C19.2761 9.5 19.5 9.27613 19.5 9C19.5 8.72387 19.2761 8.5 19 8.5ZM17 9C17 7.89543 17.8954 7 19 7C20.1045 7 21 7.89542 21 9C21 10.1046 20.1045 11 19 11C17.8954 11 17 10.1046 17 9ZM7.21967 10.2197C7.36032 10.079 7.55109 10 7.75 10L16.25 10C16.6642 10 17 10.3358 17 10.75C17 11.1088 16.9862 11.5327 16.955 12L20.25 12C20.4489 12 20.6397 12.079 20.7803 12.2197C20.921 12.3603 21 12.5511 21 12.75C21 14.1806 20.7821 15.9372 20.0715 17.3653C19.3407 18.834 18.0528 20 16 20C15.4992 20 15.0476 19.8772 14.6486 19.6637C13.9949 20.4415 13.1183 21 12 21C10.8817 21 10.0051 20.4415 9.35137 19.6637C8.95245 19.8772 8.50088 20 8 20C5.94717 20 4.65926 18.834 3.92853 17.3653C3.21792 15.9372 3 14.1806 3 12.75C3 12.5511 3.07902 12.3603 3.21967 12.2197C3.36032 12.079 3.55109 12 3.75 12L7.045 12C7.01378 11.5327 7 11.1088 7 10.75C7 10.5511 7.07902 10.3603 7.21967 10.2197ZM7.19334 13.5L4.52241 13.5C4.58928 14.6119 4.81194 15.7736 5.27147 16.6972C5.81574 17.791 6.65283 18.5 8 18.5C8.19238 18.5 8.36899 18.4641 8.53431 18.3937C8.27557 17.8781 8.06173 17.3208 7.88442 16.7558C7.552 15.6967 7.33119 14.5552 7.19334 13.5ZM15.4657 18.3937C15.6309 18.4641 15.8075 18.5 16 18.5C17.3472 18.5 18.1843 17.791 18.7285 16.6972C19.1881 15.7736 19.4107 14.6119 19.4776 13.5L16.8067 13.5C16.6688 14.5552 16.448 15.6967 16.1156 16.7558C15.9383 17.3208 15.7244 17.8781 15.4657 18.3937ZM8.5188 11.5C8.58175 12.8409 8.81031 14.6967 9.31559 16.3067C9.62047 17.2781 10.0093 18.1047 10.48 18.6749C10.939 19.231 11.4344 19.5 12 19.5C12.5656 19.5 13.061 19.231 13.52 18.6749C13.9907 18.1047 14.3795 17.2781 14.6844 16.3067C15.1897 14.6967 15.4182 12.8409 15.4812 11.5L8.5188 11.5Z"/>
</svg>
