<svg width="20" height="20" viewBox="0 0 20 20" xmlns="http://www.w3.org/2000/svg">
    <path fill-rule="evenodd" clip-rule="evenodd" d="M13.1744 2.51277C13.8582 1.82908 14.9666 1.82908 15.6505 2.51277L15.6505 2.51283L17.4871 4.34946C18.171 5.03324 18.171 6.14189 17.4871 6.82566L7.53309 16.7797C7.43442 16.8784 7.31019 16.9476 7.17436 16.9795L2.92225 17.98C2.66929 18.0396 2.40355 17.964 2.21979 17.7802C2.03604 17.5965 1.96044 17.3307 2.01996 17.0778L3.02046 12.8256C3.05242 12.6898 3.12162 12.5656 3.22029 12.4669L13.1743 2.51282L13.1744 2.51277ZM14.2355 3.57405L12.9332 4.87629L15.1236 7.06673L16.4259 5.76443L16.426 5.76438C16.5237 5.66671 16.5237 5.50842 16.426 5.41074L16.4259 5.41068L14.5894 3.57405C14.4916 3.47631 14.3332 3.47631 14.2355 3.57405ZM14.0625 8.12792L11.8721 5.93748L4.43242 13.3772L3.75844 16.2416L6.62284 15.5676L14.0625 8.12792Z"/>
</svg>
