<svg width="24" height="24" viewBox="0 0 24 24" fill="none" xmlns="http://www.w3.org/2000/svg">
<path fill-rule="evenodd" clip-rule="evenodd" d="M6 10C6 7.18299 7.99485 4 12 4C16.0052 4 18 7.18299 18 10C18 12.2346 17.1439 13.5332 16.3011 14.4462C16.1082 14.6552 15.9163 14.8439 15.7485 15.0088L15.7251 15.0318C15.5459 15.2081 15.4018 15.351 15.2823 15.487C15.0406 15.7623 15 15.9004 15 16V18.2505C15 19.2175 14.216 20 13.25 20H10.75C9.78397 20 9 19.2175 9 18.2505V16C9 15.9004 8.95939 15.7623 8.71767 15.487C8.59825 15.351 8.45415 15.2081 8.27493 15.0318L8.2515 15.0088C8.08374 14.8439 7.89185 14.6552 7.6989 14.4462C6.85608 13.5332 6 12.2346 6 10ZM12 5.5C9.00515 5.5 7.5 7.81701 7.5 10C7.5 11.7654 8.14392 12.7168 8.8011 13.4288C8.96883 13.6105 9.13764 13.7765 9.31031 13.9462L9.32664 13.9623C9.49898 14.1318 9.683 14.313 9.84483 14.4973C10.1656 14.8627 10.5 15.3496 10.5 16H13.5C13.5 15.3496 13.8344 14.8627 14.1552 14.4973C14.317 14.313 14.501 14.1318 14.6734 13.9623L14.6897 13.9462C14.8624 13.7765 15.0312 13.6105 15.1989 13.4288C15.8561 12.7168 16.5 11.7654 16.5 10C16.5 7.81701 14.9948 5.5 12 5.5ZM13.5 17.5H10.5V18.2505C10.5 18.3881 10.6114 18.5 10.75 18.5H13.25C13.3886 18.5 13.5 18.3881 13.5 18.2505V17.5Z" fill="#111010"/>
</svg>
