<svg width="24" height="24" viewBox="0 0 24 24" xmlns="http://www.w3.org/2000/svg">
    <path fill-rule="evenodd" clip-rule="evenodd" d="M4 6.5625C4 5.14727 5.14727 4 6.5625 4H13.8125C15.2277 4 16.375 5.14727 16.375 6.5625V7.625H17.4375C18.8527 7.625 20 8.77227 20 10.1875V17.4375C20 18.8527 18.8527 20 17.4375 20H10.1875C8.77227 20 7.625 18.8527 7.625 17.4375V16.375H6.5625C5.14727 16.375 4 15.2277 4 13.8125V6.5625ZM9.125 17.4375C9.125 18.0243 9.6007 18.5 10.1875 18.5H17.4375C18.0243 18.5 18.5 18.0243 18.5 17.4375V10.1875C18.5 9.6007 18.0243 9.125 17.4375 9.125H10.1875C9.6007 9.125 9.125 9.6007 9.125 10.1875V17.4375ZM14.875 7.625H10.1875C8.77227 7.625 7.625 8.77227 7.625 10.1875V14.875H6.5625C5.9757 14.875 5.5 14.3993 5.5 13.8125V6.5625C5.5 5.9757 5.9757 5.5 6.5625 5.5H13.8125C14.3993 5.5 14.875 5.9757 14.875 6.5625V7.625Z"/>
</svg>
