<svg width="24" height="24" viewBox="0 0 24 24" xmlns="http://www.w3.org/2000/svg">
    <path fill-rule="evenodd" clip-rule="evenodd" d="M5.5428 11.25H8.01802C8.11591 9.23031 8.6032 7.55958 9.24518 6.33849C9.29985 6.23451 9.35587 6.13334 9.41314 6.03513C7.32917 6.94016 5.81218 8.90532 5.5428 11.25ZM12 4C7.58172 4 4 7.58172 4 12C4 16.4183 7.58172 20 12 20C16.4183 20 20 16.4183 20 12C20 7.58172 16.4183 4 12 4ZM12 5.5C11.9541 5.5 11.7686 5.53722 11.4709 5.80634C11.1886 6.06164 10.8712 6.46914 10.5729 7.03651C10.0495 8.03191 9.61624 9.46098 9.51996 11.25H14.48C14.3838 9.46098 13.9505 8.03191 13.4271 7.03651C13.1288 6.46914 12.8114 6.06164 12.5291 5.80634C12.2314 5.53722 12.0459 5.5 12 5.5ZM15.982 11.25C15.8841 9.23031 15.3968 7.55958 14.7548 6.33849C14.7002 6.23451 14.6441 6.13334 14.5869 6.03513C16.6708 6.94016 18.1878 8.90532 18.4572 11.25H15.982ZM14.48 12.75H9.51996C9.61624 14.539 10.0495 15.9681 10.5729 16.9635C10.8712 17.5309 11.1886 17.9384 11.4709 18.1937C11.7686 18.4628 11.9541 18.5 12 18.5C12.0459 18.5 12.2314 18.4628 12.5291 18.1937C12.8114 17.9384 13.1288 17.5309 13.4271 16.9635C13.9505 15.9681 14.3838 14.539 14.48 12.75ZM14.5869 17.9649C14.6441 17.8667 14.7002 17.7655 14.7548 17.6615C15.3968 16.4404 15.8841 14.7697 15.982 12.75H18.4572C18.1878 15.0947 16.6708 17.0598 14.5869 17.9649ZM9.41314 17.9649C9.35587 17.8667 9.29985 17.7655 9.24518 17.6615C8.6032 16.4404 8.11591 14.7697 8.01802 12.75H5.5428C5.81218 15.0947 7.32917 17.0598 9.41314 17.9649Z"/>
</svg>
