<svg width="24" height="24" viewBox="0 0 24 24" xmlns="http://www.w3.org/2000/svg">
    <path d="M6 8.75C6 7.23122 7.23122 6 8.75 6H10.25C10.6642 6 11 6.33579 11 6.75C11 7.16421 10.6642 7.5 10.25 7.5H8.75C8.05964 7.5 7.5 8.05964 7.5 8.75V15.25C7.5 15.9404 8.05964 16.5 8.75 16.5H15.25C15.9404 16.5 16.5 15.9404 16.5 15.25V13.75C16.5 13.3358 16.8358 13 17.25 13C17.6642 13 18 13.3358 18 13.75V15.25C18 16.7688 16.7688 18 15.25 18H8.75C7.23122 18 6 16.7688 6 15.25V8.75Z"/>
    <path d="M13 6.75C13 6.33579 13.3358 6 13.75 6H17.25C17.6642 6 18 6.33579 18 6.75V10.25C18 10.6642 17.6642 11 17.25 11C16.8358 11 16.5 10.6642 16.5 10.25V8.56066L13.2803 11.7803C12.9874 12.0732 12.5126 12.0732 12.2197 11.7803C11.9268 11.4874 11.9268 11.0126 12.2197 10.7197L12.8295 10.1098L15.4393 7.5H13.75C13.3358 7.5 13 7.16421 13 6.75Z"/>
</svg>
