<svg width="32" height="32" viewBox="0 0 32 32" xmlns="http://www.w3.org/2000/svg">
  <path d="M15.75 12a3.75 3.75 0 100 7.5 3.75 3.75 0 000-7.5zm0 1.5a2.25 2.25 0 110 4.5 2.25 2.25 0 010-4.5z"/>
  <path d="M14.75 5l-.143.006a1.75 1.75 0 00-1.601 1.6l-.002.032-.214.866-.778.323-.758-.458a1.75 1.75 0 00-2.398.072L7.44 8.857l-.113.125a1.75 1.75 0 000 2.225l.037.041.462.765-.323.778-.863.213A1.75 1.75 0 005 14.75v2l.006.143a1.75 1.75 0 001.6 1.601l.033.001.865.214.323.778-.46.761a1.75 1.75 0 00.074 2.396l1.415 1.415.125.113a1.75 1.75 0 002.225 0l.041-.038.765-.462.778.323.213.863A1.75 1.75 0 0014.75 26.5h2l.143-.006a1.75 1.75 0 001.601-1.6l.001-.034.214-.865.778-.323.758.458a1.75 1.75 0 002.4-.072l1.413-1.414.114-.124a1.75 1.75 0 000-2.226l-.038-.042-.462-.765.323-.778.857-.212A1.75 1.75 0 0026.5 16.75v-2l-.006-.143a1.75 1.75 0 00-1.6-1.601l-.033-.002-.866-.214-.323-.778.456-.755a1.75 1.75 0 00-.07-2.401L22.644 7.44l-.124-.113a1.75 1.75 0 00-2.226 0l-.042.037-.765.462-.778-.323-.212-.857A1.75 1.75 0 0016.75 5h-2zm0 1.5h2a.25.25 0 01.243.193l.029.237.322 1.303a.75.75 0 00.441.513l1.479.612a.75.75 0 00.674-.05l1.15-.694.142-.112a.25.25 0 01.354 0l1.414 1.414a.25.25 0 01.04.3l-.152.197-.693 1.149a.75.75 0 00-.051.674l.612 1.479a.75.75 0 00.513.44l1.303.323.18.022a.25.25 0 01.25.25v2a.25.25 0 01-.193.243l-.237.029-1.303.322a.75.75 0 00-.513.441l-.612 1.479a.75.75 0 00.05.674l.694 1.15.112.142a.25.25 0 010 .354l-1.414 1.414a.25.25 0 01-.3.04l-.197-.152-1.149-.693a.75.75 0 00-.674-.051l-1.479.612a.75.75 0 00-.44.513l-.323 1.303-.022.18a.25.25 0 01-.25.25h-2a.25.25 0 01-.243-.193l-.029-.237-.322-1.303a.75.75 0 00-.441-.513l-1.479-.612a.75.75 0 00-.674.05l-1.15.694-.142.112a.25.25 0 01-.354 0l-1.414-1.414a.25.25 0 01-.04-.3l.152-.197.693-1.149a.75.75 0 00.051-.674l-.612-1.479a.75.75 0 00-.513-.44l-1.303-.323L6.75 17a.25.25 0 01-.25-.25v-2a.25.25 0 01.193-.243l.237-.029 1.303-.322a.75.75 0 00.513-.441l.612-1.479a.75.75 0 00-.05-.674l-.694-1.15-.112-.142a.25.25 0 010-.354l1.414-1.414a.25.25 0 01.3-.04l.197.152 1.149.693a.75.75 0 00.674.051l1.479-.612a.75.75 0 00.44-.513l.323-1.303.022-.18a.25.25 0 01.25-.25z"/>
</svg>
