<svg width="20" height="20" viewBox="0 0 20 20" xmlns="http://www.w3.org/2000/svg">
    <path fill-rule="evenodd" clip-rule="evenodd" d="M1.99997 4.75C1.99997 3.23122 3.23119 2 4.74997 2H15.25C16.7688 2 18 3.23122 18 4.75V15.25C18 16.7688 16.7688 18 15.25 18H4.74997C3.23119 18 1.99997 16.7688 1.99997 15.25V14.0064C1.99993 14.0018 1.99993 13.9972 1.99997 13.9926V4.75ZM3.49997 14.2595V15.25C3.49997 15.9404 4.05961 16.5 4.74997 16.5H15.25C15.9404 16.5 16.5 15.9404 16.5 15.25V10.8091C16.4758 10.7875 16.4528 10.764 16.4311 10.7387L14.0167 7.92821C13.5046 7.3322 12.5766 7.351 12.089 7.96608L11.5013 7.50017L12.0901 7.96468L12.089 7.96608L12.0846 7.97194L12.066 7.9959C11.8953 8.21661 10.8192 9.60767 9.88512 10.8013L11.5689 12.7613C11.8388 13.0755 11.8029 13.549 11.4887 13.8189C11.1745 14.0888 10.701 14.0529 10.4311 13.7387L8.35629 11.3236C8.34894 11.3154 8.34179 11.3071 8.33486 11.2986L8.01667 10.9282C7.50349 10.3308 6.57247 10.3511 6.08579 10.9702L3.49997 14.2595ZM8.8701 9.66426C7.70743 8.65187 5.89253 8.78891 4.90653 10.0432L3.49997 11.8324V4.75C3.49997 4.05964 4.05961 3.5 4.74997 3.5H15.25C15.9403 3.5 16.5 4.05964 16.5 4.75V8.517L15.1545 6.95075C14.0279 5.63946 11.9863 5.68096 10.9135 7.03426L10.9124 7.03566C10.9077 7.04161 10.9023 7.04854 10.8963 7.0564L10.8792 7.07852C10.717 7.2882 9.75771 8.52838 8.8701 9.66426Z"/>
</svg>
