<svg xmlns="http://www.w3.org/2000/svg" viewBox="0 0 32 32">
  <path d="M26 9.94a1.31 1.31 0 00-.06-.27.32.32 0 000-.09 1.07 1.07 0 00-.19-.28l-6-6a1.07 1.07 0 00-.28-.19h-.09L19.06 3H9a3 3 0 00-3 3v5.75a1 1 0 002 0V6a1 1 0 011-1h9v3a3 3 0 003 3h3v15a1 1 0 01-1 1H9a1 1 0 01-1-1 1 1 0 00-2 0 3 3 0 003 3h14a3 3 0 003-3V10v-.06z"/>
  <path class="cls-1" d="M10 20.54H8.72a1.28 1.28 0 01-1.3.95c-1 0-1.55-.87-1.55-2s.58-2 1.55-2a1.29 1.29 0 011.3.94H10a2.43 2.43 0 00-2.57-2.08 2.91 2.91 0 00-2.85 3.17 2.91 2.91 0 002.85 3.17A2.43 2.43 0 0010 20.54zM13 21.57a1.15 1.15 0 01-1.22-.79h-1.29A2.33 2.33 0 0013 22.63a2 2 0 002.27-1.91c0-.93-.61-1.5-1.61-1.73l-1.12-.26c-.46-.11-.68-.32-.68-.67s.39-.72 1-.72a1.08 1.08 0 011.12.73h1.27a2.21 2.21 0 00-2.4-1.78 2 2 0 00-2.21 1.89c0 1 .68 1.48 1.56 1.68l1.09.25c.53.12.75.32.75.69s-.4.77-1.04.77zM21.4 16.39h-1.32l-1.59 4.44-1.58-4.44h-1.35l2.29 6.13h1.24l2.31-6.13z"/>
</svg>
