<svg xmlns="http://www.w3.org/2000/svg" viewBox="0 0 32 32"><path d="M8 6c0-1.1.9-2 2-2h12c1.1 0 2 .9 2 2v3h.75C26.01 9 27 10.06 27 11.33v9.33c0 1.27-.99 2.33-2.25 2.33H24v4c0 1.1-.9 2-2 2H10c-1.1 0-2-.9-2-2v-4h-.75c-1.21 0-2.17-.97-2.24-2.18L5 20.67v-9.33C5 10.06 5.99 9 7.25 9H8V6zm14 8c.55 0 1 .45 1 1s-.45 1-1 1-1-.45-1-1 .45-1 1-1zm-3 0c.55 0 1 .45 1 1s-.45 1-1 1-1-.45-1-1 .45-1 1-1zm5.75-3H7.25c-.12 0-.25.14-.25.33v9.33c0 .2.13.34.25.34H8v-2h16v2h.75c.11 0 .21-.1.24-.25l.01-.08v-9.33c0-.2-.13-.34-.25-.34zM22 21H10v6h12v-6zm0-12V6H10v3h12z"/></svg>