<svg width="24" height="24" viewBox="0 0 24 24" xmlns="http://www.w3.org/2000/svg">
    <path fill-rule="evenodd" clip-rule="evenodd" d="M5 16.75C5 16.0596 5.55964 15.5 6.25 15.5H17.75C18.4404 15.5 19 16.0596 19 16.75C19 18.5449 17.5449 20 15.75 20H8.25C6.45507 20 5 18.5449 5 16.75ZM6.51772 17C6.63903 17.8481 7.36838 18.5 8.25 18.5H15.75C16.6316 18.5 17.361 17.8481 17.4823 17H6.51772Z"/>
    <path fill-rule="evenodd" clip-rule="evenodd" d="M12 4C12.4142 4 12.75 4.33579 12.75 4.75V6H15.25C16.7688 6 18 7.23122 18 8.75V11.25C18 12.7688 16.7688 14 15.25 14H8.75C7.23122 14 6 12.7688 6 11.25V8.75C6 7.23122 7.23122 6 8.75 6H11.25V4.75C11.25 4.33579 11.5858 4 12 4ZM8.75 7.5C8.05964 7.5 7.5 8.05964 7.5 8.75V11.25C7.5 11.9404 8.05964 12.5 8.75 12.5H15.25C15.9404 12.5 16.5 11.9404 16.5 11.25V8.75C16.5 8.05964 15.9404 7.5 15.25 7.5H8.75Z"/>
    <path fill-rule="evenodd" clip-rule="evenodd" d="M13 10C13 9.44769 13.4478 9 14 9C14.5522 9 15 9.44769 15 10C15 10.5522 14.5522 11 14 11C13.4478 11 13 10.5522 13 10Z"/>
    <path fill-rule="evenodd" clip-rule="evenodd" d="M9 10C9 9.44772 9.44772 9 10 9C10.5522 9 11 9.44769 11 10C11 10.5522 10.5522 11 10 11C9.44769 11 9 10.5522 9 10Z"/>
</svg>
