<svg width="20" height="20" viewBox="0 0 20 20" xmlns="http://www.w3.org/2000/svg">
    <path fill-rule="evenodd" clip-rule="evenodd" d="M4 8C4 5.18299 5.99485 2 10 2C14.0052 2 16 5.18299 16 8C16 10.2346 15.1439 11.5332 14.3011 12.4462C14.1082 12.6552 13.9163 12.8439 13.7485 13.0088L13.7251 13.0318C13.5459 13.2081 13.4018 13.351 13.2823 13.487C13.0406 13.7623 13 13.9004 13 14V16.2505C13 17.2175 12.216 18 11.25 18H8.75C7.78397 18 7 17.2175 7 16.2505V14C7 13.9004 6.95939 13.7623 6.71767 13.487C6.59825 13.351 6.45415 13.2081 6.27493 13.0318L6.2515 13.0088C6.08374 12.8439 5.89185 12.6552 5.6989 12.4462C4.85608 11.5332 4 10.2346 4 8ZM10 3.5C7.00515 3.5 5.5 5.81701 5.5 8C5.5 9.76545 6.14392 10.7168 6.8011 11.4288C6.96883 11.6105 7.13764 11.7765 7.31031 11.9462L7.32664 11.9623C7.49898 12.1318 7.683 12.313 7.84483 12.4973C8.16561 12.8627 8.5 13.3496 8.5 14H11.5C11.5 13.3496 11.8344 12.8627 12.1552 12.4973C12.317 12.313 12.501 12.1318 12.6734 11.9623L12.6897 11.9462C12.8624 11.7765 13.0312 11.6105 13.1989 11.4288C13.8561 10.7168 14.5 9.76545 14.5 8C14.5 5.81701 12.9948 3.5 10 3.5ZM11.5 15.5H8.5V16.2505C8.5 16.3881 8.61143 16.5 8.75 16.5H11.25C11.3886 16.5 11.5 16.3881 11.5 16.2505V15.5Z"/>
</svg>
