<svg xmlns="http://www.w3.org/2000/svg" viewBox="0 0 24 24" width="24" height="24"><path d="M12 7c1.94 0 3.5 1.34 3.5 3.02 0 1.31-.62 1.98-1.81 2.57l-.42.21c-.25.13-.27.15-.27.2l-.01.12c-.05.49-.48.88-.99.88-.55 0-1-.45-1-1 0-1.07.52-1.57 1.6-2.11l.34-.17c.46-.24.56-.37.56-.71C13.5 9.52 12.9 9 12 9s-1.5.52-1.5 1.02l-.01.12c-.06.5-.48.88-.99.88-.55 0-1-.45-1-1C8.5 8.34 10.06 7 12 7zm0 8c.55 0 1 .45 1 1s-.45 1-1 1-1-.45-1-1 .45-1 1-1zm0-10c-3.87 0-7 3.13-7 7s3.13 7 7 7 7-3.13 7-7-3.13-7-7-7zm0-2a9 9 0 1 1-.001 18.001A9 9 0 0 1 12 3z"/></svg>
