<svg width="24" height="24" viewBox="0 0 24 24" xmlns="http://www.w3.org/2000/svg">
<path fill-rule="evenodd" clip-rule="evenodd" d="M4 7.75C4 7.33579 4.33579 7 4.75 7H19.25C19.6642 7 20 7.33579 20 7.75C20 8.16421 19.6642 8.5 19.25 8.5H4.75C4.33579 8.5 4 8.16421 4 7.75ZM6 11.75C6 11.3358 6.33579 11 6.75 11H17.25C17.6642 11 18 11.3358 18 11.75C18 12.1642 17.6642 12.5 17.25 12.5H6.75C6.33579 12.5 6 12.1642 6 11.75ZM9 15.75C9 15.3358 9.33579 15 9.75 15H14.25C14.6642 15 15 15.3358 15 15.75C15 16.1642 14.6642 16.5 14.25 16.5H9.75C9.33579 16.5 9 16.1642 9 15.75Z"/>
</svg>
