<svg xmlns="http://www.w3.org/2000/svg" viewBox="0 0 32 32" width="32" height="32">
  <path d="M12 4c.55 0 1 .45 1 1v2h5.5c.55 0 1 .45 1 1 0 .51-.39.94-.88.99L18.5 9H13v2c0 .51-.39.94-.88.99L12 12c-.55 0-1-.45-1-1V5c0-.55.45-1 1-1zm6 9.5c.55 0 1 .45 1 1s-.45 1-1 1-1-.45-1-1 .45-1 1-1zm4 0c.55 0 1 .45 1 1s-.45 1-1 1-1-.45-1-1 .45-1 1-1zm-12 0c.55 0 1 .45 1 1s-.45 1-1 1-1-.45-1-1 .45-1 1-1zm4 0c.55 0 1 .45 1 1s-.45 1-1 1-1-.45-1-1 .45-1 1-1zm4 4c.55 0 1 .45 1 1s-.45 1-1 1-1-.45-1-1 .45-1 1-1zm4 0c.55 0 1 .45 1 1s-.45 1-1 1-1-.45-1-1 .45-1 1-1zm-12 0c.55 0 1 .45 1 1s-.45 1-1 1-1-.45-1-1 .45-1 1-1zm4 0c.55 0 1 .45 1 1s-.45 1-1 1-1-.45-1-1 .45-1 1-1zm4 4c.55 0 1 .45 1 1s-.45 1-1 1-1-.45-1-1 .45-1 1-1zm-8 0c.55 0 1 .45 1 1s-.45 1-1 1-1-.45-1-1 .45-1 1-1zm4 0c.55 0 1 .45 1 1s-.45 1-1 1-1-.45-1-1 .45-1 1-1zM23 11c0 .55-.45 1-1 1s-1-.45-1-1V5c0-.55.45-1 1-1s1 .45 1 1v2h1.56c1.83 0 3.34 1.41 3.44 3.19v14.44c0 1.81-1.45 3.27-3.26 3.37H7.44C5.61 28 4.1 26.59 4 24.81V10.38C4 8.57 5.45 7.1 7.26 7H8.3c.55 0 1 .45 1 1 0 .51-.39.94-.88.99L8.3 9h-.86c-.76 0-1.37.55-1.44 1.24v14.39c0 .71.57 1.3 1.3 1.37h17.25c.76 0 1.37-.55 1.44-1.24l.01-.14V10.38c0-.71-.57-1.3-1.3-1.37L24.56 9H23v2z"/>
</svg>
