<svg width="32" height="32" viewBox="0 0 32 32" xmlns="http://www.w3.org/2000/svg">
    <path fill-rule="evenodd" clip-rule="evenodd" d="M16 6C16.3444 6 16.659 6.37636 16.8115 6.69682L19.4114 12.1626L25.2252 13.0391C25.5661 13.0905 25.8492 13.3382 25.9557 13.678C26.0621 14.0179 25.9734 14.391 25.7267 14.6405L21.5198 18.895L22.5129 24.9024C22.5712 25.2547 22.4316 25.6106 22.153 25.8207C21.8743 26.0307 21.5049 26.0584 21.2 25.8922L16 23.0558L10.8 25.8922C10.4951 26.0584 10.1257 26.0307 9.84705 25.8207C9.56839 25.6106 9.42883 25.2547 9.48706 24.9024L10.4802 18.895L6.2733 14.6405C6.02664 14.391 5.93788 14.0179 6.04432 13.678C6.15075 13.3382 6.43394 13.0905 6.7748 13.0391L12.5886 12.1626L15.1885 6.69682C15.341 6.37636 15.6555 6 16 6ZM16 9.23369L14.0009 13.4362C13.8691 13.7133 13.6143 13.9054 13.3196 13.9498L8.84952 14.6237L12.0841 17.8949C12.2974 18.1106 12.3947 18.4214 12.3443 18.7259L11.5808 23.3449L15.5789 21.1641C15.8425 21.0203 16.1575 21.0203 16.4211 21.1641L20.4192 23.3449L19.6557 18.7259C19.6053 18.4214 19.7026 18.1106 19.9159 17.8949L23.1505 14.6237L18.6804 13.9498C18.3857 13.9054 18.1309 13.7133 17.9991 13.4362L16 9.23369Z"/>
</svg>
