<svg xmlns="http://www.w3.org/2000/svg" viewBox="0 0 32 32" width="32" height="32">
  <g id="Icons">
    <path d="M26 9.94a1.31 1.31 0 00-.06-.27.32.32 0 000-.09 1.07 1.07 0 00-.19-.28l-6-6a1.07 1.07 0 00-.28-.19h-.09L19.06 3H9a3 3 0 00-3 3v4.25a1 1 0 002 0V6a1 1 0 011-1h9v3a3 3 0 003 3h3v15a1 1 0 01-1 1H7a1 1 0 000 2h16a3 3 0 003-3V10v-.06z" />
    <rect x="3" y="13" width="19" height="12" rx="2" fill="#f5664f"/>
    <path fill="#ffffff" d="M6.14 20.4v2.13H4.87v-6.14h2.49a1.92 1.92 0 012.16 2 1.92 1.92 0 01-2.16 2zm1.15-2.92H6.14v1.83h1.15a.92.92 0 100-1.83zM10.39 16.39h2.16a2.85 2.85 0 013 3.07 2.85 2.85 0 01-3 3.07h-2.16zm2.11 5a1.72 1.72 0 001.81-1.94 1.72 1.72 0 00-1.81-1.95h-.84v3.9zM16.48 22.53v-6.14h4.08v1.12h-2.81v1.56h2.6v1.11h-2.6v2.35z"/>
  </g>
</svg>
