<svg width="24" height="24" viewBox="0 0 24 24" xmlns="http://www.w3.org/2000/svg">
    <path d="M12 6.75V6C11.8063 6 11.62 6.075 11.4803 6.2093L12 6.75ZM17.25 6.75H18C18 6.33579 17.6642 6 17.25 6V6.75ZM16.5 11.25C16.5 11.6642 16.8358 12 17.25 12C17.6642 12 18 11.6642 18 11.25H16.5ZM10.1369 17.7082C10.4203 18.0102 10.895 18.0252 11.197 17.7418C11.499 17.4583 11.5141 16.9837 11.2306 16.6816L10.1369 17.7082ZM12 7.5H17.25V6H12V7.5ZM16.5 6.75V11.25H18V6.75H16.5ZM11.2306 16.6816L7.83685 13L6.7431 14.0266L10.1369 17.7082L11.2306 16.6816ZM7.83685 13C7.36841 12.5009 7.38855 11.7179 7.88205 11.2435L6.84256 10.1621C5.75684 11.2057 5.7125 12.9285 6.7431 14.0266L7.83685 13ZM7.88205 11.2435L12.5198 7.2907L11.4803 6.2093L6.84256 10.1621L7.88205 11.2435Z"/>
    <path d="M14 10V11C14.5523 11 15 10.5523 15 10H14ZM14 10H13C13 10.5523 13.4477 11 14 11V10ZM14 10V9C13.4477 9 13 9.44772 13 10H14ZM14 10H15C15 9.44772 14.5523 9 14 9V10Z"/>
    <path fill-rule="evenodd" clip-rule="evenodd" d="M12 15C12 14.5858 12.3358 14.25 12.75 14.25H17.25C17.6642 14.25 18 14.5858 18 15C18 15.4142 17.6642 15.75 17.25 15.75H12.75C12.3358 15.75 12 15.4142 12 15Z"/>
    <path fill-rule="evenodd" clip-rule="evenodd" d="M15 12C15.4142 12 15.75 12.3358 15.75 12.75V17.25C15.75 17.6642 15.4142 18 15 18C14.5858 18 14.25 17.6642 14.25 17.25V12.75C14.25 12.3358 14.5858 12 15 12Z"/>
</svg>
