<svg width="20" height="20" viewBox="0 0 20 20" xmlns="http://www.w3.org/2000/svg">
    <path fill-rule="evenodd" clip-rule="evenodd" d="M3.50012 5.73257C3.50004 5.73837 3.5 5.74418 3.5 5.75V14.25C3.5 14.9404 4.05964 15.5 4.75 15.5H15.25C15.9404 15.5 16.5 14.9404 16.5 14.25V5.75C16.5 5.74418 16.5 5.73837 16.4999 5.73257L10.4845 10.8225C10.2048 11.0592 9.79518 11.0592 9.51554 10.8225L3.50012 5.73257ZM4.41824 4.5445L10 9.26754L15.5818 4.5445C15.4761 4.51549 15.3649 4.5 15.25 4.5H4.75C4.63513 4.5 4.52389 4.51549 4.41824 4.5445ZM2 5.75C2 4.23122 3.23122 3 4.75 3H15.25C16.7688 3 18 4.23122 18 5.75V14.25C18 15.7688 16.7688 17 15.25 17H4.75C3.23122 17 2 15.7688 2 14.25V5.75Z"/>
</svg>
