<svg width="20" height="20" viewBox="0 0 20 20" xmlns="http://www.w3.org/2000/svg">
    <path fill-rule="evenodd" clip-rule="evenodd" d="M9.99998 4C10.298 4 10.5677 4.1764 10.6871 4.44939L12.2405 8H15.25C15.5685 8 15.8523 8.20118 15.9577 8.50174C16.0631 8.80231 15.9672 9.13668 15.7185 9.33565L13.541 11.0777L13.9954 15.1672C14.0286 15.4661 13.88 15.7559 13.618 15.9035C13.3559 16.0511 13.0311 16.0278 12.7927 15.8445L9.99998 13.6962L7.20726 15.8445C6.96888 16.0278 6.64402 16.0511 6.38197 15.9035C6.11991 15.7559 5.97136 15.4661 6.00457 15.1672L6.45896 11.0777L4.28146 9.33565C4.03274 9.13668 3.93683 8.80231 4.04226 8.50174C4.14769 8.20118 4.43146 8 4.74998 8H7.75947L9.31286 4.44939C9.4323 4.1764 9.70201 4 9.99998 4ZM9.99998 6.62117L8.9371 9.05061C8.81767 9.3236 8.54795 9.5 8.24998 9.5H6.88807L7.7185 10.1643C7.91929 10.325 8.02379 10.5773 7.99539 10.8328L7.69008 13.5806L9.5427 12.1555C9.81229 11.9482 10.1877 11.9482 10.4573 12.1555L12.3099 13.5806L12.0046 10.8328C11.9762 10.5773 12.0807 10.325 12.2815 10.1643L13.1119 9.5H11.75C11.452 9.5 11.1823 9.3236 11.0629 9.05061L9.99998 6.62117Z"/>
</svg>
