<svg width="20" height="20" viewBox="0 0 20 20" xmlns="http://www.w3.org/2000/svg">
    <path fill-rule="evenodd" clip-rule="evenodd" d="M3 3.75C3 2.23122 4.23122 1 5.75 1H12.1118C12.3216 1 12.5218 1.08789 12.6638 1.24232L16.8021 5.74232C16.9294 5.88075 17 6.06194 17 6.25V9.25C17 9.66421 16.6642 10 16.25 10C15.8358 10 15.5 9.66421 15.5 9.25V7H12.1118C11.6975 7 11.3618 6.66421 11.3618 6.25V2.5H5.75C5.05964 2.5 4.5 3.05964 4.5 3.75L4.5 9.25C4.5 9.66421 4.16422 10 3.75 10C3.33579 10 3 9.66421 3 9.25L3 3.75ZM12.8618 3.67355L14.5414 5.5H12.8618V3.67355ZM2 12.75C2 12.3358 2.33579 12 2.75 12H4.25C5.21649 12 6 12.7835 6 13.75V14.25C6 15.2165 5.21648 16 4.25 16H3.5V17.25C3.5 17.6642 3.16421 18 2.75 18C2.33579 18 2 17.6642 2 17.25V12.75ZM3.5 14.5H4.25C4.38808 14.5 4.5 14.3881 4.5 14.25V13.75C4.5 13.6119 4.38807 13.5 4.25 13.5H3.5V14.5ZM7 12.75C7 12.3358 7.33579 12 7.75 12H9.25C10.7688 12 12 13.2312 12 14.75V15.25C12 16.7688 10.7688 18 9.25 18H7.75C7.33579 18 7 17.6642 7 17.25V12.75ZM8.5 13.5V16.5H9.25C9.94039 16.5 10.5 15.9404 10.5 15.25V14.75C10.5 14.0596 9.94038 13.5 9.25 13.5H8.5ZM13 12.75C13 12.3358 13.3358 12 13.75 12H16.25C16.6642 12 17 12.3358 17 12.75C17 13.1642 16.6642 13.5 16.25 13.5H14.5V14H16.25C16.6642 14 17 14.3358 17 14.75C17 15.1642 16.6642 15.5 16.25 15.5H14.5V17.25C14.5 17.6642 14.1642 18 13.75 18C13.3358 18 13 17.6642 13 17.25V12.75Z"/>
</svg>
