<svg width="24" height="24" viewBox="0 0 24 24" xmlns="http://www.w3.org/2000/svg">
    <path fill-rule="evenodd" clip-rule="evenodd" d="M8 5.75C8 4.7835 8.7835 4 9.75 4H14.25C15.2165 4 16 4.7835 16 5.75V7H19.25C19.6642 7 20 7.33579 20 7.75C20 8.16421 19.6642 8.5 19.25 8.5H18V17.25C18 18.7688 16.7688 20 15.25 20H8.75C7.23122 20 6 18.7688 6 17.25V8.5H4.75C4.33579 8.5 4 8.16421 4 7.75C4 7.33579 4.33579 7 4.75 7H8V5.75ZM14.5 7H9.5V5.75C9.5 5.61193 9.61193 5.5 9.75 5.5H14.25C14.3881 5.5 14.5 5.61193 14.5 5.75V7ZM7.5 8.75V17.25C7.5 17.9404 8.05964 18.5 8.75 18.5H15.25C15.9404 18.5 16.5 17.9404 16.5 17.25V8.75H7.5Z"/>
</svg>
