<svg xmlns="http://www.w3.org/2000/svg" viewBox="0 0 40 40" width="40" height="40">
  <path d="M28.98 39.74c.39.16.83.02 1.06-.33l9.29-13.42c.19-.27.22-.62.06-.91a.903.903 0 0 0-.78-.48l-5.76-.04 1.67-8.83c.09-.39-.13-.8-.5-.97a.882.882 0 0 0-1.06.26l-9.85 12.4c-.22.26-.26.63-.11.93.15.31.46.5.8.5l6.36.04-1.71 9.87c-.08.41.14.82.53.98zM25.63 27.1l6.49-8.18-1.21 6.39c-.04.26.02.52.19.74.17.2.41.32.67.32l5.13.02-6.04 8.74 1.19-6.97a.824.824 0 0 0-.19-.71.79.79 0 0 0-.65-.3l-5.58-.05zM6.25 12.01h3.33c.55 0 1 .45 1 1v2c0 .55-.45 1-1 1H6.25c-.55 0-1-.45-1-1v-2c0-.55.45-1 1-1zM6.25 18.68h3.33c.55 0 1 .45 1 1v2c0 .55-.45 1-1 1H6.25c-.55 0-1-.45-1-1v-2c0-.56.45-1 1-1zM14.25 12.01h3.33c.55 0 1 .45 1 1v2c0 .55-.45 1-1 1h-3.33c-.55 0-1-.45-1-1v-2c0-.55.45-1 1-1zM14.25 18.68h3.33c.55 0 1 .45 1 1v2c0 .55-.45 1-1 1h-3.33c-.55 0-1-.45-1-1v-2c0-.56.45-1 1-1zM22.25 12.01h3.33c.55 0 1 .45 1 1v2c0 .55-.45 1-1 1h-3.33c-.55 0-1-.45-1-1v-2c0-.55.45-1 1-1zM22.25 18.68h3.33c.55 0 1 .45 1 1v2c0 .55-.45 1-1 1h-3.33c-.55 0-1-.45-1-1v-2c0-.56.45-1 1-1z"/>
  <path d="M26.58 5.26a1.25 1.25 0 0 1 0-2.5h1.33a3.92 3.92 0 0 1 3.92 3.92v6.96a1.25 1.25 0 0 1-2.5 0V6.68c0-.78-.64-1.42-1.42-1.42h-1.33zm-7.65 21.5a1.25 1.25 0 0 1 0 2.5H3.92C1.75 29.26 0 27.51 0 25.34V6.68a3.92 3.92 0 0 1 3.92-3.92h1.33a1.25 1.25 0 0 1 0 2.5H3.92c-.78 0-1.42.64-1.42 1.42v18.67c0 .78.63 1.42 1.42 1.42h15.01zm-5.68-21.5a1.25 1.25 0 0 1 0-2.5h5.34a1.25 1.25 0 0 1 0 2.5h-5.34z"/>
  <path d="M8.92.01h.67c.55 0 1 .45 1 1v6c0 .55-.45 1-1 1h-.67c-.55 0-1-.45-1-1v-6c0-.55.44-1 1-1zM22.25.01h.67c.55 0 1 .45 1 1v6c0 .55-.45 1-1 1h-.67c-.55 0-1-.45-1-1v-6c0-.55.45-1 1-1z"/>
</svg>
