<svg width="20" height="20" viewBox="0 0 20 20" fill="none" xmlns="http://www.w3.org/2000/svg">
    <path fill-rule="evenodd" clip-rule="evenodd" d="M14.5606 2.01799C14.7606 2.06258 14.9336 2.18701 15.0394 2.36239L17.8922 7.08789C18.0007 7.2675 18.0289 7.48431 17.9701 7.68569C17.9113 7.88708 17.7709 8.05464 17.5828 8.1477L10.0461 11.8777L12.9015 16.8781C13.1069 17.2378 12.9818 17.6959 12.6221 17.9013C12.2624 18.1067 11.8043 17.9816 11.5989 17.6219L9.00018 13.071L6.40147 17.6219C6.19607 17.9816 5.73797 18.1067 5.37827 17.9013C5.01857 17.6959 4.89348 17.2378 5.09888 16.8781L7.54936 12.5867C7.10295 12.4522 6.71102 12.1407 6.48704 11.6904L6.33288 11.3804L3.07165 12.9276C2.69742 13.1052 2.25011 12.9457 2.07257 12.5715C1.89502 12.1972 2.05447 11.7499 2.4287 11.5724L5.66481 10.0371L5.4706 9.64659C5.0785 8.85812 5.33326 7.90097 6.06572 7.41195L13.9809 2.12629C14.1512 2.01253 14.3607 1.9734 14.5606 2.01799ZM8.16484 11.1351L16.1867 7.16503L14.161 3.80969L6.89868 8.65942C6.79417 8.72919 6.75762 8.86589 6.81365 8.97861L7.83009 11.0224C7.89148 11.1458 8.04121 11.1963 8.16484 11.1351Z"/>
</svg>
