<svg width="24" height="24" viewBox="0 0 24 24" xmlns="http://www.w3.org/2000/svg">
    <path fill-rule="evenodd" clip-rule="evenodd" d="M13 4.75C13 4.33579 13.3358 4 13.75 4H19.25C19.6642 4 20 4.33579 20 4.75V10.25C20 10.6642 19.6642 11 19.25 11C18.8358 11 18.5 10.6642 18.5 10.25V5.5H13.75C13.3358 5.5 13 5.16421 13 4.75Z"/>
    <path fill-rule="evenodd" clip-rule="evenodd" d="M18.5303 5.46967C18.8232 5.76256 18.8232 6.23744 18.5303 6.53033L9.28033 15.7803C8.98744 16.0732 8.51256 16.0732 8.21967 15.7803C7.92678 15.4874 7.92678 15.0126 8.21967 14.7197L17.4697 5.46967C17.7626 5.17678 18.2374 5.17678 18.5303 5.46967Z"/>
    <path fill-rule="evenodd" clip-rule="evenodd" d="M4.21967 4.21967C4.51256 3.92678 4.98744 3.92678 5.28033 4.21967L7 5.93934L8.71967 4.21967C9.01256 3.92678 9.48744 3.92678 9.78033 4.21967C10.0732 4.51256 10.0732 4.98744 9.78033 5.28033L8.06066 7L9.78033 8.71967C10.0732 9.01256 10.0732 9.48744 9.78033 9.78033C9.48744 10.0732 9.01256 10.0732 8.71967 9.78033L7 8.06066L5.28033 9.78033C4.98744 10.0732 4.51256 10.0732 4.21967 9.78033C3.92678 9.48744 3.92678 9.01256 4.21967 8.71967L5.93934 7L4.21967 5.28033C3.92678 4.98744 3.92678 4.51256 4.21967 4.21967Z"/>
    <path fill-rule="evenodd" clip-rule="evenodd" d="M14.2197 14.2197C14.5126 13.9268 14.9874 13.9268 15.2803 14.2197L17 15.9393L18.7197 14.2197C19.0126 13.9268 19.4874 13.9268 19.7803 14.2197C20.0732 14.5126 20.0732 14.9874 19.7803 15.2803L18.0607 17L19.7803 18.7197C20.0732 19.0126 20.0732 19.4874 19.7803 19.7803C19.4874 20.0732 19.0126 20.0732 18.7197 19.7803L17 18.0607L15.2803 19.7803C14.9874 20.0732 14.5126 20.0732 14.2197 19.7803C13.9268 19.4874 13.9268 19.0126 14.2197 18.7197L15.9393 17L14.2197 15.2803C13.9268 14.9874 13.9268 14.5126 14.2197 14.2197Z"/>
    <path fill-rule="evenodd" clip-rule="evenodd" d="M7 15.5C6.17157 15.5 5.5 16.1716 5.5 17C5.5 17.8284 6.17157 18.5 7 18.5C7.82843 18.5 8.5 17.8284 8.5 17C8.5 16.1716 7.82843 15.5 7 15.5ZM4 17C4 15.3431 5.34315 14 7 14C8.65685 14 10 15.3431 10 17C10 18.6569 8.65685 20 7 20C5.34315 20 4 18.6569 4 17Z"/>
</svg>
