<svg width="32" height="32" viewBox="0 0 32 32" fill="none" xmlns="http://www.w3.org/2000/svg">
    <path d="M16.3535 7.06063C16.1583 6.86537 15.8417 6.86537 15.6464 7.06063L7.06063 15.6464C6.86537 15.8417 6.86537 16.1583 7.06063 16.3535L15.6464 24.9393C15.8417 25.1346 16.1583 25.1346 16.3535 24.9393L24.9393 16.3535C25.1346 16.1583 25.1346 15.8417 24.9393 15.6464L16.3535 7.06063ZM14.9393 6.35352C15.5251 5.76774 16.4748 5.76774 17.0606 6.35352L25.6464 14.9393C26.2322 15.5251 26.2322 16.4748 25.6464 17.0606L17.0606 25.6464C16.4748 26.2322 15.5251 26.2322 14.9393 25.6464L6.35352 17.0606C5.76774 16.4748 5.76774 15.5251 6.35352 14.9393L14.9393 6.35352ZM16.5 12V17C16.5 17.2761 16.2761 17.5 16 17.5C15.7238 17.5 15.5 17.2761 15.5 17V12C15.5 11.7238 15.7238 11.5 16 11.5C16.2761 11.5 16.5 11.7238 16.5 12ZM16 20.5C16.4142 20.5 16.75 20.1642 16.75 19.75C16.75 19.3358 16.4142 19 16 19C15.5858 19 15.25 19.3358 15.25 19.75C15.25 20.1642 15.5858 20.5 16 20.5Z"/>
</svg>
