<svg xmlns="http://www.w3.org/2000/svg" xmlns:xlink="http://www.w3.org/1999/xlink" viewBox="0 0 32 32"><defs><path id="a" d="M11.71 16.71a.996.996 0 0 1-1.41 0l-4-4a.996.996 0 0 1 0-1.41l4-4a.996.996 0 1 1 1.41 1.41L9.41 11H23c.51 0 .94.39.99.88L24 12c0 .55-.45 1-1 1H9.41l2.29 2.29c.36.36.39.93.08 1.32l-.07.1z"/></defs><clipPath id="b"><use xlink:href="#a" overflow="visible"/></clipPath><path clip-path="url(#b)" fill="#0e1c3d" d="M1 2h28v20H1z"/><g><defs><path id="c" d="M20.29 15.29a.996.996 0 0 1 1.41 0l4 4c.39.39.39 1.02 0 1.41l-4 4a.996.996 0 1 1-1.41-1.41L22.58 21H9c-.51 0-.94-.39-.99-.88L8 20c0-.55.45-1 1-1h13.58l-2.29-2.29a.995.995 0 0 1-.08-1.32l.08-.1z"/></defs><clipPath id="d"><use xlink:href="#c" overflow="visible"/></clipPath><path clip-path="url(#d)" fill="#0e1c3d" d="M3 10h28v20H3z"/></g></svg>