<svg width="20" height="20" viewBox="0 0 20 20" xmlns="http://www.w3.org/2000/svg">
    <path fill-rule="evenodd" clip-rule="evenodd" d="M10 2C10.2064 2 10.4036 2.08502 10.5453 2.23503L14.7953 6.73503C15.0797 7.03617 15.0661 7.51085 14.765 7.79526C14.4638 8.07967 13.9892 8.06611 13.7047 7.76497L10 3.8423L6.29526 7.76497C6.01085 8.06611 5.53617 8.07967 5.23503 7.79526C4.9339 7.51085 4.92033 7.03617 5.20474 6.73503L9.45475 2.23503C9.59643 2.08502 9.79366 2 10 2ZM5.23503 12.2047C5.53617 11.9203 6.01085 11.9339 6.29526 12.235L10 16.1577L13.7047 12.235C13.9892 11.9339 14.4638 11.9203 14.765 12.2047C15.0661 12.4891 15.0797 12.9638 14.7953 13.265L10.5453 17.765C10.4036 17.915 10.2063 18 10 18C9.79365 18 9.59642 17.915 9.45474 17.765L5.20474 13.265C4.92033 12.9638 4.9339 12.4891 5.23503 12.2047Z"/>
</svg>
