<svg width="24" height="24" viewBox="0 0 24 24" xmlns="http://www.w3.org/2000/svg">
    <path fill-rule="evenodd" clip-rule="evenodd" d="M12 4C12.3266 4 12.6157 4.21136 12.7147 4.5226L14.2984 9.5H19.25C19.5704 9.5 19.8554 9.70354 19.9594 10.0066C20.0634 10.3097 19.9634 10.6453 19.7104 10.842L15.6051 14.035L16.9736 19.0527C17.0595 19.3678 16.9316 19.7024 16.6573 19.8798C16.383 20.0572 16.0254 20.0366 15.7732 19.8289L12 16.7216L8.22676 19.8289C7.97459 20.0366 7.61701 20.0572 7.3427 19.8798C7.06839 19.7024 6.94046 19.3678 7.02641 19.0527L8.39485 14.035L4.28953 10.842C4.03662 10.6453 3.9366 10.3097 4.04058 10.0066C4.14456 9.70354 4.42958 9.5 4.74998 9.5H9.70157L11.2853 4.5226C11.3843 4.21136 11.6734 4 12 4Z"/>
</svg>
