<svg width="24" height="24" viewBox="0 0 24 24" xmlns="http://www.w3.org/2000/svg">
    <path fill-rule="evenodd" clip-rule="evenodd" d="M15.8741 8.33397C16.1038 8.67862 16.0107 9.14427 15.666 9.37404L11.166 12.374C10.8214 12.6038 10.3557 12.5107 10.126 12.166C9.89621 11.8214 9.98935 11.3557 10.334 11.126L14.834 8.12596C15.1786 7.8962 15.6443 7.98933 15.8741 8.33397Z"/>
    <path fill-rule="evenodd" clip-rule="evenodd" d="M10.126 11.834C10.3557 11.4893 10.8214 11.3962 11.166 11.626L15.666 14.626C16.0107 14.8557 16.1038 15.3214 15.8741 15.666C15.6443 16.0107 15.1786 16.1038 14.834 15.874L10.334 12.874C9.98935 12.6443 9.89621 12.1786 10.126 11.834Z"/>
    <path fill-rule="evenodd" clip-rule="evenodd" d="M9.25002 8C10.2165 8 11 8.78349 11 9.75V14.25C11 15.2165 10.2165 16 9.25002 16H5.74982C4.7833 16 3.99982 15.2165 3.99982 14.25L3.99982 9.75C3.99982 8.78349 4.7833 8 5.74982 8L9.25002 8ZM9.50002 9.75C9.50002 9.61191 9.3881 9.5 9.25002 9.5L5.74982 9.5C5.61173 9.5 5.49982 9.61191 5.49982 9.75L5.49982 14.25C5.49982 14.3881 5.61173 14.5 5.74982 14.5H9.25002C9.3881 14.5 9.50002 14.3881 9.50002 14.25V9.75Z"/>
    <path fill-rule="evenodd" clip-rule="evenodd" d="M17 7.75C17 7.33579 17.3358 7 17.75 7H19.25C19.6642 7 20 7.33579 20 7.75V9.25C20 9.66421 19.6642 10 19.25 10H17.75C17.3358 10 17 9.66421 17 9.25V7.75Z"/>
    <path fill-rule="evenodd" clip-rule="evenodd" d="M17 14.75C17 14.3358 17.3358 14 17.75 14H19.25C19.6642 14 20 14.3358 20 14.75V16.25C20 16.6642 19.6642 17 19.25 17H17.75C17.3358 17 17 16.6642 17 16.25V14.75Z"/>
</svg>
