<svg width="24" height="24" viewBox="0 0 24 24" xmlns="http://www.w3.org/2000/svg">
<path fill-rule="evenodd" clip-rule="evenodd" d="M12 12C12.2126 12 12.4152 12.0902 12.5575 12.2483L14.8075 14.7483C15.0846 15.0562 15.0596 15.5304 14.7517 15.8075C14.4438 16.0846 13.9696 16.0596 13.6925 15.7517L12.75 14.7045V19.25C12.75 19.6642 12.4142 20 12 20C11.5858 20 11.25 19.6642 11.25 19.25V14.7045L10.3075 15.7517C10.0304 16.0596 9.55616 16.0846 9.24828 15.8075C8.94039 15.5304 8.91543 15.0562 9.19253 14.7483L11.4425 12.2483C11.5848 12.0902 11.7874 12 12 12Z"/>
<path fill-rule="evenodd" clip-rule="evenodd" d="M7.07969 8.10653C7.50114 5.77115 9.54351 4 12 4C14.4565 4 16.4988 5.77116 16.9203 8.10652C18.6861 8.52241 20 10.1075 20 12C20 13.6924 18.9492 15.1375 17.4673 15.7221C17.0819 15.8741 16.6464 15.685 16.4944 15.2996C16.3424 14.9143 16.5315 14.4787 16.9168 14.3267C17.8452 13.9605 18.5 13.0558 18.5 12C18.5 10.6826 17.4805 9.60259 16.188 9.50696C15.8123 9.47916 15.5155 9.177 15.4945 8.80088C15.3916 6.96085 13.8661 5.5 12 5.5C10.1339 5.5 8.60842 6.96085 8.50555 8.80087C8.48452 9.17699 8.18775 9.47916 7.81206 9.50696C6.51951 9.60259 5.5 10.6826 5.5 12C5.5 13.1112 6.22546 14.0549 7.23055 14.3796C7.62471 14.5069 7.84102 14.9296 7.71368 15.3238C7.58635 15.718 7.1636 15.9343 6.76945 15.8069C5.16327 15.2881 4 13.7808 4 12C4 10.1075 5.31391 8.52242 7.07969 8.10653Z"/>
</svg>
