<svg width="20" height="20" viewBox="0 0 20 20" xmlns="http://www.w3.org/2000/svg">
    <path fill-rule="evenodd" clip-rule="evenodd" d="M10.0904 12.2478C10.1522 12.2448 10.2058 12.2469 10.2871 12.2509C10.7008 12.2714 11.0196 12.6234 10.9991 13.0371C10.9786 13.4508 10.6266 13.7696 10.2129 13.7491C10.1809 13.7475 10.1632 13.7468 10.1547 13.7466C10.1443 13.7471 10.1272 13.7479 10.113 13.7484C10.0835 13.7494 10.0481 13.75 10 13.75C6.27728 13.75 3.98585 15.9142 3.46153 17.4872C3.33055 17.8801 2.90581 18.0925 2.51285 17.9615C2.11989 17.8305 1.90752 17.4058 2.03851 17.0128C2.79441 14.7451 5.72276 12.25 10 12.25C10.0366 12.25 10.0541 12.2496 10.0617 12.2493C10.0677 12.2491 10.07 12.2489 10.07 12.2489C10.0721 12.2488 10.0757 12.2486 10.0904 12.2478Z"/>
    <path fill-rule="evenodd" clip-rule="evenodd" d="M10 3.5C8.61931 3.5 7.50002 4.61929 7.50002 6C7.50002 7.38071 8.61931 8.5 10 8.5C11.3807 8.5 12.5 7.38071 12.5 6C12.5 4.61929 11.3807 3.5 10 3.5ZM6.00002 6C6.00002 3.79086 7.79088 2 10 2C12.2092 2 14 3.79086 14 6C14 8.20914 12.2092 10 10 10C7.79088 10 6.00002 8.20914 6.00002 6Z"/>
    <path d="M15.75 12.75C15.75 12.3358 15.4142 12 15 12C14.5858 12 14.25 12.3358 14.25 12.75H15.75ZM14.25 17.25C14.25 17.6642 14.5858 18 15 18C15.4142 18 15.75 17.6642 15.75 17.25H14.25ZM14.25 12.75V17.25H15.75V12.75H14.25Z"/>
    <path d="M17.25 15.75C17.6642 15.75 18 15.4142 18 15C18 14.5858 17.6642 14.25 17.25 14.25V15.75ZM12.75 14.25C12.3358 14.25 12 14.5858 12 15C12 15.4142 12.3358 15.75 12.75 15.75V14.25ZM17.25 14.25H12.75V15.75H17.25V14.25Z"/>
</svg>
