<svg width="32" height="32" viewBox="0 0 32 32" xmlns="http://www.w3.org/2000/svg">
    <path fill-rule="evenodd" clip-rule="evenodd" d="M9.75 7C7.67893 7 6 8.67893 6 10.75C6 12.8211 7.67893 14.5 9.75 14.5C11.8211 14.5 13.5 12.8211 13.5 10.75C13.5 8.67893 11.8211 7 9.75 7ZM9.75 8.5C10.9926 8.5 12 9.50736 12 10.75C12 11.9926 10.9926 13 9.75 13C8.50736 13 7.5 11.9926 7.5 10.75C7.5 9.50736 8.50736 8.5 9.75 8.5Z"/>
    <path fill-rule="evenodd" clip-rule="evenodd" d="M9.75 16C6.02208 16 3 19.0221 3 22.75C3 23.3769 3.17157 23.9959 3.50565 24.5985C3.81405 25.1548 4.40007 25.5 5.03618 25.5H14.463C15.0982 25.5 15.6835 25.1558 15.9923 24.6008C16.3277 23.9979 16.5 23.3781 16.5 22.75C16.5 19.0221 13.4779 16 9.75 16ZM9.75 17.5C12.6495 17.5 15 19.8505 15 22.75C15 23.1134 14.8969 23.4844 14.6815 23.8715C14.6374 23.9508 14.5538 24 14.463 24H5.03618C4.94531 24 4.8616 23.9507 4.81754 23.8712C4.60282 23.4839 4.5 23.113 4.5 22.75C4.5 19.8505 6.85051 17.5 9.75 17.5Z"/>
    <path d="M27.2303 10.7303C27.5232 10.4374 27.5232 9.96258 27.2303 9.66968C26.9375 9.37679 26.4626 9.37679 26.1697 9.66968L22.7 13.1394L19.2303 9.66968C18.9374 9.37679 18.4626 9.37679 18.1697 9.66968C17.8768 9.96258 17.8768 10.4374 18.1697 10.7303L21.6394 14.2L18.1697 17.6697C17.8768 17.9626 17.8768 18.4374 18.1697 18.7303C18.4626 19.0232 18.9374 19.0232 19.2303 18.7303L22.7 15.2607L26.1697 18.7303C26.4626 19.0232 26.9375 19.0232 27.2303 18.7303C27.5232 18.4374 27.5232 17.9626 27.2303 17.6697L23.7607 14.2L27.2303 10.7303Z"/>
</svg>
