<svg width="24" height="24" viewBox="0 0 24 24" xmlns="http://www.w3.org/2000/svg">
    <path fill-rule="evenodd" clip-rule="evenodd" d="M9 7.75C9 6.7835 9.7835 6 10.75 6H13.25C14.2165 6 15 6.7835 15 7.75V9H17.25C17.6642 9 18 9.33579 18 9.75C18 10.1642 17.6642 10.5 17.25 10.5H16V15.25C16 16.7688 14.7688 18 13.25 18H10.75C9.23122 18 8 16.7688 8 15.25V10.5H6.75C6.33579 10.5 6 10.1642 6 9.75C6 9.33579 6.33579 9 6.75 9H9V7.75ZM9.5 10.75V15.25C9.5 15.9404 10.0596 16.5 10.75 16.5H13.25C13.9404 16.5 14.5 15.9404 14.5 15.25V10.75H9.5ZM10.75 7.5C10.6119 7.5 10.5 7.61193 10.5 7.75V9H13.5V7.75C13.5 7.61193 13.3881 7.5 13.25 7.5H10.75Z"/>
</svg>
