<svg width="20" height="20" viewBox="0 0 20 20" xmlns="http://www.w3.org/2000/svg">
  <path fill-rule="evenodd" clip-rule="evenodd" d="M16.864 2C14.6736 2 12.5627 2.82159 10.9486 4.30244L8.00832 7.00006C7.95914 6.99952 7.90938 7.00384 7.85968 7.01331L2.60968 8.01331C2.34451 8.06381 2.12694 8.25292 2.03999 8.50847C1.95304 8.76402 2.01012 9.04658 2.18946 9.24833L4.15837 11.4634C4.17787 11.4886 4.19906 11.5128 4.22188 11.5356L8.46448 15.7782C8.47785 15.7916 8.49166 15.8044 8.50589 15.8166L10.4697 17.7804C10.662 17.9727 10.9433 18.0458 11.2049 17.9715C11.4665 17.8972 11.6674 17.6871 11.7299 17.4225L12.9699 12.1725C12.9833 12.1159 12.9899 12.0589 12.9901 12.0026L15.6977 9.05149C17.1785 7.43744 18.0001 5.32662 18.0001 3.13613V2.75C18.0001 2.33579 17.6643 2 17.2501 2H16.864ZM5.83619 11.0286L11.9626 5.40776C13.2081 4.26517 14.8104 3.59625 16.4905 3.50962C16.4039 5.18977 15.7349 6.79207 14.5924 8.03743L8.9715 14.1639L5.83619 11.0286ZM10.0599 15.2492L10.5793 15.7687L10.9013 14.4052L10.0599 15.2492ZM4.78213 9.90729L4.18857 9.23953L5.74666 8.94275L4.78213 9.90729Z"/>
  <path d="M5.78035 15.2804C6.07324 14.9875 6.07324 14.5126 5.78035 14.2197C5.48745 13.9268 5.01258 13.9268 4.71969 14.2197L2.21969 16.7197C1.92679 17.0126 1.92679 17.4875 2.21969 17.7804C2.51258 18.0733 2.98745 18.0733 3.28035 17.7804L5.78035 15.2804Z"/>
  <path d="M7.78035 16.2197C8.07324 16.5126 8.07324 16.9875 7.78035 17.2804L7.28035 17.7804C6.98745 18.0733 6.51258 18.0733 6.21969 17.7804C5.92679 17.4875 5.92679 17.0126 6.21969 16.7197L6.71969 16.2197C7.01258 15.9268 7.48745 15.9268 7.78035 16.2197Z"/>
  <path d="M3.78035 13.2804C4.07324 12.9875 4.07324 12.5126 3.78035 12.2197C3.48745 11.9268 3.01258 11.9268 2.71969 12.2197L2.21969 12.7197C1.92679 13.0126 1.92679 13.4875 2.21969 13.7804C2.51258 14.0733 2.98745 14.0733 3.28035 13.7804L3.78035 13.2804Z"/>
</svg>
