<svg xmlns="http://www.w3.org/2000/svg" viewBox="0 0 32 32" width="32" height="32">
    <g>
        <path d="M12.83,19.17a1,1,0,0,0-1.42,0L9,21.59,6.59,19.17a1,1,0,0,0-1.42,1.42L7.59,23,5.17,25.41a1,1,0,0,0,1.42,1.42L9,24.41l2.41,2.42a1,1,0,0,0,1.42-1.42L10.41,23l2.42-2.41A1,1,0,0,0,12.83,19.17Z"/>
        <path d="M21.54,19.4A7,7,0,0,0,16,17a1,1,0,0,0,0,2,5.09,5.09,0,0,1,4,1.66A5.6,5.6,0,0,1,20.93,25H16a1,1,0,0,0,0,2h5.77a1,1,0,0,0,1-.8C23.47,22.67,22.49,20.55,21.54,19.4Z"/>
        <path d="M16,15a4.5,4.5,0,1,0-4.5-4.5A4.51,4.51,0,0,0,16,15Zm0-7a2.5,2.5,0,1,1-2.5,2.5A2.5,2.5,0,0,1,16,8Z"/>
    </g>
</svg>
