<svg width="24" height="24" viewBox="0 0 24 24" xmlns="http://www.w3.org/2000/svg">
    <path fill-rule="evenodd" clip-rule="evenodd" d="M5.50461 11.9707C5.51316 11.9953 5.532 12.0461 5.57175 12.1276C5.64736 12.2828 5.76848 12.4889 5.93687 12.7319C6.27274 13.2164 6.76796 13.8061 7.38423 14.3752C8.63453 15.5297 10.2722 16.5 12.0005 16.5C13.7287 16.5 15.3662 15.5297 16.6162 14.3752C17.2324 13.8062 17.7275 13.2165 18.0633 12.7319C18.2316 12.489 18.3527 12.2829 18.4283 12.1277C18.4681 12.0461 18.4869 11.9953 18.4954 11.9707C18.4935 11.9606 18.4907 11.9478 18.4866 11.9323C18.4733 11.881 18.4502 11.8124 18.4133 11.7265C18.3392 11.5536 18.2213 11.3381 18.0565 11.0921C17.7274 10.6006 17.2393 10.0295 16.6277 9.48752C15.3927 8.3933 13.7504 7.5 12.0005 7.5C10.2505 7.5 8.60795 8.39332 7.37277 9.48757C6.761 10.0295 6.27286 10.6006 5.9436 11.0922C5.7788 11.3382 5.66091 11.5537 5.58676 11.7265C5.54988 11.8125 5.52674 11.8811 5.51343 11.9323C5.5094 11.9479 5.50658 11.9606 5.50461 11.9707ZM6.3781 8.36479C7.76826 7.13325 9.75093 6 12.0005 6C14.25 6 16.2325 7.13326 17.6224 8.36483C18.3232 8.98576 18.8977 9.65239 19.3029 10.2574C19.5053 10.5597 19.6726 10.8572 19.7918 11.1351C19.9053 11.3996 20 11.7028 20 12C20 12.2858 19.8776 12.5777 19.7768 12.7846C19.659 13.0264 19.495 13.2994 19.2961 13.5863C18.8976 14.1615 18.3302 14.8341 17.6339 15.4771C16.2591 16.7469 14.2718 18 12.0005 18C9.7292 18 7.74167 16.7469 6.36663 15.4772C5.67023 14.8341 5.10275 14.1615 4.70408 13.5864C4.50521 13.2995 4.34111 13.0264 4.22331 12.7847C4.1225 12.5778 4.00003 12.2859 4.00003 12C4.00003 11.7028 4.0948 11.3996 4.2083 11.135C4.32756 10.8571 4.49489 10.5596 4.69736 10.2574C5.10264 9.65233 5.6772 8.98571 6.3781 8.36479Z"/>
    <path fill-rule="evenodd" clip-rule="evenodd" d="M19.7803 4.21967C20.0732 4.51256 20.0732 4.98744 19.7803 5.28033L5.28033 19.7803C4.98744 20.0732 4.51256 20.0732 4.21967 19.7803C3.92678 19.4874 3.92678 19.0126 4.21967 18.7197L18.7197 4.21967C19.0126 3.92678 19.4874 3.92678 19.7803 4.21967Z"/>
    <path d="M12 10.5C11.1716 10.5 10.5 11.1716 10.5 12C10.5 12.3842 10.6444 12.7346 10.8819 13L9.82249 14.0636C9.31271 13.5259 9 12.7995 9 12C9 10.3431 10.3431 9 12 9C12.7684 9 13.4692 9.28885 14 9.76389L13 10.8819C12.7346 10.6444 12.3842 10.5 12 10.5Z"/>
</svg>
