<svg width="20" height="20" viewBox="0 0 20 20" xmlns="http://www.w3.org/2000/svg">
    <path fill-rule="evenodd" clip-rule="evenodd" d="M2 4.5625C2 3.14727 3.14727 2 4.5625 2H11.8125C13.2277 2 14.375 3.14727 14.375 4.5625V5.625H15.4375C16.8527 5.625 18 6.77227 18 8.1875V15.4375C18 16.8527 16.8527 18 15.4375 18H8.1875C6.77227 18 5.625 16.8527 5.625 15.4375V14.375H4.5625C3.14727 14.375 2 13.2277 2 11.8125V4.5625ZM7.125 15.4375C7.125 16.0243 7.6007 16.5 8.1875 16.5H15.4375C16.0243 16.5 16.5 16.0243 16.5 15.4375V8.1875C16.5 7.6007 16.0243 7.125 15.4375 7.125H8.1875C7.6007 7.125 7.125 7.6007 7.125 8.1875V15.4375ZM12.875 5.625H8.1875C6.77227 5.625 5.625 6.77227 5.625 8.1875V12.875H4.5625C3.9757 12.875 3.5 12.3993 3.5 11.8125V4.5625C3.5 3.9757 3.9757 3.5 4.5625 3.5H11.8125C12.3993 3.5 12.875 3.9757 12.875 4.5625V5.625Z"/>
</svg>
