<svg width="24" height="24" viewBox="0 0 24 24" xmlns="http://www.w3.org/2000/svg">
    <path fill-rule="evenodd" clip-rule="evenodd" d="M8 4.75C8 4.33579 8.33579 4 8.75 4H15.25C15.6642 4 16 4.33579 16 4.75C16 5.16421 15.6642 5.5 15.25 5.5H8.75C8.33579 5.5 8 5.16421 8 4.75ZM6 7.75C6 7.33579 6.33579 7 6.75 7H17.25C17.6642 7 18 7.33579 18 7.75C18 8.16421 17.6642 8.5 17.25 8.5H6.75C6.33579 8.5 6 8.16421 6 7.75ZM4 10.75C4 10.3358 4.33579 10 4.75 10H19.25C19.6642 10 20 10.3358 20 10.75C20 11.1642 19.6642 11.5 19.25 11.5H4.75C4.33579 11.5 4 11.1642 4 10.75ZM4 13.75C4 13.3358 4.33579 13 4.75 13H9.25C9.66421 13 10 13.3358 10 13.75V14.5H14V13.75C14 13.3358 14.3358 13 14.75 13H19.25C19.6642 13 20 13.3358 20 13.75V17.25C20 17.9793 19.7103 18.6788 19.1945 19.1945C18.6788 19.7103 17.9793 20 17.25 20H6.75C6.02065 20 5.32118 19.7103 4.80546 19.1945C4.28973 18.6788 4 17.9793 4 17.25V13.75ZM15.5 14.5V15.25C15.5 15.6642 15.1642 16 14.75 16H9.25C8.83579 16 8.5 15.6642 8.5 15.25V14.5H5.5V17.25C5.5 17.5815 5.6317 17.8995 5.86612 18.1339C6.10054 18.3683 6.41848 18.5 6.75 18.5H17.25C17.5815 18.5 17.8995 18.3683 18.1339 18.1339C18.3683 17.8995 18.5 17.5815 18.5 17.25V14.5H15.5Z"/>
</svg>
