<svg width="24" height="24" viewBox="0 0 24 24" xmlns="http://www.w3.org/2000/svg">
<path fill-rule="evenodd" clip-rule="evenodd" d="M5.50458 11.9707C5.51313 11.9953 5.53197 12.0461 5.57172 12.1276C5.64733 12.2828 5.76845 12.4889 5.93684 12.7319C6.27271 13.2164 6.76793 13.8061 7.3842 14.3752C8.6345 15.5297 10.2722 16.5 12.0004 16.5C13.7287 16.5 15.3661 15.5297 16.6162 14.3752C17.2323 13.8062 17.7275 13.2165 18.0632 12.7319C18.2316 12.489 18.3527 12.2829 18.4283 12.1277C18.468 12.0461 18.4869 11.9953 18.4954 11.9707C18.4934 11.9606 18.4906 11.9478 18.4866 11.9323C18.4733 11.881 18.4501 11.8124 18.4133 11.7265C18.3391 11.5536 18.2213 11.3381 18.0565 11.0921C17.7273 10.6006 17.2393 10.0295 16.6277 9.48752C15.3927 8.3933 13.7504 7.5 12.0004 7.5C10.2505 7.5 8.60792 8.39332 7.37274 9.48757C6.76097 10.0295 6.27283 10.6006 5.94357 11.0922C5.77877 11.3382 5.66088 11.5537 5.58673 11.7265C5.54984 11.8125 5.52671 11.8811 5.5134 11.9323C5.50937 11.9479 5.50655 11.9606 5.50458 11.9707ZM6.37807 8.36479C7.76823 7.13325 9.7509 6 12.0004 6C14.25 6 16.2325 7.13326 17.6224 8.36483C18.3232 8.98576 18.8977 9.65239 19.3028 10.2574C19.5053 10.5597 19.6726 10.8572 19.7918 11.1351C19.9053 11.3996 20 11.7028 20 12C20 12.2858 19.8776 12.5777 19.7768 12.7846C19.659 13.0264 19.4949 13.2994 19.2961 13.5863C18.8975 14.1615 18.3302 14.8341 17.6339 15.4771C16.2591 16.7469 14.2717 18 12.0004 18C9.72917 18 7.74164 16.7469 6.3666 15.4772C5.6702 14.8341 5.10272 14.1615 4.70405 13.5864C4.50518 13.2995 4.34108 13.0264 4.22328 12.7847C4.12247 12.5778 4 12.2859 4 12C4 11.7028 4.09477 11.3996 4.20827 11.135C4.32753 10.8571 4.49486 10.5596 4.69733 10.2574C5.10261 9.65233 5.67717 8.98571 6.37807 8.36479ZM12 10.5C11.1715 10.5 10.5 11.1716 10.5 12C10.5 12.8284 11.1715 13.5 12 13.5C12.8284 13.5 13.5 12.8284 13.5 12C13.5 11.1716 12.8284 10.5 12 10.5ZM8.99997 12C8.99997 10.3431 10.3431 9 12 9C13.6568 9 15 10.3431 15 12C15 13.6569 13.6568 15 12 15C10.3431 15 8.99997 13.6569 8.99997 12Z"/>
</svg>
