<svg width="24" height="24" viewBox="0 0 24 24" xmlns="http://www.w3.org/2000/svg">
    <path fill-rule="evenodd" clip-rule="evenodd" d="M5 5.75C5 4.23122 6.23122 3 7.75 3H14.1118C14.3216 3 14.5218 3.08789 14.6638 3.24232L18.8021 7.74232C18.9294 7.88075 19 8.06194 19 8.25V11.25C19 11.6642 18.6642 12 18.25 12C17.8358 12 17.5 11.6642 17.5 11.25V9H14.1118C13.6975 9 13.3618 8.66421 13.3618 8.25V4.5H7.75C7.05964 4.5 6.5 5.05964 6.5 5.75L6.5 11.25C6.5 11.6642 6.16422 12 5.75 12C5.33579 12 5 11.6642 5 11.25L5 5.75ZM14.8618 5.67355L16.5414 7.5H14.8618V5.67355ZM19.5546 14.0646C19.9331 14.2329 20.1036 14.6761 19.9354 15.0546L17.9354 19.5546C17.8199 19.8144 17.5674 19.9866 17.2833 19.9993C16.9993 20.0119 16.7325 19.8628 16.5944 19.6142L14.0944 15.1142C13.8932 14.7521 14.0237 14.2955 14.3858 14.0944C14.7479 13.8932 15.2045 14.0237 15.4056 14.3858L17.1754 17.5713L18.5646 14.4454C18.7329 14.0669 19.1761 13.8964 19.5546 14.0646ZM6.75 15.5C6.05962 15.5 5.5 16.0596 5.5 16.75V17.25C5.5 17.9404 6.05961 18.5 6.75 18.5H7.25C7.66421 18.5 8 18.8358 8 19.25C8 19.6642 7.66421 20 7.25 20H6.75C5.23119 20 4 18.7688 4 17.25V16.75C4 15.2312 5.23118 14 6.75 14H7.25C7.66421 14 8 14.3358 8 14.75C8 15.1642 7.66421 15.5 7.25 15.5H6.75ZM9.51256 14.5126C9.84074 14.1844 10.2859 14 10.75 14H12.25C12.6642 14 13 14.3358 13 14.75C13 15.1642 12.6642 15.5 12.25 15.5H10.75C10.6837 15.5 10.6201 15.5263 10.5732 15.5732C10.548 15.5984 10.5287 15.6285 10.5163 15.6612C10.5232 15.6792 10.5321 15.6965 10.543 15.7126C10.5711 15.754 10.6109 15.786 10.6572 15.8045L10.6588 15.8051L11.8982 16.3035C11.8985 16.3036 11.898 16.3034 11.8982 16.3035C12.2226 16.4333 12.5016 16.6576 12.6976 16.9468C12.8938 17.2362 12.9988 17.5778 12.999 17.9275V18.251C12.999 18.7151 12.8146 19.1602 12.4864 19.4884C12.1582 19.8166 11.7131 20.001 11.249 20.001H9.74899C9.33478 20.001 8.99899 19.6652 8.99899 19.251C8.99899 18.8368 9.33478 18.501 9.74899 18.501H11.249C11.3153 18.501 11.3789 18.4747 11.4258 18.4278C11.4727 18.3809 11.499 18.3173 11.499 18.251V17.9285C11.499 17.8785 11.484 17.8297 11.4559 17.7884C11.4279 17.747 11.3881 17.715 11.3417 17.6965L11.3402 17.6959L10.1007 17.1975C10.1004 17.1974 10.1001 17.1972 10.0998 17.1971C9.77548 17.0673 9.4974 16.8434 9.30139 16.5542C9.20087 16.4059 9.1243 16.2439 9.07349 16.0742C9.02638 15.9761 8.99999 15.8661 8.99999 15.75V15.5735C8.99999 15.4578 9.02619 15.3477 9.07298 15.2499C9.15529 14.9739 9.30522 14.7199 9.51256 14.5126Z"/>
</svg>
