<svg width="24" height="24" viewBox="0 0 24 24" fill="none" xmlns="http://www.w3.org/2000/svg">
<path fill-rule="evenodd" clip-rule="evenodd" d="M12.0904 14.2478C12.1522 14.2448 12.2058 14.2469 12.2871 14.2509C12.7008 14.2714 13.0196 14.6234 12.9991 15.0371C12.9786 15.4508 12.6266 15.7696 12.2129 15.7491C12.1809 15.7475 12.1632 15.7468 12.1547 15.7466C12.1443 15.7471 12.1272 15.7479 12.113 15.7484C12.0835 15.7494 12.0481 15.75 12 15.75C8.27728 15.75 5.98585 17.9142 5.46153 19.4872C5.33055 19.8801 4.90581 20.0925 4.51285 19.9615C4.11989 19.8305 3.90752 19.4058 4.03851 19.0128C4.79441 16.7451 7.72276 14.25 12 14.25C12.0366 14.25 12.0541 14.2496 12.0617 14.2493C12.0677 14.2491 12.07 14.2489 12.07 14.2489C12.0721 14.2488 12.0757 14.2486 12.0904 14.2478Z" fill="#111010"/>
<path fill-rule="evenodd" clip-rule="evenodd" d="M12 5.5C10.6193 5.5 9.50002 6.61929 9.50002 8C9.50002 9.38071 10.6193 10.5 12 10.5C13.3807 10.5 14.5 9.38071 14.5 8C14.5 6.61929 13.3807 5.5 12 5.5ZM8.00002 8C8.00002 5.79086 9.79088 4 12 4C14.2092 4 16 5.79086 16 8C16 10.2091 14.2092 12 12 12C9.79088 12 8.00002 10.2091 8.00002 8Z" fill="#111010"/>
<path d="M17.75 14.75C17.75 14.3358 17.4142 14 17 14C16.5858 14 16.25 14.3358 16.25 14.75H17.75ZM16.25 19.25C16.25 19.6642 16.5858 20 17 20C17.4142 20 17.75 19.6642 17.75 19.25H16.25ZM16.25 14.75V19.25H17.75V14.75H16.25Z" fill="#111010"/>
<path d="M19.25 17.75C19.6642 17.75 20 17.4142 20 17C20 16.5858 19.6642 16.25 19.25 16.25V17.75ZM14.75 16.25C14.3358 16.25 14 16.5858 14 17C14 17.4142 14.3358 17.75 14.75 17.75V16.25ZM19.25 16.25H14.75V17.75H19.25V16.25Z" fill="#111010"/>
</svg>
