<svg width="24" height="24" viewBox="0 0 24 24" xmlns="http://www.w3.org/2000/svg">
    <path fill-rule="evenodd" clip-rule="evenodd" d="M18.864 4C16.6736 4 14.5627 4.82159 12.9486 6.30244L10.0083 9.00006C9.95914 8.99952 9.90938 9.00384 9.85968 9.01331L4.60968 10.0133C4.34451 10.0638 4.12694 10.2529 4.03999 10.5085C3.95304 10.764 4.01012 11.0466 4.18946 11.2483L6.15837 13.4634C6.17787 13.4886 6.19906 13.5128 6.22188 13.5356L10.4645 17.7782C10.4778 17.7916 10.4917 17.8044 10.5059 17.8166L12.4697 19.7804C12.662 19.9727 12.9433 20.0458 13.2049 19.9715C13.4665 19.8972 13.6674 19.6871 13.7299 19.4225L14.9699 14.1725C14.9833 14.1159 14.9899 14.0589 14.9901 14.0026L17.6977 11.0515C19.1785 9.43744 20.0001 7.32662 20.0001 5.13613V4.75C20.0001 4.33579 19.6643 4 19.2501 4H18.864ZM7.83619 13.0286L13.9626 7.40776C15.2081 6.26517 16.8104 5.59625 18.4905 5.50962C18.4039 7.18977 17.7349 8.79207 16.5924 10.0374L10.9715 16.1639L7.83619 13.0286ZM12.0599 17.2492L12.5793 17.7687L12.9013 16.4052L12.0599 17.2492ZM6.78213 11.9073L6.18857 11.2395L7.74666 10.9428L6.78213 11.9073Z"/>
    <path d="M7.78035 17.2804C8.07324 16.9875 8.07324 16.5126 7.78035 16.2197C7.48745 15.9268 7.01258 15.9268 6.71969 16.2197L4.21969 18.7197C3.92679 19.0126 3.92679 19.4875 4.21969 19.7804C4.51258 20.0733 4.98745 20.0733 5.28035 19.7804L7.78035 17.2804Z"/>
    <path d="M9.78035 18.2197C10.0732 18.5126 10.0732 18.9875 9.78035 19.2804L9.28035 19.7804C8.98745 20.0733 8.51258 20.0733 8.21969 19.7804C7.92679 19.4875 7.92679 19.0126 8.21969 18.7197L8.71969 18.2197C9.01258 17.9268 9.48745 17.9268 9.78035 18.2197Z"/>
    <path d="M5.78035 15.2804C6.07324 14.9875 6.07324 14.5126 5.78035 14.2197C5.48745 13.9268 5.01258 13.9268 4.71969 14.2197L4.21969 14.7197C3.92679 15.0126 3.92679 15.4875 4.21969 15.7804C4.51258 16.0733 4.98745 16.0733 5.28035 15.7804L5.78035 15.2804Z"/>
</svg>
