<svg width="32" height="32" viewBox="0 0 32 32" xmlns="http://www.w3.org/2000/svg">
  <path d="M11 13.888a.5.5 0 01.76-.428l8.001 4.854a.5.5 0 01-.018.865l-8.002 4.412a.5.5 0 01-.741-.438v-9.265z"/>
  <path fill-rule="evenodd" clip-rule="evenodd" d="M6.25 26A2.75 2.75 0 009 28.75h14A2.75 2.75 0 0025.75 26V9.998a.75.75 0 00-.22-.53l-6.002-5.999a.75.75 0 00-.53-.219H9A2.75 2.75 0 006.25 6v20zM9 27.25c-.69 0-1.25-.56-1.25-1.25V6c0-.69.56-1.25 1.25-1.25h9V9a2 2 0 002 2h4.25v15c0 .69-.56 1.25-1.25 1.25H9z"/>
</svg>
