<svg width="32" height="32" viewBox="0 0 32 32" fill="none" xmlns="http://www.w3.org/2000/svg"><path d="M19.346 6c3.452 0 6.25 2.815 6.25 6.288 0 .971-.218 1.891-.61 2.712M3 26a10.599 10.599 0 013.778-3.324 10.527 10.527 0 018.15-.676m2.976-9.712c0 3.473-2.798 6.289-6.25 6.289s-6.25-2.816-6.25-6.289S8.202 6 11.654 6s6.25 2.815 6.25 6.288zM23 24.8a1.8 1.8 0 100-3.6 1.8 1.8 0 000 3.6zm.6-7.8a.6.6 0 01.6.6l.193.782.887.367.69-.416a.6.6 0 01.848 0l.849.849a.6.6 0 010 .848l-.416.69.367.887.782.193a.6.6 0 01.6.6v1.2a.6.6 0 01-.6.6l-.782.193-.367.887.416.69a.6.6 0 010 .848l-.849.849a.6.6 0 01-.848 0l-.69-.416-.887.367-.193.782a.6.6 0 01-.6.6h-1.2a.6.6 0 01-.6-.6l-.193-.782-.887-.367-.69.416a.6.6 0 01-.848 0l-.849-.849a.6.6 0 010-.848l.416-.69-.367-.887-.782-.193a.6.6 0 01-.6-.6v-1.2a.6.6 0 01.6-.6l.782-.193.367-.887-.416-.69a.6.6 0 010-.848l.849-.849a.6.6 0 01.848 0l.69.416.887-.367.193-.782a.6.6 0 01.6-.6h1.2z" stroke-width="1.5" stroke-linecap="round" stroke-linejoin="round"/></svg>