<svg width="20" height="20" viewBox="0 0 20 20" xmlns="http://www.w3.org/2000/svg">
    <path fill-rule="evenodd" clip-rule="evenodd" d="M6.25 2C6.66421 2 7 2.33579 7 2.75V4.25C7 4.66421 6.66421 5 6.25 5C5.83579 5 5.5 4.66421 5.5 4.25V2.75C5.5 2.33579 5.83579 2 6.25 2ZM9.46968 3.46966C11.4195 1.51992 14.5805 1.51992 16.5303 3.46966L16 4L16.5303 3.46966C18.4801 5.41941 18.4801 8.58054 16.5303 10.5303L16.2803 10.7803C15.9874 11.0732 15.5126 11.0732 15.2197 10.7803C14.9268 10.4874 14.9268 10.0126 15.2197 9.71967L15.4697 9.46967C16.8337 8.10566 16.8337 5.89429 15.4697 4.53034L15.9955 4.00453L15.4697 4.53034C14.1057 3.16636 11.8943 3.16636 10.5303 4.53033C10.5303 4.53033 10.5303 4.53033 10.5303 4.53034L10.2803 4.78033C9.98744 5.07322 9.51256 5.07322 9.21967 4.78033C8.92678 4.48744 8.92678 4.01256 9.21967 3.71967L9.46967 3.46967L9.46968 3.46966ZM2 6.25C2 5.83579 2.33579 5.5 2.75 5.5H4.25C4.66421 5.5 5 5.83579 5 6.25C5 6.66421 4.66421 7 4.25 7H2.75C2.33579 7 2 6.66421 2 6.25ZM12.7803 7.21967C13.0732 7.51256 13.0732 7.98744 12.7803 8.28033L8.28033 12.7803C7.98744 13.0732 7.51256 13.0732 7.21967 12.7803C6.92678 12.4874 6.92678 12.0126 7.21967 11.7197L11.7197 7.21967C12.0126 6.92678 12.4874 6.92678 12.7803 7.21967ZM4.78029 9.21967C5.07318 9.51256 5.07318 9.98744 4.78029 10.2803L4.5303 10.5303C4.5303 10.5303 4.53029 10.5303 4.53029 10.5303C3.16633 11.8943 3.16633 14.1057 4.5303 15.4697C5.89426 16.8337 8.10566 16.8337 9.46967 15.4697L9.71967 15.2197C10.0126 14.9268 10.4874 14.9268 10.7803 15.2197C11.0732 15.5126 11.0732 15.9874 10.7803 16.2803L10.5303 16.5303C8.58054 18.4801 5.41938 18.4801 3.46962 16.5303L3.99996 16L3.46962 16.5303C1.51989 14.5805 1.51989 11.4195 3.46962 9.46968L3.46963 9.46967L3.71963 9.21967C4.01252 8.92678 4.4874 8.92678 4.78029 9.21967ZM18 13.75C18 14.1642 17.6642 14.5 17.25 14.5H15.75C15.3358 14.5 15 14.1642 15 13.75C15 13.3358 15.3358 13 15.75 13H17.25C17.6642 13 18 13.3358 18 13.75ZM13.75 15C14.1642 15 14.5 15.3358 14.5 15.75V17.25C14.5 17.6642 14.1642 18 13.75 18C13.3358 18 13 17.6642 13 17.25V15.75C13 15.3358 13.3358 15 13.75 15Z"/>
</svg>
