<svg width="20" height="20" viewBox="0 0 20 20" xmlns="http://www.w3.org/2000/svg">
    <path fill-rule="evenodd" clip-rule="evenodd" d="M10 5.5C7.63048 5.5 5.5 7.43618 5.5 10C5.5 12.5638 7.63048 14.5 10 14.5C12.3695 14.5 14.5 12.5638 14.5 10C14.5 7.43618 12.3695 5.5 10 5.5ZM4 10C4 6.56382 6.84667 4 10 4C13.1533 4 16 6.56382 16 10C16 13.4362 13.1533 16 10 16C6.84667 16 4 13.4362 4 10Z"/>
    <path fill-rule="evenodd" clip-rule="evenodd" d="M10 10C10.5523 10 11 10.4477 11 11V12C11 12.5523 10.5523 13 10 13C9.44772 13 9 12.5523 9 12V11C9 10.4477 9.44772 10 10 10Z"/>
    <path d="M10 9C10.5523 9 11 8.55228 11 8C11 7.44772 10.5523 7 10 7C9.44772 7 9 7.44772 9 8C9 8.55228 9.44772 9 10 9Z"/>
</svg>
