<svg width="24" height="24" viewBox="0 0 24 24" xmlns="http://www.w3.org/2000/svg">
    <path fill-rule="evenodd" clip-rule="evenodd" d="M6.24999 5.5C5.83578 5.5 5.5 5.83578 5.5 6.25V17.75C5.5 18.1642 5.83578 18.5 6.24999 18.5H10.875C11.2892 18.5 11.625 18.8358 11.625 19.25C11.625 19.6642 11.2892 20 10.875 20H6.24999C5.00734 20 4 18.9926 4 17.75V6.25C4 5.00737 5.00734 4 6.24999 4H11.25C11.6642 4 12 4.33579 12 4.75C12 5.16421 11.6642 5.5 11.25 5.5H6.24999ZM15.1111 8.24614C15.3894 7.93932 15.8637 7.91619 16.1705 8.19446L19.7539 11.4445C19.9106 11.5866 20 11.7884 20 12C20 12.2116 19.9106 12.4134 19.7539 12.5555L16.1705 15.8055C15.8637 16.0838 15.3894 16.0607 15.1111 15.7539C14.8329 15.447 14.856 14.9727 15.1628 14.6945L17.3067 12.75H9.75C9.33579 12.75 9 12.4142 9 12C9 11.5858 9.33579 11.25 9.75 11.25H17.3067L15.1628 9.30554C14.856 9.02727 14.8329 8.55296 15.1111 8.24614Z"/>
</svg>
