<svg width="20" height="20" viewBox="0 0 20 20" xmlns="http://www.w3.org/2000/svg">
    <path fill-rule="evenodd" clip-rule="evenodd" d="M11.1181 4.19308C10.658 3.27305 9.34732 3.27285 8.88696 4.19267L3.63325 14.6897C3.21725 15.5209 3.82051 16.4999 4.7487 16.4999H15.2513C16.1793 16.4999 16.7826 15.5213 16.367 14.6902M16.367 14.6902L11.1181 4.19308L16.367 14.6902ZM7.54842 3.52038C8.56126 1.49668 11.4447 1.49725 12.4569 3.52127L17.7058 14.0183C18.62 15.8468 17.2929 17.9999 15.2513 17.9999H4.7487C2.70669 17.9999 1.37949 15.846 2.29472 14.0174L7.54842 3.52038Z"/>
    <path fill-rule="evenodd" clip-rule="evenodd" d="M9.99934 6.99995C10.5506 6.99995 10.9976 7.44767 10.9976 7.99995V11C10.9976 11.5522 10.5506 12 9.99934 12C9.44803 12 9.0011 11.5522 9.0011 11V7.99995C9.0011 7.44767 9.44803 6.99995 9.99934 6.99995Z"/>
    <path fill-rule="evenodd" clip-rule="evenodd" d="M9.0011 14C9.0011 13.4477 9.44803 13 9.99934 13H10.0093C10.5606 13 11.0076 13.4477 11.0076 14C11.0076 14.5522 10.5606 15 10.0093 15H9.99934C9.44803 15 9.0011 14.5522 9.0011 14Z"/>
</svg>
