<svg width="20" height="20" viewBox="0 0 20 20" xmlns="http://www.w3.org/2000/svg">
    <path fill-rule="evenodd" clip-rule="evenodd" d="M4.90399 5.96465C4.02496 7.07323 3.5 8.47531 3.5 10C3.5 11.5247 4.02496 12.9268 4.90399 14.0353L6.69112 12.2482C6.25495 11.6075 6 10.8335 6 10C6 9.16647 6.25495 8.39249 6.69112 7.75178L4.90399 5.96465ZM5.96465 4.90399L7.75178 6.69112C8.39249 6.25495 9.16647 6 10 6C10.8335 6 11.6075 6.25495 12.2482 6.69112L14.0353 4.90399C12.9268 4.02496 11.5247 3.5 10 3.5C8.47531 3.5 7.07323 4.02496 5.96465 4.90399ZM15.096 5.96465L13.3089 7.75178C13.745 8.39249 14 9.16647 14 10C14 10.8335 13.745 11.6075 13.3089 12.2482L15.096 14.0354C15.975 12.9268 16.5 11.5247 16.5 10C16.5 8.47531 15.975 7.07323 15.096 5.96465ZM14.0354 15.096L12.2482 13.3089C11.6075 13.745 10.8335 14 10 14C9.16647 14 8.39249 13.745 7.75178 13.3089L5.96465 15.096C7.07323 15.975 8.47531 16.5 10 16.5C11.5247 16.5 12.9268 15.975 14.0354 15.096ZM2 10C2 5.58172 5.58172 2 10 2C14.4183 2 18 5.58172 18 10C18 14.4183 14.4183 18 10 18C5.58172 18 2 14.4183 2 10ZM10 7.5C8.61929 7.5 7.5 8.61929 7.5 10C7.5 11.3807 8.61929 12.5 10 12.5C11.3807 12.5 12.5 11.3807 12.5 10C12.5 8.61929 11.3807 7.5 10 7.5Z"/>
</svg>
