<svg width="20" height="20" viewBox="0 0 20 20" xmlns="http://www.w3.org/2000/svg">
    <path fill-rule="evenodd" clip-rule="evenodd" d="M3 3.75C3 2.23122 4.23122 1 5.75 1H12.1118C12.3216 1 12.5218 1.08789 12.6638 1.24232L16.8021 5.74232C16.9294 5.88075 17 6.06194 17 6.25V9.25C17 9.66421 16.6642 10 16.25 10C15.8358 10 15.5 9.66421 15.5 9.25V7H12.1118C11.6975 7 11.3618 6.66421 11.3618 6.25V2.5H5.75C5.05964 2.5 4.5 3.05964 4.5 3.75L4.5 9.25C4.5 9.66421 4.16422 10 3.75 10C3.33579 10 3 9.66421 3 9.25L3 3.75ZM12.8618 3.67355L14.5414 5.5H12.8618V3.67355ZM3 12.75C3 12.3358 3.33579 12 3.75 12H6.25C6.51574 12 6.76164 12.1406 6.8964 12.3697C7.03117 12.5987 7.03467 12.8819 6.90562 13.1142L5.02464 16.5H6.25C6.66421 16.5 7 16.8358 7 17.25C7 17.6642 6.66421 18 6.25 18H3.75C3.48426 18 3.23836 17.8594 3.1036 17.6303C2.96883 17.4013 2.96533 17.1181 3.09438 16.8858L4.97536 13.5H3.75C3.33579 13.5 3 13.1642 3 12.75ZM8.75 12C9.16421 12 9.5 12.3358 9.5 12.75V17.25C9.5 17.6642 9.16421 18 8.75 18C8.33579 18 8 17.6642 8 17.25V12.75C8 12.3358 8.33579 12 8.75 12ZM11 12.75C11 12.3358 11.3358 12 11.75 12H13.25C14.2165 12 15 12.7835 15 13.75V14.25C15 15.2165 14.2165 16 13.25 16H12.5V17.25C12.5 17.6642 12.1642 18 11.75 18C11.3358 18 11 17.6642 11 17.25V12.75ZM12.5 14.5H13.25C13.3881 14.5 13.5 14.3881 13.5 14.25V13.75C13.5 13.6119 13.3881 13.5 13.25 13.5H12.5V14.5Z"/>
</svg>
