<svg xmlns="http://www.w3.org/2000/svg" viewBox="0 0 18 18">
  <path fill-rule="evenodd" clip-rule="evenodd" d="M9 18A9 9 0 1 0 9 0a9 9 0 0 0 0 18zm1.432-12.884c0 .34-.117.629-.35.867a1.136 1.136 0 0 1-.845.358c-.33 0-.612-.12-.848-.358a1.187 1.187 0 0 1-.353-.867c0-.338.117-.628.353-.868.235-.242.518-.362.848-.362.33 0 .61.121.844.362.234.24.35.53.35.868zm-.118 8.07c-.35.17-.632.297-.841.386-.21.089-.452.133-.73.133-.425 0-.756-.127-.993-.38-.235-.252-.354-.573-.354-.961 0-.151.01-.305.027-.464.018-.157.046-.335.085-.534l.44-1.891c.039-.18.072-.353.099-.516.027-.16.04-.309.04-.442 0-.242-.041-.411-.123-.506-.082-.095-.238-.143-.47-.143-.114 0-.23.022-.35.065-.12.043-.19-.46-.19-.46.288-.143.564-.264.827-.366.263-.101.511-.152.747-.152.422 0 .748.124.978.373.228.248.343.57.343.968 0 .082-.008.227-.024.434a3.564 3.564 0 0 1-.088.57L9.3 11.184a5.89 5.89 0 0 0-.096.52 3.271 3.271 0 0 0-.043.44c0 .25.046.42.138.511.092.09.251.136.478.136.107 0 .228-.023.362-.068.135-.045.175.463.175.463z"/>
</svg>
