<svg width="24" height="24" viewBox="0 0 24 24" xmlns="http://www.w3.org/2000/svg">
    <path fill-rule="evenodd" clip-rule="evenodd" d="M6.75 4.5C6.05964 4.5 5.5 5.05964 5.5 5.75V18.25C5.5 18.9404 6.05964 19.5 6.75 19.5H9.29985C9.10814 19.125 9 18.7001 9 18.25V5.75C9 5.29989 9.10814 4.87503 9.29985 4.5H6.75ZM11.4207 3.01951C11.3659 3.00675 11.3087 3 11.25 3H6.75C5.23122 3 4 4.23122 4 5.75V18.25C4 19.7688 5.23122 21 6.75 21H11.25C11.3087 21 11.3659 20.9933 11.4207 20.9805C11.5287 20.9934 11.6386 21 11.75 21H15.25C16.7688 21 18 19.7688 18 18.25C18 17.8358 17.6642 17.5 17.25 17.5C16.8358 17.5 16.5 17.8358 16.5 18.25C16.5 18.9404 15.9404 19.5 15.25 19.5H11.75C11.0596 19.5 10.5 18.9404 10.5 18.25V5.75C10.5 5.05964 11.0596 4.5 11.75 4.5H15.25C15.9404 4.5 16.5 5.05964 16.5 5.75C16.5 6.16421 16.8358 6.5 17.25 6.5C17.6642 6.5 18 6.16421 18 5.75C18 4.23122 16.7688 3 15.25 3H11.75C11.6386 3 11.5287 3.00663 11.4207 3.01951ZM17 9C17.4142 9 17.75 9.33579 17.75 9.75V11.25H19.25C19.6642 11.25 20 11.5858 20 12C20 12.4142 19.6642 12.75 19.25 12.75H17.75V14.25C17.75 14.6642 17.4142 15 17 15C16.5858 15 16.25 14.6642 16.25 14.25V12.75H14.75C14.3358 12.75 14 12.4142 14 12C14 11.5858 14.3358 11.25 14.75 11.25H16.25V9.75C16.25 9.33579 16.5858 9 17 9Z"/>
</svg>
