<svg width="24" height="24" viewBox="0 0 24 24" xmlns="http://www.w3.org/2000/svg">
    <path fill-rule="evenodd" clip-rule="evenodd" d="M12 5.5C10.5578 5.5 9.75133 5.96804 9.28322 6.44772C8.88985 6.85081 8.68168 7.3913 8.58141 8.07559C8.49394 8.67246 8.49642 9.30603 8.49907 9.98462C8.49909 9.98974 8.49911 9.99487 8.49913 10H15.5009C15.5009 9.99491 15.5009 9.98982 15.5009 9.98473C15.5036 9.3061 15.5061 8.6725 15.4186 8.0756C15.3183 7.39131 15.1101 6.85082 14.7167 6.44772L14.7167 6.4477C14.2487 5.96804 13.4422 5.5 12 5.5ZM17.0011 10H17.25C18.2165 10 19 10.7835 19 11.75V17.25C19 18.7688 17.7688 20 16.25 20H7.75C6.23122 20 5 18.7688 5 17.25V11.75C5 10.7835 5.78352 10 6.75 10H6.99887C6.99564 9.33021 6.99261 8.57227 7.09726 7.8581C7.22262 7.00264 7.51268 6.11434 8.20969 5.40009L8.2097 5.40008C8.98525 4.60536 10.1912 4 12 4C13.8088 4 15.0147 4.60535 15.7903 5.40008C16.4873 6.11433 16.7774 7.00263 16.9027 7.85809C17.0074 8.57227 17.0044 9.3302 17.0011 10ZM6.75 11.5C6.61192 11.5 6.5 11.6119 6.5 11.75V17.25C6.5 17.9404 7.05964 18.5 7.75 18.5H16.25C16.9404 18.5 17.5 17.9404 17.5 17.25V11.75C17.5 11.6119 17.3881 11.5 17.25 11.5H6.75Z"/>
</svg>
