<svg width="20" height="20" viewBox="0 0 20 20" xmlns="http://www.w3.org/2000/svg">
    <path fill-rule="evenodd" clip-rule="evenodd" d="M7.48988 3.5C6.36353 3.5 5.45044 4.39543 5.45044 5.5C5.45044 6.60457 6.36353 7.5 7.48988 7.5C8.61623 7.5 9.52932 6.60457 9.52932 5.5C9.52932 4.39543 8.61623 3.5 7.48988 3.5ZM3.92086 5.5C3.92086 3.567 5.51877 2 7.48988 2C9.461 2 11.0589 3.567 11.0589 5.5C11.0589 7.433 9.461 9 7.48988 9C5.51877 9 3.92086 7.433 3.92086 5.5ZM12.0786 2.75C12.0786 2.33579 12.421 2 12.8434 2C14.9077 2 16.1575 3.66472 16.1575 5.5C16.1575 7.33528 14.9077 9 12.8434 9C12.421 9 12.0786 8.66421 12.0786 8.25C12.0786 7.83579 12.421 7.5 12.8434 7.5C13.8766 7.5 14.6279 6.70228 14.6279 5.5C14.6279 4.29772 13.8766 3.5 12.8434 3.5C12.421 3.5 12.0786 3.16421 12.0786 2.75ZM3.40429 13.0686C4.25732 12.0388 5.56736 11.25 7.48988 11.25C9.41241 11.25 10.7225 12.0388 11.5755 13.0686C12.4033 14.068 12.7748 15.2591 12.9448 16.079C13.1709 17.1692 12.2626 18 11.2815 18H3.69823C2.71708 18 1.80887 17.1692 2.03492 16.0791C2.20494 15.2591 2.57649 14.0681 3.40429 13.0686ZM4.59155 14.0144C3.98441 14.7474 3.68049 15.6706 3.53383 16.3779L2.78437 16.2285L3.53382 16.3779C3.52941 16.3992 3.53176 16.4105 3.53339 16.4161C3.53538 16.423 3.53999 16.4331 3.55097 16.4451C3.57375 16.4699 3.6227 16.5 3.69823 16.5H11.2815C11.3571 16.5 11.406 16.4699 11.4288 16.4451C11.4398 16.4331 11.4444 16.423 11.4464 16.4161C11.448 16.4105 11.4503 16.3992 11.4459 16.378L11.4459 16.3779C11.2993 15.6706 10.9954 14.7474 10.3882 14.0144C9.80632 13.3118 8.92193 12.75 7.48988 12.75C6.05784 12.75 5.17346 13.3118 4.59155 14.0144ZM13.0983 12C13.0983 11.5858 13.4408 11.25 13.8631 11.25C15.2369 11.25 16.1939 11.9642 16.8207 12.8349C17.4314 13.6834 17.7638 14.719 17.9482 15.5334C18.2613 16.9162 17.1051 18 15.828 18H14.8829C14.4605 18 14.1181 17.6642 14.1181 17.25C14.1181 16.8358 14.4605 16.5 14.8829 16.5H15.828C16.0505 16.5 16.232 16.409 16.3421 16.2877C16.4466 16.1727 16.4932 16.0272 16.455 15.8586C16.2889 15.1249 16.012 14.3125 15.5711 13.7C15.1462 13.1097 14.6092 12.75 13.8631 12.75C13.4408 12.75 13.0983 12.4142 13.0983 12Z"/>
</svg>
