<svg width="24" height="24" viewBox="0 0 24 24" xmlns="http://www.w3.org/2000/svg">
    <path d="M16.25 20H7.75C6.23 20 5 18.77 5 17.25V11.75C5 10.79 5.79 10 6.75 10H7V9.63C7 8.39 6.99 7 7.82 5.86C8.44 5.01 9.67 4 12 4C14.32 4 15.77 5.7 15.83 5.77C16.1 6.09 16.05 6.56 15.73 6.83C15.41 7.09 14.94 7.05 14.67 6.73C14.67 6.72 13.61 5.5 12 5.5C10.63 5.5 9.63 5.92 9.03 6.75C8.49 7.48 8.5 8.52 8.5 9.62V10H17.25C18.21 10 19 10.79 19 11.75V17.25C19 18.77 17.77 20 16.25 20ZM6.75 11.5C6.61 11.5 6.5 11.61 6.5 11.75V17.25C6.5 17.94 7.06 18.5 7.75 18.5H16.25C16.94 18.5 17.5 17.94 17.5 17.25V11.75C17.5 11.61 17.39 11.5 17.25 11.5H6.75Z"/>
</svg>
