<svg width="24" height="24" viewBox="0 0 24 24" xmlns="http://www.w3.org/2000/svg">
    <path d="M19.8326 4.97549C20.0558 4.75233 20.0558 4.39052 19.8326 4.16737C19.6095 3.94421 19.2477 3.94421 19.0245 4.16737L12 11.1919L4.97549 4.16737C4.75233 3.94421 4.39052 3.94421 4.16737 4.16737C3.94421 4.39052 3.94421 4.75233 4.16737 4.97549L11.1919 12L4.16737 19.0245C3.94421 19.2477 3.94421 19.6095 4.16737 19.8326C4.39052 20.0558 4.75233 20.0558 4.97549 19.8326L12 12.8081L19.0245 19.8326C19.2477 20.0558 19.6095 20.0558 19.8326 19.8326C20.0558 19.6095 20.0558 19.2477 19.8326 19.0245L12.8081 12L19.8326 4.97549Z"/>
</svg>
