<svg xmlns="http://www.w3.org/2000/svg" viewBox="0 0 32 32">
    <g>
        <path d="M11,15a4,4,0,1,0-4-4A4,4,0,0,0,11,15Zm0-6a2,2,0,1,1-2,2A2,2,0,0,1,11,9Z"/>
        <path d="M21,15a4,4,0,1,0-4-4A4,4,0,0,0,21,15Zm0-6a2,2,0,1,1-2,2A2,2,0,0,1,21,9Z"/>
        <path d="M26,25a1,1,0,0,0,1-.8c.63-3.15-.25-5-1.1-6.08A6.2,6.2,0,0,0,21,16a6.14,6.14,0,0,0-2.49.47,1,1,0,0,0-.59.7,1,1,0,0,0,.22.89A7,7,0,0,1,19,23.75,1,1,0,0,0,20,25Zm-.85-2H21.2a9.81,9.81,0,0,0-.75-5L21,18a4.27,4.27,0,0,1,3.34,1.39A4.79,4.79,0,0,1,25.15,23Z"/>
        <path d="M11,16a6.2,6.2,0,0,0-4.88,2.12c-.85,1-1.73,2.93-1.1,6.08A1,1,0,0,0,6,25H16a1,1,0,0,0,1-.8c.63-3.15-.25-5-1.1-6.08A6.2,6.2,0,0,0,11,16Zm4.15,7H6.85a4.79,4.79,0,0,1,.81-3.61A4.27,4.27,0,0,1,11,18a4.27,4.27,0,0,1,3.34,1.39A4.79,4.79,0,0,1,15.15,23Z"/>
    </g>
</svg>
