<svg width="20" height="20" viewBox="0 0 20 20" xmlns="http://www.w3.org/2000/svg">
    <path fill-rule="evenodd" clip-rule="evenodd" d="M3 15.25C3 16.7688 4.23122 18 5.75 18H14.25C15.7688 18 17 16.7688 17 15.25V7.25C17 7.06194 16.9294 6.88075 16.8021 6.74232L12.6638 2.24232C12.5218 2.08789 12.3216 2 12.1117 2H5.75C4.23122 2 3 3.23122 3 4.75L3 15.25ZM5.75 16.5C5.05965 16.5 4.5 15.9404 4.5 15.25L4.5 4.75C4.5 4.05964 5.05964 3.5 5.75 3.5H11.3617V7.25C11.3617 7.66421 11.6975 8 12.1117 8H15.5V15.25C15.5 15.9404 14.9404 16.5 14.25 16.5H5.75ZM14.5414 6.5H12.8617V4.67355L14.5414 6.5Z"/>
</svg>
