<svg width="20" height="20" viewBox="0 0 20 20" xmlns="http://www.w3.org/2000/svg">
    <path fill-rule="evenodd" clip-rule="evenodd" d="M10.25 2.75C10.25 2.33579 10.5858 2 11 2H15.75C16.2824 2 16.8202 2.18243 17.2371 2.50723C17.6595 2.83637 18 3.35117 18 4V16C18 16.6488 17.6595 17.1636 17.2371 17.4928C16.8202 17.8176 16.2824 18 15.75 18H10.6667C10.2525 18 9.91667 17.6642 9.91667 17.25C9.91667 16.8358 10.2525 16.5 10.6667 16.5H15.75C15.954 16.5 16.1662 16.4256 16.3152 16.3095C16.4586 16.1977 16.5 16.0875 16.5 16V4C16.5 3.91245 16.4586 3.80225 16.3152 3.69049C16.1662 3.57438 15.954 3.5 15.75 3.5H11C10.5858 3.5 10.25 3.16421 10.25 2.75ZM8.10541 6.25252C8.38016 5.94254 8.85417 5.91399 9.16415 6.18874L12.8308 9.43874C12.9914 9.58108 13.0833 9.7854 13.0833 10C13.0833 10.2146 12.9914 10.4189 12.8308 10.5613L9.16415 13.8113C8.85417 14.086 8.38016 14.0575 8.10541 13.7475C7.83066 13.4375 7.85921 12.9635 8.16919 12.6887L10.3565 10.75H2.75C2.33579 10.75 2 10.4142 2 10C2 9.58579 2.33579 9.25 2.75 9.25H10.3565L8.16919 7.31126C7.85921 7.03651 7.83066 6.5625 8.10541 6.25252Z"/>
</svg>
