<svg width="20" height="20" viewBox="0 0 20 20" xmlns="http://www.w3.org/2000/svg">
    <path fill-rule="evenodd" clip-rule="evenodd" d="M10 3.5C8.61931 3.5 7.50002 4.61929 7.50002 6C7.50002 7.38071 8.61931 8.5 10 8.5C11.3807 8.5 12.5 7.38071 12.5 6C12.5 4.61929 11.3807 3.5 10 3.5ZM6.00002 6C6.00002 3.79086 7.79088 2 10 2C12.2092 2 14 3.79086 14 6C14 8.20914 12.2092 10 10 10C7.79088 10 6.00002 8.20914 6.00002 6ZM10 13.75C6.27728 13.75 3.98585 15.9142 3.46153 17.4872C3.33055 17.8801 2.90581 18.0925 2.51285 17.9615C2.11989 17.8305 1.90752 17.4058 2.03851 17.0128C2.79441 14.7451 5.72276 12.25 10 12.25C14.2773 12.25 17.2056 14.7451 17.9615 17.0128C18.0925 17.4058 17.8801 17.8305 17.4872 17.9615C17.0942 18.0925 16.6695 17.8801 16.5385 17.4872C16.0142 15.9142 13.7228 13.75 10 13.75Z"/>
</svg>
