<svg width="20" height="20" viewBox="0 0 20 20" xmlns="http://www.w3.org/2000/svg">
    <path fill-rule="evenodd" clip-rule="evenodd" d="M2 3.25C2 2.83579 2.33579 2.5 2.75 2.5H17.25C17.6642 2.5 18 2.83579 18 3.25C18 3.66421 17.6642 4 17.25 4H2.75C2.33579 4 2 3.66421 2 3.25ZM2 10C2 9.58579 2.33579 9.25 2.75 9.25H17.25C17.6642 9.25 18 9.58579 18 10C18 10.4142 17.6642 10.75 17.25 10.75H2.75C2.33579 10.75 2 10.4142 2 10ZM2 16.75C2 16.3358 2.33579 16 2.75 16H17.25C17.6642 16 18 16.3358 18 16.75C18 17.1642 17.6642 17.5 17.25 17.5H2.75C2.33579 17.5 2 17.1642 2 16.75Z"/>
</svg>
