<svg width="20" height="20" viewBox="0 0 20 20" xmlns="http://www.w3.org/2000/svg">
    <path fill-rule="evenodd" clip-rule="evenodd" d="M6 3.75C6 2.7835 6.7835 2 7.75 2H12.25C13.2165 2 14 2.7835 14 3.75V5H17.25C17.6642 5 18 5.33579 18 5.75C18 6.16421 17.6642 6.5 17.25 6.5H16V15.25C16 16.7688 14.7688 18 13.25 18H6.75C5.23122 18 4 16.7688 4 15.25V6.5H2.75C2.33579 6.5 2 6.16421 2 5.75C2 5.33579 2.33579 5 2.75 5H6V3.75ZM12.5 5H7.5V3.75C7.5 3.61193 7.61193 3.5 7.75 3.5H12.25C12.3881 3.5 12.5 3.61193 12.5 3.75V5ZM5.5 6.75V15.25C5.5 15.9404 6.05964 16.5 6.75 16.5H13.25C13.9404 16.5 14.5 15.9404 14.5 15.25V6.75H5.5Z"/>
</svg>
