<svg width="24" height="24" viewBox="0 0 24 24" xmlns="http://www.w3.org/2000/svg">
    <path fill-rule="evenodd" clip-rule="evenodd" d="M12 5.5C10.6193 5.5 9.50002 6.61929 9.50002 8C9.50002 9.38071 10.6193 10.5 12 10.5C13.3807 10.5 14.5 9.38071 14.5 8C14.5 6.61929 13.3807 5.5 12 5.5ZM8.00002 8C8.00002 5.79086 9.79088 4 12 4C14.2092 4 16 5.79086 16 8C16 10.2091 14.2092 12 12 12C9.79088 12 8.00002 10.2091 8.00002 8ZM12 15.75C8.27728 15.75 5.98585 17.9142 5.46153 19.4872C5.33055 19.8801 4.90581 20.0925 4.51285 19.9615C4.11989 19.8305 3.90752 19.4058 4.03851 19.0128C4.79441 16.7451 7.72276 14.25 12 14.25C16.2773 14.25 19.2056 16.7451 19.9615 19.0128C20.0925 19.4058 19.8801 19.8305 19.4872 19.9615C19.0942 20.0925 18.6695 19.8801 18.5385 19.4872C18.0142 17.9142 15.7228 15.75 12 15.75Z"/>
</svg>
