<svg xmlns="http://www.w3.org/2000/svg" viewBox="0 0 32 32">
    <g>
        <path d="M9,17a6,6,0,1,0,6,6A6,6,0,0,0,9,17Zm3,7H10v2a1,1,0,0,1-2,0V24H6a1,1,0,0,1,0-2H8V20a1,1,0,0,1,2,0v2h2a1,1,0,0,1,0,2Z"/>
        <path d="M21.54,19.4A7,7,0,0,0,16,17a1,1,0,0,0,0,2,5.09,5.09,0,0,1,4,1.66A5.6,5.6,0,0,1,20.93,25H17a1,1,0,0,0,0,2h4.77a1,1,0,0,0,1-.8C23.47,22.67,22.49,20.55,21.54,19.4Z"/>
        <path d="M16,15a4.5,4.5,0,1,0-4.5-4.5A4.51,4.51,0,0,0,16,15Zm0-7a2.5,2.5,0,1,1-2.5,2.5A2.5,2.5,0,0,1,16,8Z"/>
    </g>
</svg>
