<svg xmlns="http://www.w3.org/2000/svg" viewBox="0 0 24 24" width="24" height="24"><path d="M12 5C9.67 5 7.67 7.08 7.67 9.6v4c0 .42-.26.8-.66.94-1.28.46-1.28 2.06-.34 2.06h3.05c.55 0 1 .45 1 1 0 .97.43 1.4 1.29 1.4.86 0 1.29-.42 1.29-1.4 0-.55.45-1 1-1h3.05c.45 0 .67-.24.67-.7 0-.53-.32-1.05-.87-1.3l-.26-.11c-.33-.17-.55-.51-.55-.89v-4C16.34 7.08 14.33 5 12 5zm-6.33 7.98V9.6C5.67 5.99 8.54 3 12 3s6.34 2.99 6.34 6.6v3.38A3.43 3.43 0 0 1 20 15.9c0 1.52-1.05 2.7-2.67 2.7h-2.16C14.81 20.1 13.63 21 12 21c-1.62 0-2.81-.9-3.17-2.4H6.67c-3.17 0-3.47-3.94-1.15-5.53l.15-.09z"/></svg>
