<svg width="32" height="32" viewBox="0 0 32 32" fill="none" xmlns="http://www.w3.org/2000/svg"><path d="M26 10.245V26a2 2 0 01-2 2H8a2 2 0 01-2-2V6a2 2 0 012-2h11.379M26 10.245L19.379 4M26 10.245h-6.621V4" stroke-width="1.5" stroke-linecap="round" stroke-linejoin="round"/><path d="M9.5 20.25v-2.333m0 0V15h1.697c.849 0 1.697.403 1.697 1.458 0 1.25-.848 1.459-1.697 1.459H9.5zM23.5 15h-2.97v2.292m0 2.958v-2.958m0 0h2.546M15.016 15h1.272c1.697 0 2.121 1.237 2.121 2.292 0 1.25-.424 2.291-2.121 2.291h-1.273V15z" stroke-width="1.5"/></svg>
