<svg width="24" height="24" viewBox="0 0 24 24" xmlns="http://www.w3.org/2000/svg">
    <path fill-rule="evenodd" clip-rule="evenodd" d="M16.5962 7.40338C14.0578 4.86497 9.94221 4.86497 7.40381 7.40338C4.8654 9.94178 4.8654 14.0573 7.40381 16.5957C9.94221 19.1341 14.0578 19.1341 16.5962 16.5957C16.8891 16.3028 17.3639 16.3028 17.6568 16.5957C17.9497 16.8886 17.9497 17.3635 17.6568 17.6564C14.5326 20.7806 9.46734 20.7806 6.34314 17.6564C3.21895 14.5322 3.21895 9.46691 6.34314 6.34272C9.46734 3.21852 14.5326 3.21852 17.6568 6.34272C17.9689 6.65479 18.25 6.9865 18.5 7.33395V5.75002C18.5 5.33581 18.8358 5.00002 19.25 5.00002C19.6642 5.00002 20 5.33581 20 5.75002V8.25002C20 9.21654 19.2165 10 18.25 10H15.75C15.3358 10 15 9.66423 15 9.25002C15 8.83581 15.3358 8.50002 15.75 8.50002H17.4793C17.2307 8.11163 16.9364 7.7436 16.5962 7.40338ZM12 7.00002C12.4142 7.00002 12.75 7.33581 12.75 7.75002V11.7644L14.7702 13.7098C15.0686 13.9971 15.0776 14.4719 14.7902 14.7703C14.5029 15.0686 14.0281 15.0776 13.7298 14.7903L11.25 12.4023V7.75002C11.25 7.33581 11.5858 7.00002 12 7.00002Z"/>
</svg>
