<svg width="20" height="20" viewBox="0 0 20 20" xmlns="http://www.w3.org/2000/svg">
    <path fill-rule="evenodd" clip-rule="evenodd" d="M10 4C10.3266 4 10.6157 4.21136 10.7147 4.5226L12.0406 8H15.2505C15.5709 8 15.8559 8.20354 15.9599 8.5066C15.9842 8.57764 15.9974 8.65048 16 8.7229C16.0085 8.95939 15.9045 9.19142 15.7109 9.34201L13 11L13.97 15.0527C14.0559 15.3678 13.9722 15.7024 13.6979 15.8798C13.4235 16.0572 13.066 16.0366 12.8138 15.8289L10 13L7.26736 15.8289C7.01519 16.0366 6.6576 16.0572 6.38329 15.8798C6.10898 15.7024 5.93405 15.3152 6.02 15L6.99998 11L4.35994 9.34201C4.15931 9.18597 4.00381 8.93833 4.00001 8.69132C3.99902 8.62696 4.00833 8.56264 4.02982 8.5C4.1338 8.19694 4.49999 8 4.8204 8H8.04059L9.2853 4.5226C9.38433 4.21136 9.67339 4 10 4Z"/>
</svg>
