<svg xmlns="http://www.w3.org/2000/svg" width="32" height="32"><path d="M26.14 21.45a4 4 0 0 0-2.14-4.1V13A8 8 0 0 0 9.62 8.21L7.71 6.29a1 1 0 0 0-1.42 1.42l16 16 2 2a1 1 0 0 0 1.42 0 1 1 0 0 0 0-1.42l-.84-.83a3 3 0 0 0 1.27-2.01zM11.06 9.65A6 6 0 0 1 22 13v5a1 1 0 0 0 .68.95 2.07 2.07 0 0 1 1.49 2.17 1 1 0 0 1-.81.83z"/><path class="cls-1" d="M19 22a1 1 0 0 0-1 1 1.77 1.77 0 0 1-2 2 1.77 1.77 0 0 1-2-2 1 1 0 0 0-1-1H9a1 1 0 0 1-1.17-.88A2.07 2.07 0 0 1 9.33 19a1 1 0 0 0 .67-1v-5a1 1 0 0 0-2 0v4.35a4 4 0 0 0-2.14 4.1A3 3 0 0 0 9 24h3.1a3.68 3.68 0 0 0 3.9 3 3.75 3.75 0 0 0 4-4 1 1 0 0 0-1-1z"/></svg>
