<svg width="24" height="24" viewBox="0 0 24 24" fill="none" xmlns="http://www.w3.org/2000/svg">
<path fill-rule="evenodd" clip-rule="evenodd" d="M12 7.5C11.1716 7.5 10.5 8.17157 10.5 9C10.5 9.82843 11.1716 10.5 12 10.5C12.8284 10.5 13.5 9.82843 13.5 9C13.5 8.17157 12.8284 7.5 12 7.5ZM9.00002 9C9.00002 7.34315 10.3432 6 12 6C13.6569 6 15 7.34315 15 9C15 10.6569 13.6569 12 12 12C10.3432 12 9.00002 10.6569 9.00002 9ZM15 12C15.4142 12 15.75 12.3358 15.75 12.75V14.25H17.25C17.6642 14.25 18 14.5858 18 15C18 15.4142 17.6642 15.75 17.25 15.75H15.75V17.25C15.75 17.6642 15.4142 18 15 18C14.5858 18 14.25 17.6642 14.25 17.25V15.75H12.75C12.3358 15.75 12 15.4142 12 15C12 14.5858 12.3358 14.25 12.75 14.25H14.25V12.75C14.25 12.3358 14.5858 12 15 12ZM11.2378 13.9923C11.3123 14.3998 11.0424 14.7905 10.6349 14.865C8.8543 15.1906 7.89987 16.1722 7.46153 17.4872C7.33055 17.8801 6.90581 18.0925 6.51285 17.9615C6.11989 17.8305 5.90752 17.4058 6.03851 17.0128C6.64779 15.185 8.03981 13.8147 10.3651 13.3895C10.7726 13.315 11.1633 13.5849 11.2378 13.9923Z" fill="#111010"/>
</svg>
