<svg width="20" height="20" viewBox="0 0 20 20" xmlns="http://www.w3.org/2000/svg">
    <path fill-rule="evenodd" clip-rule="evenodd" d="M10 4C10.2086 4 10.4077 4.08684 10.5496 4.23966L13.7996 7.73966C14.0815 8.04319 14.0639 8.51774 13.7603 8.7996C13.4568 9.08145 12.9823 9.06387 12.7004 8.76034L10 5.85221L7.2996 8.76034C7.01775 9.06387 6.5432 9.08145 6.23966 8.79959C5.93613 8.51774 5.91856 8.04319 6.20041 7.73966L9.45041 4.23966C9.59232 4.08684 9.79146 4 10 4Z"/>
    <path fill-rule="evenodd" clip-rule="evenodd" d="M10 16C9.79145 16 9.59231 15.9132 9.45041 15.7603L6.20041 12.2603C5.91856 11.9568 5.93613 11.4823 6.23967 11.2004C6.5432 10.9186 7.01775 10.9361 7.2996 11.2397L10 14.1478L12.7004 11.2397C12.9823 10.9361 13.4568 10.9186 13.7603 11.2004C14.0639 11.4823 14.0815 11.9568 13.7996 12.2603L10.5496 15.7603C10.4077 15.9132 10.2086 16 10 16Z"/>
</svg>
