<svg width="24" height="24" viewBox="0 0 24 24" fill="none" xmlns="http://www.w3.org/2000/svg">
<path fill-rule="evenodd" clip-rule="evenodd" d="M8 4C8.20856 4 8.40769 4.08684 8.5496 4.23966L11.7996 7.73966C12.0815 8.04319 12.0639 8.51774 11.7603 8.7996C11.4568 9.08145 10.9823 9.06387 10.7004 8.76034L8.75 6.6599V15.25C8.75 15.6642 8.41422 16 8 16C7.58579 16 7.25 15.6642 7.25 15.25V6.6599L5.2996 8.76034C5.01775 9.06387 4.5432 9.08145 4.23966 8.7996C3.93613 8.51774 3.91856 8.04319 4.20041 7.73966L7.45041 4.23966C7.59232 4.08684 7.79145 4 8 4ZM16 8C16.4142 8 16.75 8.33579 16.75 8.75V17.3401L18.7004 15.2397C18.9823 14.9361 19.4568 14.9186 19.7603 15.2004C20.0639 15.4823 20.0815 15.9568 19.7996 16.2603L16.5496 19.7603C16.4077 19.9132 16.2086 20 16 20C15.7915 20 15.5923 19.9132 15.4504 19.7603L12.2004 16.2603C11.9186 15.9568 11.9361 15.4823 12.2397 15.2004C12.5432 14.9186 13.0177 14.9361 13.2996 15.2397L15.25 17.3401V8.75C15.25 8.33579 15.5858 8 16 8Z" fill="#111010"/>
</svg>
