<svg width="20" height="20" viewBox="0 0 20 20" xmlns="http://www.w3.org/2000/svg">
    <path fill-rule="evenodd" clip-rule="evenodd" d="M10.01 7C10.56 7 11.01 7.45 11.01 8V9C11.01 9.55 10.56 10 10.01 10C9.46001 10 9.01001 9.55 9.01001 9V8C9.01001 7.44 9.46001 7 10.01 7Z"/>
    <path d="M10.01 13C10.56 13 11.01 12.55 11.01 12C11.01 11.45 10.56 11 10.01 11C9.46001 11 9.01001 11.45 9.01001 12C9.01001 12.55 9.46001 13 10.01 13Z"/>
    <path d="M13.27 16H6.75001C5.79001 16 4.91001 15.51 4.41001 14.69C3.91001 13.87 3.86001 12.87 4.29001 12.01L7.55001 5.51C8.03001 4.58 8.97001 4 10.02 4C11.07 4 12.01 4.58 12.48 5.52L15.72 12C15.9193 12.3985 16.0026 12.8271 16 13.2539C15.997 13.7481 15.8737 14.24 15.6 14.68C15.09 15.5 14.23 16 13.27 16ZM5.64001 12.69C5.44001 13.09 5.46001 13.53 5.69001 13.91C5.92001 14.29 6.31001 14.5 6.75001 14.5H13.27C13.71 14.5 14.1 14.28 14.33 13.91C14.56 13.54 14.58 13.09 14.38 12.69L11.12 6.19C10.92 5.76 10.5 5.5 10.02 5.5C9.54001 5.5 9.12001 5.76 8.90001 6.19L5.64001 12.69Z"/>
</svg>
