<svg width="32" height="32" viewBox="0 0 32 32" fill="none" xmlns="http://www.w3.org/2000/svg"><path d="M15.457 23.543l-1.48 4.204 4.205-1.479m-2.725-2.725l8.032-8.032m-8.032 8.032l2.725 2.725m0 0l8.032-8.032m-2.725-2.725L24.9 14.1a1.5 1.5 0 012.121 0l.604.604a1.5 1.5 0 010 2.121l-1.412 1.412m-2.725-2.725l2.725 2.725M7.418 26.984H5.525A2.525 2.525 0 013 24.46V14.361a2.525 2.525 0 012.525-2.525h12.623c.732 0 1.39.312 1.852.81m-13.213-.81l.004-3.803a5.038 5.038 0 0110.075.005v3.798m-5.03 10.099a2.525 2.525 0 100-5.05 2.525 2.525 0 000 5.05z" stroke-width="1.5" stroke-linecap="round" stroke-linejoin="round"/></svg>
