<svg width="32" height="32" viewBox="0 0 32 32" fill="none" xmlns="http://www.w3.org/2000/svg"><path d="M12 7.974h6M22 8h3.333C26.806 8 28 9.12 28 10.5v15c0 1.38-1.194 2.5-2.667 2.5H6.667C5.194 28 4 26.88 4 25.5v-15C4 9.12 5.194 8 6.667 8H8m4 2V4m10 6V4" stroke-width="1.5" stroke-linecap="round"/><path d="M18.008 14H18" stroke-width="2" stroke-linecap="round" stroke-linejoin="round"/><path d="M22.008 14H22" stroke-width="2" stroke-linecap="round" stroke-linejoin="round"/><path d="M22.008 18H22" stroke-width="2" stroke-linecap="round" stroke-linejoin="round"/><path d="M18.008 18H18" stroke-width="2" stroke-linecap="round" stroke-linejoin="round"/><path d="M14.008 18H14" stroke-width="2" stroke-linecap="round" stroke-linejoin="round"/><path d="M10.008 18H10" stroke-width="2" stroke-linecap="round" stroke-linejoin="round"/><path d="M10.008 22H10" stroke-width="2" stroke-linecap="round" stroke-linejoin="round"/><path d="M14.008 22H14" stroke-width="2" stroke-linecap="round" stroke-linejoin="round"/></svg>
