<svg width="24" height="24" viewBox="0 0 24 24" fill="none" xmlns="http://www.w3.org/2000/svg">
<path fill-rule="evenodd" clip-rule="evenodd" d="M7 6C7 5.44772 7.44772 5 8 5C8.55228 5 9 5.44772 9 6C9 6.55228 8.55228 7 8 7C7.44772 7 7 6.55228 7 6ZM11 6C11 5.44769 11.4478 5 12 5C12.5522 5 13 5.44769 13 6C13 6.55231 12.5522 7 12 7C11.4478 7 11 6.55231 11 6ZM15 6C15 5.44769 15.4478 5 16 5C16.5522 5 17 5.44769 17 6C17 6.55231 16.5522 7 16 7C15.4478 7 15 6.55231 15 6ZM7 12C7 11.4478 7.44769 11 8 11C8.55231 11 9 11.4478 9 12C9 12.5522 8.55231 13 8 13C7.44769 13 7 12.5522 7 12ZM11 12C11 11.4478 11.4478 11 12 11C12.5522 11 13 11.4478 13 12C13 12.5522 12.5522 13 12 13C11.4478 13 11 12.5522 11 12ZM15 12C15 11.4478 15.4478 11 16 11C16.5522 11 17 11.4478 17 12C17 12.5522 16.5522 13 16 13C15.4478 13 15 12.5522 15 12ZM7 18C7 17.4478 7.44769 17 8 17C8.55231 17 9 17.4478 9 18C9 18.5522 8.55231 19 8 19C7.44769 19 7 18.5522 7 18ZM11 18C11 17.4478 11.4478 17 12 17C12.5522 17 13 17.4478 13 18C13 18.5522 12.5522 19 12 19C11.4478 19 11 18.5522 11 18ZM15 18C15 17.4478 15.4478 17 16 17C16.5522 17 17 17.4478 17 18C17 18.5522 16.5522 19 16 19C15.4478 19 15 18.5522 15 18Z" fill="#111010"/>
</svg>
