<svg width="20" height="20" viewBox="0 0 20 20" xmlns="http://www.w3.org/2000/svg">
    <path fill-rule="evenodd" clip-rule="evenodd" d="M9 6C9 5.44772 9.44772 5 10 5H10.01C10.5623 5 11.01 5.44772 11.01 6C11.01 6.55228 10.5623 7 10.01 7H10C9.44772 7 9 6.55228 9 6Z"/>
    <path fill-rule="evenodd" clip-rule="evenodd" d="M9 10C9 9.44772 9.44772 9 10 9H10.01C10.5623 9 11.01 9.44772 11.01 10C11.01 10.5523 10.5623 11 10.01 11H10C9.44772 11 9 10.5523 9 10Z"/>
    <path fill-rule="evenodd" clip-rule="evenodd" d="M9 14C9 13.4477 9.44772 13 10 13H10.01C10.5623 13 11.01 13.4477 11.01 14C11.01 14.5523 10.5623 15 10.01 15H10C9.44772 15 9 14.5523 9 14Z"/>
</svg>
