<svg width="20" height="20" viewBox="0 0 20 20" xmlns="http://www.w3.org/2000/svg">
  <path fill-rule="evenodd" clip-rule="evenodd"
    d="M10.4034 2.12215C10.1591 1.95928 9.84087 1.95928 9.59658 2.12215L2.32385 6.97063C2.12153 7.10551 2 7.33259 2 7.57576V14.8485C2 15.6568 2.48425 16.4373 3.02348 16.9765C3.56271 17.5158 4.34326 18 5.15152 18H14.8485C15.5605 18 16.3157 17.7198 16.8961 17.2884C17.4693 16.8624 18 16.1863 18 15.3333V7.57576C18 7.33259 17.8785 7.10551 17.6761 6.97063L10.4034 2.12215ZM3.45455 14.8485V7.96498L10 3.60135L16.5455 7.96498V15.3333C16.5455 15.5515 16.3996 15.8451 16.0284 16.121C15.6645 16.3915 15.2076 16.5455 14.8485 16.5455H12.9087V13.6357C12.9087 12.1629 11.7148 10.969 10.242 10.969H9.75719C8.28451 10.969 7.09055 12.1629 7.09055 13.6357V16.5455H5.15152C4.88868 16.5455 4.45711 16.3531 4.05199 15.948C3.64687 15.5429 3.45455 15.1113 3.45455 14.8485ZM8.5451 13.6357C8.5451 12.9662 9.08781 12.4236 9.75719 12.4236H10.242C10.9115 12.4236 11.4542 12.9662 11.4542 13.6357V16.5455H8.5451V13.6357Z" />
</svg>