<svg width="24" height="24" viewBox="0 0 24 24" fill="none" xmlns="http://www.w3.org/2000/svg">
<path fill-rule="evenodd" clip-rule="evenodd" d="M12.2094 5.23017C12.4965 4.93159 12.9713 4.92228 13.2698 5.20938L19.7698 11.4594C19.9169 11.6008 20 11.796 20 12C20 12.204 19.9169 12.3992 19.7698 12.5406L13.2698 18.7906C12.9713 19.0777 12.4965 19.0684 12.2094 18.7698C11.9223 18.4713 11.9316 17.9965 12.2302 17.7094L17.3879 12.75L4.75 12.75C4.33579 12.75 4 12.4142 4 12C4 11.5858 4.33579 11.25 4.75 11.25L17.3879 11.25L12.2302 6.29063C11.9316 6.00353 11.9223 5.52875 12.2094 5.23017Z" fill="#111010"/>
</svg>
