<svg width="32" height="32" viewBox="0 0 32 32" fill="none" xmlns="http://www.w3.org/2000/svg"><path d="M26 10.245V26a2 2 0 01-2 2H8a2 2 0 01-2-2V6a2 2 0 012-2h11.379M26 10.245L19.379 4M26 10.245h-6.621V4" stroke-width="1.5" stroke-linecap="round" stroke-linejoin="round"/><path d="M20 20.3c0 .696-.613 1.26-1.37 1.26-.756 0-1.37-.564-1.37-1.26 0-.696.614-1.26 1.37-1.26.757 0 1.37.564 1.37 1.26zm0 0V14l-6.26 1.44v6.3m0 0c0 .696-.614 1.26-1.37 1.26-.757 0-1.37-.564-1.37-1.26 0-.696.613-1.26 1.37-1.26.756 0 1.37.564 1.37 1.26z" stroke-width="1.5" stroke-linecap="round" stroke-linejoin="round"/></svg>