<svg width="24" height="24" viewBox="0 0 24 24" xmlns="http://www.w3.org/2000/svg">
    <path fill-rule="evenodd" clip-rule="evenodd" d="M4 5.75C4 5.33579 4.33579 5 4.75 5H19.25C19.6642 5 20 5.33579 20 5.75C20 6.16421 19.6642 6.5 19.25 6.5H4.75C4.33579 6.5 4 6.16421 4 5.75ZM4 12C4 11.5858 4.33579 11.25 4.75 11.25H19.25C19.6642 11.25 20 11.5858 20 12C20 12.4142 19.6642 12.75 19.25 12.75H4.75C4.33579 12.75 4 12.4142 4 12ZM4 18.25C4 17.8358 4.33579 17.5 4.75 17.5H19.25C19.6642 17.5 20 17.8358 20 18.25C20 18.6642 19.6642 19 19.25 19H4.75C4.33579 19 4 18.6642 4 18.25Z"/>
</svg>
