<svg xmlns="http://www.w3.org/2000/svg" viewBox="0 0 32 32" fill="none"><path class="st0" d="M26 10.2V26c0 1.1-.9 2-2 2H8c-1.1 0-2-.9-2-2V6c0-1.1.9-2 2-2h11.4m6.6 6.2L19.4 4m6.6 6.2h-6.6V4"/><path class="st3" d="M19.3 14c0 1.1 1.9 5.3 1.9 5.3s2-4.2 2-5.3"/><path class="st4" d="M12.7 15.8s-.2-1.3-1.7-1.3-2 1.2-2 2.2c0 1 .5 2.3 2.1 2.3s1.7-1.2 1.7-1.4"/><path class="st4" d="M17.9 15.6s-.2-1.1-1.7-1.1-1.6 1-1.6 1.1c0 .1-.1 1 1.6 1.2 1.6.1 1.6 1 1.6 1.1 0 .2 0 1.2-1.6 1.2-1.4 0-1.6-1.1-1.6-1.1"/></svg>
