<svg width="20" height="20" viewBox="0 0 20 20" xmlns="http://www.w3.org/2000/svg">
    <path fill-rule="evenodd" clip-rule="evenodd" d="M9.25 3.5C8.55962 3.5 8 4.05964 8 4.75V15C8 16.6569 6.65685 18 5 18C3.34315 18 2 16.6569 2 15C2 13.3431 3.34315 12 5 12C5.54643 12 6.05874 12.1461 6.5 12.4013V4.75C6.5 3.23122 7.73118 2 9.25 2H15.25C16.7688 2 18 3.23122 18 4.75V12C18 13.6569 16.6569 15 15 15C13.3431 15 12 13.6569 12 12C12 10.3431 13.3431 9 15 9C15.5464 9 16.0587 9.14609 16.5 9.40135V4.75C16.5 4.05964 15.9404 3.5 15.25 3.5H9.25ZM16.5 12C16.5 11.1716 15.8284 10.5 15 10.5C14.1716 10.5 13.5 11.1716 13.5 12C13.5 12.8284 14.1716 13.5 15 13.5C15.8284 13.5 16.5 12.8284 16.5 12ZM6.5 15C6.5 14.1716 5.82843 13.5 5 13.5C4.17157 13.5 3.5 14.1716 3.5 15C3.5 15.8284 4.17157 16.5 5 16.5C5.82843 16.5 6.5 15.8284 6.5 15Z"/>
</svg>
