<svg width="24" height="24" viewBox="0 0 24 24" xmlns="http://www.w3.org/2000/svg">
    <path fill-rule="evenodd" clip-rule="evenodd" d="M12.25 4.75C12.25 4.33579 12.5858 4 13 4H17.75C18.2824 4 18.8202 4.18243 19.2371 4.50723C19.6595 4.83637 20 5.35117 20 6V18C20 18.6488 19.6595 19.1636 19.2371 19.4928C18.8202 19.8176 18.2824 20 17.75 20H12.6667C12.2525 20 11.9167 19.6642 11.9167 19.25C11.9167 18.8358 12.2525 18.5 12.6667 18.5H17.75C17.954 18.5 18.1662 18.4256 18.3152 18.3095C18.4586 18.1977 18.5 18.0875 18.5 18V6C18.5 5.91245 18.4586 5.80225 18.3152 5.69049C18.1662 5.57438 17.954 5.5 17.75 5.5H13C12.5858 5.5 12.25 5.16421 12.25 4.75ZM10.1054 8.25252C10.3802 7.94254 10.8542 7.91399 11.1641 8.18874L14.8308 11.4387C14.9914 11.5811 15.0833 11.7854 15.0833 12C15.0833 12.2146 14.9914 12.4189 14.8308 12.5613L11.1641 15.8113C10.8542 16.086 10.3802 16.0575 10.1054 15.7475C9.83066 15.4375 9.85921 14.9635 10.1692 14.6887L12.3565 12.75H4.75C4.33579 12.75 4 12.4142 4 12C4 11.5858 4.33579 11.25 4.75 11.25H12.3565L10.1692 9.31126C9.85921 9.03651 9.83066 8.5625 10.1054 8.25252Z"/>
</svg>
