<svg width="24" height="24" viewBox="0 0 24 24" xmlns="http://www.w3.org/2000/svg">
    <path d="M4.75 20C4.56 20 4.37 19.93 4.22 19.78C3.93 19.49 3.93 19.01 4.22 18.72L18.72 4.22C19.01 3.93 19.49 3.93 19.78 4.22C20.07 4.51 20.07 4.99 19.78 5.28L18 7.06V11.76L19.75 14.24C20.13 14.78 20.18 15.47 19.87 16.06C19.57 16.64 18.97 17 18.32 17H15.74C15.63 18.16 14.76 20 12 20C9.24 20 8.37 18.16 8.26 17H8.06L5.28 19.78C5.13 19.93 4.94 20 4.75 20ZM9.78 17C9.87 17.52 10.28 18.5 12 18.5C13.73 18.5 14.13 17.52 14.22 17H9.78ZM9.56 15.5H18.32C18.45 15.5 18.52 15.42 18.54 15.37C18.57 15.32 18.6 15.22 18.52 15.11L16.63 12.44C16.55 12.31 16.5 12.15 16.5 12V8.56L9.56 15.5ZM4.75 14.88C4.57 14.88 4.38 14.81 4.24 14.68C3.94 14.4 3.92 13.92 4.21 13.62L6 11.7V10C6 6.69 8.69 4 12 4C12.18 4 13.82 4.02 14.93 4.58C15.3 4.77 15.45 5.22 15.26 5.59C15.07 5.96 14.62 6.11 14.25 5.92C13.58 5.58 12.4 5.5 12 5.5C9.52 5.5 7.5 7.52 7.5 10V12C7.5 12.19 7.43 12.38 7.3 12.51L5.3 14.63C5.15 14.8 4.95 14.88 4.75 14.88Z"/>
</svg>
