<svg width="24" height="24" viewBox="0 0 24 24" xmlns="http://www.w3.org/2000/svg">
    <path fill-rule="evenodd" clip-rule="evenodd" d="M15.2197 5.21961C14.9864 5.45291 14.933 5.81129 15.0881 6.1025C15.5018 6.87933 15.5011 7.63676 15.5001 8.81756C15.5001 8.87727 15.5 8.93807 15.5 9C15.5 12.5899 12.5899 15.5 9.00002 15.5C8.93829 15.5 8.8777 15.5 8.81818 15.5001C7.63711 15.5011 6.87957 15.5018 6.10259 15.0879C5.81138 14.9328 5.453 14.9863 5.21969 15.2196C4.98639 15.4529 4.93295 15.8112 5.08805 16.1025C6.45592 18.6708 8.99069 20 12 20C16.4183 20 20 16.4182 20 12C20 8.99069 18.6709 6.45581 16.1026 5.08796C15.8114 4.93286 15.453 4.9863 15.2197 5.21961ZM16.9833 7.6437C17.9747 8.74932 18.5 10.2402 18.5 12C18.5 15.5898 15.5899 18.5 12 18.5C10.2402 18.5 8.74943 17.9747 7.64382 16.9832C8.00914 17.0034 8.37211 17.002 8.73146 17.0007C8.82121 17.0003 8.91074 17 9.00002 17C13.4183 17 17 13.4183 17 9C17 8.9106 17.0004 8.82095 17.0007 8.73107C17.0021 8.37182 17.0034 8.00894 16.9833 7.6437Z"/>
    <path fill-rule="evenodd" clip-rule="evenodd" d="M6.50002 7.99999H9.50002L9.56416 8.00406L9.6498 8.02281L9.73254 8.05726L9.77932 8.08521L9.83955 8.13289L9.88695 8.18328L9.92983 8.24426L9.95337 8.28887L9.97589 8.3461L9.98915 8.39628L9.99686 8.44352L10 8.49999L9.99642 8.56025L9.98084 8.63764L9.94091 8.73601L9.90002 8.79999L7.49978 11.9993L9.50002 12C9.77616 12 10 12.2239 10 12.5C10 12.7455 9.82314 12.9496 9.58989 12.992L9.50002 13L6.49244 12.9995L6.42437 12.9944C6.4117 12.9925 6.39901 12.99 6.38667 12.9871L6.30284 12.9597L6.23928 12.9268L6.20002 12.9C6.17231 12.8793 6.14738 12.8562 6.12529 12.8312L6.07555 12.7645L6.04768 12.7134L6.01474 12.6206L6.00129 12.5358L6.00059 12.475L6.00332 12.4423L6.01884 12.3636L6.05254 12.2768L6.10002 12.2L8.49978 8.9993L6.50002 8.99999C6.22387 8.99999 6.00002 8.77613 6.00002 8.49999C6.00002 8.25453 6.17689 8.05038 6.41014 8.00804L6.50002 7.99999ZM6.42437 12.9944L6.47424 12.9994C6.45738 12.9985 6.44075 12.9968 6.42437 12.9944ZM6.47584 12.9995H6.49244L6.50002 13C6.49191 13 6.48385 12.9998 6.47584 12.9995Z"/>
    <path fill-rule="evenodd" clip-rule="evenodd" d="M11 4.49999C11 4.22385 11.2239 3.99999 11.5 3.99999H13.5C13.7762 3.99999 14 4.22385 14 4.49999C14 4.77613 13.7762 4.99999 13.5 4.99999H11.5C11.2239 4.99999 11 4.77613 11 4.49999Z"/>
    <path fill-rule="evenodd" clip-rule="evenodd" d="M11 7.49999C11 7.22385 11.2239 6.99999 11.5 6.99999H13.5C13.7762 6.99999 14 7.22385 14 7.49999C14 7.77613 13.7762 7.99999 13.5 7.99999H11.5C11.2239 7.99999 11 7.77613 11 7.49999Z"/>
    <path fill-rule="evenodd" clip-rule="evenodd" d="M13.7774 4.08397C14.0071 4.23714 14.0692 4.54758 13.916 4.77734L11.916 7.77734C11.7629 8.00711 11.4524 8.06919 11.2227 7.91602C10.9929 7.76284 10.9308 7.45241 11.084 7.22264L13.084 4.22264C13.2372 3.99288 13.5476 3.93079 13.7774 4.08397Z"/>
</svg>
