<svg xmlns="http://www.w3.org/2000/svg" viewBox="0 0 32 32"><path d="M20.29 11.29a.996.996 0 0 1 1.41 0l4 4c.03.03.06.06.08.09l.02.02c.02.02.03.05.05.07.01.01.01.02.02.04l.03.06c.01.02.02.03.02.05.01.02.02.04.02.06 0 .01.01.03.01.05.01.02.01.04.02.07 0 .02.01.03.01.05.02.05.02.1.02.15v-.09V16.08c0 .02 0 .04-.01.06 0 .02-.01.03-.01.05 0 .02-.01.04-.02.07 0 .02-.01.03-.01.05-.01.02-.01.04-.02.06-.01.02-.01.04-.02.05l-.03.06c-.01.01-.01.02-.02.04-.02.03-.03.05-.05.07-.03.04-.06.08-.1.11l.08-.09s0 .01-.01.01l-.07.08-4 4a.996.996 0 1 1-1.41-1.41L22.58 17H13c-.51 0-.94-.39-.99-.88L12 16c0-.55.45-1 1-1h9.58l-2.29-2.29a.995.995 0 0 1-.08-1.32l.08-.1zM23 3c1.1 0 2 .9 2 2v3.2c0 .55-.45 1-1 1s-1-.45-1-1V5H9v22h14v-3.2c0-.55.45-1 1-1s1 .45 1 1V27c0 1.1-.9 2-2 2H9c-1.1 0-2-.9-2-2V5c0-1.1.9-2 2-2h14z"/></svg>