<svg width="32" height="32" viewBox="0 0 32 32" xmlns="http://www.w3.org/2000/svg">
  <path d="M10.579 7.25a3.722 3.722 0 100 7.444 3.722 3.722 0 000-7.444zm-2.222 3.722a2.222 2.222 0 114.443 0 2.222 2.222 0 01-4.443 0zm2.222 5.193a6.694 6.694 0 00-6.694 6.694c0 .785.34 1.513.57 1.927.306.549.879.804 1.416.804h9.414c.537 0 1.108-.254 1.415-.802.232-.414.572-1.142.572-1.929a6.694 6.694 0 00-6.693-6.694zM5.385 22.86a5.194 5.194 0 0110.387 0c0 .396-.187.85-.381 1.196-.001.003-.005.009-.02.017a.186.186 0 01-.086.018H5.871c-.04 0-.07-.01-.086-.018-.015-.008-.019-.014-.02-.017-.194-.347-.38-.8-.38-1.196zm10.997-11.888a3.722 3.722 0 117.443 0 3.722 3.722 0 01-7.443 0zm3.722-2.222a2.222 2.222 0 100 4.444 2.222 2.222 0 000-4.444z"/>
  <path d="M20.104 16.165c-.741 0-1.798.19-2.453.407l-1.174.388.887.862c.831.807 1.342 2.108 1.534 3.462.193 1.369.035 2.602-.274 3.221l-.542 1.085h6.73c.539 0 1.107-.256 1.413-.802.231-.414.572-1.142.572-1.929a6.694 6.694 0 00-6.693-6.694zm.279 4.91c-.16-1.128-.524-2.326-1.165-3.328.32-.05.636-.082.886-.082a5.194 5.194 0 015.193 5.194c0 .396-.187.85-.381 1.196-.002.004-.006.01-.02.017a.18.18 0 01-.084.018h-4.485c.187-.894.204-1.968.056-3.016z"/>
</svg>
