<svg width="32" height="32" viewBox="0 0 32 32" xmlns="http://www.w3.org/2000/svg">
    <path d="M4.27036 4.27036C4.63085 3.90988 5.21531 3.90988 5.57579 4.27036L16 14.6946L26.4242 4.27036C26.7847 3.90988 27.3692 3.90988 27.7296 4.27036C28.0901 4.63085 28.0901 5.21531 27.7296 5.57579L17.3054 16L27.7296 26.4242C28.0901 26.7847 28.0901 27.3692 27.7296 27.7296C27.3692 28.0901 26.7847 28.0901 26.4242 27.7296L16 17.3054L5.57579 27.7296C5.21531 28.0901 4.63085 28.0901 4.27036 27.7296C3.90988 27.3692 3.90988 26.7847 4.27036 26.4242L14.6946 16L4.27036 5.57579C3.90988 5.21531 3.90988 4.63085 4.27036 4.27036Z"/>
</svg>
