<svg width="24" height="24" viewBox="0 0 24 24" xmlns="http://www.w3.org/2000/svg">
    <path fill-rule="evenodd" clip-rule="evenodd" d="M17.25 7C17.6642 7 18 7.33579 18 7.75V9.25C18 10.2165 17.2165 11 16.25 11H14.75C14.3358 11 14 10.6642 14 10.25C14 9.83579 14.3358 9.5 14.75 9.5H16.25C16.388 9.5 16.5 9.38808 16.5 9.25V7.75C16.5 7.33579 16.8358 7 17.25 7ZM11.75 9C12.1642 9 12.5 9.33579 12.5 9.75V11.7165L13.7105 12.658C14.0374 12.9123 14.0963 13.3835 13.842 13.7105C13.5877 14.0374 13.1165 14.0963 12.7895 13.842L11 12.4501V9.75C11 9.33579 11.3358 9 11.75 9Z"/>
    <path fill-rule="evenodd" clip-rule="evenodd" d="M12 7.5C9.63048 7.5 7.5 9.43618 7.5 12C7.5 14.5638 9.63048 16.5 12 16.5C13.2786 16.5 14.4984 15.933 15.3462 14.9966C15.6242 14.6896 16.0985 14.666 16.4056 14.944C16.7126 15.222 16.7362 15.6963 16.4582 16.0034C15.3383 17.2402 13.7202 18 12 18C8.84667 18 6 15.4362 6 12C6 8.56382 8.84667 6 12 6C14.1962 6 16.2306 7.23826 17.2724 9.13961C17.4714 9.50287 17.3383 9.9587 16.975 10.1577C16.6117 10.3568 16.1559 10.2236 15.9569 9.86039C15.1728 8.4294 13.6369 7.5 12 7.5Z"/>
</svg>
