<svg width="24" height="24" viewBox="0 0 24 24" xmlns="http://www.w3.org/2000/svg">
    <path fill-rule="evenodd" clip-rule="evenodd" d="M10.0511 6.32367C10.6622 6.11392 11.3178 6.00006 12 6.00006C15.3137 6.00006 18 8.68635 18 12.0001C18 12.6681 17.8908 13.3106 17.6894 13.9107C18.5818 15.0827 19.2739 16.1737 19.6765 17.0752C19.8821 17.5358 20.0315 17.9887 20.0735 18.4016C20.1145 18.8037 20.0644 19.3088 19.688 19.6852C19.4074 19.9658 19.0498 20.0657 18.7288 20.0807C18.4135 20.0955 18.0833 20.0328 17.7639 19.9351C17.1235 19.7391 16.3696 19.3528 15.5616 18.8414C15.0453 18.5147 14.4926 18.1275 13.9152 17.6879C13.3137 17.8903 12.6697 18.0001 12 18.0001C8.68628 18.0001 5.99999 15.3138 5.99999 12.0001C5.99999 11.3162 6.11441 10.659 6.32516 10.0466C5.95005 9.54454 5.6162 9.06259 5.32898 8.60882C4.81758 7.80086 4.43127 7.04689 4.23535 6.40654C4.1376 6.08708 4.07489 5.75689 4.08968 5.44159C4.10474 5.12057 4.20462 4.76299 4.48519 4.48243C4.85277 4.11484 5.34377 4.05862 5.73871 4.09402C6.14208 4.13018 6.58276 4.27052 7.0289 4.4647C7.89177 4.84026 8.93194 5.4874 10.0511 6.32367ZM7.09176 8.5482C7.49068 7.98202 7.98507 7.48796 8.55154 7.08943C7.72982 6.51376 7.00791 6.09149 6.43027 5.84008C6.05453 5.67654 5.78139 5.60386 5.60479 5.58803C5.59952 5.58756 5.59443 5.58714 5.58953 5.58677C5.59578 5.67261 5.61769 5.79765 5.66971 5.96767C5.80911 6.42327 6.11585 7.04732 6.59643 7.80659C6.74699 8.04446 6.91239 8.29215 7.09176 8.5482ZM7.52221 11.55C7.50751 11.698 7.49999 11.8482 7.49999 12.0001C7.49999 14.4853 9.51471 16.5001 12 16.5001C12.1426 16.5001 12.2836 16.4934 12.4228 16.4805C11.6206 15.7946 10.793 15.0297 9.96685 14.2036C9.07275 13.3095 8.25025 12.4136 7.52221 11.55ZM14.1414 15.9589C13.1525 15.1601 12.0935 14.2089 11.0275 13.1429C9.89096 12.0064 8.88487 10.8777 8.05491 9.83351C8.82041 8.44257 10.3001 7.50006 12 7.50006C14.4853 7.50006 16.5 9.51478 16.5 12.0001C16.5 13.7101 15.5461 15.1974 14.1414 15.9589ZM15.4166 16.9329C15.7461 17.1692 16.0628 17.3835 16.3638 17.574C17.1231 18.0546 17.7471 18.3613 18.2027 18.5007C18.3728 18.5527 18.4978 18.5746 18.5837 18.5809C18.583 18.5724 18.5822 18.5633 18.5812 18.5536C18.5621 18.3659 18.4818 18.0786 18.3068 17.6868C18.0307 17.0685 17.5663 16.2932 16.9352 15.4133C16.5243 16.0063 16.0093 16.5216 15.4166 16.9329Z"/>
</svg>
