<svg width="32" height="32" viewBox="0 0 32 32" fill="none" xmlns="http://www.w3.org/2000/svg"><path d="M12 7.974h6M22 8h3.333C26.806 8 28 9.12 28 10.5M8 8H6.667C5.194 8 4 9.12 4 10.5v15C4 26.88 5.194 28 6.667 28H16m-4-18V4m10 6V4" stroke-width="1.5" stroke-linecap="round"/><path fill-rule="evenodd" clip-rule="evenodd" d="M26.6 15L21 22.778h3.2L23.4 29l5.6-7.778h-3.2L26.6 15z" stroke-width="1.5" stroke-linecap="round" stroke-linejoin="round"/><path d="M18.008 14H18" stroke-width="2" stroke-linecap="round" stroke-linejoin="round"/><path d="M22.008 14H22" stroke-width="2" stroke-linecap="round" stroke-linejoin="round"/><path d="M18.008 18H18" stroke-width="2" stroke-linecap="round" stroke-linejoin="round"/><path d="M14.008 18H14" stroke-width="2" stroke-linecap="round" stroke-linejoin="round"/><path d="M10.008 18H10" stroke-width="2" stroke-linecap="round" stroke-linejoin="round"/><path d="M10.008 22H10" stroke-width="2" stroke-linecap="round" stroke-linejoin="round"/><path d="M14.008 22H14" stroke-width="2" stroke-linecap="round" stroke-linejoin="round"/></svg>
