<svg width="24" height="24" viewBox="0 0 24 24" xmlns="http://www.w3.org/2000/svg">
    <path fill-rule="evenodd" clip-rule="evenodd" d="M12 5.5C10.3432 5.5 9.00002 6.84315 9.00002 8.5C9.00002 10.1569 10.3432 11.5 12 11.5C13.6569 11.5 15 10.1569 15 8.5C15 6.84315 13.6569 5.5 12 5.5ZM7.50002 8.5C7.50002 6.01472 9.51474 4 12 4C14.4853 4 16.5 6.01472 16.5 8.5C16.5 10.9853 14.4853 13 12 13C9.51474 13 7.50002 10.9853 7.50002 8.5ZM12 16C8.22976 16 5.97292 17.953 5.46153 19.4872C5.33055 19.8801 4.90581 20.0925 4.51285 19.9615C4.11989 19.8305 3.90752 19.4058 4.03851 19.0128C4.80734 16.7064 7.77028 14.5 12 14.5C16.2298 14.5 19.1927 16.7064 19.9615 19.0128C20.0925 19.4058 19.8801 19.8305 19.4872 19.9615C19.0942 20.0925 18.6695 19.8801 18.5385 19.4872C18.0271 17.953 15.7703 16 12 16Z"/>
</svg>
