<svg width="24" height="24" viewBox="0 0 24 24" xmlns="http://www.w3.org/2000/svg">
    <path fill-rule="evenodd" clip-rule="evenodd" d="M12 4C12.2064 4 12.4036 4.08502 12.5453 4.23503L16.7953 8.73503C17.0797 9.03617 17.0661 9.51085 16.765 9.79526C16.4638 10.0797 15.9892 10.0661 15.7047 9.76497L12 5.8423L8.29526 9.76497C8.01085 10.0661 7.53617 10.0797 7.23503 9.79526C6.9339 9.51085 6.92033 9.03617 7.20474 8.73503L11.4547 4.23503C11.5964 4.08502 11.7937 4 12 4ZM7.23503 14.2047C7.53617 13.9203 8.01085 13.9339 8.29526 14.235L12 18.1577L15.7047 14.235C15.9892 13.9339 16.4638 13.9203 16.765 14.2047C17.0661 14.4891 17.0797 14.9638 16.7953 15.265L12.5453 19.765C12.4036 19.915 12.2063 20 12 20C11.7937 20 11.5964 19.915 11.4547 19.765L7.20474 15.265C6.92033 14.9638 6.9339 14.4891 7.23503 14.2047Z"/>
</svg>
