<svg width="24" height="24" viewBox="0 0 24 24" fill="none" xmlns="http://www.w3.org/2000/svg">
<path d="M4 6.75C4 5.23122 5.23122 4 6.75 4H8.25C8.66421 4 9 4.33579 9 4.75C9 5.16421 8.66421 5.5 8.25 5.5H6.75C6.05964 5.5 5.5 6.05964 5.5 6.75V17.25C5.5 17.9404 6.05964 18.5 6.75 18.5H17.25C17.9404 18.5 18.5 17.9404 18.5 17.25V15.75C18.5 15.3358 18.8358 15 19.25 15C19.6642 15 20 15.3358 20 15.75V17.25C20 18.7688 18.7688 20 17.25 20H6.75C5.23122 20 4 18.7688 4 17.25V6.75Z" fill="#111010"/>
<path d="M13 4.75C13 4.33579 13.3358 4 13.75 4H19.25C19.6642 4 20 4.33579 20 4.75V10.25C20 10.6642 19.6642 11 19.25 11C18.8358 11 18.5 10.6642 18.5 10.25V6.56066L13.2803 11.7803C12.9874 12.0732 12.5126 12.0732 12.2197 11.7803C11.9268 11.4874 11.9268 11.0126 12.2197 10.7197L14.8295 8.10983L17.4393 5.5H13.75C13.3358 5.5 13 5.16421 13 4.75Z" fill="#111010"/>
</svg>
