<svg width="20" height="20" viewBox="0 0 20 20" xmlns="http://www.w3.org/2000/svg">
    <path fill-rule="evenodd" clip-rule="evenodd" d="M7 5.75C7 4.7835 7.7835 4 8.75 4H11.25C12.2165 4 13 4.7835 13 5.75V7H15.25C15.6642 7 16 7.33579 16 7.75C16 8.16421 15.6642 8.5 15.25 8.5H14V13.25C14 14.7688 12.7688 16 11.25 16H8.75C7.23122 16 6 14.7688 6 13.25V8.5H4.75C4.33579 8.5 4 8.16421 4 7.75C4 7.33579 4.33579 7 4.75 7H7V5.75ZM7.5 8.75V13.25C7.5 13.9404 8.05964 14.5 8.75 14.5H11.25C11.9404 14.5 12.5 13.9404 12.5 13.25V8.75H7.5ZM8.75 5.5C8.61193 5.5 8.5 5.61193 8.5 5.75V7H11.5V5.75C11.5 5.61193 11.3881 5.5 11.25 5.5H8.75Z"/>
</svg>
