<svg width="24" height="24" viewBox="0 0 24 24" xmlns="http://www.w3.org/2000/svg">
    <path fill-rule="evenodd" clip-rule="evenodd" d="M15.8741 5.33397C16.1038 5.67862 16.0107 6.14427 15.666 6.37404L11.166 9.37404C10.8214 9.6038 10.3557 9.51067 10.126 9.16603C9.89621 8.82138 9.98935 8.35573 10.334 8.12596L14.834 5.12596C15.1786 4.8962 15.6443 4.98933 15.8741 5.33397Z"/>
    <path fill-rule="evenodd" clip-rule="evenodd" d="M10.126 14.834C10.3557 14.4893 10.8214 14.3962 11.166 14.626L15.666 17.626C16.0107 17.8557 16.1038 18.3214 15.8741 18.666C15.6443 19.0107 15.1786 19.1038 14.834 18.874L10.334 15.874C9.98935 15.6443 9.89621 15.1786 10.126 14.834Z"/>
    <path fill-rule="evenodd" clip-rule="evenodd" d="M11 12C11 11.5858 11.3358 11.25 11.75 11.25H15.25C15.6642 11.25 16 11.5858 16 12C16 12.4142 15.6642 12.75 15.25 12.75H11.75C11.3358 12.75 11 12.4142 11 12Z"/>
    <path fill-rule="evenodd" clip-rule="evenodd" d="M12 9.75V14.25C12 15.2165 11.2165 16 10.25 16H5.74982C4.7833 16 3.99982 15.2165 3.99982 14.25L3.99982 9.75C3.99982 8.78349 4.7833 8 5.74982 8L10.25 8C11.2165 8 12 8.78349 12 9.75ZM10.5 14.25V9.75C10.5 9.61191 10.3881 9.5 10.25 9.5L5.74982 9.5C5.61173 9.5 5.49982 9.61191 5.49982 9.75L5.49982 14.25C5.49982 14.3881 5.61173 14.5 5.74982 14.5H10.25C10.3881 14.5 10.5 14.3881 10.5 14.25Z"/>
    <path fill-rule="evenodd" clip-rule="evenodd" d="M17 4.75C17 4.33579 17.3358 4 17.75 4H19.25C19.6642 4 20 4.33579 20 4.75V6.25C20 6.66421 19.6642 7 19.25 7H17.75C17.3358 7 17 6.66421 17 6.25V4.75Z"/>
    <path fill-rule="evenodd" clip-rule="evenodd" d="M17 17.75C17 17.3358 17.3358 17 17.75 17H19.25C19.6642 17 20 17.3358 20 17.75V19.25C20 19.6642 19.6642 20 19.25 20H17.75C17.3358 20 17 19.6642 17 19.25V17.75Z"/>
    <path fill-rule="evenodd" clip-rule="evenodd" d="M17 11.25C17 10.8358 17.3358 10.5 17.75 10.5H19.25C19.6642 10.5 20 10.8358 20 11.25V12.75C20 13.1642 19.6642 13.5 19.25 13.5H17.75C17.3358 13.5 17 13.1642 17 12.75V11.25Z"/>
</svg>
