<svg width="32" height="32" viewBox="0 0 32 32" xmlns="http://www.w3.org/2000/svg">
    <path d="M16.9698 20.2817C16.9698 20.8337 16.5223 21.2811 15.9704 21.2811C15.4184 21.2811 14.971 20.8337 14.971 20.2817C14.971 19.7297 15.4184 19.2823 15.9704 19.2823C16.5223 19.2823 16.9698 19.7297 16.9698 20.2817Z" />
    <path d="M15.9687 10.6375C15.5555 10.6375 15.2204 10.9731 15.2204 11.387V16.8837C15.2204 17.2977 15.5555 17.6333 15.9687 17.6333C16.382 17.6333 16.7171 17.2977 16.7171 16.8837V11.387C16.7171 10.9731 16.382 10.6375 15.9687 10.6375Z" />
    <path fill-rule="evenodd" clip-rule="evenodd"  d="M17.4122 4.58495C16.6323 3.80502 15.3677 3.80502 14.5878 4.58495L4.58495 14.5878C3.80502 15.3677 3.80502 16.6323 4.58495 17.4122L14.5878 27.415C15.3677 28.195 16.6323 28.195 17.4122 27.4151L27.415 17.4122C28.195 16.6323 28.195 15.3677 27.4151 14.5878L17.4122 4.58495ZM26.709 15.2939L16.7061 5.29105C16.3161 4.90108 15.6839 4.90108 15.2939 5.29105L5.29105 15.2939C4.90108 15.6839 4.90108 16.3161 5.29105 16.7061L15.2939 26.709C15.6839 27.0989 16.3161 27.0989 16.7061 26.709L26.7089 16.7061C27.0989 16.3161 27.0989 15.6839 26.709 15.2939Z" />
</svg>
