<svg width="24" height="16" viewBox="0 0 24 16" 
    xmlns="http://www.w3.org/2000/svg">
    <g id="First-Time-Experience" fill="none" fill-rule="evenodd">
        <g id="3---LOCKED-Assistant---Last-Created-Groups-/-Crawling-in-progress" transform="translate(-630.000000, -153.000000)" fill-rule="nonzero">
            <g id="Onboarding-Entrance-Copy" transform="translate(606.000000, 124.000000)">
                <path fill="#FFF" d="M47.7866714,30.0903742 C47.6533587,29.9966244 47.4824521,29.9736558 47.3291705,30.0303275 L43.2530063,31.5127448 C42.747646,31.6963536 42.3452702,32.0664774 42.120176,32.5547259 C42.0779884,32.6462725 42.0502852,32.7413816 42.0225352,32.8363501 C41.3225963,32.6373663 40.0218125,32.2217738 38.7290913,31.555729 C36.7756656,30.5491852 35.2833033,31.04634 34.003332,32.0226494 C33.3547683,32.0353994 32.4608603,32.1120867 31.5821398,32.1895239 C31.0216075,32.2389769 30.491872,32.2844924 30.0623087,32.3106954 C30.0517618,32.0526962 29.9913867,31.7966658 29.8800115,31.5547915 C29.6549173,31.0664961 29.2525884,30.6963723 28.7471811,30.5128104 L24.6709232,29.0302993 C24.5181104,28.9741432 24.3462194,28.9971119 24.2134223,29.090346 C24.0795939,29.1841426 24,29.3369546 24,29.5000322 L24,39.4999857 C24,39.7763599 24.2236411,39.9999998 24.5000166,39.9999998 L25.960457,39.9999998 C26.5815988,39.9999998 27.1594749,39.707032 27.5330225,39.2339709 C27.7320073,39.385283 27.9676952,39.5624699 28.2148676,39.7480475 C28.7983687,40.1870305 29.4370419,40.6659978 29.717308,40.9008877 C31.5791398,42.4594766 33.8174254,44.1425651 34.2632075,44.435533 C34.6796927,44.708954 35.4296942,45 36.0000234,45 C36.2231489,45 36.7851812,45 37.1797289,44.6664854 C37.586464,44.8261412 38.0249336,44.8183599 38.4326532,44.6386417 C38.8393883,44.4594392 39.1684984,44.1215652 39.3598894,43.7108946 C39.7504995,43.7909569 40.1992348,43.7323633 40.6059699,43.5282702 C40.9872988,43.3373489 41.2680806,43.0482717 41.4184559,42.7103977 C41.7797691,42.7435851 42.1655511,42.6259292 42.5107393,42.3617425 C43.003959,41.9847281 43.2298032,41.4279485 43.1659124,40.878669 L44.4342118,40.1769993 C44.80565,40.6804821 45.3959949,40.9999342 46.039543,40.9999342 L47.4999834,40.9999342 C47.7763589,40.9999342 48,40.7762943 48,40.4999201 L48,30.5000604 C48.0000469,30.3369359 47.9204529,30.1841239 47.7866714,30.0903742 Z M26.8969744,38.351083 C26.7514741,38.7392537 26.3750203,39.0000185 25.960457,39.0000185 L24.9999863,39.0000185 L24.9999863,30.2138894 L28.4052742,31.4521825 C28.6582122,31.544479 28.8594001,31.729541 28.971666,31.9736652 C29.0844474,32.2177895 29.0942443,32.4912574 28.9999785,32.7426941 L26.8969744,38.351083 Z M41.9038475,41.5674012 C41.734394,41.6972914 41.4971123,41.7695725 41.3916433,41.664104 C41.3862527,41.6587134 41.3779089,41.6592291 41.3723777,41.6540728 C41.3628151,41.6452135 41.3580808,41.6332604 41.3477214,41.6250104 C40.9902988,41.3427769 39.3887175,39.7041257 38.3989969,38.6718945 C38.2080746,38.4722077 37.891199,38.4648483 37.6924486,38.656754 C37.4927607,38.8476752 37.485917,39.1640805 37.677308,39.3632987 C37.9096209,39.6057823 39.7744995,41.5480419 40.5208916,42.2273054 C40.4651571,42.4468673 40.2616255,42.5824293 40.1582659,42.6342729 C39.8379684,42.7949131 39.5039834,42.7680538 39.3789675,42.651851 C39.3752644,42.6483823 39.3697331,42.6485698 39.3658894,42.6451948 C39.3597956,42.6397573 39.3570769,42.6321167 39.3506081,42.6269605 C38.7509819,42.1479463 37.2466196,40.5493262 36.9062596,40.1792024 C36.719228,39.975578 36.4033367,39.9628749 36.1997113,40.1494369 C35.9966015,40.3364675 35.982914,40.6528728 36.1699456,40.8559815 C36.1863519,40.8737471 37.6606673,42.4640703 38.4887158,43.2027712 C38.4073406,43.436583 38.2415434,43.630223 38.0288243,43.7241133 C37.8718396,43.7938631 37.6263079,43.8296286 37.3457604,43.6223011 C36.6277278,43.0134905 35.1867406,41.4796046 34.9033338,41.1762774 C34.7153647,40.9741062 34.3979734,40.9638875 34.1967855,41.1523713 C33.9951289,41.340855 33.9843945,41.6572603 34.1728792,41.8589159 C34.5088799,42.2185398 35.5020225,43.2711616 36.2569927,43.9838938 C36.1726644,43.9941594 36.0841173,44.0000187 36.0000234,44.0000187 C35.6689447,44.0000187 35.1001154,43.7886131 34.8125367,43.5996137 C34.4619579,43.36913 32.2607505,41.7265882 30.3598718,40.134765 C30.0722931,39.893547 29.4160418,39.3999079 28.8154313,38.9487374 C28.49354,38.7070976 28.1969613,38.4843014 27.9783828,38.3161613 L29.8504802,33.3232392 C30.3364342,33.3020049 30.9842949,33.2459894 31.6699368,33.1855209 C32.0577345,33.1513491 32.445954,33.1180211 32.8169235,33.0891461 C32.2467348,33.6744725 31.3989988,34.7228286 31.510749,35.7055131 C31.5620304,36.1527929 31.8066715,36.5253543 32.219266,36.783166 C33.0361583,37.2943832 34.5483956,36.8656657 35.2768814,35.9696998 C35.7470854,35.901825 36.0649923,35.7817316 36.4116336,35.6098415 C36.9975722,36.160621 37.7831988,36.8081034 38.6084348,37.4882576 C40.0449688,38.6718477 41.6733626,40.0136404 42.104051,40.7660756 C42.3437702,41.1845743 42.0112852,41.4853702 41.9038475,41.5674012 Z M42.7616148,39.9594062 C42.095426,39.0682214 40.6512981,37.8758657 39.2441548,36.7163224 C38.3061842,35.9433561 37.4204325,35.213374 36.8535251,34.6465163 C36.6972904,34.4912199 36.4575243,34.4560638 36.2641646,34.5590947 C35.7548667,34.832047 35.5254131,34.9448279 34.9502089,35.0024371 C34.7968805,35.0180464 34.6592083,35.1030306 34.5771769,35.2333895 C34.1850668,35.8554657 33.0952209,36.1513398 32.7495171,35.935528 C32.5532042,35.8124815 32.5151416,35.6874663 32.5044072,35.5922634 C32.456079,35.1669679 32.8867205,34.4306576 33.6010969,33.7158161 C35.3701628,31.9467591 36.6348059,31.6005882 38.2710279,32.4443356 C39.8255934,33.2458488 41.359862,33.6990349 42.0039258,33.8702219 C42.0225352,33.9451279 42.0360352,34.0207839 42.063504,34.0942368 L44.0049297,39.2716114 L42.7616148,39.9594062 Z M46.0395899,39.9999998 C45.6250266,39.9999998 45.2485727,39.739235 45.1030724,39.3510643 L43.0000215,33.743191 C42.9058025,33.4912387 42.9155526,33.2178176 43.028334,32.9736465 C43.1406467,32.7295223 43.3418346,32.5444603 43.5947258,32.4521637 L47.0000137,31.2138707 L47.0000137,39.9999998 L46.0395899,39.9999998 Z" id="Shape-Copy"/>
            </g>
        </g>
    </g>
</svg>
