<svg xmlns="http://www.w3.org/2000/svg" viewBox="0 0 24 24">
  <path fill="#FFFFFF" d="M23.8 5.1c-.1-.1-.3-.1-.5-.1l-4.1 1.5c-.5.2-.9.6-1.1 1 0 .1-.1.2-.1.3-.7-.2-2-.6-3.3-1.3-2-1-3.4-.5-4.7.5-.6 0-1.5.1-2.4.2-.6 0-1.1.1-1.5.1 0-.8-.6-1.5-1.3-1.8L.7 4c-.3-.1-.6.1-.7.3v10.2c0 .3.2.5.5.5H2c.6 0 1.2-.3 1.6-.8l.7.5c.6.4 1.2.9 1.5 1.2 1.9 1.6 4.1 3.2 4.5 3.5.4.3 1.2.6 1.7.6.2 0 .8 0 1.2-.3.4.2.8.2 1.3 0 .4-.2.7-.5.9-.9.4.1.8 0 1.2-.2.4-.2.7-.5.8-.8.4 0 .7-.1 1.1-.3.5-.4.7-.9.7-1.5l1.3-.7c.4.5 1 .8 1.6.8h1.5c.3 0 .5-.2.5-.5v-10c-.1-.3-.2-.4-.3-.5zM2.9 13.4c-.2.3-.5.6-.9.6H1V5.2l3.4 1.2c.3.1.5.3.6.6.1.2.1.5 0 .8l-2.1 5.6zm15 3.2c-.2.1-.4.2-.5.1-.4-.3-2-1.9-2.9-3-.2-.2-.5-.2-.7 0s-.2.5 0 .7c.2.2 2.1 2.2 2.8 2.9-.1.2-.3.4-.4.4-.3.2-.7.1-.8 0-.6-.5-2.1-2.1-2.4-2.4-.2-.2-.5-.2-.7 0s-.2.5 0 .7c0 0 1.5 1.6 2.3 2.3-.1.2-.2.4-.5.5-.2.1-.4.1-.7-.1-.7-.6-2.2-2.1-2.4-2.4-.2-.2-.5-.2-.7 0-.2.2-.2.5 0 .7.3.4 1.3 1.4 2.1 2.1h-.3c-.3 0-.9-.2-1.2-.4-.4-.2-2.6-1.9-4.5-3.5L4.9 14c-.3-.2-.6-.4-.8-.6l1.9-5c.6 0 1.2-.1 1.8-.1.4 0 .8-.1 1.1-.1-.6.6-1.4 1.6-1.3 2.6.1.4.3.8.7 1.1.8.5 2.3.1 3.1-.8.5-.1.8-.2 1.1-.4.6.6 1.4 1.2 2.2 1.9 1.4 1.2 3.1 2.5 3.5 3.3.1.3-.2.6-.3.7zm.9-1.6c-.7-.9-2.1-2.1-3.5-3.2-.9-.8-1.8-1.5-2.4-2.1-.2-.2-.4-.2-.6-.1-.5.3-.7.4-1.3.4-.2 0-.3.1-.4.2-.4.6-1.5.9-1.8.7-.2-.1-.2-.2-.2-.3 0-.4.4-1.2 1.1-1.9 1.8-1.8 3-2.1 4.7-1.3 1.1.6 2.3 1.1 3.6 1.5 0 .1 0 .1.1.2l1.9 5.2-1.2.7zm3.2 0c-.4 0-.8-.3-.9-.6L19 8.7c-.1-.2-.1-.5 0-.8.1-.2.3-.4.6-.5L23 6.2V15h-1z"/>
</svg>
