<svg width="16" height="17" xmlns="http://www.w3.org/2000/svg"><g id="Page-1" fill="none" fill-rule="evenodd"><g id="Groups-list_Dark" transform="translate(-104 -213)" fill="#a8afbd"><g id="Group-2" transform="translate(80 89)"><g id="Search" transform="translate(0 111)"><path d="M40 28.1375l-3.7938-3.7928c2.2726-2.7124 2.1362-6.7718-.4121-9.3202C34.489 13.7195 32.7536 13 30.9075 13c-1.8452 0-3.5808.7186-4.8866 2.0245-2.695 2.6951-2.694 7.0784 0 9.7732 1.305 1.305 3.0404 2.0245 4.8855 2.0245 1.5213 0 2.9667-.489 4.159-1.392l3.8205 3.8206L40 28.1375zm-12.8648-4.453c-2.0809-2.081-2.0809-5.4657 0-7.5468 1.0077-1.0076 2.3475-1.5622 3.7734-1.5622 1.426 0 2.7657.5546 3.7734 1.5633 2.081 2.0799 2.081 5.4647 0 7.5457-1.0077 1.0076-2.3475 1.5632-3.7734 1.5632-1.4259-.001-2.7657-.5556-3.7734-1.5632z" id="Fill-1" transform="matrix(-1 0 0 1 64 0)"/></g></g></g></g></svg>