<svg viewBox="0 0 32 32" xmlns="http://www.w3.org/2000/svg">
  <path d="M12 4.25a.75.75 0 01.75.75v2.293A.749.749 0 0113 7.25h5a.75.75 0 010 1.5h-5a.749.749 0 01-.25-.043V11a.75.75 0 01-1.5 0V5a.75.75 0 01.75-.75zm-6.25 6.125c0-.877.738-1.625 1.694-1.625h.853a.75.75 0 000-1.5h-.853c-1.743 0-3.194 1.379-3.194 3.125v14.25c0 1.746 1.45 3.125 3.194 3.125H18.14a.75.75 0 000-1.5H7.444c-.956 0-1.694-.748-1.694-1.625v-14.25zm17-1.625V11a.75.75 0 01-1.5 0V5a.75.75 0 011.5 0v2.25h1.806c1.743 0 3.194 1.379 3.194 3.125v1.781a.75.75 0 11-1.5 0v-1.781c0-.877-.738-1.625-1.694-1.625H22.75z"/>
  <path d="M28.344 16.593a.75.75 0 00-1.358-.523l-5.6 8A.75.75 0 0022 25.25h2.35l-.694 5.557a.75.75 0 001.358.523l5.6-8A.75.75 0 0030 22.15h-2.35l.694-5.557zM25.2 23.75h-1.76l3.04-4.343-.424 3.4a.75.75 0 00.744.843h1.76l-3.04 4.343.424-3.4a.75.75 0 00-.744-.843z"/>
  <path d="M9 22.5a1 1 0 112 0 1 1 0 01-2 0zm5-5a1 1 0 100 2 1 1 0 000-2zm-5 1a1 1 0 112 0 1 1 0 01-2 0zm9-1a1 1 0 100 2 1 1 0 000-2zm3-3a1 1 0 112 0 1 1 0 01-2 0zm-3-1a1 1 0 100 2 1 1 0 000-2z"/>
</svg>
