<?xml version="1.0" encoding="utf-8"?>
<!-- Generator: Adobe Illustrator 24.0.0, SVG Export Plug-In . SVG Version: 6.00 Build 0)  -->
<svg version="1.1" id="Layer_1" xmlns="http://www.w3.org/2000/svg" xmlns:xlink="http://www.w3.org/1999/xlink" x="0px" y="0px"
	 viewBox="0 0 970 258" width="480" height="128" enable-background="new 0 0 970 258" xml:space="preserve">
<g>
	<circle fill="#0E1C3D" cx="131.46881" cy="130.44812" r="39.49548"/>
	<path fill="#0E1C3D" d="M29.57275,153.81055c-1.18896-4.8252-6.06445-7.77441-10.89258-6.58398
		c-4.82617,1.18945-7.77393,6.06641-6.58398,10.89258c2.64062,10.70996,6.74219,21.01562,12.19141,30.63086
		c1.65674,2.92285,4.70215,4.56445,7.83838,4.56445c1.50342,0,3.02783-0.37793,4.4292-1.17188
		c4.32422-2.45117,5.84326-7.94336,3.39258-12.26758C35.31006,171.69141,31.81934,162.92188,29.57275,153.81055z"/>
	<path fill="#0E1C3D" d="M129.98633,7.55078c-27.78357,0-54.26465,9.40747-75.55219,26.36261
		c-3.1391-1.26996-6.52063-1.94391-9.9726-1.94153c-14.67145,0-26.56494,11.89355-26.56494,26.56494
		c0,14.67145,11.89349,26.56494,26.56494,26.56494c14.67139,0,26.56494-11.89349,26.56494-26.56494
		c0.00299-4.3418-1.06122-8.57294-3.04144-12.34833c17.7146-13.2948,39.35028-20.6377,62.00128-20.6377
		c57.02295,0,103.41455,46.3916,103.41455,103.41455c0,57.02393-46.3916,103.41553-103.41455,103.41553
		c-24.30566,0-47.9209-8.59766-66.49609-24.20996c-3.80469-3.19824-9.48242-2.70508-12.68018,1.09863
		c-3.19824,3.80566-2.70605,9.48242,1.09912,12.68066c21.81299,18.33398,49.54102,28.43066,78.07715,28.43066
		c66.94824,0,121.41455-54.4668,121.41455-121.41553C251.40088,62.01709,196.93457,7.55078,129.98633,7.55078z"/>
</g>
<path fill="#0E1C3D" d="M312.9278,143.63838v94.30933c0,5.40997-4.38565,9.79562-9.79562,9.79562l0,0
	c-5.41,0-9.79562-4.38565-9.79562-9.79562V18.74155c0-3.7928,3.07465-6.86748,6.86746-6.86748h76.49326
	c46.09894,0,74.14096,23.04884,74.14096,66.07411c0,38.41599-22.66495,60.31189-59.92676,64.92241l61.15463,90.24484
	c4.21674,6.22255-0.24084,14.6279-7.75757,14.6279l0,0c-3.12195,0-6.03885-1.55472-7.77942-4.14641l-67.13089-99.95854H312.9278z
	 M312.9278,126.35175h63.00168c36.11011,0,55.70139-18.05568,55.70139-48.40357c0-31.11569-19.59128-48.40233-55.70139-48.40233
	H312.9278V126.35175z"/>
<path fill="#0E1C3D" d="M660.58246,182.82217c0,41.48842-28.81232,64.92116-76.83075,64.92116h-72.65176
	c-3.79282,0-6.86749-3.07468-6.86749-6.86748V18.74155c0-3.7928,3.07468-6.86748,6.86749-6.86748h65.35275
	c48.40356,0,75.29388,21.89715,75.29388,61.08094c0,31.11569-18.43958,46.48159-38.79865,52.6277
	C642.14288,130.57712,660.58246,154.39502,660.58246,182.82217z M576.4527,117.89976
	c36.11011,0,56.08649-14.59685,56.08649-44.17695s-19.97638-44.17696-56.08649-44.17696h-53.01288v88.3539H576.4527z
	 M523.43982,230.0728h61.46484c36.87793,0,56.08527-18.82347,56.08527-47.63577c0-28.81105-19.20734-47.63454-56.08527-47.63454
	h-61.46484V230.0728z"/>
<path fill="#0E1C3D" d="M714.93518,247.74333L714.93518,247.74333c-5.40997,0-9.79559-4.38565-9.79559-9.79562V21.6697
	c0-5.40997,4.38562-9.79562,9.79559-9.79562l0,0c5.40997,0,9.79565,4.38565,9.79565,9.79562v216.27802
	C724.73083,243.35768,720.34515,247.74333,714.93518,247.74333z"/>
<path fill="#0E1C3D" d="M776.01361,11.87407h174.02057c4.9859,0,9.02783,4.0419,9.02783,9.02783v0.00002
	c0,4.98593-4.04193,9.02783-9.02783,9.02783h-77.40662V238.7155c0,4.98595-4.04187,9.02783-9.02783,9.02783h-1.53558
	c-4.98596,0-9.02783-4.04189-9.02783-9.02783V29.92975h-77.02271c-4.9859,0-9.02783-4.0419-9.02783-9.02783V20.9019
	C766.98578,15.91597,771.02771,11.87407,776.01361,11.87407z"/>
</svg>
