<?xml version="1.0" encoding="UTF-8"?>
<svg width="128px" height="72px" viewBox="0 0 128 72" version="1.1" xmlns="http://www.w3.org/2000/svg" xmlns:xlink="http://www.w3.org/1999/xlink">
    <g id="Page-1" stroke="none" stroke-width="1" fill="none" fill-rule="evenodd">
        <g id="Group-2" transform="translate(-3.000000, 0.000000)">
            <path d="M121.347014,37.6802018 C111.361412,44.9565047 98.3226168,47.7695685 75.4373163,51.4572092 C40.6505381,57.0626038 9.66523206,55.7719621 6.56851489,47.7449964 C3.47179773,39.7180306 27.6860907,26.8451966 62.4728689,21.239802 C77.0387861,18.8927116 80.6374484,18.8009512 85.2780788,18.3942819 C89.9187093,17.9876126 77.4726073,17.3438758 62.5020244,19.7561724 C25.5801949,25.7056001 -1.55938987,38.2083088 2.38013038,48.419895 C6.31965063,58.6314811 38.4198657,63.3315385 75.3416952,57.3821108 C98.9845491,53.5724011 117.084086,47.0850023 126.385587,38.0857061 C135.687088,29.0864099 130.670621,24.7216632 130.475564,26.0444458 C130.280507,27.3672284 131.332616,30.4038989 121.347014,37.6802018 Z" id="Path" fill="#0E1C3D" fill-rule="nonzero" transform="translate(67.000000, 39.000000) rotate(-6.000000) translate(-67.000000, -39.000000) "></path>
            <circle id="Oval-Copy-2" stroke="#FFFFFF" stroke-width="2" fill="#2096FF" cx="43" cy="24" r="11"></circle>
            <circle id="Oval" stroke="#FFFFFF" stroke-width="2" fill="#2BCCB7" cx="73" cy="55" r="16"></circle>
            <circle id="Oval-Copy-3" fill="#FA9016" cx="107" cy="14" r="14"></circle>
        </g>
    </g>
</svg>