<svg xmlns="http://www.w3.org/2000/svg" viewBox="0 0 240 240"><g fill="#0E1C3D"><circle cx="119.857" cy="121.436" r="38.248"/><path d="M21.455 143.992a8.998 8.998 0 0 0-10.893-6.584 9 9 0 0 0-6.584 10.893 117.222 117.222 0 0 0 11.835 29.735 8.997 8.997 0 0 0 12.268 3.393 9 9 0 0 0 3.392-12.268 99.219 99.219 0 0 1-10.018-25.169z"/><path d="M118.42 2.136c-27.027 0-52.785 9.17-73.472 25.696a25.694 25.694 0 0 0-9.35-1.762C21.388 26.07 9.87 37.588 9.87 51.796c0 14.208 11.518 25.726 25.726 25.726s25.726-11.518 25.726-25.726a25.699 25.699 0 0 0-2.815-11.7c17.114-12.858 38.022-19.96 59.913-19.96 55.066 0 99.864 44.799 99.864 99.864s-44.798 99.864-99.864 99.864c-23.472 0-46.277-8.302-64.213-23.378a9 9 0 0 0-11.582 13.78c21.175 17.796 48.093 27.598 75.795 27.598 64.99 0 117.864-52.874 117.864-117.864 0-64.99-52.874-117.864-117.864-117.864z"/></g></svg>