<svg width="24" height="22" xmlns="http://www.w3.org/2000/svg"><g fill-rule="evenodd"><rect x="4" y="9" width="4" height="3" rx="1"/><rect x="4" y="14" width="4" height="3" rx="1"/><rect x="10" y="9" width="4" height="3" rx="1"/><rect x="10" y="14" width="4" height="3" rx="1"/><rect x="16" y="9" width="4" height="3" rx="1"/><rect x="16" y="14" width="4" height="3" rx="1"/><path d="M20 4a1 1 0 0 1 0-2h1a3 3 0 0 1 3 3v14a3 3 0 0 1-3 3H3a3 3 0 0 1-3-3V5a3 3 0 0 1 3-3h1a1 1 0 1 1 0 2H3a1 1 0 0 0-1 1v14a1 1 0 0 0 1 1h18a1 1 0 0 0 1-1V5a1 1 0 0 0-1-1h-1zM10 4a1 1 0 1 1 0-2h4.003a1 1 0 1 1 0 2H10z" fill-rule="nonzero"/><rect x="6" width="2" height="6" rx="1"/><rect x="16" width="2" height="6" rx="1"/></g></svg>
