<svg width="40px" height="43px" viewBox="0 0 40 43" version="1.1" xmlns="http://www.w3.org/2000/svg" xmlns:xlink="http://www.w3.org/1999/xlink">
    <g id="Activity---MVP-Iteration-1" stroke="none" stroke-width="1" fill="none" fill-rule="evenodd">
        <g id="Calendar-Components---Presets-White" transform="translate(-364.000000, -1046.000000)">
            <g id="Calendar----Hover-Copy-3" transform="translate(293.000000, 998.000000)">
                <g id="Calendar-Lightning-icon" transform="translate(71.000000, 47.000000)">
                    <path d="M29.0634976,43.0593314 C29.1717186,43.1026198 29.2799397,43.124264 29.3881607,43.124264 C29.6695354,43.124264 29.9509101,42.9943988 30.1240637,42.7346683 L39.4094283,29.3152603 C39.6042262,29.0555298 39.6258704,28.6875783 39.4743609,28.4062036 C39.3228515,28.1248289 39.0198326,27.9300311 38.6951695,27.9300311 L32.9378106,27.8867427 L34.6044145,19.0559064 C34.6909913,18.6663107 34.4745492,18.2550708 34.1065977,18.0819171 C33.7386462,17.9087635 33.3057621,18.0169845 33.0460316,18.3416476 L23.1979176,30.7437779 C22.9814756,31.0035084 22.9381872,31.3714599 23.0896966,31.6744788 C23.2412061,31.9774977 23.5442249,32.1722956 23.8905323,32.1722956 L30.253929,32.215584 L28.5440366,42.0853421 C28.4574598,42.4965821 28.6739019,42.907822 29.0634976,43.0593314 L29.0634976,43.0593314 Z M25.7086456,30.4191148 L32.2019075,22.2376048 L30.989832,28.6226457 C30.9465436,28.8823762 31.0114762,29.1421067 31.1846298,29.3585487 C31.3577835,29.5533466 31.5958698,29.6832118 31.8556002,29.6832118 L36.9852772,29.704856 L30.9465436,38.4491154 L32.1369749,31.479681 C32.1802633,31.2199505 32.1153307,30.96022 31.9421771,30.7654221 C31.7906676,30.5706243 31.5525814,30.4624032 31.2928509,30.4624032 L25.7086456,30.4191148 L25.7086456,30.4191148 Z" id="Shape" fill="#5B7083"></path>
                    <g id="Icon/Small/Calendar/Default">
                        <rect id="Rectangle" x="0" y="0" width="32" height="32"></rect>
                        <rect id="Rectangle" fill="#5B7083" x="5.33333333" y="13.3333333" width="5.33333333" height="4" rx="1"></rect>
                        <rect id="Rectangle-Copy-4" fill="#5B7083" x="5.33333333" y="20" width="5.33333333" height="4" rx="1"></rect>
                        <rect id="Rectangle-Copy" fill="#5B7083" x="13.3333333" y="13.3333333" width="5.33333333" height="4" rx="1"></rect>
                        <rect id="Rectangle-Copy-5" fill="#5B7083" x="13.3333333" y="20" width="5.33333333" height="4" rx="1"></rect>
                        <rect id="Rectangle-Copy-3" fill="#5B7083" x="21.3333333" y="13.3333333" width="5.33333333" height="4" rx="1"></rect>
                        <rect id="Rectangle-Copy-6" fill="#5B7083" x="21.3333333" y="20" width="5.33333333" height="4" rx="1"></rect>
                        <path d="M26.6666667,6.58333333 C25.9763107,6.58333333 25.4166667,6.02368927 25.4166667,5.33333333 C25.4166667,4.6429774 25.9763107,4.08333333 26.6666667,4.08333333 L28,4.08333333 C30.1631153,4.08333333 31.9166667,5.83688473 31.9166667,8 L31.9166667,14.963501 C31.9166667,15.6538569 31.3570226,16.213501 30.6666667,16.213501 C29.9763107,16.213501 29.4166667,15.6538569 29.4166667,14.963501 L29.4166667,8 C29.4166667,7.2175966 28.7824034,6.58333333 28,6.58333333 L26.6666667,6.58333333 Z M19.0155029,28.0833333 C19.7058589,28.0833333 20.2655029,28.6429774 20.2655029,29.3333333 C20.2655029,30.0236893 19.7058589,30.5833333 19.0155029,30.5833333 L4,30.5833333 C1.83688473,30.5833333 0.0833333333,28.8297819 0.0833333333,26.6666667 L0.0833333333,8 C0.0833333333,5.83688473 1.83688473,4.08333333 4,4.08333333 L5.33333333,4.08333333 C6.02368927,4.08333333 6.58333333,4.6429774 6.58333333,5.33333333 C6.58333333,6.02368927 6.02368927,6.58333333 5.33333333,6.58333333 L4,6.58333333 C3.2175966,6.58333333 2.58333333,7.2175966 2.58333333,8 L2.58333333,26.6666667 C2.58333333,27.4490701 3.2175966,28.0833333 4,28.0833333 L19.0155029,28.0833333 Z M13.3333333,6.58333333 C12.6429774,6.58333333 12.0833333,6.02368927 12.0833333,5.33333333 C12.0833333,4.6429774 12.6429774,4.08333333 13.3333333,4.08333333 L18.6704102,4.08333333 C19.3607661,4.08333333 19.9204102,4.6429774 19.9204102,5.33333333 C19.9204102,6.02368927 19.3607661,6.58333333 18.6704102,6.58333333 L13.3333333,6.58333333 Z" id="Shape" fill="#5B7083" fill-rule="nonzero"></path>
                        <rect id="Rectangle" fill="#5B7083" x="8" y="1.33333333" width="2.66666667" height="8" rx="1"></rect>
                        <rect id="Rectangle-Copy-2" fill="#5B7083" x="21.3333333" y="1.33333333" width="2.66666667" height="8" rx="1"></rect>
                    </g>
                </g>
            </g>
        </g>
    </g>
</svg>
